<svg width="61" height="61" viewBox="0 0 61 61" fill="none" xmlns="http://www.w3.org/2000/svg">
<circle cx="30.7995" cy="30.2908" r="29.9122" fill="#7053BF"/>
<path d="M38.1744 40.2908H22.9994L27.6744 35.4408C28.9078 34.1574 29.8744 33.0741 30.5744 32.1908C31.2744 31.2908 31.7911 30.5324 32.1244 29.9158C32.4744 29.2991 32.6911 28.7991 32.7744 28.4158C32.8578 28.0324 32.8994 27.7074 32.8994 27.4408C32.8994 27.1574 32.8494 26.8824 32.7494 26.6158C32.6661 26.3491 32.5328 26.1158 32.3494 25.9158C32.1661 25.6991 31.9411 25.5324 31.6744 25.4158C31.4244 25.2824 31.1244 25.2158 30.7744 25.2158C30.1078 25.2158 29.5828 25.4324 29.1994 25.8658C28.8328 26.2991 28.6494 26.8408 28.6494 27.4908C28.6494 27.6741 28.6744 27.9408 28.7244 28.2908H23.3744C23.3744 27.1908 23.5494 26.1908 23.8994 25.2908C24.2661 24.3908 24.7744 23.6158 25.4244 22.9658C26.0744 22.3158 26.8411 21.8158 27.7244 21.4658C28.6244 21.1158 29.6078 20.9408 30.6744 20.9408C31.7244 20.9408 32.6911 21.1074 33.5744 21.4408C34.4744 21.7741 35.2494 22.2408 35.8994 22.8408C36.5494 23.4408 37.0578 24.1574 37.4244 24.9908C37.7911 25.8074 37.9744 26.6991 37.9744 27.6658C37.9744 28.6991 37.7494 29.6574 37.2994 30.5408C36.8661 31.4074 36.1661 32.2991 35.1994 33.2158L32.0744 36.1408H38.1744V40.2908Z" fill="white"/>
</svg>
