<svg width="60" height="61" viewBox="0 0 60 61" fill="none" xmlns="http://www.w3.org/2000/svg">
<circle cx="29.9684" cy="30.1326" r="29.9122" fill="#7053BF"/>
<path d="M28.9433 28.6325C29.0766 28.6492 29.1849 28.6575 29.2683 28.6575C29.3683 28.6575 29.4516 28.6575 29.5183 28.6575C30.1349 28.6575 30.6349 28.4742 31.0183 28.1075C31.4016 27.7408 31.5933 27.2658 31.5933 26.6825C31.5933 26.1158 31.4099 25.6575 31.0433 25.3075C30.6933 24.9575 30.2349 24.7825 29.6683 24.7825C29.0683 24.7825 28.5849 24.9825 28.2183 25.3825C27.8516 25.7825 27.6683 26.2992 27.6683 26.9325H23.1433C23.2599 25.9492 23.5016 25.0742 23.8683 24.3075C24.2516 23.5408 24.7349 22.8992 25.3183 22.3825C25.9016 21.8492 26.5849 21.4492 27.3683 21.1825C28.1516 20.8992 29.0183 20.7575 29.9683 20.7575C30.9016 20.7575 31.7433 20.8908 32.4933 21.1575C33.2599 21.4075 33.9099 21.7742 34.4433 22.2575C34.9933 22.7242 35.4099 23.2992 35.6933 23.9825C35.9933 24.6492 36.1433 25.3992 36.1433 26.2325C36.1433 27.1325 35.9683 27.8742 35.6183 28.4575C35.2849 29.0242 34.8016 29.5158 34.1683 29.9325C35.1349 30.2325 35.8849 30.7742 36.4183 31.5575C36.9683 32.3242 37.2433 33.2742 37.2433 34.4075C37.2433 35.3408 37.0599 36.1908 36.6933 36.9575C36.3266 37.7242 35.8099 38.3825 35.1433 38.9325C34.4933 39.4825 33.7099 39.9075 32.7933 40.2075C31.8933 40.5075 30.9016 40.6575 29.8183 40.6575C28.3683 40.6575 27.0599 40.3742 25.8933 39.8075C24.7266 39.2408 23.7933 38.3408 23.0933 37.1075C22.7766 36.5575 22.5599 36.0075 22.4433 35.4575C22.3433 34.9075 22.2933 34.3492 22.2933 33.7825H27.1433C27.1766 34.6658 27.4349 35.3408 27.9183 35.8075C28.4016 36.2575 29.0516 36.4825 29.8683 36.4825C30.7349 36.4825 31.3683 36.2492 31.7683 35.7825C32.1683 35.3158 32.3683 34.7408 32.3683 34.0575C32.3683 33.2408 32.1266 32.6242 31.6433 32.2075C31.1599 31.7908 30.5849 31.5825 29.9183 31.5825C29.7516 31.5825 29.5933 31.5992 29.4433 31.6325C29.2933 31.6492 29.1266 31.6742 28.9433 31.7075V28.6325Z" fill="white"/>
</svg>
