<svg width="75" height="76" viewBox="0 0 75 76" fill="none" xmlns="http://www.w3.org/2000/svg">
<path d="M1.444 68.0055C-0.313363 69.7629 -0.313363 72.6121 1.444 74.3695C3.20136 76.1268 6.0506 76.1268 7.80796 74.3695L1.444 68.0055ZM74.8735 5.43994C74.8735 2.95466 72.8588 0.93994 70.3735 0.939936L29.8735 0.939937C27.3883 0.939939 25.3735 2.95466 25.3735 5.43994C25.3735 7.92522 27.3883 9.93994 29.8735 9.93994H65.8735V45.9399C65.8735 48.4252 67.8883 50.4399 70.3735 50.4399C72.8588 50.4399 74.8735 48.4252 74.8735 45.9399L74.8735 5.43994ZM7.80796 74.3695L73.5555 8.62192L67.1916 2.25796L1.444 68.0055L7.80796 74.3695Z" fill="#F17FB2"/>
</svg>
