<svg width="67" height="67" viewBox="0 0 67 67" fill="none" xmlns="http://www.w3.org/2000/svg">
<path d="M53.7799 29.7402L53.487 29.4473H53.0728H35.1978C32.725 29.4473 30.6978 27.42 30.6978 24.9473V15.3223C30.6978 12.8496 32.725 10.8223 35.1978 10.8223H55.8228C58.2955 10.8223 60.3228 12.8496 60.3228 15.3223V36.2831L53.7799 29.7402Z" fill="#1565C0" stroke="black" stroke-width="2"/>
<path d="M14.5728 25.3223H14.1585L13.8656 25.6152L7.32275 32.1581V11.1973C7.32275 8.72455 9.35004 6.69727 11.8228 6.69727H32.4478C34.9205 6.69727 36.9478 8.72455 36.9478 11.1973V20.8223C36.9478 23.295 34.9205 25.3223 32.4478 25.3223H14.5728Z" fill="#2196F3" stroke="black" stroke-width="2"/>
<path d="M23.1978 42.8223C23.1978 46.0669 20.5674 48.6973 17.3228 48.6973C14.0781 48.6973 11.4478 46.0669 11.4478 42.8223C11.4478 39.5776 14.0781 36.9473 17.3228 36.9473C20.5674 36.9473 23.1978 39.5776 23.1978 42.8223Z" fill="#FFA726" stroke="black" stroke-width="2"/>
<path d="M56.1978 42.8223C56.1978 46.0669 53.5674 48.6973 50.3228 48.6973C47.0781 48.6973 44.4478 46.0669 44.4478 42.8223C44.4478 39.5776 47.0781 36.9473 50.3228 36.9473C53.5674 36.9473 56.1978 39.5776 56.1978 42.8223Z" fill="#FFA726" stroke="black" stroke-width="2"/>
<path d="M27.3228 59.6973H7.32275V58.2316C7.4065 58.105 7.53267 57.9251 7.70407 57.7086C8.0719 57.244 8.64464 56.6152 9.44927 55.9841C11.0482 54.7301 13.5853 53.4473 17.3228 53.4473C21.0602 53.4473 23.5973 54.7301 25.1962 55.9841C26.0009 56.6152 26.5736 57.244 26.9414 57.7086C27.1128 57.9251 27.239 58.105 27.3228 58.2316V59.6973Z" fill="#607D8B" stroke="black" stroke-width="2"/>
<path d="M60.3228 59.6973H40.3228V58.2316C40.4065 58.105 40.5327 57.9251 40.7041 57.7086C41.0719 57.244 41.6446 56.6152 42.4493 55.9841C44.0482 54.7301 46.5853 53.4473 50.3228 53.4473C54.0602 53.4473 56.5973 54.7301 58.1962 55.9841C59.0009 56.6152 59.5736 57.244 59.9414 57.7086C60.1128 57.9251 60.239 58.105 60.3228 58.2316V59.6973Z" fill="#607D8B" stroke="black" stroke-width="2"/>
</svg>
