<svg width="67" height="66" viewBox="0 0 67 66" fill="none" xmlns="http://www.w3.org/2000/svg">
<g clip-path="url(#clip0_87_24)">
<path d="M2.37262 42.0988V46.3635L16.1101 49.8929L19.0965 44.2311L16.1101 38.5693L2.37262 42.0988Z" fill="#FF4181"/>
<path d="M16.1102 37.4668V50.9962H23.5683L26.5546 44.2315L23.5683 37.4668H16.1102Z" fill="#FF80AB"/>
<path d="M65.386 37.4668H57.9279L54.9415 44.2315L57.9279 50.9962H65.386V37.4668Z" fill="#FF80AB"/>
<path d="M57.9274 37.4668H23.5687V50.9962H57.9274V37.4668Z" fill="#FF4181"/>
<path d="M65.386 24.0108V19.7462L51.6485 16.2168L48.6622 21.8785L51.6485 27.5402L65.386 24.0108Z" fill="#85C250"/>
<path d="M51.6485 28.6427V15.1133H44.1903L41.204 21.878L44.1903 28.6427H51.6485Z" fill="#C9D467"/>
<path d="M2.37262 28.6427H9.83073L12.8171 21.878L9.83073 15.1133H2.37262V28.6427Z" fill="#C9D467"/>
<path d="M44.1895 15.1133H9.83075V28.6427H44.1895V15.1133Z" fill="#85C250"/>
<path d="M65.7668 18.4928L53.1888 15.2258C53.1378 14.4594 52.4918 13.8525 51.7005 13.8525H2.37264C1.54803 13.8525 0.879395 14.511 0.879395 15.3232V28.7272C0.879395 29.5393 1.54803 30.1979 2.37264 30.1979H51.7006C52.4918 30.1979 53.1376 29.5913 53.1889 28.8246L65.7669 25.5576C66.4226 25.3875 66.8794 24.8035 66.8794 24.1357V19.9147C66.8793 19.2469 66.4223 18.663 65.7668 18.4928ZM42.8383 16.7938V27.2567H11.2349V16.7938H42.8383ZM3.86576 16.7938H8.24844V27.2567H3.86576V16.7938ZM63.8929 23.0028L53.194 25.7818V22.5807C53.194 21.7686 52.5253 21.1101 51.7007 21.1101C50.8761 21.1101 50.2075 21.7686 50.2075 22.5807V27.2569H45.8248V16.7939H50.2075V18.1375C50.2075 18.9496 50.8761 19.6081 51.7007 19.6081C52.481 19.6081 53.1205 19.0185 53.1873 18.2672L63.893 21.048V23.0028H63.8929Z" fill="#01121C"/>
<path d="M65.386 35.9111H16.0581C15.2669 35.9111 14.621 36.5177 14.5699 37.2844L1.99185 40.5513C1.33637 40.7215 0.879395 41.3054 0.879395 41.9731V46.1942C0.879395 46.862 1.33637 47.4459 1.99185 47.6161L14.5699 50.8831C14.6209 51.6495 15.2669 52.2563 16.0581 52.2563H65.386C66.2106 52.2563 66.8793 51.5978 66.8793 50.7857V37.3816C66.8793 36.5695 66.2106 35.9111 65.386 35.9111ZM56.5237 38.8522V49.3152H24.9204V38.8522H56.5237ZM16.0581 44.5892C15.2335 44.5892 14.5648 45.2478 14.5648 46.0599V47.8401L3.86589 45.0611V43.1059L14.5648 40.3269V41.6164C14.5648 42.4285 15.2335 43.087 16.0581 43.087C16.8827 43.087 17.5513 42.4285 17.5513 41.6164V38.8521H21.934V49.3151H17.5513V46.0597C17.5512 45.2479 16.8827 44.5892 16.0581 44.5892ZM63.8929 49.3152H59.5102V38.8522H63.8929V49.3152Z" fill="#01121C"/>
</g>
<defs>
<clipPath id="clip0_87_24">
<rect width="66" height="65" fill="white" transform="translate(0.879395 0.554688)"/>
</clipPath>
</defs>
</svg>
