<svg width="84" height="70" viewBox="0 0 84 70" fill="none" xmlns="http://www.w3.org/2000/svg">
<path d="M83.4164 29.5664C82.6764 27.3464 80.3464 26.7364 78.3314 26.1764C73.2614 24.7664 67.9564 24.1464 62.6964 24.3514C61.8163 24.3864 60.9413 24.4514 60.0663 24.5314C59.5163 23.5714 58.9213 22.6414 58.2413 21.7764C57.0413 20.2614 55.4713 19.2414 53.8613 18.2064C52.2963 17.2014 50.7463 15.9964 49.0413 15.2364C47.2963 14.4614 45.5013 14.8214 43.6613 14.8864C43.1463 14.9064 42.6313 14.9264 42.1263 14.9614C41.9563 14.8014 41.7163 14.7064 41.4313 14.7514C37.9063 15.2964 34.4913 16.4514 31.3563 18.1614C28.3313 19.8114 25.2313 22.0014 23.3013 24.9064C21.5663 27.5164 20.5313 30.6864 20.0013 33.8014C15.3013 35.3064 10.8163 37.4864 6.77126 40.3215C3.45626 42.6465 0.101249 45.9365 0.81625 50.3615C1.11625 52.2365 2.23625 53.8965 4.00126 54.6665C6.21126 55.6265 8.88126 55.3315 11.2313 55.3515C16.7363 55.3915 22.2463 55.4865 27.7513 55.3865C27.9513 55.3865 28.1563 55.3765 28.3563 55.3715C30.6363 56.8715 33.2263 57.9265 35.8113 58.7465C39.1863 59.8115 42.8063 60.4065 46.3413 59.9715C49.7563 59.5515 52.8363 58.1565 55.4313 55.9015C57.4713 54.1265 59.1813 51.9265 60.6263 49.6115C64.3614 48.1065 67.9814 46.3115 71.4264 44.2265C73.5014 42.9715 75.5214 41.6165 77.4564 40.1565C79.2214 38.8265 80.9264 37.3815 82.1564 35.5264C83.2764 33.8414 84.0864 31.5664 83.4164 29.5564V29.5664ZM5.26626 52.2115C3.14126 51.1265 2.82625 48.6215 3.81125 46.6115C4.84126 44.5115 6.90126 42.9665 8.77626 41.6615C12.0763 39.3665 15.7713 37.7315 19.6563 36.7865C19.4713 39.8815 19.8713 43.0315 20.9713 45.9365C21.9313 48.4765 23.3713 50.8515 25.2563 52.8115C22.6763 52.9415 20.0913 53.0215 17.5063 53.0515C15.2463 53.0765 12.9863 53.0665 10.7263 53.0315C8.92126 53.0015 6.91626 53.0565 5.26626 52.2115ZM62.2663 34.6714C62.4114 35.4715 62.5064 36.2865 62.5514 37.1015C62.4764 37.0265 62.3863 36.9664 62.2813 36.9314C62.0313 33.8814 61.2813 30.8714 60.0413 28.0364C59.7963 27.4764 59.5263 26.9014 59.2363 26.3314C60.6463 28.9514 61.7364 31.7414 62.2614 34.6764L62.2663 34.6714ZM58.8513 45.0015C58.8513 45.0015 58.8413 45.0115 58.8363 45.0215C59.1463 44.2515 59.4263 43.4765 59.6813 42.6865C59.6313 43.1415 59.5614 43.5965 59.4764 44.0465C59.2714 44.3715 59.0614 44.6915 58.8513 45.0015ZM33.9163 22.0464C34.4713 21.6864 35.0463 21.3514 35.6413 21.0714C35.7513 21.3014 35.9663 21.4764 36.2463 21.5014C35.8013 22.2914 35.3563 23.0814 34.9113 23.8664C34.6813 24.0264 34.4513 24.1914 34.2163 24.3514C33.5713 24.7914 32.9263 25.2214 32.2763 25.6414C32.1813 25.4964 32.0813 25.3564 31.9613 25.2214C31.9113 25.1664 31.8463 25.1264 31.7813 25.0864C32.1663 24.1664 32.6763 23.2864 33.2763 22.4964C33.2863 22.4864 33.2963 22.4764 33.3013 22.4614C33.5063 22.3214 33.7113 22.1764 33.9163 22.0414V22.0464ZM54.1263 50.2115C54.0363 50.2365 53.9513 50.2665 53.8613 50.2915C53.8963 50.2065 53.9363 50.1215 53.9713 50.0365C54.0813 50.0065 54.1913 49.9715 54.3013 49.9415C54.2463 50.0315 54.1813 50.1215 54.1213 50.2115H54.1263ZM52.2613 22.7514C52.3313 22.8914 52.4013 23.0314 52.4713 23.1714C52.0563 22.9914 51.6363 22.8164 51.2113 22.6464C51.4163 22.6914 51.6263 22.7364 51.8313 22.7814C51.9713 22.8114 52.1213 22.7964 52.2613 22.7464V22.7514ZM28.0363 49.1665C28.0363 49.1665 28.0613 49.2065 28.0713 49.2315C27.7713 49.0965 27.4763 48.7765 27.2263 48.5265C27.2813 48.5415 27.3363 48.5615 27.3913 48.5615C27.4563 48.5615 27.5163 48.5615 27.5763 48.5515C27.7413 48.7465 27.8963 48.9515 28.0313 49.1665H28.0363ZM38.1613 21.5414C38.1013 21.5864 38.0463 21.6264 37.9863 21.6714C38.0113 21.6264 38.0363 21.5814 38.0563 21.5414C38.0913 21.5414 38.1213 21.5414 38.1563 21.5414H38.1613ZM52.9313 25.1114C53.1613 25.2364 53.3863 25.3664 53.6063 25.4964C53.7813 25.8614 53.9563 26.2314 54.1263 26.6014C54.3163 27.7364 54.5063 28.8664 54.6963 30.0014C54.5113 29.8864 54.3113 29.8114 54.1113 29.7864C53.8613 28.8314 53.4063 27.9064 52.8913 27.1114C52.6513 26.7464 52.3913 26.3914 52.1213 26.0464C52.3213 25.6064 52.5813 25.2264 52.9313 25.1114ZM52.7213 40.6165C52.5963 40.9215 52.4663 41.2265 52.3363 41.5265C51.9613 42.3765 51.5713 43.2215 51.1813 44.0615C51.2863 43.7115 51.3913 43.3665 51.4963 43.0165C52.5313 39.6765 53.5913 36.3464 54.6463 33.0114C54.7063 33.2364 54.7713 33.4564 54.8213 33.6864C54.6913 34.5364 54.5063 35.3814 54.2813 36.2064C54.0813 36.9314 53.8513 37.6415 53.6013 38.3515C53.2963 39.1015 53.0063 39.8565 52.7263 40.6165H52.7213ZM34.5813 28.8664C36.4263 26.4514 38.4513 24.1714 40.6113 22.0314C40.9163 22.2114 41.2313 22.3814 41.5463 22.5414C38.6863 25.1614 36.0913 28.0414 33.6213 31.0314C33.6813 30.7264 33.7463 30.4214 33.8063 30.1164C33.8713 29.9614 33.9363 29.8114 34.0013 29.6614C34.1963 29.3964 34.3813 29.1264 34.5813 28.8664ZM45.8413 43.3465C46.0763 42.7415 46.3163 42.1365 46.5513 41.5365C46.6363 41.3165 46.6213 41.1315 46.5463 40.9815C46.7913 40.1965 47.0513 39.4165 47.3163 38.6415C47.3413 38.6014 47.3663 38.5564 47.3913 38.5165C47.3913 38.5165 47.3913 38.5165 47.3913 38.5215C47.2263 39.5715 46.9063 40.7765 47.1863 41.8315L45.0263 47.9365C44.8563 48.4115 44.6913 48.8865 44.5213 49.3615C44.5463 49.1915 44.5663 49.0215 44.5913 48.8565C44.9013 46.9965 45.3313 45.1615 45.8363 43.3465H45.8413ZM29.4313 39.2215C29.4213 39.1215 29.4113 39.0215 29.4013 38.9215C29.4363 38.8715 29.4763 38.8265 29.5113 38.7765C29.4863 38.9265 29.4563 39.0765 29.4313 39.2315C29.4313 39.2315 29.4313 39.2265 29.4313 39.2215ZM41.8363 40.6815C41.8613 40.5115 41.8913 40.3465 41.9213 40.1765C42.0863 39.7415 42.2513 39.3065 42.4263 38.8765C42.2113 39.6165 41.9963 40.3615 41.7763 41.1015C41.7963 40.9615 41.8113 40.8215 41.8363 40.6815ZM44.1463 31.3864C43.9063 31.8664 43.6713 32.3464 43.4363 32.8264C43.5063 32.5464 43.5763 32.2664 43.6463 31.9864C43.7013 31.7764 43.6613 31.5814 43.5663 31.4164C44.1363 30.5514 44.7213 29.6964 45.3413 28.8664C45.3113 28.9714 45.2813 29.0714 45.2513 29.1764C44.8813 29.9164 44.5113 30.6514 44.1413 31.3914L44.1463 31.3864ZM41.9013 28.4314C42.0713 28.0514 42.2413 27.6764 42.4063 27.2964C42.5263 27.1814 42.6513 27.0664 42.7763 26.9514C42.4963 27.4514 42.2013 27.9414 41.9013 28.4314ZM37.0713 43.2615C37.3813 42.4915 37.7313 41.7365 38.1413 41.0115C38.2263 40.8615 38.3263 40.7165 38.4163 40.5665C38.0913 42.5065 37.8163 44.4615 36.9363 46.2065C36.8913 46.1765 36.8413 46.1515 36.7963 46.1215C36.8663 45.1665 36.9613 44.2115 37.0713 43.2565V43.2615ZM49.5213 36.8415C49.3563 37.4315 49.1763 38.0165 48.9813 38.5965C49.0013 38.4615 49.0213 38.3315 49.0413 38.1965C49.2413 37.0064 49.4663 35.8164 49.7213 34.6364C49.7313 34.5864 49.7463 34.5364 49.7563 34.4814C49.6913 35.2664 49.6113 36.0514 49.5213 36.8364V36.8415ZM43.3763 24.3114C43.4913 24.1314 43.6013 23.9514 43.7163 23.7714C43.8213 23.8464 43.9313 23.9114 44.0363 23.9914C43.8013 24.0564 43.5863 24.1664 43.3763 24.3114ZM36.6963 47.9515C36.7363 47.9765 36.7763 48.0015 36.8113 48.0315C36.9613 48.1365 37.1363 48.1615 37.3013 48.1315C37.2163 48.3515 37.1313 48.5715 37.0363 48.7865C36.9213 49.0565 36.7913 49.3565 36.6563 49.6665C36.6563 49.0965 36.6663 48.5215 36.6913 47.9515H36.6963ZM38.7563 28.7664C38.4813 29.0664 38.2113 29.3714 37.9413 29.6814C38.1613 29.2014 38.3413 28.7064 38.4313 28.1814C38.4463 28.0814 38.4513 27.9914 38.4413 27.9064C39.2013 27.0864 39.9763 26.2814 40.7713 25.4964C40.0913 26.5864 39.4213 27.6764 38.7563 28.7714V28.7664ZM33.9263 37.5564C33.3463 38.7915 32.8213 40.0465 32.3863 41.3265C32.4413 40.8215 32.4913 40.3215 32.5363 39.8165C32.9813 39.0515 33.4463 38.2965 33.9263 37.5564ZM51.7813 28.9414C51.7213 29.1464 51.6663 29.3464 51.6063 29.5514C51.6213 29.0864 51.6463 28.6064 51.6563 28.1214C51.7613 28.2864 51.8563 28.4564 51.9463 28.6264C51.8763 28.7064 51.8163 28.8114 51.7813 28.9364V28.9414ZM45.8513 34.1564C46.2363 33.1114 46.6313 32.0764 47.0513 31.0414C47.3863 30.2164 47.7313 29.3864 48.1213 28.5814C48.2813 28.8064 48.4413 29.0314 48.6013 29.2614C47.5713 30.8264 46.6713 32.4714 45.8563 34.1564H45.8513ZM48.5663 24.7714C48.5663 24.7714 48.5863 24.7864 48.5913 24.7914C48.5813 24.8014 48.5713 24.8114 48.5613 24.8214C48.5613 24.8014 48.5613 24.7864 48.5613 24.7664L48.5663 24.7714ZM47.2163 24.1614C47.1163 24.2664 47.0213 24.3764 46.9213 24.4864C46.2513 23.7614 45.5163 23.0914 44.7063 22.5264C45.6813 22.9214 46.6163 23.4114 47.4913 23.9914C47.3913 24.0264 47.2963 24.0814 47.2163 24.1664V24.1614ZM49.9963 26.4964C50.0163 26.7014 50.0263 26.9114 50.0363 27.1214C50.0063 27.2014 49.9813 27.2814 49.9513 27.3664C49.9113 27.4014 49.8763 27.4364 49.8463 27.4764C49.7463 27.6114 49.6513 27.7464 49.5513 27.8814C49.3563 27.6014 49.1513 27.3264 48.9513 27.0464C49.1213 26.7764 49.3013 26.5064 49.4963 26.2514C49.5813 26.1364 49.6913 26.0314 49.7713 25.9114C49.7813 25.8964 49.7963 25.8814 49.8113 25.8664C49.8413 25.8964 49.8663 25.9214 49.8963 25.9514C49.9313 26.1514 49.9863 26.4114 49.9963 26.4914V26.4964ZM51.0613 24.7514C50.8463 24.4364 50.5713 24.1914 50.2463 24.0914C50.1313 23.9914 50.0163 23.8814 49.9013 23.7814C50.4013 23.9564 50.8963 24.1464 51.3813 24.3564C51.2663 24.4814 51.1613 24.6114 51.0663 24.7514H51.0613ZM30.4463 31.7914C30.3613 31.9414 30.2813 32.0864 30.1963 32.2364C30.1363 32.3264 30.0813 32.4164 30.0263 32.5064C30.3813 31.2064 30.8513 29.9364 31.3963 28.7064C31.4013 29.1764 31.4063 29.6464 31.3963 30.1114C31.0813 30.6714 30.7613 31.2314 30.4463 31.7914ZM27.7563 34.2964C27.7563 34.2964 27.7513 34.2714 27.7463 34.2614C27.7563 34.2214 27.7713 34.1814 27.7813 34.1414C27.7713 34.1914 27.7663 34.2465 27.7563 34.2964ZM34.3463 47.0265C34.3563 47.0515 34.3663 47.0765 34.3713 47.1015C34.2463 47.8865 34.1713 48.6765 34.1413 49.4665C33.8813 48.9865 33.7063 48.4765 33.6113 47.9515C33.8763 47.6865 34.1213 47.3615 34.3463 47.0265ZM32.9063 27.4314C32.8963 27.3414 32.8763 27.2514 32.8563 27.1614C32.9613 27.0914 33.0663 27.0214 33.1763 26.9514C33.0863 27.1114 32.9963 27.2714 32.9063 27.4314ZM31.7913 48.2365C31.8913 48.3215 31.9913 48.3815 32.0913 48.4315C32.2163 49.0615 32.4313 49.6815 32.7663 50.2715C33.1613 50.9665 33.6663 51.5815 34.2463 52.1265C33.9563 52.1565 33.6663 52.1815 33.3763 52.2115C32.8263 51.5915 32.4513 50.5065 32.2663 49.9715C32.0563 49.3815 31.8963 48.7865 31.7513 48.1815C31.7663 48.1965 31.7813 48.2215 31.7963 48.2365H31.7913ZM38.8163 53.1565C39.0363 53.1265 39.2513 53.0915 39.4713 53.0615C39.4713 53.0815 39.4713 53.1065 39.4713 53.1265C39.2513 53.1515 39.0263 53.1715 38.8063 53.1965C38.8063 53.1865 38.8163 53.1715 38.8213 53.1565H38.8163ZM49.1513 54.5265C49.2063 54.3865 49.2563 54.2465 49.3113 54.1065C49.6763 53.8065 50.0413 53.5015 50.3913 53.1815C50.3513 53.4915 50.3113 53.8015 50.2763 54.1165C49.8813 54.3115 49.4763 54.4915 49.0713 54.6665C49.1013 54.6215 49.1313 54.5815 49.1513 54.5265ZM55.2313 48.0265C55.3163 47.9115 55.3963 47.7915 55.4763 47.6715C55.4313 47.7765 55.3913 47.8865 55.3413 47.9915C55.3063 48.0015 55.2663 48.0165 55.2313 48.0265ZM54.7713 43.6115C54.2063 45.1665 53.6263 46.7215 53.0063 48.2565C52.9563 48.3115 52.9013 48.3665 52.8513 48.4215C53.4563 45.7765 54.2463 43.1765 55.1113 40.6015C55.0913 40.9115 55.0663 41.2165 55.0463 41.5215C55.0063 42.0465 54.9813 42.5915 54.9463 43.1465C54.8913 43.3015 54.8313 43.4615 54.7763 43.6165L54.7713 43.6115ZM53.0013 52.2065C53.1863 52.1565 53.3663 52.1015 53.5513 52.0515C53.5663 52.0815 53.5813 52.1065 53.5963 52.1315C53.3263 52.3065 53.0563 52.4765 52.7813 52.6515C52.8563 52.5015 52.9313 52.3565 53.0013 52.2065ZM56.2163 45.6615C56.3363 44.9865 56.4063 44.2965 56.4563 43.6115C56.7963 42.6715 57.1213 41.7265 57.4213 40.7765C57.2813 41.4465 57.1413 42.1165 56.9863 42.7815C56.7663 43.7515 56.5113 44.7165 56.2113 45.6615H56.2163ZM25.6263 30.7264C26.0963 29.9364 26.6163 29.1814 27.1663 28.4464C27.1313 28.5364 27.0963 28.6214 27.0613 28.7114C26.7263 29.5814 26.4163 30.4564 26.1263 31.3414C25.7163 31.8764 25.2813 32.3864 24.8113 32.8814C24.8763 32.4914 24.9613 32.1064 25.0613 31.7264C25.2463 31.3464 25.4713 30.9914 25.6263 30.7264ZM38.4163 54.8165C38.8563 55.0265 39.3013 55.2215 39.7513 55.4115C39.1363 55.2715 38.5263 55.0815 37.9413 54.8615C38.1013 54.8465 38.2613 54.8315 38.4163 54.8165ZM59.2613 33.9264C58.9913 34.3414 58.8113 34.8614 58.7013 35.2514C58.6913 35.2914 58.6813 35.3364 58.6663 35.3764C58.7013 35.1014 58.7413 34.8265 58.7663 34.5464C58.8013 34.1614 58.8263 33.7714 58.8363 33.3764C58.8463 33.3364 58.8614 33.3014 58.8663 33.2614C58.9114 32.7064 58.9163 32.1564 58.8913 31.6064C59.0263 32.3864 59.1413 33.1614 59.2564 33.9264H59.2613ZM47.2013 19.1414C45.8363 18.9764 44.4663 18.9564 43.1063 19.0614C42.9113 18.6214 42.2813 18.3364 41.7813 18.7364C41.6913 18.8114 41.6013 18.8814 41.5113 18.9514C40.3863 18.7664 39.2563 18.6714 38.1363 18.7664C39.2813 18.2914 40.4913 17.9964 41.7263 17.8864C42.9563 17.8514 44.1913 18.0414 45.4113 18.3264C45.7213 18.4264 46.0263 18.5314 46.3313 18.6464C46.8413 18.8364 47.3613 19.0314 47.8813 19.2314C47.6563 19.1964 47.4313 19.1664 47.2063 19.1414H47.2013ZM24.6063 35.0765C24.7313 35.0665 24.8513 35.0164 24.9613 34.9414C24.8363 35.3114 24.7263 35.6914 24.6213 36.0665C24.6063 35.7364 24.5963 35.4015 24.6063 35.0765ZM29.3313 51.7565C29.5263 51.6215 29.7013 51.4465 29.8263 51.2065C29.8363 51.1915 29.8413 51.1715 29.8463 51.1515C30.2313 51.5965 30.6363 52.0265 31.0613 52.4315C30.7513 52.4565 30.4413 52.4765 30.1313 52.5015C29.8613 52.2565 29.5963 52.0065 29.3313 51.7565ZM25.4163 26.7114C25.4313 26.6814 25.4463 26.6464 25.4613 26.6164C26.1263 25.3014 26.9663 24.0764 28.0313 23.0514C28.1663 22.9214 28.3113 22.8114 28.4513 22.6914C27.2763 23.9114 26.2513 25.2564 25.4163 26.7114ZM23.0413 35.8665C23.0713 37.0615 23.2213 38.2965 23.5463 39.4515C23.6313 39.7515 23.7463 40.0565 23.8963 40.3315C23.8613 40.8715 23.8413 41.4115 23.8463 41.9515C23.7963 42.4015 23.7663 42.8515 23.7613 43.3015C22.8363 40.9165 22.5713 38.3615 22.8963 35.7914C22.9163 35.7264 22.9213 35.6614 22.9213 35.5914C22.9613 35.2864 23.0063 34.9814 23.0513 34.6764C23.0363 35.0714 23.0263 35.4665 23.0363 35.8665H23.0413ZM23.8063 48.2315C22.2213 45.4815 21.4263 42.4465 21.2663 39.3615C21.3963 41.0365 21.7663 42.6865 22.4563 44.3115C22.8613 45.2665 23.3663 46.1715 23.9413 47.0265C23.9513 47.0815 23.9513 47.1315 23.9613 47.1865C24.1963 48.1565 24.8063 49.0815 25.4013 49.8665C26.1563 50.8565 27.0363 51.7815 27.9513 52.6615C27.7863 52.6715 27.6213 52.6815 27.4563 52.6915C26.0063 51.4215 24.7763 49.9165 23.8063 48.2315ZM34.7113 55.1115C34.9113 55.2215 35.1063 55.3315 35.3063 55.4315C35.9663 55.7615 36.6913 56.0815 37.4563 56.3615C37.4563 56.5415 37.5313 56.7315 37.7213 56.8915C37.7863 56.9465 37.8563 56.9965 37.9263 57.0465C36.8913 56.7715 35.8763 56.4315 34.9163 55.9715C34.4313 55.7365 33.9663 55.4715 33.5163 55.1865C33.9163 55.1665 34.3163 55.1365 34.7113 55.1115ZM46.3963 57.9265C46.5663 57.8665 46.7313 57.7915 46.8963 57.7215C47.2113 57.7765 47.5263 57.8365 47.8363 57.9115C47.1813 58.0565 46.5013 58.1115 45.8163 58.1165C46.0113 58.0565 46.2063 57.9915 46.3963 57.9215V57.9265ZM60.5313 46.2665C60.6213 45.9715 60.7063 45.6765 60.7813 45.3765C60.8913 45.4115 61.0113 45.4315 61.1263 45.4215C61.0163 45.6715 60.9013 45.9265 60.7813 46.1765C60.6963 46.2065 60.6163 46.2365 60.5313 46.2665ZM64.1564 37.1964C63.9564 33.4814 62.8164 29.8914 61.1663 26.5764C65.8414 26.0964 70.5764 26.2864 75.1864 27.2214C76.9614 27.5814 79.3014 27.8914 80.6714 29.2064C82.2114 30.6864 80.5014 33.0614 79.5514 34.4214C77.2364 37.7315 73.7564 40.0665 70.2464 41.9515C67.8514 43.2365 65.3714 44.3715 62.8414 45.3815C63.8564 42.7865 64.3114 40.0265 64.1614 37.1964H64.1564ZM46.6363 16.3114C48.4063 16.3364 49.8263 17.5014 51.2513 18.4164C52.7313 19.3664 54.3363 20.2464 55.6813 21.3864C56.3013 21.9114 56.8263 22.5164 57.3063 23.1614C56.6663 22.3264 55.9463 21.5714 55.1263 20.9664C53.9213 20.0764 52.5263 19.5264 51.1913 18.8764C49.7913 18.1964 48.4663 17.3714 47.0563 16.7114C46.7563 16.5714 46.4413 16.4414 46.1313 16.3214C46.3013 16.3164 46.4713 16.3064 46.6413 16.3114H46.6363Z" fill="#FFFEFE"/>
<path d="M64.0164 18.0167C65.0264 17.7167 65.6464 16.7767 66.0514 15.8617C66.4714 14.9067 66.6414 13.8417 66.1264 12.8867C65.6414 11.9917 64.6514 11.6117 63.6764 11.8017C63.0064 11.9317 62.4564 12.3317 62.0714 12.8617C61.6664 13.1067 61.3314 13.4717 61.1364 13.8817C60.6964 14.8017 60.8214 15.8767 61.3614 16.7317C61.9264 17.6317 62.9164 18.3467 64.0214 18.0167H64.0164Z" fill="#FFFEFE"/>
<path d="M44.6962 7.39108C45.8812 7.58108 47.0362 7.11608 47.8662 6.26607C48.7012 5.40607 49.2762 4.15107 49.1462 2.93607C49.0162 1.77106 48.2012 0.636065 46.9912 0.431064C46.3562 0.321064 45.7112 0.491062 45.1312 0.796063C44.4912 1.00106 43.9012 1.44106 43.4362 1.97607C42.6362 2.89107 42.0512 4.12107 42.3662 5.35607C42.6412 6.43107 43.6262 7.22108 44.7012 7.39608L44.6962 7.39108ZM47.0862 2.23107C47.0862 2.23107 47.0812 2.18107 47.0712 2.16107C47.0812 2.16607 47.0912 2.17107 47.0962 2.18107C47.1062 2.19107 47.1262 2.20606 47.1362 2.22106C47.1162 2.22606 47.1012 2.23106 47.0812 2.23606L47.0862 2.23107Z" fill="#FFFEFE"/>
<path d="M16.1064 62.9516C14.6964 62.5816 13.1714 63.3316 12.6114 64.6716C12.4514 65.0566 12.3664 65.4866 12.3714 65.9166C12.3364 66.1016 12.3114 66.2866 12.3164 66.4816C12.3164 67.1666 12.5764 67.8966 13.1014 68.3566C13.6464 68.8416 14.3914 69.0916 15.1214 69.0166C16.5564 68.8616 18.0264 67.7416 18.2414 66.2516C18.3464 65.5216 18.2164 64.7716 17.7864 64.1616C17.3814 63.5866 16.8064 63.1366 16.1164 62.9566L16.1064 62.9516ZM16.5714 66.3216C16.5714 66.3216 16.5714 66.3266 16.5664 66.3316C16.5664 66.3316 16.5664 66.3266 16.5714 66.3216Z" fill="#FFFEFE"/>
<path d="M11.3114 30.1365C11.9564 30.0165 12.5314 29.5415 12.7964 28.9415C13.1064 28.2415 13.1014 27.4965 12.7964 26.7965C12.6414 26.4465 12.3814 26.1365 12.0564 25.9265C11.6714 25.6815 11.1564 25.6365 10.7314 25.7865C10.3464 25.9215 10.0164 26.1565 9.72639 26.4415C9.59139 26.5765 9.47139 26.7265 9.37639 26.8915C9.14639 27.1315 8.98139 27.4315 8.89639 27.7465C8.71639 28.3965 8.87139 29.1265 9.36139 29.6065C9.88139 30.1165 10.6214 30.2665 11.3164 30.1415L11.3114 30.1365Z" fill="#FFFEFE"/>
</svg>
