<svg width="86" height="71" viewBox="0 0 86 71" fill="none" xmlns="http://www.w3.org/2000/svg">
<path d="M38.3154 34.1081C38.2354 33.9781 38.1454 33.8481 38.0654 33.7081C37.6354 33.0381 36.8754 32.4981 36.0454 32.5481C34.4354 32.6381 33.8854 33.3181 32.6054 34.1781C30.2654 35.7481 26.1454 34.5681 23.7654 33.8881C22.1154 33.4081 20.4354 34.4581 19.9554 36.0081C18.9354 35.2981 17.9454 34.5781 17.0054 33.7581C14.8054 31.8281 11.0754 33.6381 11.9454 36.7081C12.0954 37.2481 12.2354 37.7981 12.3654 38.3381C12.1954 38.1881 12.0254 38.0481 11.8654 37.8981C10.6754 36.8281 8.98542 36.7781 7.79542 37.8981C7.18542 38.4681 6.83542 38.9681 6.54542 39.5881C6.51542 39.5881 6.48542 39.5681 6.45542 39.5581C4.08542 38.9881 2.22542 41.9181 4.03542 43.7081C4.60542 44.2681 5.14543 44.7881 5.69543 45.2781C5.95543 45.6581 6.18542 46.0581 6.39542 46.3981C7.10542 47.5181 8.19542 47.8781 9.28542 47.6681C10.6154 48.2581 12.1454 46.9281 11.5754 45.7181C11.6254 45.4781 11.6454 45.2281 11.6454 44.9681C13.0454 45.8381 14.5454 46.5181 16.1154 46.7881C18.0854 47.1281 20.4754 45.5181 19.7154 43.2681C20.0654 43.5481 20.4154 43.8481 20.7554 44.1481C22.7254 45.9381 25.9954 44.7481 26.0254 41.9581C26.0254 41.5781 26.0254 41.1981 26.0254 40.8181C30.2854 41.4881 35.0354 41.2081 37.8254 37.8581C38.6954 36.8081 39.1054 35.3581 38.3054 34.1181L38.3154 34.1081Z" fill="#57C1EC"/>
<path d="M40.2755 41.9177C37.5655 39.9577 35.7255 41.7277 34.7255 44.0577C33.2255 43.7077 31.7655 43.6477 30.4855 44.8477C28.3455 44.3477 26.3255 46.8077 26.9555 48.8377C27.2055 49.6377 27.4055 50.4477 27.5955 51.2577C26.0755 50.0577 23.4555 50.8277 23.5455 53.0377C23.7255 57.5477 24.1355 62.2377 25.4355 66.5677C26.0455 68.5977 28.7955 67.6977 28.5155 65.7177C28.1855 63.3277 28.1455 60.9677 28.1855 58.5977C28.7055 59.1877 29.1955 59.8077 29.5855 60.4977C31.2455 63.3777 35.3155 61.3677 34.7155 58.3377C34.3755 56.6177 34.1955 54.8777 34.0055 53.1477C34.9055 52.8177 35.6555 52.0077 36.0055 51.0877C36.0655 51.0977 36.1255 51.1177 36.1855 51.1277C38.2955 51.4977 40.2055 50.2477 40.2955 47.9977C40.2555 47.2777 40.3255 46.5577 40.4955 45.8577C40.5655 45.7877 40.6455 45.7177 40.7455 45.6377C42.0555 44.6077 41.3655 42.7077 40.2655 41.9077L40.2755 41.9177Z" fill="#57C1EC"/>
<path d="M85.7454 33.2482C84.9754 29.5682 83.3654 26.2482 81.4154 23.0482C79.9854 20.6882 76.9954 21.0382 75.6254 22.7582C75.1154 22.4482 74.6054 22.1482 74.0754 21.8582C71.9954 20.7482 68.6654 22.0782 68.9354 24.8082C68.9754 25.2982 69.0454 25.7882 69.1054 26.2782C68.6654 26.3482 68.2254 26.4582 67.8554 26.6782C67.0854 27.1282 66.6154 27.7582 66.3154 28.4982C65.0054 27.5682 63.7154 26.6282 62.4954 25.5882C60.1154 23.5382 56.3754 25.4682 57.1754 28.6882C57.3754 29.4982 57.5454 30.3182 57.6954 31.1382C56.8854 30.3382 56.1054 29.5182 55.3554 28.6582C55.7654 28.1882 56.0354 27.5681 56.0754 26.8382C56.1854 24.9681 56.2254 23.0882 56.2454 21.2082C57.0054 21.1382 57.8054 20.8082 58.2254 20.2782C59.3254 18.8982 59.5754 17.4382 59.7554 15.9082C60.9254 15.6882 61.8754 14.6882 62.3254 13.5682C62.7254 12.5582 63.0354 11.5182 63.3554 10.4882C63.9654 10.9282 64.5854 11.3982 64.6754 11.4582C66.0454 12.3182 67.8654 11.8382 68.8254 10.6382C68.9154 10.6982 68.9854 10.7582 69.0854 10.8082C70.4054 11.5282 72.3754 10.9481 72.7054 9.33815C73.3854 6.02815 71.7054 3.58816 68.9254 1.87816C67.1954 0.808158 64.7454 1.79816 64.2154 3.75816C63.1254 3.32816 61.9554 3.18815 60.3954 3.57815C58.4454 4.05815 57.6354 6.30815 57.0654 8.49815C55.7354 8.56815 54.4954 9.58815 54.1254 10.8582C53.9354 11.4982 53.8954 12.6281 53.8154 13.7281C51.9454 13.3481 50.0354 14.7882 50.0654 16.7582C50.0854 18.0982 50.0954 19.4382 50.1054 20.7782C49.5254 20.4082 48.9454 20.0382 48.3854 19.6482C46.9254 18.6082 44.4154 19.9782 44.6254 21.8082C45.0254 25.2482 45.7254 28.3682 47.1354 31.4682C47.6654 32.6382 49.1954 31.8982 49.2954 30.8782C49.4254 29.5782 49.4654 28.2582 49.4954 26.9282C49.9554 27.3482 50.3654 27.7982 50.6754 28.2982C50.7854 28.4782 50.9154 28.6382 51.0454 28.7782C50.7554 29.2882 50.6454 29.8882 50.8354 30.4982C51.2754 31.9482 52.0354 32.9582 52.6054 34.3182C52.9854 35.2182 53.9454 35.5982 54.7254 35.4082C56.5554 37.2582 58.4954 38.9882 60.2154 40.9682C62.1954 43.2482 65.6954 40.8082 65.0354 38.1582C64.7854 37.1582 64.5954 36.1482 64.4454 35.1382C65.3154 35.7982 66.1754 36.4881 66.9854 37.2281C69.0754 39.1681 72.5954 37.8482 72.6254 34.8882C72.6254 34.4082 72.6254 33.9182 72.6354 33.4382C73.0454 33.3782 73.4454 33.2582 73.8254 33.0382C74.6954 32.5282 75.2454 31.8482 75.5754 31.0782C76.0454 31.4682 76.5054 31.8682 76.9654 32.2882C77.6354 32.9182 78.5454 33.1982 79.4554 33.1982C80.1154 34.0582 80.8554 34.8582 81.7454 35.5782C83.6054 37.0582 86.2554 35.7182 85.7454 33.2482Z" fill="#57C1EC"/>
<path d="M63.6255 2.43793C55.0155 6.16793 48.1955 17.3579 45.0555 26.2679C41.5855 22.7879 37.0455 19.3979 35.3155 23.3379C35.2655 23.4479 35.2455 23.5679 35.2355 23.6879C35.0155 23.7379 34.8155 23.8779 34.7655 24.1479C34.0255 27.7679 34.3455 31.1179 35.3555 34.2679C29.3555 31.5779 20.6155 34.2779 14.8855 36.1179C9.41551 37.8679 1.56551 41.1179 0.815507 47.6479C-0.534493 59.4079 18.1255 52.1579 29.0755 46.4379C24.5255 52.9179 22.2455 60.6079 20.5455 68.5979C20.3255 69.6379 21.1455 70.3279 22.1255 70.1979C33.4055 68.6779 38.3155 56.0979 42.2555 46.0679C45.8155 50.5079 49.9055 54.6779 52.9755 58.8879C54.6055 61.1279 58.0855 66.4179 61.6455 65.4679C64.4855 64.7079 65.4255 60.6379 64.9555 58.1079C63.4855 50.3679 58.5955 42.8979 53.5455 36.3679C56.5155 37.0979 60.2355 37.1879 61.7855 37.3379C67.8955 37.9279 77.2855 38.3079 82.3055 33.9479C85.7555 30.9579 86.1355 25.6079 81.2455 23.8379C74.9155 21.5379 65.9655 22.3679 59.4555 24.2579C61.1055 22.6179 62.6455 20.9579 64.0555 19.4879C67.8555 15.5279 73.8955 9.75793 74.2755 3.88793C74.6355 -1.56207 65.8255 1.50793 63.6255 2.46793V2.43793ZM23.4855 67.2379C25.6455 57.7279 28.8455 48.7579 36.3655 42.0379C37.5855 40.9479 35.8255 39.1879 34.6055 40.2379C30.5555 43.7179 25.3355 46.0779 20.4855 48.1879C17.3855 49.5379 -0.614487 55.3679 3.77551 45.7479C7.52551 37.5179 27.7955 32.7579 35.6155 35.7879C35.7255 35.8279 35.8155 35.8279 35.9155 35.8079C37.0155 38.5779 38.6255 41.2079 40.4755 43.7279C36.9955 52.6079 32.8055 64.5079 23.4855 67.2279V67.2379ZM44.5055 41.5279C44.1655 42.0679 43.7355 42.7879 44.0855 43.4279C44.4855 44.1479 45.7955 43.6979 46.3555 43.5079C47.6855 43.0679 48.9255 42.3479 50.1155 41.6179C50.7855 41.2079 51.7655 40.6979 52.3755 40.0179C54.2155 42.6879 55.9255 45.3079 57.3355 47.5379C56.3055 48.4179 55.4555 49.4179 54.0555 49.9279C52.6155 50.4479 50.9455 50.1579 50.5655 48.4779C50.4855 48.1179 49.8755 48.1879 49.9055 48.5679C50.3355 52.9779 55.8355 51.6079 58.3055 49.1079C59.6455 51.2679 60.5755 52.8879 60.8655 53.5179C61.4055 54.6879 61.8255 55.8779 62.1955 57.0979C62.4255 57.8379 63.7155 65.9179 58.6555 61.7779C55.8355 59.4779 53.8755 56.0479 51.6955 53.1879C49.0655 49.7479 46.0155 46.6379 43.2955 43.4079C43.5555 42.7479 43.8255 42.1079 44.0855 41.4879C44.6455 40.1779 42.3355 39.1979 41.7755 40.5079C41.6855 40.7179 41.5955 40.9479 41.5055 41.1679C38.0255 36.5979 35.5155 31.5879 36.0555 24.9379C36.3455 25.0179 36.6655 24.9579 36.9355 24.6279C38.1955 23.0679 41.3955 25.8579 45.0655 30.2479C44.6155 30.7379 44.3655 31.3779 43.9255 31.9279C43.3455 32.6479 42.5855 33.1879 41.7655 33.6179C40.9555 34.0379 39.0355 34.7379 38.1655 34.1879C37.8655 33.9979 37.5255 34.4279 37.7855 34.6779C38.8555 35.7079 40.5055 35.5079 41.8055 35.1279C42.8555 34.8179 43.7955 34.2479 44.6455 33.5579C45.1855 33.1179 45.8855 32.4479 46.2655 31.7079C47.9755 33.8479 49.7455 36.2679 51.4455 38.6879C51.0255 38.9779 50.6655 39.3679 50.2655 39.7079C49.4455 40.3979 48.5255 40.9879 47.6155 41.5379C46.8955 41.9679 46.1355 42.3879 45.3355 42.6579C44.3555 42.9879 44.5355 42.6579 44.9955 41.8279C45.1655 41.5179 44.7055 41.2379 44.5155 41.5479L44.5055 41.5279ZM59.2655 26.7179C64.1755 26.2779 68.9255 25.2079 73.8955 25.1679C76.3055 25.1479 83.2255 25.2179 82.5455 29.4479C82.0655 32.4179 78.3055 33.6679 75.8755 34.3579C67.4655 36.7779 59.5555 34.5279 51.3355 33.5579C50.8155 32.9079 50.2955 32.2679 49.7855 31.6379C52.7655 30.2279 55.5555 27.9479 58.1255 25.5079C58.0855 26.1479 58.4655 26.7879 59.2655 26.7179ZM69.8855 8.38793C65.0455 16.5479 56.8355 25.0279 48.5455 30.1179C48.1555 29.6479 47.6555 29.0679 47.0855 28.4179C49.5555 20.6479 54.5055 13.4079 60.4055 7.85793C63.1055 5.31793 66.5655 3.53793 70.2855 3.21793C73.3255 2.95793 70.5355 7.28793 69.8855 8.38793Z" fill="#3C3C3B"/>
</svg>
