<svg width="85" height="128" viewBox="0 0 85 128" fill="none" xmlns="http://www.w3.org/2000/svg">
<path d="M79.6468 27.3893C79.6939 25.1271 78.8427 23.1145 77.9051 21.0991C75.821 16.6032 71.8384 13.1047 67.5364 10.7733C65.1787 9.49557 62.6557 8.80413 60.0455 8.22926C57.6309 7.70033 55.1625 7.35035 52.6898 7.24747C47.9132 7.04599 43.1187 8.44944 39.1898 11.1846C34.8689 14.196 32.9299 19.2393 33.1861 24.389C33.3963 28.6247 33.5923 33.1225 34.9191 37.1811C36.2708 41.3128 38.796 44.6751 41.7664 47.7801C42.6135 48.668 43.4761 49.5383 44.3371 50.4127C44.5005 50.5761 44.6874 50.6466 44.8714 50.647C45.6939 51.5262 46.6527 52.2279 47.6967 52.7663C46.7419 53.1893 45.8284 53.6913 44.9587 54.2778C43.8278 55.0439 42.5315 56.0048 42.0296 57.324C41.788 57.957 41.7484 58.7487 42.1089 59.3453C42.4829 59.956 43.1766 60.1821 43.8615 60.1197C44.5505 60.0587 45.1961 59.7293 45.8308 59.4697L46.2664 59.2918C45.4449 62.3536 44.6288 65.4127 43.7991 68.4717C42.8739 71.8928 41.8812 75.3225 40.3146 78.5129C38.8079 81.5726 36.7666 84.3333 35.117 87.315C33.5014 90.2396 32.5033 93.2668 32.0373 96.5736C31.2158 102.352 31.5398 109.072 27.2214 113.617C25.2678 115.672 22.4751 117.013 19.6106 116.937C16.5457 116.856 13.8163 114.987 12.6332 112.153C11.9935 110.624 11.8141 108.835 11.9838 107.191C12.0627 106.432 12.2852 105.631 12.9601 105.192C13.5989 104.778 14.4189 104.763 15.1569 104.811C15.9675 104.862 16.7669 105.01 17.562 105.171C18.4269 105.342 19.3997 105.547 20.0324 106.208C21.345 107.577 20.0568 108.946 18.616 109.364C17.6872 109.635 17.9623 111.127 18.9022 110.85C20.3085 110.439 21.7568 109.582 22.0527 108.025C22.3169 106.635 21.5144 105.229 20.3304 104.527C18.9248 103.695 16.9891 103.427 15.3791 103.306C13.8774 103.191 12.2172 103.434 11.2666 104.733C10.3625 105.966 10.3679 107.648 10.4528 109.105C10.5539 110.817 10.9627 112.517 11.8657 113.991C13.6181 116.855 16.7566 118.569 20.1215 118.452C23.3655 118.339 26.4076 116.788 28.5608 114.389C30.6328 112.076 31.7754 109.109 32.3778 106.094C33.1314 102.35 33.1098 98.4939 33.873 94.7486C34.6694 90.8309 36.6999 87.5001 38.791 84.1538C39.9418 82.3129 41.0735 80.4607 41.9944 78.4882C42.9538 76.4326 43.6924 74.2852 44.3421 72.1158C45.5558 68.0459 46.6017 63.9169 47.6952 59.8093C48.1172 60.5841 48.729 61.2647 49.4377 61.7355C50.6366 62.5265 52.3924 62.7173 53.228 61.3131C53.9575 60.0926 53.6569 58.4904 53.213 57.2291C52.8123 56.0934 52.1959 55.0475 51.5404 54.0338C53.6886 54.4044 55.9406 54.3236 57.995 53.9153C63.1483 52.8915 67.9523 50.4556 71.3978 46.4406C73.0555 44.5067 74.3569 42.2908 75.4318 39.9859C76.3913 37.9302 77.3008 35.8202 78.128 33.7087C78.9136 31.7022 79.5903 29.5607 79.6372 27.3905L79.6468 27.3893ZM66.4031 13.2832C66.443 13.196 66.4459 13.1878 66.4146 13.2505C66.4401 13.2042 66.4656 13.158 66.4952 13.1132C66.5504 13.0221 66.6148 12.9436 66.6782 12.8554C66.7398 12.785 66.7441 12.7728 66.6993 12.8214C66.7357 12.7836 66.772 12.7458 66.8125 12.7094C66.8893 12.6352 66.9714 12.5721 67.0535 12.5089C67.1272 12.4566 67.1397 12.4472 67.0855 12.4834C67.1021 12.4754 67.1146 12.466 67.1313 12.4581C67.1558 12.4667 67.1818 12.4713 67.2134 12.4732C66.8118 12.7506 66.5114 13.1327 66.3167 13.5934C66.3085 13.5906 66.2962 13.5862 66.288 13.5833C66.3256 13.4769 66.3674 13.3581 66.4059 13.275L66.4031 13.2832ZM37.688 15.8757C38.5274 15.5317 39.3131 15.0399 39.9342 14.3749C40.1049 14.1911 40.2688 14.0003 40.3988 13.7883C40.5553 13.71 40.7024 13.6192 40.8601 13.5505C40.8767 13.5425 40.8975 13.536 40.9141 13.528C40.8635 13.5931 40.8197 13.6651 40.7677 13.7343C40.4066 14.21 40.0172 14.662 39.6074 15.093C39.4396 15.2686 39.2624 15.4317 39.0864 15.6045C38.5567 15.8275 38.0175 16.0379 37.4786 16.2346C37.5438 16.1149 37.6131 15.9966 37.6866 15.8798L37.688 15.8757ZM41.0326 11.8205C41.0326 11.8205 41.0529 11.8414 41.0582 11.8525C40.8785 11.9181 40.6989 11.9836 40.5219 12.0547C40.6789 11.949 40.8318 11.8417 40.99 11.7456C41.0033 11.7733 41.0083 11.7981 41.0271 11.8231L41.0326 11.8205ZM40.2928 17.0011C40.6935 16.7004 41.0898 16.412 41.5102 16.1597C41.7996 16.0177 42.0902 15.8854 42.3729 15.7364C43.0852 15.3614 42.8091 14.4861 42.1978 14.3397C42.2498 14.2705 42.3059 14.2028 42.3538 14.1322C42.51 13.9111 42.697 13.6548 42.8513 13.3869C42.9574 13.6084 43.0427 13.8365 43.0907 14.079C43.2881 15.0601 42.7754 15.8875 42.0033 16.4716C41.3744 16.9497 40.6226 17.2279 39.8296 17.3488C39.9853 17.2334 40.1356 17.1206 40.2914 17.0052L40.2928 17.0011ZM39.2529 31.1819C39.2493 31.153 39.2538 31.127 39.2502 31.0981C39.2415 31.0444 39.2314 30.9948 39.2212 30.9452C39.2214 30.7749 39.2175 30.6032 39.1984 30.4353C39.3312 30.542 39.4584 30.6513 39.5716 30.7741C39.6147 30.8215 39.655 30.8771 39.6967 30.9286C39.5442 31.0084 39.3986 31.0952 39.2529 31.1819ZM52.0993 60.1142C51.8603 61.1578 50.8518 60.8714 50.1804 60.3861C49.3028 59.7545 48.7034 58.7514 48.6094 57.6732C48.5661 57.1561 47.9473 56.9656 47.5379 57.1344C46.4303 57.5864 45.3325 58.1017 44.2053 58.4915C43.9221 58.5896 43.4203 58.7856 43.3572 58.3767C43.2795 57.8659 43.7104 57.3227 44.0294 56.9794C45.4827 55.4293 47.529 54.3783 49.4968 53.6541C49.5175 53.6475 49.5356 53.6355 49.5522 53.6275C49.5818 53.7393 49.6267 53.8471 49.6963 53.95C50.3616 54.9487 51.0212 55.9638 51.5201 57.0558C51.9357 57.9665 52.3282 59.0992 52.0952 60.1128L52.0993 60.1142ZM66.0499 49.1267C66.1934 49.0069 66.3369 48.8872 66.4818 48.7633C66.5598 48.6987 66.6217 48.6147 66.6631 48.5234C66.7479 48.5441 66.8314 48.5551 66.9152 48.5524C66.6316 48.7563 66.3468 48.9505 66.0552 49.1377C66.0552 49.1377 66.0499 49.1267 66.0472 49.1211L66.0499 49.1267ZM67.6481 47.8578C67.664 47.891 67.6799 47.9243 67.7069 47.9522C67.6749 47.9777 67.6414 48.0074 67.6094 48.0329C67.6296 47.9756 67.6416 47.9154 67.6481 47.8578ZM72.8748 41.6763C71.7804 43.5923 70.4645 45.3795 68.8782 46.915C68.4537 46.0426 67.4765 45.537 66.5328 45.4713C65.4905 45.3985 64.2303 45.6954 63.3821 46.3125C62.855 46.6976 62.4733 47.2581 62.1664 47.8543C61.7983 48.2586 61.5878 48.7644 61.5581 49.2926C61.3585 49.9634 61.333 50.6495 61.6545 51.2785C57.3333 52.8672 52.3584 53.581 48.1467 51.2676C47.1904 50.7418 46.334 50.0762 45.6358 49.2362C45.4608 49.0272 45.2465 48.9562 45.043 48.9719C42.3475 46.2493 39.5672 43.5061 37.7777 40.0808C37.0771 38.7382 36.5627 37.3507 36.171 35.9282C36.3485 35.9079 36.5207 35.8766 36.6931 35.8315C36.8536 36.0814 37.132 36.2578 37.4521 36.1727C39.2204 35.7142 41.3351 34.8346 41.7074 32.8252C42.0614 30.9198 40.5508 29.2502 38.9417 28.5126C38.0343 28.0961 36.9975 27.9423 36.004 28.0571C35.6596 27.9633 35.3005 27.9242 34.9263 27.9672C34.7599 26.0625 34.5614 24.105 34.6903 22.1985C34.7803 20.8722 35.0568 19.5656 35.5161 18.328C35.9704 18.5019 36.4528 18.6352 36.9468 18.7357C37.1579 18.9205 37.4599 19.004 37.7631 18.8623C39.3926 19.0454 41.0885 18.8054 42.4679 17.9612C43.5351 17.3108 44.4063 16.3151 44.6134 15.0485C44.7946 13.9338 44.3758 12.8103 43.7334 11.9163C43.472 11.5479 43.1019 11.109 42.6938 10.804C44.7196 9.82402 46.929 9.18498 49.0242 8.88315C51.2116 8.5678 53.462 8.73964 55.6436 9.00229C57.98 9.28272 60.2729 9.77798 62.5433 10.3896C63.6614 10.6917 64.753 11.0949 65.8102 11.5827C65.6845 11.7041 65.563 11.827 65.4563 11.9597C65.3258 12.1209 65.2115 12.3015 65.1109 12.4824C65.0129 12.5123 64.9147 12.556 64.827 12.6218C64.1986 13.0724 63.8104 13.7688 63.704 14.5277C63.593 15.3126 63.8597 16.0971 64.3033 16.7323C65.1368 17.933 66.769 18.6833 68.2113 18.6532C68.9064 18.6404 69.7111 18.3947 70.0777 17.838C70.432 17.7603 70.7259 17.514 70.9737 17.2423C71.0367 17.1678 71.089 17.085 71.1438 17.0076C71.1761 16.9684 71.2043 16.9277 71.2324 16.887C71.2818 16.8123 71.3297 16.7417 71.3708 16.6641C71.3963 16.6179 71.4163 16.5743 71.4377 16.5266C71.5915 16.2079 71.6976 15.8678 71.7379 15.5184C72.6601 16.3499 73.5236 17.2435 74.3052 18.1866C75.7784 19.9627 76.7008 21.982 77.5472 24.1126C78.2436 25.8588 78.2465 27.6921 77.8637 29.5091C77.5522 29.2566 77.1146 29.2312 76.6643 29.3072C76.5732 29.0173 76.3086 28.8274 75.9965 28.7726C73.7185 28.3655 71.2622 28.9865 69.8396 30.9065C68.6209 32.5485 68.0718 35.0987 69.5648 36.7529C70.2467 37.5089 71.2439 38.0492 72.2682 38.134C72.563 38.1597 72.8477 38.1358 73.1193 38.0704C73.6095 38.234 74.1311 38.2429 74.6113 38.1084C74.0839 39.3173 73.5318 40.5176 72.8777 41.6681L72.8748 41.6763Z" fill="#474744"/>
<path d="M56.3044 30.7759C57.3456 30.8391 58.4292 30.5859 59.236 29.9035C60.0233 29.2373 60.4425 28.2572 60.3544 27.2272C60.1696 25.1134 57.7444 23.6876 55.8008 23.6378C55.0253 23.6176 54.2203 23.7988 53.5581 24.2145C53.4473 24.2675 53.3366 24.3205 53.2285 24.3791C52.2343 24.9401 51.126 25.8246 51.2828 27.0906C51.4164 28.1873 52.3286 29.1258 53.2083 29.7121C54.1179 30.3182 55.2083 30.7118 56.3044 30.7759ZM54.5309 26.4172C54.5309 26.4172 54.5295 26.4213 54.5322 26.4269C54.5322 26.4269 54.5336 26.4228 54.5309 26.4172ZM55.5811 25.4754C55.5146 25.429 55.4453 25.3907 55.3689 25.3592C55.4717 25.3678 55.5731 25.3805 55.6757 25.4029C55.6411 25.4229 55.6131 25.4499 55.5811 25.4754ZM56.8108 29.2742C56.3106 29.2958 55.8094 29.2158 55.3245 29.0633C55.3493 29.0582 55.3727 29.0572 55.3989 29.0481C55.508 29.0129 55.6118 28.9666 55.7197 28.9217C55.9668 28.926 56.2187 28.8905 56.4612 28.8425C56.4708 28.8413 56.4819 28.836 56.4915 28.8347C56.654 29.1314 56.9734 29.244 57.2705 29.2106C57.1203 29.2451 56.9647 29.2686 56.8108 29.2742ZM58.7079 28.189C58.6052 28.4151 58.3168 28.737 58.0503 28.9055C57.8781 29.0151 57.6886 29.0956 57.4926 29.1554C57.6101 29.1094 57.7088 29.0383 57.7887 28.9422C57.9392 28.8939 58.082 28.8154 58.1696 28.6713C58.2825 28.4947 58.319 28.2866 58.2811 28.0937C58.4909 27.9559 58.6982 27.7988 58.8607 27.6121C58.8492 27.8014 58.802 27.9873 58.7079 28.189Z" fill="#474744"/>
<path d="M57.4089 36.9145C57.0928 36.6097 56.7103 36.415 56.2992 36.2885C56.2122 36.1565 56.0891 36.0487 55.9318 36.0117C54.1403 35.5827 52.1527 35.6969 50.5672 36.7078C48.9109 37.7628 48.0283 39.9007 49.1276 41.6924C49.6766 42.5903 50.5504 43.285 51.5627 43.5866C52.5683 43.8813 53.6184 43.8279 54.6365 43.6298C55.6313 43.4326 56.7408 43.1977 57.3399 42.2948C57.8432 41.5331 58.1597 40.4523 58.2576 39.5477C58.3616 38.613 58.1006 37.5773 57.4089 36.9145ZM53.3541 38.4268C53.2809 38.5299 53.2051 38.6274 53.121 38.7221C52.803 39.0888 52.4048 39.4088 51.9873 39.6529C52.1144 39.4491 52.2619 39.2525 52.4295 39.0906C52.6893 38.8369 52.9813 38.6222 53.3001 38.4492C53.3167 38.4412 53.3374 38.4347 53.3541 38.4268ZM56.5713 38.2719C56.5099 38.2503 56.4441 38.2409 56.3741 38.2438C56.2312 38.0093 55.9756 37.8594 55.6404 37.9483C55.5079 37.9845 55.3863 38.0291 55.2592 38.0764C55.3126 37.9249 55.3303 37.77 55.3288 37.6175C55.6468 37.656 55.9503 37.7353 56.2017 37.8838C56.3689 37.9842 56.486 38.1221 56.5699 38.276L56.5713 38.2719ZM55.8939 41.6561C55.5195 41.9477 54.9278 42.0199 54.4758 42.1138C53.4574 42.3256 52.3062 42.4308 51.3795 41.8601C51.2396 41.774 51.1054 41.6714 50.9837 41.5595C51.4896 41.8483 52.0625 41.8293 52.6227 41.6769C52.8176 41.9988 53.2483 42.1875 53.6032 41.9903C53.7474 41.9077 53.889 41.8195 54.0332 41.7368C54.1262 41.7604 54.2264 41.7635 54.3379 41.7475C54.382 41.74 54.4234 41.727 54.4634 41.7181C54.725 41.8379 55.0534 41.8202 55.2766 41.6181C55.3645 41.5386 55.463 41.4812 55.5535 41.4072C55.8107 41.3046 56.064 41.1867 56.3 41.0397C56.2052 41.2825 56.079 41.5097 55.8912 41.6506L55.8939 41.6561Z" fill="#474744"/>
</svg>
