<svg width="134" height="137" viewBox="0 0 134 137" fill="none" xmlns="http://www.w3.org/2000/svg">
<path d="M132.522 38.5866C129.46 33.3643 125.664 28.4651 121.754 23.8552C114.002 14.7162 104.499 6.79534 93.0587 2.79788C91.5714 2.27969 90.064 1.84898 88.5363 1.48558C88.3344 1.29715 88.072 1.14909 87.722 1.08852C86.6452 0.893361 85.5685 0.785686 84.4985 0.718389C84.4783 0.718389 84.4581 0.711657 84.4446 0.711657C84.3033 0.691468 84.162 0.684738 84.0341 0.698198C78.9128 0.462657 73.8319 1.54615 68.9192 3.09398C63.7507 4.72931 58.7034 6.86264 54.0061 9.58818C44.4835 15.1066 36.5962 23.1082 32.3094 33.3441C27.8206 44.0713 27.3698 56.0503 29.0724 67.4302C29.9742 73.4466 31.3403 79.5909 34.3552 84.9343C37.1346 89.8672 41.1455 94.1405 45.5468 97.6535C61.9471 110.756 85.3801 114.155 104.567 105.339C123.289 96.7315 137.159 76.8721 137.354 56.057C137.414 49.7916 135.692 43.9704 132.535 38.5866H132.522ZM109.836 98.4207C93.3346 109.303 71.5908 109.323 54.5377 99.5916C45.2237 94.2751 37.3096 86.2129 34.3418 75.7145C31.4211 65.3911 30.6 53.964 32.8074 43.4253C34.9878 33.0278 40.4456 24.0235 48.7165 17.3543C56.8056 10.8332 67.2233 6.27715 77.4524 4.51396C79.5723 4.15055 81.7326 4.0025 83.8726 4.1169C95.0036 5.79934 104.836 11.7148 112.871 19.4338C116.996 23.4043 120.704 27.7988 124.116 32.3885C127.441 36.8638 130.853 41.5679 132.569 46.9247C135.766 56.8847 132.973 68.5676 128.329 77.646C124.063 85.9908 117.663 93.2522 109.836 98.4139V98.4207Z" fill="white"/>
<path d="M19.5565 61.0033C19.2873 60.0275 18.3452 59.6238 17.4165 59.792C13.6747 60.4515 9.89935 61.1178 6.33932 62.5041C4.60305 63.1838 2.5303 63.9644 1.1507 65.2565C0.396971 65.9632 -0.12122 67.0399 0.181618 68.083C0.504645 69.2002 1.51411 69.7049 2.53702 70.0548C6.33259 71.3402 10.8011 69.7251 14.3006 68.2311C15.162 67.8677 16.0032 67.4639 16.831 67.0332C17.6991 66.5756 18.6951 66.1045 19.395 65.3911C20.5121 64.2538 20.5525 62.4099 19.6104 61.36C19.6104 61.2389 19.5902 61.1178 19.5565 61.0033ZM3.2773 66.6294C3.16289 66.5823 3.20327 66.5823 3.2773 66.6294V66.6294ZM4.87898 66.9861C5.12125 66.8582 5.37025 66.7371 5.61252 66.6159C5.61252 66.7505 5.63944 66.8784 5.67308 67.0063C5.41062 67.013 5.14144 67.0063 4.87898 66.9861Z" fill="white"/>
<path d="M35.3512 99.8809C34.9407 99.8943 34.5705 100.002 34.2206 100.143C33.9043 100.022 33.5544 100.002 33.2381 100.143C30.3106 101.368 27.3496 102.936 25.3374 105.473C24.2808 106.806 23.2781 108.461 23.1906 110.211C23.1367 111.308 23.6549 112.412 24.6375 112.943C25.5864 113.461 26.7035 113.34 27.6658 112.943C30.7817 111.678 33.588 109.558 35.681 106.927C36.2328 106.234 36.7577 105.514 37.2221 104.76C37.7941 103.818 38.3392 102.815 38.0027 101.684C37.673 100.574 36.4885 99.8472 35.3579 99.8876L35.3512 99.8809Z" fill="white"/>
<path d="M74.4374 118.227C74.2692 118.106 74.0875 118.005 73.8923 117.951C72.93 117.688 72.0686 118.274 71.7523 119.162C70.514 122.682 69.9218 126.457 70.0564 130.185C70.0833 131.013 70.1573 131.834 70.2583 132.655C70.3727 133.597 70.44 134.567 71.0456 135.34C72.3512 137.009 74.4576 136.054 75.6757 134.822C77.9503 132.521 78.1859 128.934 78.482 125.899C78.6435 124.23 79.0136 122.278 78.4281 120.656C77.8494 119.041 76.1871 117.83 74.4307 118.22L74.4374 118.227Z" fill="white"/>
<path d="M114.345 126.551C114.002 124.525 113.409 122.56 112.615 120.662C111.828 118.792 110.919 116.739 109.123 115.622C107.38 114.538 104.203 114.437 103.678 116.941C103.678 116.961 103.678 116.988 103.672 117.015C103.288 117.392 103.079 117.944 103.241 118.617C103.503 119.714 103.786 120.804 104.062 121.901C104.176 122.48 104.311 123.058 104.472 123.63C104.493 123.704 104.52 123.772 104.546 123.846C104.654 124.263 104.748 124.68 104.856 125.097C105.388 127.157 105.865 129.25 106.525 131.269C107.117 133.059 108.187 134.795 110.132 135.286C112.037 135.764 114.089 134.835 114.621 132.863C114.87 131.928 114.789 130.878 114.735 129.916C114.675 128.785 114.533 127.661 114.345 126.544V126.551ZM111.175 131.948C110.96 131.948 110.967 131.935 110.825 131.867C110.509 131.713 110.273 131.363 110.085 130.939C110.489 131.013 110.919 130.966 111.283 130.797C111.283 130.845 111.29 130.898 111.29 130.946C111.29 131.107 111.189 131.753 111.276 131.901C111.276 131.901 111.276 131.928 111.263 131.948C111.222 131.948 111.175 131.948 111.169 131.948H111.175ZM111.303 131.948C111.357 131.948 111.377 131.948 111.303 131.948V131.948ZM111.31 131.942L111.364 131.908C111.357 131.888 111.458 131.942 111.31 131.942Z" fill="white"/>
<path d="M144.79 98.3598C143.754 97.5522 142.711 96.7514 141.627 96.0111C139.319 94.4296 136.769 93.1106 134.009 92.5318C132.859 92.2896 131.338 93.3461 131.869 94.6719C132.361 95.8833 133 97.0206 133.747 98.0637C134.723 99.8403 135.921 101.496 137.32 102.963C139.07 104.787 141.331 106.341 143.936 106.429C145.201 106.476 146.567 106.106 147.415 105.11C148.438 103.912 148.371 102.243 147.523 100.957C146.809 99.8807 145.793 99.1337 144.79 98.3531V98.3598ZM138.935 98.5819C138.767 98.4473 138.592 98.3261 138.431 98.1848C138.343 98.1108 138.263 98.0233 138.175 97.9426C138.444 98.0973 138.713 98.2656 138.976 98.4338C138.962 98.4877 138.942 98.5348 138.935 98.5886V98.5819Z" fill="white"/>
<path d="M57.1153 49.4019C52.7679 48.2713 48.3263 50.5055 46.5766 54.5972C45.4527 57.2218 44.5173 60.2637 45.0085 63.1305C45.1701 64.0592 46.3074 64.5774 47.1486 64.3419C48.1311 64.0727 48.5215 63.1305 48.3599 62.2018C48.1513 60.9837 48.5417 59.7253 48.8781 58.5678C49.2146 57.4103 49.5376 56.2258 50.1433 55.176C50.9913 53.7089 52.5458 52.7869 54.1341 52.612C55.9174 52.4168 57.4989 52.9686 58.7439 54.3684C60.137 55.9297 60.6888 58.1236 61.0589 60.1358C61.2272 61.0578 62.3511 61.5827 63.199 61.3471C64.1681 61.078 64.5786 60.1358 64.4104 59.2071C63.6499 55.0481 61.5704 50.5527 57.1153 49.3951V49.4019Z" fill="white"/>
<path d="M119.055 48.1495C117.46 45.9153 115.051 44.2934 112.279 44.0511C105.616 43.4657 103.49 51.4067 102.426 56.4271C102.231 57.3424 102.695 58.3047 103.638 58.5672C104.499 58.8027 105.582 58.2778 105.778 57.3558C106.296 54.9197 106.787 52.3826 108.039 50.2021C108.947 48.6139 110.354 47.2747 112.279 47.5371C116.781 48.1563 117.938 53.6612 118.719 57.3154C118.914 58.2307 119.991 58.7691 120.859 58.5268C121.808 58.2643 122.272 57.3087 122.07 56.3867C121.458 53.5401 120.778 50.5655 119.055 48.1563V48.1495Z" fill="white"/>
<path d="M91.5848 59.4022C90.5956 59.4022 89.9091 60.1963 89.8486 61.1385C89.6669 63.8977 89.5255 66.6636 89.3035 69.4161C89.1217 71.61 88.7314 74.0596 86.9817 75.5805C83.2938 78.7906 79.7203 72.5252 78.6301 69.6651C77.6476 67.0943 77.2707 64.4024 77.486 61.6567C77.5601 60.7213 76.6381 59.9204 75.7498 59.9204C74.747 59.9204 74.0875 60.7213 74.0135 61.6567C73.5693 67.3299 75.5613 73.8173 79.828 77.7475C82.0421 79.7933 84.956 80.6076 87.7489 79.2213C90.4206 77.8955 91.9079 75.0489 92.4261 72.2224C93.099 68.5951 93.0923 64.7995 93.3278 61.1318C93.3884 60.1963 92.4866 59.3955 91.5916 59.3955L91.5848 59.4022Z" fill="white"/>
</svg>
