<svg width="51" height="51" viewBox="0 0 51 51" fill="none" xmlns="http://www.w3.org/2000/svg">
<g clip-path="url(#clip0_87_47)">
<path d="M42.335 3.6377H9.42322V49.8716H42.335V3.6377Z" fill="#FFCF70"/>
<path d="M38.0302 7.94238H13.7279V45.5668H38.0302V7.94238Z" fill="#ECF0F1"/>
<path d="M33.6815 2.02344H18.0768V7.94248H33.6815V2.02344Z" fill="#0BBBDA"/>
<path d="M30.2526 11.6631L31.5177 14.0213L34.1515 14.4958L32.2995 16.4277L32.6622 19.0792L30.2526 17.915L27.8429 19.0792L28.2055 16.4277L26.3536 14.4958L28.9875 14.0213L30.2526 11.6631Z" fill="#FFBAA8"/>
<path d="M30.2526 22.8457L31.5177 25.2039L34.1515 25.6784L32.2995 27.6104L32.6622 30.2619L30.2526 29.0976L27.8429 30.2619L28.2055 27.6104L26.3536 25.6784L28.9875 25.2039L30.2526 22.8457Z" fill="#FFBAA8"/>
<path d="M30.2526 34.0283L31.5177 36.3865L34.1515 36.861L32.2995 38.7929L32.6622 41.4444L30.2526 40.2802L27.8429 41.4444L28.2055 38.7929L26.3536 36.861L28.9875 36.3865L30.2526 34.0283Z" fill="#FFBAA8"/>
<path d="M27.0688 16.7968L26.7765 18.9331C26.7228 19.326 26.8895 19.7166 27.2102 19.9497C27.3975 20.0857 27.6195 20.1553 27.8429 20.1553C28.0022 20.1553 28.1625 20.1198 28.3111 20.048L30.2525 19.1101L32.1939 20.048C32.5509 20.2206 32.9737 20.1828 33.2947 19.9497C33.6154 19.7166 33.7821 19.3261 33.7284 18.9333L33.4362 16.797L34.9282 15.2404C35.2026 14.9542 35.2974 14.5402 35.1749 14.1632C35.0523 13.7861 34.7324 13.5069 34.3422 13.4366L32.2202 13.0544L31.2007 11.1543C31.0133 10.8049 30.649 10.5869 30.2524 10.5869C29.8558 10.5869 29.4916 10.805 29.3041 11.1543L28.2846 13.0544L26.1627 13.4366C25.7725 13.5069 25.4525 13.7861 25.33 14.1632C25.2075 14.5402 25.3023 14.9543 25.5767 15.2404L27.0688 16.7968ZM29.1781 15.0802C29.5013 15.0219 29.7804 14.8192 29.9356 14.5298L30.2524 13.9393L30.5692 14.5298C30.7244 14.8191 31.0035 15.0219 31.3267 15.0802L31.9862 15.199L31.5224 15.6828C31.2952 15.92 31.1884 16.2479 31.2331 16.5733L31.3239 17.2372L30.7206 16.9457C30.5727 16.8742 30.4126 16.8385 30.2523 16.8385C30.0921 16.8385 29.9319 16.8742 29.7841 16.9457L29.1807 17.2371L29.2716 16.5733C29.3161 16.2479 29.2095 15.9199 28.9823 15.6828L28.5185 15.1989L29.1781 15.0802Z" fill="#231F20"/>
<path d="M17.6073 14.2949H22.6116C23.2058 14.2949 23.6878 13.8131 23.6878 13.2188C23.6878 12.6244 23.2058 12.1426 22.6116 12.1426H17.6073C17.0131 12.1426 16.5311 12.6244 16.5311 13.2188C16.5311 13.8132 17.0131 14.2949 17.6073 14.2949Z" fill="#231F20"/>
<path d="M17.6073 18.5996H22.6116C23.2058 18.5996 23.6878 18.1178 23.6878 17.5234C23.6878 16.9291 23.2058 16.4473 22.6116 16.4473H17.6073C17.0131 16.4473 16.5311 16.9291 16.5311 17.5234C16.5311 18.1178 17.0131 18.5996 17.6073 18.5996Z" fill="#231F20"/>
<path d="M27.0688 27.9796L26.7765 30.1159C26.7228 30.5087 26.8895 30.8994 27.2102 31.1324C27.531 31.3656 27.9539 31.4033 28.311 31.2308L30.2524 30.2928L32.1938 31.2308C32.3425 31.3025 32.5025 31.338 32.662 31.338C32.8854 31.338 33.1075 31.2685 33.2947 31.1324C33.6154 30.8993 33.7821 30.5088 33.7284 30.1159L33.4362 27.9796L34.9282 26.423C35.2026 26.1368 35.2974 25.7229 35.1749 25.3458C35.0523 24.9687 34.7324 24.6896 34.3422 24.6192L32.2202 24.237L31.2007 22.3369C31.0133 21.9875 30.649 21.7695 30.2524 21.7695C29.8558 21.7695 29.4916 21.9876 29.3041 22.3369L28.2846 24.237L26.1627 24.6192C25.7725 24.6896 25.4525 24.9687 25.33 25.3458C25.2075 25.7229 25.3023 26.1369 25.5767 26.423L27.0688 27.9796ZM29.1781 26.2631C29.5013 26.2048 29.7804 26.0021 29.9356 25.7127L30.2524 25.1222L30.5692 25.7127C30.7244 26.002 31.0035 26.2048 31.3267 26.2631L31.9862 26.3819L31.5224 26.8657C31.2952 27.1029 31.1884 27.4309 31.2331 27.7562L31.3239 28.4202L30.7206 28.1287C30.5727 28.0572 30.4126 28.0215 30.2523 28.0215C30.0921 28.0215 29.9319 28.0572 29.7841 28.1287L29.1807 28.4201L29.2716 27.7562C29.3161 27.4309 29.2095 27.1028 28.9823 26.8657L28.5185 26.3818L29.1781 26.2631Z" fill="#231F20"/>
<path d="M17.6073 25.4775H22.6116C23.2058 25.4775 23.6878 24.9957 23.6878 24.4014C23.6878 23.807 23.2058 23.3252 22.6116 23.3252H17.6073C17.0131 23.3252 16.5311 23.807 16.5311 24.4014C16.5311 24.9957 17.0131 25.4775 17.6073 25.4775Z" fill="#231F20"/>
<path d="M17.6073 29.7822H22.6116C23.2058 29.7822 23.6878 29.3004 23.6878 28.7061C23.6878 28.1117 23.2058 27.6299 22.6116 27.6299H17.6073C17.0131 27.6299 16.5311 28.1117 16.5311 28.7061C16.5311 29.3004 17.0131 29.7822 17.6073 29.7822Z" fill="#231F20"/>
<path d="M27.0689 39.1634L26.7766 41.2996C26.7229 41.6924 26.8896 42.0831 27.2103 42.3161C27.3976 42.4522 27.6196 42.5217 27.843 42.5217C28.0023 42.5217 28.1626 42.4862 28.3112 42.4145L30.2526 41.4765L32.194 42.4145C32.551 42.587 32.974 42.5491 33.2948 42.3161C33.6156 42.0831 33.7822 41.6925 33.7285 41.2996L33.4363 39.1633L34.9283 37.6067C35.2027 37.3205 35.2975 36.9065 35.175 36.5295C35.0524 36.1524 34.7326 35.8731 34.3424 35.8029L32.2202 35.4206L31.2007 33.5205C31.0133 33.1711 30.649 32.9531 30.2524 32.9531C29.8558 32.9531 29.4916 33.1712 29.3041 33.5205L28.2846 35.4206L26.1627 35.8029C25.7724 35.8732 25.4525 36.1523 25.33 36.5295C25.2075 36.9065 25.3023 37.3205 25.5767 37.6067L27.0689 39.1634ZM29.1783 37.4466C29.5015 37.3884 29.7805 37.1857 29.9357 36.8962L30.2525 36.3057L30.5693 36.8962C30.7245 37.1855 31.0034 37.3883 31.3267 37.4466L31.9863 37.5654L31.5225 38.0492C31.2953 38.2863 31.1885 38.6143 31.2332 38.9397L31.324 39.6037L30.7207 39.3122C30.5728 39.2407 30.4127 39.205 30.2524 39.205C30.0922 39.205 29.932 39.2407 29.7841 39.3122L29.1808 39.6037L29.2717 38.9398C29.3162 38.6145 29.2096 38.2864 28.9824 38.0493L28.5186 37.5655L29.1783 37.4466Z" fill="#231F20"/>
<path d="M17.6073 36.6611H22.6116C23.2058 36.6611 23.6878 36.1793 23.6878 35.585C23.6878 34.9906 23.2058 34.5088 22.6116 34.5088H17.6073C17.0131 34.5088 16.5311 34.9906 16.5311 35.585C16.5311 36.1793 17.0131 36.6611 17.6073 36.6611Z" fill="#231F20"/>
<path d="M17.6073 40.9658H22.6116C23.2058 40.9658 23.6878 40.484 23.6878 39.8896C23.6878 39.2953 23.2058 38.8135 22.6116 38.8135H17.6073C17.0131 38.8135 16.5311 39.2953 16.5311 39.8896C16.5311 40.4841 17.0131 40.9658 17.6073 40.9658Z" fill="#231F20"/>
<path d="M42.3354 2.56152H34.7579V2.02344C34.7579 1.4291 34.276 0.947266 33.6818 0.947266H18.0772C17.4829 0.947266 17.001 1.4291 17.001 2.02344V2.56152H9.42346C8.82922 2.56152 8.34729 3.04336 8.34729 3.6377V49.8711C8.34729 50.4654 8.82922 50.9473 9.42346 50.9473H42.3354C42.9296 50.9473 43.4115 50.4654 43.4115 49.8711V3.6377C43.4115 3.04336 42.9297 2.56152 42.3354 2.56152ZM36.9545 9.01865V44.4901H14.8043V9.01865H36.9545ZM19.1533 3.09961H32.6056V6.86621H19.1533V3.09961ZM41.2592 48.7949H10.4996V4.71387H17.001V6.86621H13.7282C13.134 6.86621 12.6521 7.34805 12.6521 7.94238V45.5663C12.6521 46.1606 13.134 46.6425 13.7282 46.6425H38.0307C38.6249 46.6425 39.1069 46.1606 39.1069 45.5663V7.94248C39.1069 7.34814 38.6249 6.86631 38.0307 6.86631H34.758V4.71387H41.2593L41.2592 48.7949Z" fill="#231F20"/>
</g>
<defs>
<clipPath id="clip0_87_47">
<rect width="50" height="50" fill="white" transform="translate(0.879395 0.947266)"/>
</clipPath>
</defs>
</svg>
