<svg width="22" height="18" viewBox="0 0 22 18" fill="none" xmlns="http://www.w3.org/2000/svg">
<path d="M20.9409 11.0157C21.185 9.82247 20.7397 8.57425 19.5766 8.06544C18.3748 7.54089 16.9701 7.92008 15.8341 8.43198C14.8173 8.89094 13.8904 9.52048 12.999 10.1906C13.4045 9.16368 13.7233 8.10212 13.9404 7.01903C14.2245 5.61631 14.4753 4.05963 14.2484 2.63395C14.1583 2.06648 13.9563 1.36248 13.4384 1.03891C12.8749 0.689454 12.1035 0.998286 11.59 1.30385C10.4228 1.99967 9.4528 3.12295 8.5712 4.13875C7.80839 5.0185 7.1144 5.95532 6.48773 6.93832C6.50654 6.33261 6.46866 5.72581 6.32428 5.13474C6.14881 4.40603 5.44942 2.60731 4.39161 3.31692C4.15931 3.47411 3.99162 3.7466 3.82809 3.96862C3.62464 4.24713 3.42971 4.53112 3.24483 4.82371C2.89309 5.37869 2.57774 5.9564 2.29648 6.54827C1.7269 7.74518 1.31461 9.01361 1.0598 10.3147C0.935207 10.9494 0.84708 11.5912 0.802433 12.2349C0.767761 12.7574 0.781097 13.3066 1.22502 13.657C1.71613 14.0441 2.46957 14.1779 3.05102 14.3752C3.73945 14.6088 4.42793 14.8347 5.12032 15.0567C7.8619 15.9429 10.6256 16.7641 13.4083 17.5139C13.8837 17.6415 14.3237 17.7208 14.7394 17.5351C14.86 17.6383 15.0431 17.6796 15.2053 17.5609C16.4178 16.6937 17.5469 15.7126 18.568 14.6222C19.521 13.6022 20.6513 12.4269 20.9393 11.0126L20.9409 11.0157ZM1.53791 11.9554C1.7394 9.74134 2.44626 7.57431 3.57351 5.65888C2.58854 7.83527 1.89189 10.1251 1.49544 12.4856C1.50106 12.3086 1.52299 12.1293 1.53791 11.9554ZM14.9733 11.0525C15.3321 10.7826 15.697 10.5174 16.0689 10.2624C16.1936 10.1776 16.7878 9.73344 17.2639 9.45408C16.4936 10.2872 15.7387 11.1359 15.0086 12.0034C15.0854 11.8687 15.1623 11.7339 15.2406 11.6023C15.3896 11.3546 15.2062 11.0771 14.9741 11.0502L14.9733 11.0525ZM15.3516 9.47169C15.9561 9.13477 16.6203 8.82069 17.3094 8.6551C17.019 8.78479 16.7391 8.98289 16.5201 9.12384C16.0797 9.40495 15.6478 9.69931 15.2214 10.0007C15.3068 9.86368 15.2836 9.68724 15.1942 9.5687C15.2487 9.53793 15.2994 9.50325 15.3539 9.47248L15.3516 9.47169ZM13.5239 13.0921C13.4933 13.1439 13.4627 13.1958 13.4321 13.2477C13.0559 13.8748 12.7352 14.4377 11.9594 14.5686C11.94 14.5724 11.919 14.5731 11.9003 14.5745C11.8779 14.5643 11.8554 14.5541 11.8353 14.5446C12.3986 14.0615 12.962 13.5783 13.5262 13.0928L13.5239 13.0921ZM11.6991 15.3051C11.6578 15.3274 11.6212 15.3435 11.5949 15.3371C11.5809 15.3324 11.5677 15.3253 11.5585 15.3144C11.6059 15.3123 11.654 15.3079 11.6991 15.3051ZM12.3546 11.5852C12.2998 11.6548 12.2474 11.7252 12.1965 11.7987C12.1198 11.7649 12.0344 11.7566 11.9527 11.7756C11.96 11.7236 11.9696 11.6724 11.9769 11.6204C12.1001 11.67 12.2462 11.6677 12.3546 11.5852ZM13.3192 1.97106C13.4605 2.25765 13.5295 2.58191 13.5705 2.89669C13.7376 4.16204 13.5165 5.555 13.269 6.79637C13.0295 7.99894 12.662 9.17365 12.1898 10.3051C12.2003 10.236 12.2116 10.1646 12.2244 10.0963C12.2517 10.0615 12.2722 10.0166 12.2857 9.96151C12.3366 9.74276 12.3843 9.52554 12.4352 9.30679L13.2738 5.62826C13.3143 5.45528 13.2375 5.29952 13.1168 5.21964C13.1813 4.34932 13.172 3.47472 13.0579 2.59566C13.1284 2.34207 13.1889 2.08764 13.2345 1.83081C13.2669 1.87292 13.2954 1.91889 13.323 1.97496L13.3192 1.97106ZM11.0946 2.56484C11.3897 2.29926 11.7087 2.03924 12.0631 1.85087C11.6644 2.33803 11.3182 2.86897 10.9899 3.40854C10.7791 3.75458 10.5729 4.10221 10.3652 4.44671C10.263 4.54169 10.1654 4.63825 10.0732 4.74182C10.123 4.57976 10.172 4.42003 10.2195 4.25718C10.29 4.00359 10.066 3.7616 9.83598 3.78987C10.2398 3.3641 10.6568 2.95316 11.0954 2.56252L11.0946 2.56484ZM7.96694 10.0236C8.12694 9.73551 8.28694 9.44745 8.44927 9.16017C8.40428 9.29274 8.35385 9.42607 8.3011 9.55859C7.97671 10.3693 7.5507 11.1584 6.98087 11.8287C7.32659 11.238 7.65527 10.6363 7.96382 10.0251L7.96694 10.0236ZM6.99319 12.8548C6.82027 13.0892 6.63264 13.3134 6.41026 13.5025C6.39232 13.5172 6.36973 13.5302 6.35179 13.5449C6.29597 13.526 6.24247 13.5078 6.18586 13.4912C6.47498 13.3118 6.74335 13.0942 6.99319 12.8548ZM8.73068 6.24444C8.80827 6.11516 8.88897 5.98433 8.96889 5.85583C8.50737 7.17759 7.9606 8.46783 7.3286 9.71877C6.93253 10.4273 6.53568 11.1381 6.14813 11.8522C6.00769 12.1131 6.202 12.3736 6.42084 12.409C6.278 12.5395 6.12744 12.6621 5.96915 12.777C5.97712 12.3103 6.01224 11.8475 6.06601 11.3834C6.29481 10.8697 6.50578 10.3473 6.67644 9.81388C6.96736 9.3005 7.25596 8.78634 7.54843 8.27608C7.93888 7.59937 8.32781 6.91954 8.7291 6.2491L8.73068 6.24444ZM8.31726 5.56727C8.27103 5.64236 8.22248 5.71665 8.17624 5.79174C7.8071 6.40566 7.4488 7.02585 7.09282 7.64683C7.09544 7.59326 7.10039 7.54047 7.09989 7.48843C7.10098 7.43174 7.09113 7.3843 7.07506 7.33994C7.46281 6.73234 7.87457 6.13807 8.31726 5.56727ZM4.82449 12.8865C4.88825 12.8745 4.94585 12.8499 5.00421 12.8308C5.07398 12.8545 5.15555 12.8511 5.23102 12.8274C5.23043 12.9361 5.22984 13.0449 5.23469 13.1528C5.23004 13.1513 5.22539 13.1497 5.21841 13.1473C5.03862 13.0733 4.84467 13.0334 4.77785 12.8941C4.79185 12.891 4.80817 12.8888 4.82216 12.8857L4.82449 12.8865ZM5.30582 10.7727C5.30582 10.7727 5.30338 10.7952 5.30487 10.8061C5.24526 10.9129 5.18487 11.0221 5.12912 11.1329C5.21712 10.6596 5.28493 10.1846 5.33334 9.70564C5.33685 10.0622 5.33259 10.4186 5.30815 10.7734L5.30582 10.7727ZM2.54994 10.8075C2.74624 9.98446 2.98285 9.17254 3.25515 8.37014C3.05416 9.19933 2.84699 10.0238 2.54994 10.8075ZM4.74365 4.57241C4.68838 4.4525 4.55988 4.37258 4.42714 4.35866C4.45061 4.32772 4.47096 4.29831 4.4921 4.26658C4.55782 4.17995 4.66851 3.96075 4.76894 3.91702C5.18387 3.7414 5.53554 4.92155 5.60099 5.17199C5.70982 5.58501 5.76344 6.00781 5.77745 6.43274C5.68018 5.74873 5.49104 5.10615 4.9437 4.63252C4.89192 4.58641 4.81745 4.56892 4.74132 4.57162L4.74365 4.57241ZM5.17205 7.36072C5.14115 7.32948 5.10947 7.30057 5.07155 7.27473C5.09228 7.17543 5.11302 7.07612 5.13375 6.97682C5.13591 7.00868 5.14039 7.04132 5.14333 7.07085C5.15446 7.168 5.16325 7.26436 5.17205 7.36072ZM3.68068 13.8419C3.10077 13.6477 2.50599 13.4744 1.93712 13.2476C1.98618 13.2254 2.03296 13.1945 2.06581 13.1512C2.19719 12.9857 2.3154 12.8132 2.42585 12.6406C2.58943 12.8387 2.94113 12.8647 3.02517 12.5483C3.33932 11.3321 3.65268 10.1183 3.96683 8.90214C4.04855 8.58491 4.13026 8.26769 4.21277 7.94814C4.15049 8.26158 4.09286 8.57661 4.03835 8.8901C3.83477 10.0556 3.68318 11.2283 3.57196 12.4044C3.5377 12.4213 3.50576 12.439 3.47535 12.4598C3.35141 12.5423 3.23803 12.6853 3.28374 12.8487C3.52454 13.7059 4.38092 14.0484 5.18559 13.9013C5.22513 13.9147 5.26467 13.9281 5.30421 13.9416C5.37916 14.3016 5.63781 14.5865 6.04056 14.5079C6.16807 14.4837 6.29496 14.4308 6.4157 14.3654C6.40111 14.4772 6.44085 14.597 6.56777 14.6816C6.6645 14.7481 6.76592 14.8085 6.86502 14.868C5.80042 14.5353 4.73665 14.1925 3.67916 13.8388L3.68068 13.8419ZM7.13027 13.7883C7.14668 13.7706 7.1662 13.7512 7.1826 13.7335C7.24042 13.6701 7.2967 13.6036 7.35298 13.5371C7.33295 13.6496 7.33083 13.7552 7.34661 13.854C7.27451 13.8295 7.20316 13.8105 7.13027 13.7883ZM9.0722 14.3254C8.75655 14.2391 8.42865 14.12 8.22751 13.9713C8.26565 13.8131 8.26579 13.6446 8.22161 13.4843C8.48652 12.612 8.7832 11.753 9.11324 10.9028C9.77086 9.798 10.3441 8.63607 10.7065 7.39998C10.8141 7.03707 10.2722 6.71569 10.076 7.08744C9.84841 7.52116 9.634 7.96194 9.42344 8.40662C9.56468 7.85283 9.67731 7.27635 9.84028 6.72733L9.84186 6.72268C10.1954 6.11645 10.5583 5.51337 10.9165 4.90871C11.1077 4.73499 11.3098 4.56754 11.5042 4.38452C11.6151 4.27949 11.7228 4.16823 11.8229 4.04916C10.8849 7.01182 9.88884 9.95475 8.82761 12.8756C8.73298 13.1391 8.93628 13.3197 9.15138 13.3278C9.11494 13.6033 9.08626 13.8789 9.07465 14.1577C9.07366 14.1988 9.07968 14.2346 9.08802 14.2711C9.0825 14.2874 9.07776 14.3014 9.07224 14.3177C9.07066 14.3223 9.06987 14.3246 9.06908 14.327L9.0722 14.3254ZM11.5105 9.82294C11.5318 9.76015 11.5586 9.6966 11.5799 9.63381C11.5678 9.7153 11.5526 9.79832 11.5405 9.87981C11.5321 9.85879 11.5228 9.8401 11.5082 9.82215L11.5105 9.82294ZM10.818 12.3528C11.0492 11.8243 11.2448 11.2786 11.4078 10.7218C11.4078 10.7218 11.407 10.7241 11.4062 10.7264C11.3089 11.3341 11.2117 11.9417 11.1144 12.5493C10.8337 12.895 10.6227 13.2876 10.6031 13.7349C10.5994 13.8452 10.6105 13.9501 10.6302 14.0527C10.5647 14.0927 10.4977 14.1296 10.4292 14.1634C10.528 13.5512 10.6579 12.9468 10.8188 12.3504L10.818 12.3528ZM13.6703 16.887C13.291 16.7972 12.9058 16.6483 12.5529 16.5493C11.9434 16.3813 11.3354 16.2087 10.7259 16.033C10.4684 15.9586 10.2117 15.8819 9.95505 15.8051C9.98067 15.8061 10.0032 15.8085 10.0288 15.8094C10.1958 15.8142 10.3151 15.7147 10.3686 15.5876C10.4687 15.6215 10.586 15.6121 10.6983 15.5179L10.8372 15.399C10.8608 15.6353 10.9575 15.8471 11.2007 15.9789C11.5252 16.1538 11.8443 16.0313 12.1257 15.8441C12.0411 16.1162 12.3173 16.4564 12.608 16.2801C12.947 16.0761 13.2836 15.8713 13.6226 15.6673C13.6014 15.7068 13.5779 15.7455 13.5567 15.785C13.4061 16.0529 13.6536 16.3937 13.9148 16.3423C13.8625 16.3972 13.8078 16.4512 13.7555 16.5061C13.6407 16.6227 13.6283 16.7664 13.6726 16.8878L13.6703 16.887ZM15.0156 14.0003C14.6245 14.2359 14.2325 14.4737 13.8413 14.7093C14.4361 14.0267 15.0865 13.3941 15.7423 12.7685C15.8657 12.6496 15.8797 12.5013 15.8298 12.3807C15.8681 12.3366 15.9033 12.2941 15.9416 12.25C16.4239 11.6848 16.9023 11.1158 17.3884 10.5545C17.7683 10.1154 18.1956 9.6665 18.7919 9.56021C19.2412 9.48186 19.099 8.78517 18.6488 8.86584C18.5882 8.87639 18.5283 8.89238 18.4684 8.90836C18.4554 8.87024 18.4354 8.82974 18.4061 8.79386C18.2934 8.65966 18.1665 8.58285 18.0331 8.54796C18.2615 8.53211 18.4922 8.53258 18.7227 8.56412C19.5329 8.67568 20.0637 9.19816 20.2371 9.87948C20.2256 9.86 20.2163 9.84131 20.2032 9.82648C19.7367 9.19872 18.8054 10.0706 18.4161 10.3846C17.8116 10.8745 17.2726 11.4386 16.7607 12.0222C16.2097 12.6522 15.692 13.3143 15.1649 13.9654C15.1129 13.9659 15.0608 13.9741 15.0149 14.0026L15.0156 14.0003ZM16.8114 14.7005C16.368 15.1206 15.9238 15.5431 15.4803 15.9632C15.2586 16.1733 15.0369 16.3833 14.8144 16.5957C14.6575 16.7448 14.5168 16.8993 14.317 16.9456C15.3594 15.9299 16.4134 14.9104 17.5515 14.0024C17.3064 14.2356 17.0589 14.4681 16.813 14.7036L16.8114 14.7005ZM16.847 13.2887C16.3237 13.8451 15.7956 14.3999 15.2645 14.9484C15.7812 14.3353 16.2763 13.7019 16.7853 13.081C17.2184 12.5536 17.6654 12.0387 18.1534 11.5637C18.401 11.3235 18.6546 11.0958 18.9245 10.8813C18.9885 10.8304 19.0563 10.7834 19.1226 10.7332C18.476 11.668 17.6095 12.4788 16.8447 13.2879L16.847 13.2887ZM19.8376 11.9355C19.7349 11.8255 19.5745 11.771 19.4272 11.8533C19.2137 11.978 19.0064 12.1074 18.7983 12.239C19.3664 11.6045 19.8928 10.9324 20.2713 10.1686C20.276 10.1546 20.2807 10.1407 20.2831 10.1259C20.3144 10.37 20.303 10.6255 20.2472 10.8892C20.1683 11.2515 20.0235 11.6018 19.8376 11.9355Z" fill="#E95B0C"/>
</svg>
