<svg width="57" height="34" viewBox="0 0 57 34" fill="none" xmlns="http://www.w3.org/2000/svg">
<path d="M55.8673 14.1331C49.8676 9.69133 43.9977 5.09189 38.2391 0.34408C37.794 -0.0268418 37.0429 0.251349 36.8668 0.779913C35.9024 3.67311 35.4202 6.64977 35.3831 9.67279C35.04 9.52442 34.6319 9.57078 34.3259 9.96953C34.1127 10.2477 33.9272 10.5352 33.7232 10.8134C31.9242 10.7948 30.1252 10.971 28.3355 11.1843C25.4794 11.5181 22.6511 11.8056 19.7765 11.8149C14.0457 11.8334 8.31494 11.5923 2.59345 11.4532C2.1298 11.4439 1.82382 11.7221 1.70327 12.0745C1.23961 12.0189 0.775923 12.2692 0.79447 12.8627C0.915018 16.0805 1.14687 19.2982 1.51779 22.4974C1.68471 23.907 1.63835 25.7245 2.33383 26.9949C3.0015 28.2189 4.3368 28.2468 5.57012 28.1726C12.3858 27.7553 19.1923 27.2916 25.9987 26.8558C29.5318 26.624 33.0648 26.4014 36.5979 26.1696C36.8389 28.3488 37.284 30.4908 37.9517 32.5866C38.1464 33.1893 38.879 33.6251 39.4354 33.1058C45.3609 27.5605 50.9247 21.6443 56.0991 15.4035C56.4144 15.0141 56.2475 14.4113 55.8765 14.1424L55.8673 14.1331ZM47.6513 10.1828C47.6513 10.1828 47.5586 10.2199 47.5215 10.2477C45.8431 11.4254 44.5819 12.9276 43.5155 14.5782C44.1461 12.8349 44.7674 11.0916 45.398 9.33896C45.6484 8.64348 45.0456 8.06855 44.3779 8.13346C43.2095 8.24474 42.3564 9.08859 41.7722 10.0437C41.5775 10.359 41.392 10.6928 41.2158 11.0267C41.6517 9.40387 42.0875 7.77181 42.5326 6.14903C44.2296 7.50289 45.9451 8.84749 47.6606 10.1828L47.6513 10.1828ZM47.5493 14.365C47.5772 14.5597 47.5957 14.7544 47.6235 14.9492C47.3824 15.2274 47.1413 15.5148 46.9095 15.793L47.5586 14.365L47.5493 14.365ZM50.832 13.8828C50.9062 13.1224 50.0623 12.3434 49.3854 13.0296C49.3205 13.0946 49.2556 13.1687 49.1906 13.2429C49.1536 13.0667 49.1257 12.8905 49.0887 12.7236C49.0145 12.3991 48.8105 12.2043 48.5694 12.1023C48.6992 11.8149 48.829 11.5367 48.9588 11.2492C48.9588 11.2307 48.9588 11.2214 48.9681 11.2028C49.8212 11.8612 50.6744 12.5104 51.5275 13.1595C51.2956 13.4006 51.0545 13.6417 50.832 13.892L50.832 13.8828ZM39.0181 7.19688C38.6379 6.7425 37.7199 6.81668 37.4046 7.45653C37.3582 7.55853 37.3026 7.66981 37.2562 7.77181C37.4046 6.03775 37.7106 4.32222 38.1835 2.6438C39.1201 3.41346 40.0567 4.18313 41.0026 4.94352C40.168 5.537 39.5281 6.31594 39.0088 7.19688L39.0181 7.19688ZM28.3911 24.8899C29.7357 21.7556 31.1174 18.6213 32.7959 15.6632C32.0076 18.6955 31.2194 21.7278 30.4312 24.7601C29.7543 24.8064 29.0681 24.8435 28.3911 24.8899ZM37.3211 24.3242C37.5159 24.2408 37.6735 24.0739 37.7755 23.8049C38.7121 21.1714 39.7414 18.5749 40.882 16.0248C41.1324 15.4592 41.4105 14.9028 41.6702 14.3464C40.4461 17.7404 39.2221 21.1436 38.0073 24.5375C37.8219 24.3984 37.5622 24.3242 37.3304 24.3242L37.3211 24.3242ZM39.287 26.2345C41.5033 22.9333 42.8201 18.8624 45.0456 15.5148C43.4692 18.9922 41.8928 22.4696 40.3164 25.947C39.9176 26.7631 39.5467 27.5884 39.1943 28.4229C38.7399 29.5079 40.4276 30.1014 40.9005 29.0442C41.2622 28.256 41.6146 27.4678 41.9762 26.6703C42.0319 26.5498 42.0968 26.4385 42.1524 26.318C42.2915 26.7352 42.7088 27.032 43.1075 26.9949C41.8556 28.256 40.5852 29.4893 39.2963 30.7134C38.9346 29.3595 38.6564 27.9871 38.471 26.5961C38.7677 26.6332 39.0737 26.5405 39.287 26.2252L39.287 26.2345ZM46.6777 22.1173C46.7426 22.3954 46.9466 22.6273 47.197 22.7571C46.2047 23.8235 45.1847 24.8621 44.1647 25.9099C44.99 24.6395 45.8153 23.3691 46.6777 22.1265L46.6777 22.1173ZM53.0853 14.3186C53.4006 14.5504 53.7159 14.7915 54.0219 15.0234C52.6588 16.6554 51.2678 18.2597 49.8491 19.8361C50.9247 17.9907 52.0004 16.1547 53.0853 14.3093L53.0853 14.3186ZM31.9242 13.5211C31.9798 13.3542 32.0355 13.178 32.0911 13.0111C32.1282 12.8905 32.1375 12.77 32.1282 12.6494C32.2488 12.6494 32.3693 12.6494 32.4899 12.6402C32.3044 12.9369 32.1097 13.2244 31.9335 13.5211L31.9242 13.5211ZM29.2721 12.8905C29.1237 13.076 28.9754 13.28 28.8548 13.484C28.6693 13.7808 28.4931 14.0775 28.3262 14.3835C28.3355 14.3557 28.3541 14.3279 28.3634 14.3C28.8177 13.2151 27.1022 12.6031 26.6571 13.6788C25.1178 17.3694 23.6248 21.0787 23.0221 25.0568C23.0128 25.1217 23.0221 25.1774 23.0221 25.233C22.5213 25.2608 22.0206 25.2979 21.5198 25.3257C22.0206 24.3799 22.5027 23.4248 22.9386 22.4325C23.2631 21.7 22.5584 21.1714 21.9278 21.2641C22.1226 20.6799 22.3173 20.105 22.4935 19.5301C23.1148 17.49 23.7454 15.4406 24.3667 13.4006C25.5165 13.3078 26.6664 13.1966 27.8255 13.0575C28.3077 13.0018 28.7992 12.9462 29.2814 12.8905L29.2721 12.8905ZM4.55011 17.8702C4.8283 16.3679 5.13432 14.8657 5.4867 13.382C5.4867 13.3635 5.4867 13.3542 5.4867 13.3357C5.8298 13.3449 6.1729 13.3542 6.516 13.3635C5.85761 14.8657 5.19922 16.3679 4.54083 17.8702L4.55011 17.8702ZM2.83456 17.2303C2.74183 15.9043 2.65838 14.5875 2.61202 13.2615C2.96439 13.2615 3.31678 13.28 3.66916 13.2893C3.36315 14.5968 3.09421 15.9136 2.84384 17.2303L2.83456 17.2303ZM8.24077 13.9755C8.29642 13.7715 8.29642 13.5767 8.24077 13.4191C8.58388 13.4284 8.92697 13.4377 9.27007 13.4469C9.14952 13.5397 9.03829 13.6509 8.96411 13.8178C8.42627 14.9121 7.89766 16.0063 7.35982 17.1005C7.65656 16.0619 7.94404 15.0234 8.24077 13.9848L8.24077 13.9755ZM10.4478 13.4747C10.8558 13.484 11.2731 13.4933 11.6811 13.5026C11.644 13.5582 11.5976 13.6046 11.5606 13.6602L8.68586 19.9659C9.30716 18.1113 9.9841 16.2659 10.661 14.4299C10.8187 14.0126 10.6889 13.6788 10.4385 13.4747L10.4478 13.4747ZM19.693 17.9815C19.9619 16.5627 20.2679 15.1532 20.5832 13.7437C20.5925 13.688 20.5832 13.6417 20.5925 13.586C21.0376 13.5768 21.492 13.5675 21.9371 13.5489C21.0562 14.9584 20.3236 16.4514 19.6838 17.9815L19.693 17.9815ZM15.8076 19.3817C15.9838 17.6291 16.262 15.8857 16.6607 14.161C16.7071 13.9477 16.6885 13.7622 16.6236 13.586C17.18 13.586 17.7271 13.586 18.2835 13.5953C17.3099 14.8101 16.8647 16.4236 16.3547 17.8609C16.1785 18.3617 15.993 18.8717 15.8169 19.3724L15.8076 19.3817ZM13.2575 13.5397C13.7953 13.5489 14.3424 13.5675 14.8803 13.5767C13.8231 14.977 13.1091 16.5256 12.5156 18.1391C12.7846 16.776 13.0535 15.4128 13.3224 14.0497C13.3595 13.8457 13.3224 13.6788 13.2483 13.5397L13.2575 13.5397ZM13.9994 19.3446C13.8139 21.2456 13.7397 23.1558 13.8046 25.0846C13.8139 25.3906 13.9623 25.6317 14.157 25.7987L11.6625 25.9563C12.6455 23.8513 13.2297 21.5516 13.9994 19.3446ZM15.5572 25.4648C16.2064 23.6473 16.8647 21.8205 17.5138 20.003C17.2357 21.8576 17.0595 23.7215 17.0688 25.6132C16.5216 25.6503 15.9652 25.6874 15.4181 25.7152C15.4738 25.641 15.5201 25.5668 15.5572 25.4648ZM19.1366 25.1403C19.1274 25.2515 19.1273 25.3628 19.1181 25.4741C19.0903 25.4741 19.0625 25.4741 19.0346 25.4741C19.0717 25.3628 19.0995 25.2515 19.1366 25.131L19.1366 25.1403ZM4.83757 26.3829C4.98594 26.0769 5.13429 25.7801 5.28266 25.4741C5.26412 25.7801 5.28265 26.0769 5.32901 26.3643C5.23629 26.3643 5.13429 26.3736 5.04155 26.3829C4.96737 26.3829 4.90249 26.3829 4.83757 26.3829ZM7.83276 26.216C8.5746 24.5932 9.30719 22.9704 10.049 21.3476C9.78939 22.822 9.64099 24.3057 9.90064 25.8079C9.91918 25.9007 9.94703 25.9841 9.98412 26.0583C9.83575 26.0676 9.69662 26.0769 9.54825 26.0861C8.97332 26.1232 8.39841 26.1696 7.82348 26.216L7.83276 26.216ZM24.9323 25.1032C25.9153 23.0167 26.926 20.9488 27.9831 18.8995C28.2335 18.408 28.5024 17.9166 28.7621 17.4344C27.9553 19.9659 27.1486 22.4882 26.3418 25.0197C25.8689 25.0475 25.396 25.0846 24.9323 25.1125L24.9323 25.1032Z" fill="#E20613"/>
</svg>
