<svg width="41" height="43" viewBox="0 0 41 43" fill="none" xmlns="http://www.w3.org/2000/svg">
<path d="M35.6118 8.91178C34.2801 9.06563 32.9484 9.34811 31.6444 9.64572C29.1475 10.2132 26.701 10.9799 24.3151 11.9081C23.0111 9.9055 21.7072 7.90292 20.4032 5.90034C19.7324 4.87131 19.0741 3.83471 18.3906 2.81325C17.7903 1.91536 17.1421 1.07801 16.2594 0.442436C16.045 0.288585 15.7474 0.336504 15.5532 0.495398C15.0916 0.873719 14.9201 1.41346 14.7713 1.97338C14.5822 2.69471 14.4106 3.42108 14.2543 4.14998C13.9541 5.55229 13.7095 6.96721 13.5304 8.38969C13.1874 11.1161 13.089 13.8678 13.2051 16.6119C11.1344 16.9549 9.08137 17.4063 7.06365 17.9839C6.01192 18.2866 4.96776 18.6195 3.9362 18.9827C3.40908 19.1668 2.88447 19.361 2.36239 19.5603C1.90336 19.7368 1.31822 19.8755 0.952513 20.2185C0.304323 20.8264 0.692731 21.6864 1.29804 22.1505C2.03199 22.7129 3.06354 23.0156 3.92359 23.3359C5.89591 24.0724 7.94893 24.597 10.0297 24.9148C10.4055 24.9728 11.089 24.9248 11.4169 25.1216C11.7674 25.3334 11.7876 26.1632 11.8482 26.5264C12.0146 27.558 12.0651 28.5996 12.0474 29.6438C12.0146 31.7296 11.7321 33.8003 11.5379 35.876C11.4446 36.8823 11.3689 37.8886 11.3563 38.9C11.3437 39.7349 11.2025 40.9253 11.6186 41.6845C12.6754 43.6215 14.9655 40.441 15.4876 39.586C17.7651 35.8583 19.523 31.8179 20.7412 27.6261C23.5887 30.5618 26.7414 33.2 30.1513 35.4573C30.8752 35.9365 31.7125 36.4485 32.6205 36.3375C33.5032 36.2291 33.9825 35.4926 33.9194 34.6351C33.763 32.5266 32.7441 30.3878 31.7907 28.5391C30.7768 26.5743 29.599 24.7004 28.5977 22.7306C28.348 22.2413 28.1059 21.7444 27.8915 21.24C27.7805 20.9802 27.6645 20.7961 27.8385 20.5338C27.9772 20.3245 28.2294 20.1403 28.411 19.9688C29.1097 19.3106 29.8512 18.6977 30.6003 18.0974C32.0934 16.9044 33.6394 15.7619 34.9989 14.4126C35.6773 13.7392 36.3154 13.0128 36.8602 12.2259C37.3117 11.5726 38.0204 10.647 37.7303 9.80209C37.4252 8.91682 36.4138 8.81846 35.6118 8.91178ZM17.4624 3.49927C17.2228 3.3202 16.9429 3.19409 16.61 3.14112C16.5999 3.14112 16.5898 3.14112 16.5772 3.14112C16.5999 2.88891 16.62 2.63922 16.6453 2.387C16.9404 2.73758 17.2077 3.1159 17.4624 3.49927ZM16.5469 29.0082C17.011 26.6954 17.5028 24.3876 18.0728 22.1026C18.1283 22.4607 18.1712 22.8189 18.209 23.1795C17.6491 25.0131 17.1219 26.8593 16.6453 28.7156C16.6125 28.814 16.5797 28.9098 16.5469 29.0057V29.0082ZM15.0941 22.834C15.1723 22.7482 15.2253 22.6322 15.2278 22.4758C15.2278 22.2968 15.2278 22.1202 15.2278 21.9412C15.306 21.4468 15.3867 20.9525 15.4725 20.4607C15.3792 21.6889 15.2909 22.9197 15.2102 24.148C15.1194 24.1127 15.0235 24.0976 14.9277 24.1001C14.9781 23.6764 15.0336 23.2552 15.0941 22.8315V22.834ZM23.677 19.4089C23.6366 19.4417 23.6013 19.477 23.5711 19.5224C23.5257 19.593 23.4878 19.6662 23.4475 19.7368C23.4046 19.6889 23.3617 19.6435 23.3188 19.5981C22.9733 18.8036 22.653 17.999 22.3503 17.1869C22.4109 17.1642 22.4714 17.144 22.5319 17.1213C22.9128 17.883 23.2961 18.6472 23.677 19.4089ZM20.9606 16.7481C20.885 17.0356 20.9833 17.3609 21.228 17.4644C21.344 17.7771 21.4626 18.0898 21.5836 18.4001C21.4197 18.3849 21.2608 18.4102 21.1221 18.4858C21.0943 18.4631 21.0716 18.4379 21.0439 18.4152C20.9632 18.3446 20.8724 18.2992 20.7816 18.2714C20.7942 17.5451 20.774 16.8162 20.7286 16.0847C20.8068 16.3067 20.8799 16.5286 20.9606 16.7506V16.7481ZM20.5924 21.0962C20.8371 21.5805 21.1094 22.0496 21.3188 22.5187C21.3541 22.5969 21.3844 22.6776 21.4172 22.7558C21.1246 22.322 20.8345 21.8907 20.547 21.4544C20.5621 21.3358 20.5798 21.2173 20.5924 21.0962ZM25.5535 22.9021C25.3492 22.433 25.1701 21.9512 25.0213 21.4569C25.1045 21.4569 25.1878 21.4367 25.2659 21.3964C25.4551 22.0017 25.6468 22.607 25.8359 23.2123C25.7451 23.1064 25.6493 23.0055 25.556 22.9021H25.5535ZM21.8888 15.9158C21.8585 15.8275 21.8257 15.7392 21.7955 15.6509C21.8358 15.7316 21.8762 15.8149 21.9191 15.8956C21.909 15.9032 21.8989 15.9082 21.8888 15.9158ZM19.5482 19.9335C19.3364 19.6082 19.1296 19.2778 18.9202 18.9499C19.1371 18.2008 19.3692 17.4568 19.6138 16.7153C19.6592 17.7922 19.6315 18.8641 19.5482 19.9335ZM19.117 21.3737C19.1775 21.4645 19.238 21.5578 19.2986 21.6486C19.2532 21.6284 19.2052 21.6158 19.1548 21.6082C19.1422 21.53 19.1296 21.4519 19.117 21.3737ZM20.2898 23.1417C20.6479 23.6739 21.0086 24.206 21.3718 24.7332C20.9632 24.4683 20.5521 24.206 20.1359 23.9488C20.1889 23.6814 20.2418 23.4116 20.2898 23.1417ZM26.2395 28.0624C24.991 26.4179 23.9393 24.6222 23.0919 22.7381C22.8926 22.2943 22.7034 21.8428 22.5269 21.3888C22.7589 21.6183 22.991 21.8504 23.218 22.0874C23.9166 23.4847 24.6985 24.8391 25.5938 26.1355C25.5938 26.138 25.5963 26.143 25.5989 26.1481C25.6266 26.1884 25.6518 26.2313 25.6821 26.2742C25.8284 26.4835 26.0251 26.5289 26.2067 26.4734C27.0213 27.737 27.9192 28.9628 28.7692 30.2138C28.0125 29.5807 27.2458 28.9603 26.4665 28.3575C26.3908 28.2616 26.3126 28.1658 26.2395 28.0674V28.0624ZM27.4728 26.3423C27.5409 26.3145 27.6014 26.2792 27.6569 26.2313C27.8083 26.5819 27.9571 26.9299 28.1084 27.2805C27.894 26.9703 27.6821 26.6576 27.4728 26.3423ZM17.8181 7.71629C18.0476 8.17532 18.2771 8.63183 18.5066 9.09086C18.5369 9.19426 18.5697 9.29514 18.6024 9.39855C19.0186 10.7655 19.4297 12.13 19.8635 13.492C19.6617 13.5248 19.4701 13.6458 19.3894 13.8577C18.9051 15.1263 18.4763 16.4101 18.0829 17.704C18.0501 17.6787 18.0097 17.6611 17.9719 17.6434C18.0577 16.7153 18.1207 15.7871 18.1636 14.8565C18.2393 13.1818 18.3225 11.4566 17.7802 9.85758C17.7348 8.41239 17.6163 6.96973 17.4271 5.53464C17.5331 5.87008 17.6062 6.20048 17.6743 6.40729C17.7474 6.63681 17.8155 6.86884 17.8887 7.09836C17.75 7.24716 17.6945 7.46912 17.8181 7.71881V7.71629ZM9.35628 22.1328C9.35628 22.1328 9.35376 22.1429 9.35124 22.148C9.28566 22.1177 9.22009 22.0849 9.15451 22.0547C9.16712 22.037 9.17721 22.0219 9.18982 22.0042C9.24531 22.0471 9.3008 22.09 9.35628 22.1328ZM8.20871 21.2198C8.1507 21.3182 8.09017 21.4191 8.03216 21.5174C7.62105 21.3207 7.20742 21.1265 6.79631 20.9298C7.22003 20.9071 7.64123 20.8667 8.06242 20.8163C8.06999 20.96 8.12296 21.1063 8.20871 21.2198ZM11.1974 20.8062C11.1874 21.0281 11.1722 21.2476 11.152 21.4695C11.1243 21.6435 11.0966 21.8201 11.0688 21.9941C10.9755 21.9235 10.8847 21.8529 10.7914 21.7797C10.9276 21.4544 11.0612 21.1315 11.1974 20.8062ZM25.6367 29.162C26.8524 30.698 28.2925 32.0474 30.111 32.8318C30.2144 32.8772 30.3153 32.8721 30.4136 32.8494C30.6204 33.2277 30.8172 33.6086 30.9962 33.9995C29.319 32.804 27.6922 31.5404 26.1209 30.2062C25.0843 29.326 24.0755 28.413 23.0919 27.4747C22.8724 27.2654 22.6606 27.051 22.4462 26.8392C23.5307 27.5857 24.595 28.36 25.6367 29.162ZM25.8813 18.2134C25.7729 18.3093 25.6695 18.4051 25.5635 18.501C25.4778 18.2286 25.3946 17.9562 25.3063 17.6838C25.271 17.5703 25.2331 17.4593 25.1978 17.3458C26.0528 16.6749 26.9331 16.0393 27.8284 15.429C27.0718 16.2714 26.4059 17.1869 25.8813 18.2109V18.2134ZM24.8145 16.1856C24.8069 16.1655 24.8019 16.1453 24.7943 16.1226C24.8876 16.0772 24.9835 16.0318 25.0768 15.9839C24.9885 16.0494 24.9027 16.1175 24.8145 16.1831V16.1856ZM16.335 6.10716C16.4611 7.15385 16.5545 8.20558 16.6024 9.25983C16.5419 9.34054 16.4965 9.43134 16.4838 9.53727C16.3401 10.8387 16.2064 12.1401 16.0803 13.4415C16.0904 10.9951 16.1736 8.54859 16.3376 6.10716H16.335ZM13.3816 18.0419C13.2126 18.1378 13.0436 18.2311 12.8747 18.3219C12.8646 18.2008 12.857 18.0798 12.8444 17.9587C12.8394 17.9158 12.8217 17.8855 12.8116 17.8477C13.0083 17.8124 13.2051 17.7796 13.4018 17.7468C13.3967 17.8452 13.3892 17.9436 13.3841 18.0419H13.3816ZM14.5342 32.123C14.6654 32.0348 14.7637 31.9011 14.7764 31.717C14.8369 30.7258 14.8974 29.7295 14.9857 28.7383C15.074 28.1078 15.1648 27.4773 15.2556 26.8467C15.2682 26.8568 15.2808 26.8694 15.2959 26.8795C15.0235 28.3373 14.8318 29.8077 14.9201 31.2983C14.9453 31.7119 15.2505 31.9086 15.5431 31.8859C15.1068 33.0789 14.6452 34.2618 14.1584 35.4346C14.2694 34.3299 14.398 33.2277 14.5342 32.1256V32.123ZM27.1096 22.4204C27.0012 22.3699 26.8877 22.3649 26.7792 22.3876C26.6203 21.8781 26.4589 21.3661 26.3 20.8566C26.3959 20.7305 26.4967 20.612 26.5951 20.4884C26.5623 20.6372 26.5497 20.7911 26.5774 20.96C26.6582 21.4468 26.8675 21.9412 27.1096 22.4204ZM30.9962 14.4832C30.8853 14.463 30.7667 14.4832 30.6482 14.5614C30.2825 14.8035 29.9218 15.0507 29.5662 15.3029C30.8247 14.0872 32.2573 13.0304 33.6672 12.0014C33.8084 11.898 33.8664 11.7668 33.8715 11.6306C33.927 11.6105 33.9824 11.5853 34.0405 11.5651C34.0329 11.5676 34.1792 11.5222 34.3255 11.4768C34.2397 11.6584 34.2321 11.8753 34.2775 12.0796C33.1829 12.8816 32.0883 13.6811 30.9937 14.4832H30.9962ZM24.3454 13.1212C26.4034 12.2965 28.5119 11.6079 30.6608 11.0657C31.7226 10.7958 32.7945 10.5638 33.8715 10.3645C33.9623 10.3469 34.0531 10.3343 34.1413 10.3191C33.9951 10.3645 33.8488 10.4175 33.7126 10.4654C32.2926 10.9623 30.9307 11.6029 29.599 12.2965C29.0088 12.6042 28.4211 12.922 27.8335 13.2423C27.8839 13.207 27.9344 13.1742 27.9848 13.1389C28.5826 12.7303 28.1588 11.7845 27.4602 12.1073C26.2723 12.6521 25.0843 13.1969 23.8964 13.7417C23.7249 13.3356 23.5433 12.9346 23.3491 12.5361C23.4223 12.6471 23.4929 12.758 23.566 12.869C23.7501 13.149 24.0276 13.2499 24.3454 13.1212ZM19.6189 6.80579C20.3679 7.95841 21.1195 9.11103 21.8686 10.2611C21.6542 10.2006 21.4172 10.2763 21.233 10.4881C21.1599 10.5739 21.112 10.6672 21.0767 10.7605C20.5193 9.86515 19.9619 8.96727 19.402 8.07191C19.3389 7.86762 19.2784 7.66584 19.2153 7.46155C18.9581 6.62924 18.726 5.76919 18.4108 4.9495C18.8118 5.56742 19.2153 6.18535 19.6189 6.80327V6.80579ZM15.2076 5.20171C15.2228 5.12605 15.2404 5.0529 15.2556 4.97976C15.1471 6.42243 15.0639 7.86761 15.0084 9.3128C14.8495 9.3128 14.6906 9.36829 14.5746 9.47674C14.5872 9.35064 14.5948 9.222 14.6099 9.0959C14.7562 7.79195 14.9554 6.49053 15.2076 5.20171ZM10.4181 18.3194C10.2617 18.5363 10.1054 18.7532 9.94898 18.9701C9.88593 18.9625 9.82036 18.9676 9.74974 18.9877C8.26924 19.4367 6.75091 19.6914 5.20989 19.7545C5.86564 19.5376 6.52392 19.3307 7.18472 19.1391C8.25411 18.8314 9.33106 18.559 10.4156 18.3168L10.4181 18.3194ZM2.48849 21.4897C2.33717 21.4216 1.9538 21.2879 1.8731 21.1114C1.88066 21.129 1.79743 21.0408 1.80247 21.0206C1.81256 20.9727 2.20602 20.8541 2.26402 20.8289C2.78359 20.6221 3.30567 20.4228 3.83027 20.2311C3.93873 20.1908 4.04718 20.158 4.15563 20.1202C4.13545 20.163 4.12032 20.2059 4.11023 20.2488C3.90342 20.2992 3.69408 20.3421 3.48726 20.4001C2.95509 20.5439 2.8416 21.3308 3.41664 21.5149C4.79625 21.9613 6.17587 22.4103 7.55548 22.8567C8.10278 23.1417 8.66774 23.3914 9.24783 23.6032C8.77367 23.515 8.30455 23.4166 7.83543 23.3056C6.00436 22.8693 4.20355 22.2665 2.49102 21.4872L2.48849 21.4897ZM14.3199 39.2582C14.0979 39.6062 13.8659 39.9543 13.591 40.262C13.4775 40.3906 12.7813 41.1422 12.5947 41.0186C12.4308 40.9102 12.514 39.9467 12.5115 39.7702C12.5014 39.301 12.509 38.8319 12.5266 38.3628C12.5619 37.4195 12.6401 36.4788 12.7334 35.5405C12.9125 33.6994 13.1471 31.8633 13.1975 30.012C13.2227 29.099 13.1975 28.1835 13.1092 27.273C13.031 26.4659 12.9579 25.5352 12.6225 24.7887C12.5443 24.6121 12.4383 24.4784 12.3223 24.3675C12.345 24.37 12.3702 24.375 12.3929 24.3775C12.5745 24.4305 12.7738 24.4078 12.9125 24.2943C12.9302 24.5894 12.9478 24.8845 12.9554 25.1796C12.9655 25.5831 13.3009 25.795 13.6086 25.7773C13.4724 27.4344 13.4346 29.0965 13.5456 30.7636C13.1925 33.4547 12.8873 36.1534 12.7057 38.8622C12.6578 39.5558 13.5708 39.6567 13.8331 39.0867C14.3753 37.9038 14.8899 36.7108 15.3817 35.5077C15.6415 35.7524 16.1055 35.7398 16.3073 35.2908C17.692 32.2037 18.9253 28.9779 19.75 25.6714C19.8433 25.8101 19.9442 25.9463 20.0527 26.08C19.9896 26.1405 19.9392 26.2137 19.914 26.3095C18.9303 29.954 17.5431 33.4875 15.7449 36.8092C15.2959 37.6389 14.8293 38.4612 14.3224 39.2582H14.3199ZM32.7113 34.3501C32.7491 34.5544 32.792 34.7738 32.7466 34.9377C32.0959 32.9326 31.4326 30.9326 30.6986 28.9577C31.1249 29.7774 31.5284 30.6097 31.8689 31.4698C32.2397 32.4005 32.5322 33.3639 32.7113 34.3501ZM29.7528 17.2853C29.2005 17.7292 28.6582 18.1857 28.1286 18.6573C28.8297 17.8755 29.5637 17.1213 30.3304 16.4C31.6192 15.4567 32.9105 14.5109 34.1994 13.5677C34.0606 13.7038 33.9194 13.84 33.7782 13.9737C32.507 15.1591 31.1097 16.1982 29.7553 17.2853H29.7528ZM35.584 12.0064C35.5537 11.9257 35.5058 11.8551 35.4428 11.7996C35.4579 11.7341 35.4806 11.671 35.5083 11.6105C35.5437 11.4844 35.579 11.3608 35.5891 11.2296C35.6092 10.9598 35.5411 10.6697 35.3419 10.473C35.1527 10.2863 34.9358 10.2208 34.7113 10.2182C34.9156 10.1829 35.1199 10.1451 35.3242 10.1148C35.6017 10.072 36.2927 9.88028 36.5525 10.0921C36.8804 10.3595 35.8942 11.6105 35.584 12.0064Z" fill="#FFD93D"/>
<path d="M25.692 5.4615C25.7702 5.61283 25.9089 5.72885 26.0678 5.78686C26.2923 5.86757 26.5647 5.8373 26.774 5.72633C27.0792 5.56239 27.3717 5.31018 27.6139 5.06301C28.1183 4.54597 28.5092 3.92048 28.7387 3.23446C28.8522 2.88893 28.9279 2.52574 28.9582 2.16255C28.9733 1.98348 28.991 1.77918 28.9531 1.60263C28.8749 1.2344 28.5117 0.972093 28.1359 1.04524C27.7501 1.11838 27.4297 1.45383 27.1775 1.73631C26.9253 2.01879 26.7059 2.31892 26.5193 2.64932C26.1182 3.36309 25.8484 4.13486 25.5962 4.91168C25.5407 5.07814 25.5785 5.26477 25.6718 5.41106C25.6794 5.42871 25.6819 5.44637 25.692 5.46403V5.4615ZM26.7664 5.07309C26.7664 5.07309 26.7664 5.07814 26.7664 5.08066C26.7664 5.08066 26.7664 5.07814 26.7664 5.07562C26.7664 5.07562 26.7664 5.0731 26.7664 5.07058V5.07309ZM28.4033 2.16255C28.426 2.14237 28.4512 2.11967 28.4588 2.12219C28.4411 2.1348 28.4209 2.14994 28.4033 2.16255Z" fill="#FFD93D"/>
<path d="M6.11266 10.5889C6.7659 11.3758 7.58559 11.9836 8.50113 12.43C8.72308 12.5385 8.99295 12.4174 9.14175 12.2308C9.2729 12.0971 9.33848 11.9054 9.3183 11.7037C9.2275 10.8865 8.40781 10.3568 7.86807 9.82719C7.28798 9.25971 6.73815 8.65944 6.22111 8.03647C6.09753 7.88766 5.86297 7.80695 5.67381 7.85487C5.32576 7.94315 5.10129 8.20797 5.07102 8.56612C5.04832 8.83851 5.15173 9.0882 5.27279 9.32529C5.50483 9.77423 5.79235 10.2005 6.11519 10.5914L6.11266 10.5889Z" fill="#FFD93D"/>
<path d="M38.4491 24.9174C37.7403 24.6046 36.9358 24.4609 36.1615 24.4558C35.8588 24.4558 35.5511 24.6702 35.5436 24.9956C35.5385 25.2604 35.7125 25.5378 35.9799 25.5983C36.5045 26.0675 37.0266 26.5366 37.5512 27.0057C38.0859 27.4849 38.6534 28.0726 39.4403 27.9818C39.8236 27.9364 40.1767 27.6766 40.2902 27.3008C40.4063 26.9199 40.2146 26.4811 40.0052 26.1633C39.6269 25.5832 39.072 25.1923 38.4465 24.9148L38.4491 24.9174ZM39.0771 26.7737C39.0771 26.7737 39.0872 26.7762 39.1174 26.7964C39.1174 26.7964 39.1149 26.7964 39.1124 26.7964C39.0998 26.7888 39.0897 26.7812 39.0771 26.7762V26.7737ZM38.7643 26.5467C38.7416 26.524 38.7164 26.5038 38.6937 26.4836C38.5777 26.3802 38.4642 26.2768 38.3482 26.1734C38.3305 26.1583 38.3154 26.1431 38.2977 26.128C38.3911 26.181 38.4819 26.239 38.5701 26.302C38.6105 26.3298 38.6483 26.36 38.6861 26.3903C38.6861 26.3903 38.7593 26.4559 38.782 26.476C38.8551 26.5492 38.9207 26.6299 38.9863 26.7106C38.956 26.6904 38.9232 26.6677 38.893 26.645C38.8501 26.6122 38.8072 26.5769 38.7643 26.5441V26.5467ZM39.1679 27.0637C39.1679 27.0637 39.1679 27.0687 39.1704 27.0713C39.1704 27.0713 39.1679 27.0713 39.1679 27.0637ZM39.1704 27.0713C39.1704 27.0713 39.1704 27.0662 39.1679 27.0637C39.1679 27.0587 39.1679 27.0561 39.1704 27.0435C39.1805 27.0587 39.178 27.0713 39.1704 27.0738V27.0713ZM39.299 26.8418C39.299 26.8418 39.3066 26.8418 39.3167 26.8418C39.3167 26.8418 39.3091 26.8418 39.299 26.8418Z" fill="#FFD93D"/>
</svg>
