<svg width="91" height="79" viewBox="0 0 91 79" fill="none" xmlns="http://www.w3.org/2000/svg">
<path d="M84.7716 28.4102C83.7228 26.3859 81.388 26.1522 79.3639 25.9189C74.271 25.3307 69.0717 25.5385 64.0408 26.5334C63.1993 26.7005 62.367 26.8958 61.5371 27.1054C60.8623 26.265 60.1486 25.4602 59.3631 24.7309C57.9785 23.4549 56.3129 22.7114 54.6066 21.9595C52.9481 21.2296 51.2738 20.305 49.5177 19.8322C47.7209 19.351 46.048 19.9696 44.2872 20.3112C43.7946 20.4085 43.302 20.5058 42.8213 20.6161C42.6335 20.4879 42.3881 20.4329 42.1207 20.5194C38.811 21.5784 35.6997 23.2078 32.942 25.3288C30.2811 27.3754 27.6299 29.953 26.2131 33.0413C24.9392 35.8161 24.4238 39.0237 24.3861 42.1018C20.0913 44.2628 16.1057 47.0409 12.6429 50.3825C9.80523 53.1227 7.07542 56.7976 8.4345 60.9475C9.00752 62.7065 10.3371 64.1341 12.1524 64.6075C14.4248 65.1962 16.9495 64.5075 19.2141 64.1704C24.5179 63.3741 29.8349 62.63 35.1175 61.699C35.3099 61.6687 35.5057 61.628 35.6974 61.5928C38.119 62.6906 40.7715 63.3132 43.3835 63.7103C46.793 64.2235 50.3669 64.2471 53.7029 63.2925C56.9256 62.3704 59.6781 60.5609 61.8335 57.9973C63.5275 55.9798 64.8395 53.6033 65.8791 51.1563C69.2453 49.1416 72.4568 46.8653 75.456 44.3364C77.2625 42.814 79.001 41.2037 80.6418 39.5052C82.1387 37.9577 83.5604 36.3085 84.4628 34.3368C85.2851 32.5454 85.7196 30.2333 84.77 28.4005L84.7716 28.4102ZM12.9975 62.0531C10.788 61.3312 10.105 58.9683 10.7481 56.8846C11.4209 54.7074 13.1691 52.9082 14.7756 51.368C17.6033 48.659 20.9113 46.5253 24.5068 45.0268C24.798 48.0333 25.6606 51.004 27.1597 53.6329C28.4687 55.9317 30.2147 57.9989 32.3259 59.5993C29.8628 60.1156 27.3872 60.5846 24.9041 61.0054C22.7329 61.3722 20.5565 61.7053 18.3763 62.0143C16.6347 62.2591 14.7135 62.6161 12.9975 62.0531ZM65.1919 36.5301C65.4528 37.278 65.6678 38.0479 65.8347 38.8254C65.7511 38.7646 65.6554 38.7205 65.549 38.7027C64.846 35.8055 63.6678 33.0225 62.0446 30.4823C61.7239 29.9805 61.3768 29.4681 61.0113 28.9635C62.7655 31.2711 64.2376 33.7908 65.1878 36.5357L65.1919 36.5301ZM63.4719 46.989C63.4719 46.989 63.4638 47.0002 63.4605 47.0106C63.642 46.2226 63.794 45.4343 63.9196 44.6353C63.9405 45.0808 63.9421 45.5293 63.9285 45.9752C63.7805 46.3191 63.627 46.6589 63.4719 46.989ZM35.9948 28.6793C36.4743 28.2487 36.9768 27.8391 37.507 27.4794C37.6477 27.6841 37.8812 27.8199 38.1544 27.8015C37.846 28.6293 37.5375 29.457 37.2283 30.2799C37.0312 30.4688 36.8349 30.6624 36.633 30.852C36.079 31.3733 35.5235 31.8849 34.9616 32.3877C34.8482 32.2625 34.7308 32.143 34.5948 32.0312C34.5384 31.9859 34.4697 31.9573 34.4011 31.9286C34.6321 30.9849 34.9895 30.0607 35.4471 29.2094C35.4552 29.1983 35.4633 29.1871 35.4659 29.1719C35.6419 29.0061 35.8172 28.8355 35.994 28.6745L35.9948 28.6793ZM59.7148 52.7194C59.632 52.7571 59.5547 52.7989 59.4719 52.8366C59.4927 52.7495 59.5183 52.6616 59.5391 52.5745C59.6404 52.5289 59.741 52.4786 59.8423 52.433C59.803 52.528 59.7541 52.6244 59.71 52.7202L59.7148 52.7194ZM53.756 26.576C53.8446 26.7001 53.9332 26.8242 54.0218 26.9483C53.5952 26.838 53.1644 26.7333 52.7296 26.6342C52.9338 26.6464 53.1427 26.6578 53.3468 26.6701C53.4861 26.6777 53.6281 26.6405 53.7553 26.5712L53.756 26.576ZM34.4485 55.67C34.4485 55.67 34.4787 55.7047 34.4921 55.7272C34.1829 55.6428 33.8505 55.3796 33.572 55.1769C33.6272 55.183 33.6832 55.1939 33.7361 55.1855C33.7986 55.1757 33.8564 55.1666 33.9126 55.1479C34.101 55.3105 34.2812 55.4843 34.4437 55.6707L34.4485 55.67ZM40.0034 27.5496C39.9525 27.602 39.9056 27.6489 39.8547 27.7013C39.8719 27.6542 39.8891 27.6071 39.9023 27.5655C39.936 27.5602 39.9649 27.5557 39.9986 27.5504L40.0034 27.5496ZM54.7587 28.7455C54.999 28.831 55.2352 28.9219 55.4667 29.0137C55.6904 29.3384 55.9149 29.6679 56.1346 29.9982C56.4896 31.0617 56.8438 32.1203 57.1987 33.1838C57.0033 33.1012 56.7994 33.0593 56.6032 33.0656C56.2178 32.1845 55.6396 31.3633 55.0235 30.6763C54.7371 30.3614 54.4331 30.0592 54.121 29.7682C54.2467 29.3144 54.4393 28.9093 54.7587 28.7455ZM56.9077 43.6987C56.8337 44.0111 56.7548 44.3244 56.6752 44.6328C56.4432 45.5077 56.196 46.38 55.9481 47.2475C55.9961 46.8948 56.0448 46.5468 56.0928 46.1941C56.5823 42.8229 57.0975 39.4575 57.6071 36.0881C57.6989 36.2955 57.7948 36.4974 57.8778 36.7111C57.8816 37.5488 57.8317 38.3901 57.7403 39.2181C57.6577 39.9462 57.5441 40.6643 57.4111 41.3855C57.2314 42.1535 57.0668 42.9241 56.9125 43.6979L56.9077 43.6987ZM37.6689 35.1417C39.0782 32.5379 40.6813 30.0366 42.4354 27.6497C42.7563 27.7766 43.0852 27.8925 43.4126 27.9987C41.0575 30.9537 38.997 34.1188 37.0733 37.3708C37.0848 37.0682 37.1011 36.7648 37.1126 36.4622C37.1517 36.3032 37.1915 36.149 37.2313 35.9947C37.3788 35.7102 37.5159 35.4223 37.6689 35.1417ZM50.7007 47.3692C50.8351 46.7513 50.9743 46.1327 51.1095 45.5196C51.158 45.295 51.1155 45.1193 51.0205 44.9863C51.1373 44.1937 51.2692 43.4036 51.4067 42.6176C51.4247 42.5753 51.4419 42.5282 51.4599 42.486C51.4599 42.486 51.4599 42.486 51.4607 42.4908C51.4611 43.5263 51.3359 44.7344 51.7653 45.7072L50.6124 51.9099C50.5208 52.3928 50.4341 52.875 50.3425 53.3579C50.3408 53.1905 50.3343 53.0239 50.3333 52.8613C50.3496 51.0243 50.4851 49.1932 50.6959 47.3699L50.7007 47.3692ZM34.283 45.8878C34.2582 45.7931 34.2334 45.6984 34.2086 45.6037C34.2347 45.5502 34.2664 45.5009 34.2925 45.4474C34.2912 45.5956 34.2851 45.7445 34.2845 45.8974C34.2845 45.8974 34.2837 45.8926 34.283 45.8878ZM46.4424 45.4118C46.4406 45.2444 46.4445 45.0811 46.4476 44.9129C46.5404 44.4693 46.6332 44.0256 46.7365 43.5853C46.6418 44.33 46.5478 45.0796 46.4483 45.8251C46.4463 45.6873 46.4395 45.5503 46.4424 45.4118ZM47.2559 36.1164C47.0978 36.6148 46.9444 37.1123 46.791 37.6099C46.8159 37.3298 46.8408 37.0497 46.8657 36.7697C46.8868 36.5592 46.8188 36.3776 46.7023 36.2333C47.1197 35.3144 47.553 34.4029 48.0238 33.5101C48.0109 33.6157 47.9972 33.7165 47.9842 33.8221C47.7404 34.5903 47.4957 35.3538 47.2519 36.122L47.2559 36.1164ZM44.6474 33.6131C44.7533 33.2216 44.8601 32.835 44.9612 32.4443C45.0593 32.3154 45.1621 32.1858 45.265 32.0561C45.0714 32.5798 44.8618 33.0961 44.6474 33.6131ZM42.248 48.6172C42.4295 47.8292 42.6519 47.0496 42.9365 46.2897C42.9956 46.1324 43.0698 45.9777 43.1337 45.8197C43.1151 47.736 43.1469 49.6591 42.5646 51.4718C42.5168 51.4498 42.4649 51.4333 42.417 51.4113C42.3396 50.4816 42.2862 49.5481 42.2472 48.6124L42.248 48.6172ZM53.2558 40.551C53.1864 41.1438 53.1019 41.7341 53.0022 42.3218C53.001 42.1889 53.0005 42.0607 52.9993 41.9278C53.0113 40.7523 53.0474 39.573 53.1139 38.3987C53.1159 38.3491 53.1228 38.2987 53.1241 38.2442C53.1805 39.0095 53.2226 39.7771 53.255 40.5462L53.2558 40.551ZM45.4421 29.4246C45.5255 29.2339 45.604 29.044 45.6874 28.8533C45.7998 28.9096 45.9155 28.9555 46.0287 29.0165C45.8124 29.1147 45.6222 29.2532 45.4421 29.4246ZM42.5983 53.1875C42.6406 53.2055 42.6829 53.2235 42.7211 53.2471C42.8814 53.3254 43.0536 53.3229 43.2078 53.269C43.1594 53.4936 43.1109 53.7182 43.0521 53.9395C42.9824 54.2168 42.9027 54.5252 42.8198 54.844C42.7334 54.2955 42.6558 53.7406 42.5935 53.1883L42.5983 53.1875ZM41.6716 34.4124C41.4524 34.7428 41.2388 35.0773 41.026 35.4165C41.1649 34.9213 41.2631 34.4176 41.2701 33.8987C41.2694 33.8002 41.2605 33.7128 41.238 33.6325C41.8451 32.7282 42.4688 31.836 43.1149 30.96C42.6257 32.112 42.1462 33.2626 41.6723 34.4172L41.6716 34.4124ZM38.3563 43.6039C37.9854 44.8803 37.6705 46.1677 37.4459 47.4655C37.4223 46.9712 37.3946 46.4824 37.3613 45.9896C37.6736 45.1859 38.0066 44.3888 38.3563 43.6039ZM54.2327 32.6057C54.2061 32.8121 54.1835 33.0129 54.1568 33.2193C54.1008 32.7695 54.052 32.3038 53.9881 31.8356C54.1142 31.9784 54.2314 32.1276 54.3438 32.2776C54.2885 32.3652 54.2467 32.4753 54.232 32.6009L54.2327 32.6057ZM49.3168 38.5236C49.5288 37.4596 49.752 36.4036 49.9993 35.3439C50.1965 34.4992 50.4027 33.6481 50.6559 32.8143C50.844 33.0065 51.0321 33.1988 51.221 33.3959C50.4671 35.0582 49.8504 36.7777 49.3216 38.5229L49.3168 38.5236ZM50.5065 29.0802C50.5065 29.0802 50.528 29.0916 50.5335 29.0957C50.5254 29.1068 50.5173 29.118 50.5092 29.1291C50.5062 29.1099 50.5039 29.0954 50.5009 29.0762L50.5065 29.0802ZM49.1148 28.6979C49.0345 28.8141 48.9597 28.9344 48.8802 29.0554C48.1255 28.4593 47.3165 27.926 46.4513 27.5051C47.4495 27.7374 48.4236 28.0671 49.3536 28.4926C49.2627 28.5415 49.1796 28.6088 49.1155 28.7027L49.1148 28.6979ZM52.1442 30.5235C52.1945 30.7177 52.236 30.9183 52.2775 31.1189C52.2607 31.2004 52.2488 31.2812 52.2328 31.3675C52.1996 31.4073 52.1712 31.4463 52.1484 31.4893C52.0727 31.6344 52.0017 31.7787 51.926 31.9238C51.6958 31.6839 51.4569 31.4503 51.2219 31.2112C51.3446 30.9256 51.4769 30.6385 51.6259 30.3635C51.6902 30.2399 51.7802 30.1222 51.839 29.9946C51.8463 29.9786 51.8585 29.9619 51.8706 29.9452C51.904 29.9695 51.9319 29.9898 51.9653 30.0141C52.0293 30.2013 52.1217 30.4432 52.1434 30.5186L52.1442 30.5235ZM52.9045 28.6827C52.6498 28.4121 52.348 28.218 52.0201 28.1711C51.8943 28.0923 51.7669 28.0039 51.6411 27.9251C52.1488 28.0177 52.654 28.1255 53.1526 28.254C53.0608 28.3917 52.9795 28.5328 52.9093 28.6819L52.9045 28.6827ZM34.1331 38.5836C34.0741 38.7409 34.0191 38.8925 33.96 39.0498C33.9159 39.1455 33.8766 39.2404 33.8373 39.3354C33.9818 38.0305 34.2416 36.737 34.5795 35.4707C34.6556 35.9223 34.7317 36.3738 34.7926 36.8228C34.5744 37.4095 34.3513 37.9969 34.1331 38.5836ZM31.9242 41.4022C31.9242 41.4022 31.9156 41.3789 31.9093 41.3701C31.9129 41.3301 31.9212 41.2893 31.9248 41.2493C31.9227 41.2989 31.9263 41.3526 31.9242 41.4022ZM40.1965 52.6537C40.2099 52.6762 40.2233 52.6988 40.2319 52.7221C40.2307 53.4965 40.2783 54.2681 40.3692 55.0329C40.0462 54.6104 39.8005 54.1462 39.6294 53.6553C39.8443 53.3601 40.0308 53.0102 40.1965 52.6537ZM35.8394 34.0147C35.8161 33.9296 35.7832 33.8461 35.7503 33.7625C35.8407 33.6792 35.9312 33.5959 36.0264 33.5119C35.9641 33.6795 35.9017 33.8471 35.8394 34.0147ZM37.9212 54.2056C38.0303 54.2722 38.1356 54.3148 38.2394 54.3477C38.4553 54.9351 38.7562 55.4991 39.168 56.0161C39.6536 56.6251 40.2328 57.1403 40.8736 57.5769C40.5991 57.6497 40.3238 57.7177 40.0492 57.7906C39.4259 57.2773 38.9005 56.29 38.6414 55.8032C38.3498 55.2673 38.1056 54.7189 37.8743 54.1587C37.891 54.1709 37.9093 54.1927 37.926 54.2048L37.9212 54.2056ZM45.4277 57.8751C45.6349 57.8129 45.8365 57.7466 46.0437 57.6844C46.0467 57.7036 46.0505 57.7277 46.0535 57.7469C45.8456 57.8043 45.6321 57.8577 45.4242 57.9151C45.4227 57.9055 45.43 57.8895 45.4325 57.8743L45.4277 57.8751ZM55.5814 57.6263C55.6131 57.4833 55.64 57.341 55.6717 57.1979C55.9775 56.8538 56.2825 56.505 56.5708 56.144C56.5793 56.4483 56.5878 56.7527 56.6019 57.0612C56.2513 57.3087 55.8889 57.5434 55.5256 57.7732C55.5477 57.7254 55.5705 57.6823 55.5814 57.6263ZM60.4469 50.4491C60.5112 50.3255 60.57 50.1979 60.6288 50.0703C60.6014 50.1782 60.5796 50.2901 60.5474 50.3987C60.5153 50.4137 60.479 50.4342 60.4469 50.4491ZM59.3347 46.2701C59.0268 47.8522 58.7044 49.4366 58.3405 51.0078C58.3007 51.0683 58.2561 51.1296 58.2164 51.1901C58.3975 48.553 58.7635 45.931 59.2055 43.3218C59.2332 43.6232 59.2554 43.9205 59.2824 44.217C59.3235 44.7283 59.3821 45.2566 59.4326 45.796C59.4032 45.9535 59.3697 46.1166 59.3403 46.2741L59.3347 46.2701ZM58.9347 54.8099C59.1051 54.7337 59.27 54.6535 59.4405 54.5773C59.4594 54.6039 59.4777 54.6257 59.4959 54.6475C59.2626 54.8568 59.0285 55.0614 58.7904 55.2715C58.8399 55.1158 58.89 54.9648 58.9347 54.8099ZM61.0362 48.0238C61.0493 47.356 61.012 46.6813 60.9563 46.0145C61.1409 45.0584 61.3104 44.0997 61.455 43.1399C61.4219 43.806 61.3888 44.472 61.3405 45.1354C61.2758 46.1023 61.1768 47.0696 61.0313 48.0245L61.0362 48.0238ZM29.3331 38.2896C29.6656 37.4581 30.0515 36.6527 30.4694 35.8619C30.4493 35.9538 30.4285 36.041 30.4085 36.1329C30.218 37.0209 30.0524 37.91 29.9075 38.8056C29.5941 39.3827 29.2528 39.9394 28.8755 40.4871C28.8789 40.1019 28.9024 39.7185 28.941 39.3376C29.0614 38.9439 29.2241 38.5681 29.3331 38.2896ZM45.2945 59.5333C45.7498 59.6686 46.2076 59.7888 46.6695 59.9034C46.0564 59.862 45.4406 59.7716 44.8442 59.6486C44.9959 59.6099 45.1476 59.5712 45.2945 59.5333ZM62.1871 36.2688C61.9902 36.7091 61.8958 37.2369 61.8491 37.6288C61.8455 37.6689 61.8427 37.7137 61.8343 37.7544C61.8263 37.4845 61.8231 37.2138 61.8047 36.9405C61.78 36.5647 61.7449 36.1856 61.6947 35.804C61.6982 35.764 61.7074 35.728 61.7061 35.6887C61.6652 35.1478 61.5866 34.6178 61.4792 34.0923C61.7274 34.8224 61.9556 35.5508 62.1823 36.2696L62.1871 36.2688ZM48.3391 23.8692C47.0005 23.9174 45.679 24.1059 44.3862 24.4131C44.1318 24.0193 43.4823 23.8405 43.0618 24.3013C42.9865 24.3871 42.9105 24.4681 42.8345 24.5491C41.7238 24.5417 40.622 24.6216 39.5585 24.8829C40.5884 24.2521 41.7081 23.7848 42.8799 23.4916C44.0583 23.2714 45.2756 23.267 46.4929 23.3563C46.8064 23.4055 47.1159 23.4603 47.4268 23.5247C47.9464 23.6302 48.4764 23.7391 49.0072 23.8527C48.7853 23.8531 48.5643 23.8584 48.3439 23.8684L48.3391 23.8692ZM29.0111 42.6305C29.1299 42.6019 29.2378 42.5356 29.3323 42.4468C29.2681 42.8218 29.2198 43.2042 29.1757 43.581C29.1112 43.2657 29.0508 42.9448 29.0111 42.6305ZM36.0875 57.9661C36.2547 57.8066 36.3966 57.6117 36.4805 57.3617C36.4878 57.3458 36.4896 57.3258 36.4914 57.3058C36.9294 57.6756 37.3843 58.028 37.8548 58.3533C37.5602 58.4244 37.2649 58.4907 36.9704 58.5617C36.6734 58.3669 36.3805 58.1665 36.0875 57.9661ZM28.5222 34.4576C28.532 34.4265 28.5412 34.3905 28.5511 34.3594C28.9916 32.993 29.6142 31.6868 30.4837 30.5389C30.5939 30.3933 30.7168 30.2654 30.8333 30.1287C29.8875 31.481 29.1051 32.9308 28.5222 34.4576ZM27.6248 43.6281C27.8349 44.7736 28.1665 45.9393 28.6544 47.0016C28.7817 47.2774 28.9386 47.5534 29.1247 47.7953C29.1729 48.3203 29.2355 48.843 29.3222 49.3619C29.3423 49.8026 29.3817 50.2402 29.4451 50.674C28.1933 48.5191 27.5508 46.1004 27.4739 43.5779C27.4833 43.5123 27.4782 43.449 27.4676 43.3816C27.4599 43.0821 27.4569 42.7817 27.454 42.4814C27.4994 42.8638 27.5497 43.2454 27.62 43.6289L27.6248 43.6281ZM30.236 55.4116C28.2937 53.0055 27.0684 50.2053 26.4466 47.2607C26.8257 48.8529 27.432 50.3847 28.3424 51.8439C28.877 52.7015 29.5002 53.4959 30.1832 54.2315C30.2012 54.2829 30.2087 54.331 30.2267 54.3824C30.6 55.2803 31.3273 56.078 32.0189 56.7432C32.8956 57.5814 33.8827 58.3382 34.8967 59.0463C34.7394 59.0809 34.5822 59.1156 34.4249 59.1502C32.8369 58.1479 31.425 56.8861 30.236 55.4116ZM41.7737 60.379C41.9829 60.4545 42.1872 60.5308 42.3949 60.5967C43.08 60.8142 43.8263 61.0122 44.6049 61.1657C44.6322 61.3389 44.7332 61.5104 44.9403 61.6355C45.0112 61.6786 45.0862 61.7161 45.1611 61.7536C44.1234 61.6459 43.095 61.4726 42.1014 61.1755C41.599 61.0229 41.1114 60.8384 40.6351 60.6324C41.017 60.5525 41.3974 60.4629 41.7737 60.379ZM53.4457 61.3161C53.6002 61.2326 53.7476 61.1354 53.8958 61.043C54.2073 61.0482 54.5195 61.0581 54.8292 61.0833C54.2208 61.3222 53.5748 61.4782 52.9163 61.5869C53.0949 61.4996 53.2727 61.4075 53.4449 61.3113L53.4457 61.3161ZM65.2805 47.9517C65.3223 47.6541 65.3594 47.3573 65.3861 47.0573C65.4973 47.0743 65.6158 47.0753 65.7249 47.0483C65.657 47.3055 65.585 47.5684 65.5074 47.8272C65.4301 47.8689 65.3577 47.9099 65.2805 47.9517ZM67.3936 38.6734C66.6378 35.1286 64.9964 31.8466 62.9058 28.9067C67.332 27.7358 71.9176 27.2007 76.4958 27.4014C78.2586 27.4787 80.5575 27.4222 82.0753 28.4799C83.7818 29.6707 82.4963 32.2156 81.7883 33.6685C80.0623 37.2049 77.0674 39.9797 73.9754 42.326C71.8654 43.9258 69.6509 45.3941 67.3693 46.7497C67.9526 44.0985 67.9719 41.3734 67.3984 38.6727L67.3936 38.6734ZM47.3663 21.2314C49.0734 20.987 50.6166 21.8929 52.1267 22.5573C53.6951 23.2471 55.3731 23.8506 56.8403 24.7438C57.5166 25.155 58.1135 25.6576 58.6733 26.2055C57.9308 25.499 57.1234 24.8816 56.2425 24.4237C54.9479 23.75 53.522 23.4322 52.1387 23.0091C50.6883 22.567 49.2881 21.974 47.8311 21.5526C47.5212 21.4634 47.1983 21.3861 46.8818 21.3176C47.0446 21.287 47.2067 21.2516 47.3711 21.2306L47.3663 21.2314Z" fill="#F9B200"/>
<path d="M64.3504 20.2369C65.2769 19.795 65.731 18.7964 65.982 17.8544C66.2414 16.8717 66.2435 15.821 65.603 14.98C65.0006 14.1923 63.9902 13.9767 63.0808 14.3074C62.4557 14.5341 61.987 15.0024 61.6969 15.5709C61.3443 15.868 61.0773 16.2701 60.9518 16.6942C60.6679 17.6463 60.9512 18.6619 61.6005 19.4028C62.2807 20.1833 63.3418 20.7212 64.3552 20.2361L64.3504 20.2369Z" fill="#F9B200"/>
<path d="M44.1465 12.9415C45.3157 12.9446 46.3568 12.322 47.0266 11.3781C47.6998 10.4239 48.0628 9.12895 47.7535 7.97941C47.4517 6.87798 46.4953 5.90929 45.2997 5.89549C44.672 5.88592 44.077 6.14733 43.5651 6.52879C42.9803 6.82313 42.4792 7.33603 42.1129 7.9214C41.4817 8.92326 41.1053 10.1957 41.5957 11.3364C42.0233 12.3292 43.091 12.9401 44.1521 12.9455L44.1465 12.9415ZM45.6641 7.61332C45.6641 7.61332 45.6517 7.56596 45.6391 7.54823C45.6494 7.55153 45.6598 7.55482 45.6662 7.56369C45.6773 7.5718 45.6988 7.5832 45.7107 7.59611C45.6922 7.60396 45.6786 7.61104 45.6601 7.61889L45.6641 7.61332Z" fill="#F9B200"/>
<path d="M25.0577 70.7451C23.6447 70.6029 22.2908 71.5559 21.9551 72.9303C21.8595 73.3251 21.8429 73.7518 21.9129 74.1649C21.9073 74.3482 21.9113 74.53 21.9457 74.7169C22.0496 75.3761 22.4105 76.0392 22.9855 76.4023C23.5835 76.7864 24.3383 76.914 25.0295 76.7311C26.387 76.3644 27.6318 75.0636 27.6128 73.5971C27.6031 72.8787 27.3643 72.1766 26.858 71.6548C26.381 71.1629 25.7594 70.817 25.0681 70.7484L25.0577 70.7451ZM26.0162 73.9177C26.0162 73.9177 26.017 73.9225 26.0129 73.9281C26.0129 73.9281 26.0122 73.9233 26.0162 73.9177Z" fill="#F9B200"/>
<path d="M15.4675 39.8925C16.07 39.6792 16.5513 39.1349 16.7154 38.5173C16.9075 37.7967 16.7898 37.0805 16.3901 36.4531C16.1879 36.1398 15.8906 35.8809 15.546 35.7281C15.1384 35.5507 14.6359 35.5854 14.2497 35.7942C13.8996 35.9825 13.6177 36.2587 13.3818 36.577C13.2724 36.7274 13.1797 36.8899 13.1133 37.0631C12.9283 37.329 12.815 37.6427 12.781 37.9587C12.7063 38.6115 12.9662 39.2905 13.5105 39.6782C14.0883 40.0901 14.8232 40.1223 15.473 39.8966L15.4675 39.8925Z" fill="#F9B200"/>
</svg>
