<svg width="90" height="101" viewBox="0 0 90 101" fill="none" xmlns="http://www.w3.org/2000/svg">
<path d="M32.0355 21.8641C28.631 22.3027 25.4029 23.8614 22.0012 24.2154C22.2338 22.3131 22.8628 20.5137 24.3725 19.1587C25.7134 17.9518 24.0395 15.761 22.621 16.9363C19.992 19.1095 18.8554 22.3106 18.7435 25.6581C18.7352 25.867 18.7665 26.0786 18.8242 26.2918C18.1331 26.7242 17.7827 27.5845 18.5012 28.3606C18.5977 28.4676 18.6996 28.5724 18.7938 28.674C18.5343 28.6677 18.2693 28.6637 17.999 28.662C17.6221 28.6666 17.3391 28.8179 17.1542 29.0499C16.478 29.3347 16.1839 30.2676 16.6237 31.007C15.9687 31.1287 15.1426 31.2712 14.9667 31.326C13.4004 31.7995 11.8978 32.3938 10.3849 33.0246C9.07606 33.5759 9.33461 35.5923 10.7555 35.7643C12.1895 35.9373 13.5671 36.4486 14.9747 36.7418C15.2911 36.9746 15.6823 37.1565 16.083 37.3152C14.9967 38.4405 14.1363 39.8431 14.1391 41.3893C14.1435 42.9092 15.1772 43.6103 16.6035 43.5361C17.1865 43.5025 17.1821 42.7146 16.7374 42.4973C15.6297 41.9558 16.3699 40.7708 17.3623 39.7429C17.5683 41.2228 18.2768 42.7222 19.3844 44.1627C19.8807 44.8076 20.8019 44.8756 21.4319 44.4048C22.5185 43.6004 23.4053 42.6875 24.0671 41.7282C25.5575 42.3397 26.468 40.1262 25.2785 39.1312C25.3955 38.6774 25.4652 38.2178 25.4844 37.7603C26.4185 38.4841 27.2837 39.2883 28.1096 40.1668C28.7079 40.9165 29.2694 41.5789 29.7809 42.0312C30.9091 43.0329 32.5907 41.278 31.6163 40.1538C31.0439 39.496 30.4388 38.852 29.811 38.2303C29.008 37.2843 28.2559 36.2912 27.4584 35.3429C27.5462 34.9721 27.4959 34.5631 27.2542 34.2026C26.9685 33.7835 26.6688 33.3768 26.3746 32.9678C26.9923 33.3369 27.6155 33.7037 28.2364 34.065C29.9645 35.0579 30.4837 34.7815 32.2053 34.0821C33.4447 33.5793 33.255 31.9705 32.1924 31.4293C31.5712 31.113 30.9971 30.7256 30.4442 30.2971C31.0857 29.7316 31.2317 28.6299 30.3977 27.9153C30.2447 27.7807 30.0863 27.6483 29.9356 27.5192C30.4789 27.239 30.9777 26.8684 31.5144 26.2828C31.7828 25.99 31.9125 25.5051 31.9437 25.1067C31.9787 25.0984 32.016 25.0955 32.0565 25.0849C32.1716 25.0685 32.3031 25.0453 32.4595 25.0051C34.3964 24.5424 34.1102 21.6067 32.0533 21.8758L32.0355 21.8641ZM20.2539 39.4432C20.7181 39.7678 21.194 40.0746 21.6863 40.3745C21.4352 40.6472 21.1585 40.9049 20.8804 41.1441C20.5531 40.5499 20.3429 39.99 20.2539 39.4432ZM23.4354 27.9711C23.0809 27.7544 22.7286 27.5432 22.3741 27.3265C22.8018 27.2748 23.2249 27.2122 23.6434 27.1387C23.4964 27.3996 23.4193 27.6889 23.4354 27.9711ZM22.7813 36.9982C22.3751 36.5978 22.0025 36.1705 21.6385 35.7331C21.6933 35.665 21.7504 35.6024 21.8107 35.5321C21.9447 35.5912 22.0756 35.6581 22.2042 35.7195C22.4606 36.0995 22.6561 36.518 22.7813 36.9982Z" fill="#E95B0C"/>
<path d="M50.0002 58.9226C50.1183 57.5566 48.5329 56.4907 47.384 57.4369C44.5956 59.735 45.6329 64.21 47.0928 67.3257C46.6916 67.6231 46.4301 68.0542 46.2849 68.6547C46.1765 69.0985 46.2285 69.6031 46.3612 70.1315C41.2132 68.184 36.2337 65.7673 30.738 64.8844C28.3495 64.5035 27.7158 67.801 29.7097 68.7848C30.4471 69.1484 31.1854 69.4988 31.926 69.8546C31.7762 69.8343 31.6318 69.8116 31.4897 69.7944C29.2491 69.5053 28.3717 72.7578 30.4829 73.6087C30.9479 73.7981 31.4193 73.9719 31.8874 74.1536C31.0849 74.2604 30.5393 75.3891 31.1586 76.0208C32.1808 77.0607 33.1455 77.2322 34.5644 77.4758C35.0891 77.563 35.346 77.1209 35.2848 76.7165C39.3002 77.1185 43.2539 77.8161 47.2733 78.3192C49.2252 78.5629 49.7899 76.1228 48.513 75.1645C48.786 75.2486 49.0667 75.3358 49.3429 75.4121C50.9678 75.8707 52.7269 74.5134 51.9805 72.741L51.2018 70.8923C51.1329 70.7286 50.9942 70.2927 50.8429 69.8877C51.45 69.3623 51.8259 68.639 51.6932 67.6226C51.5131 66.2345 50.3765 64.8318 50.0397 63.407C49.6853 61.9254 49.8898 60.4138 50.0111 58.918L50.0002 58.9226Z" fill="#009540"/>
<path d="M80.6152 56.7446C79.9891 55.8526 78.8642 55.6971 77.8624 55.6054C77.4431 55.5701 77.082 55.658 76.7826 55.8162C76.7826 55.8162 76.7694 55.8153 76.7617 55.8121C75.8945 55.6894 75.0259 55.548 74.153 55.4726C72.2356 55.3106 71.3586 57.0091 71.851 58.4069C70.4147 58.4725 69.0391 59.7646 69.8148 61.332C69.9721 61.6446 70.1358 61.9417 70.3072 62.2419C69.5609 62.2994 68.8114 62.3646 68.0588 62.4376C66.1541 62.6106 65.8672 64.6127 66.7687 65.8383C64.4043 65.8196 63.5642 68.7032 65.7266 69.8279C65.8853 69.9151 66.0354 70.0124 66.191 70.1074C66.1141 70.1077 66.0418 70.1189 65.9703 70.1169C64.1367 70.093 62.6111 72.5077 64.4898 73.7518C64.7568 73.9283 65.0229 74.118 65.2867 74.3023C64.7066 74.2512 64.1305 74.1793 63.5484 74.0777C62.0325 73.8172 61.2442 75.6196 62.0328 76.745C62.5573 77.4873 63.381 78.6043 64.4464 78.4509C65.0888 78.3602 65.3422 78.0929 65.5868 77.7588C67.4054 77.9302 69.2293 77.9005 71.0749 78.1055C72.9074 78.3097 74.0051 75.8697 72.4449 74.7418C72.0117 74.4299 71.5872 74.1079 71.1658 73.7781C71.315 73.7666 71.462 73.7497 71.6167 73.7359C73.8541 73.5448 73.7913 70.6819 72.1278 69.7965C72.0279 69.7423 71.9366 69.678 71.8422 69.6215C72.0396 69.6025 72.2371 69.5835 72.44 69.5623C74.1892 69.4163 74.5487 67.7238 73.9045 66.4991C74.0994 66.5198 74.2943 66.5404 74.4915 66.5665C76.7117 66.8835 77.4518 64.3566 76.2486 62.9178C76.8184 62.8833 77.3945 62.8333 77.9783 62.7865C79.5378 62.6626 80.0285 61.3579 79.7203 60.1843C79.9121 60.0907 80.0969 59.9807 80.2571 59.8426C81.197 59.0101 81.3493 57.771 80.6207 56.7423L80.6152 56.7446Z" fill="#009540"/>
<path d="M72.0537 36.5679C70.9686 35.1501 69.7936 33.8086 68.585 32.4941C69.2009 31.7916 69.3331 30.6572 68.3729 29.8866C68.1085 29.6705 67.841 29.4622 67.5703 29.2616C66.8259 28.6376 66.1542 27.9574 65.5278 27.2324C65.6107 27.0177 65.6658 26.7826 65.6899 26.5349C65.8691 24.7194 63.774 24.0287 62.6807 24.8937C62.3713 24.9213 62.0777 25.0321 61.8248 25.2092C61.5386 25.0023 61.2524 24.7954 60.9694 24.5807C59.9833 23.8402 58.7632 24.3734 58.2627 25.2584C57.8295 24.9464 57.3964 24.6344 56.9569 24.338C55.3158 23.2313 53.1445 25.2566 54.4763 26.8788C55.0145 27.5318 55.5692 28.1778 56.1246 28.8107C55.0201 28.1394 53.8598 27.5494 52.6126 27.073C51.0002 26.4615 49.3477 28.4225 50.5424 29.8262C51.1703 30.5699 51.7927 31.3158 52.4205 32.0595C51.2949 31.5062 50.1137 31.0341 48.8688 30.6852C47.3974 30.2712 45.7503 31.8638 46.935 33.259C48.8217 35.4822 50.9758 37.4258 53.1612 39.3369C52.9546 39.8221 52.9759 40.391 53.4189 40.8786C54.1311 41.6702 54.7397 42.5054 55.2961 43.369C54.1628 42.5686 53.0271 41.7627 51.8884 40.9646C50.6104 40.0646 49.1748 41.6259 50.0271 42.8721C50.7124 43.8741 51.5673 44.7148 52.2526 45.7167C52.6476 46.2888 53.3508 46.1595 53.7334 45.7415C55.3558 46.9716 56.9729 48.204 58.5758 49.4487C59.8176 50.4153 61.5055 49.0109 60.9394 47.6057C60.7863 47.2271 60.631 46.843 60.4725 46.4668C60.8581 46.818 61.2545 47.1647 61.6282 47.5338C62.9327 48.8015 64.9182 46.6554 63.8164 45.2895C63.4802 44.8725 63.1377 44.471 62.7821 44.0686C63.9661 44.09 64.9619 42.3993 64.1745 41.2156C63.2153 39.7768 62.1962 38.3632 61.1489 36.9744C62.9772 38.5865 64.7852 40.2264 66.7245 41.5991C68.0528 42.5422 70.3064 41.1242 69.4098 39.4986C69.2531 39.2178 69.0932 38.9449 68.9333 38.6719C69.1296 38.8332 69.326 38.9945 69.5223 39.1558C71.1629 40.4746 73.293 38.1841 72.0514 36.5625L72.0537 36.5679Z" fill="#E20613"/>
<path d="M69.1935 31.6081C68.4931 31.2867 67.8195 31.2879 67.1889 31.4829C68.3341 28.0277 67.741 24.4699 63.2478 23.2996C58.9999 22.1929 55.5293 25.1122 55.4341 29.0176C53.7184 27.7947 51.5887 26.6563 49.6289 27.3083C47.8941 27.8849 47.185 29.5704 47.0896 31.28C46.91 34.4056 48.828 37.6943 51.6947 38.1435C49.306 40.6585 47.9326 44.1969 50.6787 47.1497C52.8822 49.5155 55.4508 48.5557 56.8488 46.4323C56.8663 46.4891 56.8924 46.5359 56.9154 46.5904C56.7371 46.6398 56.5778 46.7647 56.5259 46.992C53.4551 60.1447 58.0194 74.8844 61.9652 87.3934C62.1869 88.1026 63.4349 87.9558 63.442 87.1952C63.4458 85.5883 63.466 83.9746 63.5227 82.3712C67.5472 78.8463 71.3443 75.0254 74.8575 71.0031C77.3845 68.1152 82.3584 63.1246 78.7264 59.4405C74.8481 55.5071 68.4647 60.886 66.3059 64.0232C62.9929 68.8409 62.1849 75.1398 61.9826 81.1386C61.8718 81.0889 61.7539 81.068 61.6287 81.0757C58.4303 70.326 55.7935 58.7296 57.4701 47.7245C58.5983 49.458 60.7382 50.3161 63.2612 49.5681C66.9145 48.4853 68.1826 45.3828 67.1469 42.2683C68.6976 42.6875 70.3741 42.7198 71.5497 41.4862C72.9497 40.0233 72.8855 37.7517 72.395 35.9165C71.9235 34.1567 70.9113 32.3935 69.1958 31.6136L69.1935 31.6081ZM65.3352 69.7678C66.2812 66.602 68.0217 63.3712 70.7673 61.4443C73.2297 59.7138 80.1899 58.8755 78.151 63.7151C76.2407 68.2502 71.7883 72.2379 68.397 75.6503C66.8472 77.2148 65.2448 78.7308 63.6178 80.2187C63.8396 76.6901 64.3168 73.1888 65.3352 69.7678ZM70.9412 36.4132C71.2631 37.6196 71.3494 39.105 70.6316 40.1906C69.622 41.7267 67.2263 40.7645 65.9547 40.215C65.1914 39.8815 64.6728 40.7998 65.063 41.406C69.3242 48.0932 57.4609 51.1635 58.1439 44.0954C58.2363 43.1255 56.7666 42.929 56.6479 43.8972C56.6143 44.1682 56.5994 44.4377 56.5954 44.7026C55.5741 47.1104 53.2679 48.2358 51.3726 45.7787C49.0565 42.7797 52.1713 39.3361 54.536 37.6787C55.2392 37.1835 54.5485 36.0619 53.7764 36.3935C50.6662 37.7291 48.8579 34.6703 48.6139 31.9415C48.1391 26.6067 53.6933 29.5646 55.9123 31.3268C56.404 31.7168 57.2895 31.2732 57.1336 30.6133C56.2439 26.7631 58.8482 24.1959 62.6909 24.767C67.8415 25.532 66.3125 30.8503 64.2964 33.9147C64.2203 34.0238 64.1529 34.1228 64.0823 34.2296C63.5487 35.0514 64.738 35.9695 65.3112 35.1503C65.4162 35.0033 65.519 34.8509 65.6194 34.693C66.3822 33.6076 67.435 32.5093 68.8203 33.1458C69.9739 33.6744 70.6274 35.2869 70.9326 36.4233L70.9412 36.4132Z" fill="#3C3C3B"/>
<path d="M62.4514 37.0035C61.9604 35.8683 60.8762 35.0472 59.6683 34.7405C58.7474 34.5055 56.894 34.1753 56.1527 35.0526C55.5546 35.7668 56.2045 36.5782 56.7431 37.0641C56.8257 37.1384 56.9216 37.2136 57.0175 37.2888C56.7632 37.9352 56.7843 38.6712 57.2356 39.4378C57.9806 40.7036 59.8625 41.8179 61.3114 41.1114C62.1742 40.6902 62.6064 39.7955 62.7116 38.8715C62.8855 38.6441 62.9736 38.3502 62.9251 38.0367C62.8691 37.6751 62.6879 37.3212 62.4491 36.998L62.4514 37.0035ZM60.3316 39.9895C59.519 40.0877 58.485 39.1877 58.1589 38.5353C58.0722 38.3599 58.0414 38.1802 58.034 38.01C58.3064 38.1842 58.596 38.3383 58.8888 38.4847C59.0381 38.5952 59.3498 38.817 59.3266 38.6856C59.3343 38.6887 59.3421 38.6919 59.3498 38.695C59.5683 39.046 59.9498 39.1743 60.2902 39.0374C60.5973 39.1263 60.8999 39.2044 61.1918 39.2419C61.0449 39.6248 60.7733 39.9254 60.327 39.9785L60.3316 39.9895Z" fill="#3C3C3B"/>
<path d="M24.2312 29.3117C21.7008 27.8926 19.2519 31.2099 19.5813 33.5624C19.6348 33.9636 20.1454 34.1852 20.4545 33.9587C20.4821 34.0241 20.512 34.095 20.5395 34.1605C21.6529 36.5295 24.8727 37.1768 26.2304 34.653C27.2107 32.8339 25.8789 30.2358 24.2312 29.3117ZM25.1539 33.4691C25.0447 35.268 22.9045 35.3089 21.9601 34.1336C21.6093 33.6971 21.317 32.9726 21.2242 32.2797C21.5347 31.4619 21.9276 30.6415 22.5699 30.4288C22.6701 30.4379 22.7726 30.4526 22.8874 30.4813C22.9813 30.5059 23.0453 30.4597 23.0892 30.3963C23.1784 30.41 23.2723 30.4347 23.3708 30.4703C24.4684 30.8812 25.216 32.3514 25.1484 33.4714L25.1539 33.4691Z" fill="#3C3C3B"/>
<path d="M52.715 56.771C52.4121 56.2501 51.7387 56.2063 51.4468 56.7786C49.4391 60.7319 48.2467 65.1573 47.3183 69.4779C47.219 69.9435 47.0317 70.703 46.8661 71.5753C45.5209 67.1465 44.353 62.6815 42.965 58.2578C41.3683 53.1708 39.3794 48.037 36.5321 43.5024C36.0082 42.6701 30.0511 35.1882 29.9515 34.9669C32.8166 34.4215 35.5475 34.594 37.8966 36.8023C38.4064 37.281 39.3418 36.5596 38.989 35.9505C37.025 32.5528 34.4603 29.5429 30.6214 28.7519C32.8273 26.3974 35.1799 24.193 37.1332 21.6046C37.5422 21.0664 37.0605 20.4409 36.4628 20.4551C31.8226 20.5666 27.6662 22.4521 24.258 25.4735C24.119 21.9877 24.4952 18.6124 25.1183 15.1524C25.2221 14.5757 24.4304 14.068 23.9801 14.5081C20.402 17.9799 17.6041 22.2981 18.2703 27.4624C18.2881 27.5962 12.5551 30.1135 11.8433 30.6188C9.26933 32.4348 7.50636 35.277 6.12772 38.0407C5.87116 38.5597 6.5119 39.2273 7.03973 38.9408C9.27907 37.7023 11.5864 36.6406 13.9332 35.6265C12.5914 39.6974 12.1185 43.7427 12.6732 48.0935C12.7577 48.7514 13.7721 48.9341 13.9907 48.2642C15.0765 44.9881 17.1668 42.4961 19.2708 39.9148C19.0901 44.0746 20.4433 47.8516 22.1249 51.7985C22.4074 52.4692 23.6026 52.197 23.4045 51.4522C22.491 48.0486 22.4336 42.5765 24.7333 39.3927C24.7721 39.5305 24.8459 39.66 24.9983 39.7627C28.0256 41.8586 30.4922 45.3978 32.3568 48.5292C32.6821 49.0728 33.604 48.7616 33.645 48.1728C33.8789 44.9474 33.1768 42.1675 31.9876 39.4964C32.4722 40.0372 32.933 40.5366 33.2536 40.9473C37.271 46.1256 39.5616 52.6925 41.5626 58.8613C43.2245 63.9658 44.5549 69.1521 46.1414 74.2756C44.0798 71.439 40.6774 69.4433 37.6539 67.9814C35.3887 66.8872 30.1679 64.553 28.1193 67.2201C25.856 70.1702 30.6872 73.805 32.7425 74.9041C35.4816 76.3766 38.5332 77.3258 41.5156 78.1565C43.2376 78.6319 45.7085 79.6202 47.4993 79.1614C47.5693 79.1447 47.6247 79.1085 47.6801 79.0724C47.66 79.1771 47.6322 79.2787 47.6121 79.3835C47.5487 79.7056 47.733 79.9297 47.9873 80.0152C48.6618 82.4857 49.4398 86.1775 51.1682 87.3694C51.4831 87.5835 51.8301 87.508 52.0758 87.2375C52.1157 87.1951 52.1555 87.1525 52.1954 87.1101C52.7063 86.5546 51.8598 85.871 51.3027 86.2405C52.0868 85.724 50.4887 81.5943 49.3854 78.8678C51.1842 76.0041 52.1476 71.7972 52.8979 68.7459C53.8229 64.9661 54.7989 60.3622 52.7164 56.7897L52.715 56.771ZM32.1814 45.5211C30.4558 42.9026 28.3578 40.2997 25.8736 38.5786C25.7646 38.5025 25.6606 38.4692 25.5504 38.4514C25.6747 38.3349 25.7967 38.2129 25.931 38.105C26.3222 37.7989 25.8626 37.2413 25.4585 37.5014C22.7792 39.2655 21.6994 42.9371 21.5787 46.4616C20.7267 43.6614 20.3085 40.839 20.8891 37.7051C21.0194 37.0081 20.0673 36.6836 19.6646 37.2063C17.6215 39.8711 15.3811 42.2658 13.84 45.1622C13.7492 41.5469 14.4016 38.126 15.7328 34.6245C15.9437 34.0734 15.3925 33.4965 14.8308 33.7331C12.6876 34.6358 10.5691 35.5666 8.49649 36.6064C10.9456 32.6342 14.4257 29.6917 19.3515 29.1452C19.6936 29.1038 20.0495 28.7292 19.9539 28.365C18.8228 24.1092 20.6508 20.3086 23.365 17.1943C22.8774 20.4881 22.6696 23.7603 22.9392 27.114C22.978 27.6178 23.7031 27.9673 24.0863 27.5812C27.1216 24.5435 30.77 22.5189 34.9589 22.0067C32.9525 24.3927 30.6665 26.5113 28.5843 28.8394C28.2298 29.2327 28.5485 29.9588 29.0689 29.9901C31.9901 30.1723 34.1505 31.7345 35.8468 33.8259C33.5344 32.9699 30.9651 33.1659 28.3813 33.8304C27.8201 33.9769 27.6009 34.493 27.9078 34.993C30.0176 38.432 31.8343 41.6478 32.1791 45.5156L32.1814 45.5211ZM37.5479 75.3523C35.0646 74.4719 28.0029 72.0205 29.2434 68.1207C29.9608 65.8602 36.5744 68.8791 37.6893 69.3919C41.0696 70.9539 44.9107 73.3813 46.6812 76.777C46.7565 76.9251 46.8905 76.9842 47.0148 76.9897C47.1124 77.2825 47.2101 77.5752 47.3154 77.8712C44.1407 76.8582 40.7413 76.4857 37.5479 75.3523ZM48.4462 76.4703C48.2759 75.9898 48.1189 75.5102 47.9595 75.0251C48.312 69.3676 49.5784 63.8067 52.0693 58.6225C54.3002 64.4376 50.4471 70.7477 48.4439 76.4648L48.4462 76.4703Z" fill="#3C3C3B"/>
</svg>
