<svg width="38" height="32" viewBox="0 0 38 32" fill="none" xmlns="http://www.w3.org/2000/svg">
<path d="M36.5702 13.8709C36.7107 13.6118 36.8073 13.3176 36.8469 13.0146C37.0313 11.5917 35.2966 10.4982 34.3173 9.85265C33.4522 9.28614 32.6441 9.61112 32.1874 10.2523C31.9722 10.0678 31.7614 9.88339 31.555 9.69016C30.6987 8.89091 29.3725 9.28614 28.8147 10.0898C28.5381 10.0459 28.2702 10.0854 28.0243 10.182C27.8969 10.0898 27.7696 9.99757 27.6378 9.90534C26.6892 9.2554 25.8153 9.74726 25.4333 10.5421C24.9414 9.98001 24.454 9.41789 23.9709 8.85578C22.5744 7.23091 20.383 9.54963 21.6565 11.1701C23.1189 13.0321 24.6648 14.8722 26.092 16.7913C21.6917 12.6896 17.8579 7.96868 13.7781 3.5508C12.3333 1.98742 10.1947 4.25345 11.4858 5.84318C12.105 6.60731 12.733 7.36705 13.3653 8.12678C11.4287 6.40969 9.40418 4.78922 7.22598 3.34002C6.25546 2.69446 5.04339 3.49371 4.85894 4.4818C4.17386 4.10413 3.47122 3.74842 2.74222 3.43223C1.50381 2.89647 -0.125451 4.06901 0.735289 5.43917C1.24471 6.2516 1.79364 7.02889 2.35137 7.8018C1.20079 7.591 -0.0859231 8.62302 0.739685 9.86582C3.59418 14.1432 6.99762 18.0429 9.93995 22.2455C9.17582 21.7186 8.37656 21.2443 7.5246 20.8534C6.3345 20.3089 5.15319 21.4155 5.75044 22.6276C7.327 25.829 9.57106 28.4025 12.6627 30.1942C13.3346 30.5851 14.1207 29.7902 13.8352 29.1842C13.9889 29.3247 14.147 29.4608 14.3051 29.597C15.5391 30.6597 17.1201 29.351 16.4789 27.9194C15.6226 26.0047 14.5994 24.1866 13.4795 22.43C15.7368 24.7882 18.0818 27.0543 20.7475 28.9909C21.8673 29.8034 23.2902 28.3981 22.8642 27.2431C23.075 27.4715 23.2858 27.6998 23.501 27.9282C24.6911 29.171 26.8649 27.5417 25.9031 26.075C25.0512 24.7751 24.1334 23.5279 23.1804 22.307C24.836 23.967 26.5311 25.5831 28.3229 27.0938C29.636 28.2049 31.8888 26.7688 30.8349 25.1527C30.6504 24.8717 30.4616 24.5906 30.2727 24.3096C30.466 24.4413 30.6548 24.5774 30.848 24.7048C31.981 25.4558 33.7464 24.2042 33.2326 22.8691C32.9208 22.0523 32.5607 21.2662 32.1743 20.4977C32.7012 20.2694 33.1053 19.7029 33.2195 19.0924C34.3613 19.6018 35.648 18.5084 35.5382 17.3446C35.8851 17.0767 36.1179 16.7122 36.1266 16.2862C36.8073 15.7812 37.1367 14.7712 36.5614 13.8753L36.5702 13.8709Z" fill="#E20613"/>
<path d="M32.5386 8.59675C28.3754 6.77866 23.8082 8.32887 20.5146 11.0999C16.7949 6.56348 4.52937 -5.26292 0.928315 4.41162C-1.05227 9.73416 1.2006 15.3421 3.62472 20.1421C5.57017 23.9978 8.60471 28.9339 12.7854 30.9321C12.8162 31.2439 13.0841 31.5689 13.4881 31.503C13.6638 31.4766 13.8438 31.4459 14.0239 31.4195C14.1468 31.4591 14.2654 31.5074 14.3884 31.5381C14.5948 31.5952 14.7309 31.4591 14.7616 31.2966C23.3602 29.8737 35.7488 26.8611 37.6723 17.1558C38.4276 13.344 35.8717 10.0503 32.5386 8.59675ZM34.7431 21.0863C30.5711 27.4232 20.3081 29.2896 13.308 30.3831C9.73772 28.4948 7.20821 24.314 5.32424 21.0072C3.10652 17.1163 1.07323 12.3603 1.25328 7.7931C1.34551 5.43046 2.51806 2.62866 4.97732 2.00945C6.9579 1.50882 9.25026 2.84386 10.862 3.8056C14.3269 5.87401 17.502 8.98761 19.9524 12.189C20.1764 12.4833 20.5453 12.5711 20.8395 12.3032C24.2605 9.20278 28.876 7.92486 33.1182 10.147C37.5361 12.4613 37.1233 17.472 34.7387 21.0907L34.7431 21.0863Z" fill="#3C3C3B"/>
</svg>
