<svg width="54" height="82" viewBox="0 0 54 82" fill="none" xmlns="http://www.w3.org/2000/svg">
<path d="M50.8652 17.1948C50.8955 15.7376 50.3472 14.4412 49.7432 13.1429C48.4007 10.2468 45.8353 7.99314 43.0641 6.49136C41.5453 5.6683 39.9201 5.2229 38.2387 4.85259C36.6833 4.51187 35.0932 4.28642 33.5004 4.22015C30.4235 4.09037 27.335 4.99442 24.8042 6.75633C22.0208 8.69613 20.7718 11.9449 20.9368 15.2621C21.0722 17.9906 21.1985 20.8879 22.0532 23.5023C22.9239 26.1638 24.5505 28.3297 26.464 30.3298C27.0096 30.9018 27.5652 31.4624 28.1199 32.0256C28.2251 32.1309 28.3455 32.1763 28.4641 32.1766C28.9939 32.743 29.6115 33.195 30.284 33.5418C29.669 33.8143 29.0805 34.1376 28.5203 34.5155C27.7918 35.0089 26.9568 35.6279 26.6335 36.4777C26.4779 36.8855 26.4523 37.3954 26.6846 37.7798C26.9255 38.1731 27.3723 38.3188 27.8135 38.2786C28.2574 38.2393 28.6732 38.0271 29.0821 37.8599L29.3627 37.7453C28.8335 39.7176 28.3078 41.6882 27.7733 43.6586C27.1773 45.8624 26.5379 48.0717 25.5287 50.1268C24.5582 52.0978 23.2432 53.8761 22.1807 55.7968C21.1399 57.6807 20.497 59.6307 20.1968 61.7609C19.6676 65.4829 19.8764 69.8119 17.0946 72.7398C15.8361 74.0636 14.0372 74.927 12.192 74.8785C10.2176 74.826 8.45948 73.622 7.69738 71.7965C7.28528 70.812 7.16973 69.6592 7.27902 68.6005C7.32988 68.1113 7.47319 67.5954 7.90794 67.3128C8.31942 67.0456 8.84766 67.0361 9.32301 67.0673C9.84521 67.1001 10.3602 67.1956 10.8723 67.2991C11.4294 67.4095 12.0561 67.5414 12.4637 67.9668C13.3092 68.8491 12.4794 69.7309 11.5513 69.9998C10.953 70.1744 11.1302 71.1354 11.7356 70.9574C12.6415 70.6925 13.5745 70.1407 13.7651 69.1373C13.9352 68.2424 13.4183 67.3366 12.6556 66.8839C11.7502 66.3482 10.5033 66.1756 9.46615 66.0976C8.49884 66.0235 7.42939 66.1803 6.81706 67.0172C6.23466 67.8112 6.23816 68.8948 6.29281 69.8334C6.35791 70.9358 6.62128 72.031 7.20293 72.9804C8.33179 74.8255 10.3535 75.9296 12.5211 75.8545C14.6107 75.7816 16.5704 74.782 17.9573 73.2367C19.2921 71.747 20.0281 69.8357 20.4161 67.8937C20.9016 65.4819 20.8876 62.9979 21.3793 60.5853C21.8923 58.0616 23.2003 55.9161 24.5473 53.7605C25.2886 52.5747 26.0176 51.3816 26.6108 50.1109C27.2289 48.7867 27.7046 47.4035 28.1231 46.006C28.905 43.3844 29.5787 40.7246 30.2831 38.0786C30.5549 38.5778 30.949 39.0162 31.4055 39.3195C32.1778 39.8289 33.3088 39.9519 33.8471 39.0474C34.317 38.2611 34.1234 37.229 33.8374 36.4165C33.5793 35.685 33.1822 35.0112 32.76 34.3583C34.1438 34.597 35.5945 34.5449 36.9178 34.2819C40.2374 33.6224 43.332 32.0533 45.5515 29.467C46.6193 28.2213 47.4576 26.7938 48.15 25.3091C48.7681 23.9849 49.354 22.6257 49.8868 21.2655C50.3929 19.973 50.8288 18.5936 50.859 17.1956L50.8652 17.1948ZM42.334 8.10817C42.3597 8.052 42.3616 8.04673 42.3414 8.08707C42.3579 8.05728 42.3743 8.02749 42.3934 7.99862C42.4289 7.93997 42.4704 7.88938 42.5112 7.83258C42.5509 7.78727 42.5537 7.77936 42.5249 7.8107C42.5483 7.78634 42.5717 7.76197 42.5977 7.73853C42.6472 7.69073 42.7001 7.65007 42.753 7.60941C42.8005 7.57572 42.8085 7.56966 42.7736 7.59295C42.7843 7.58782 42.7924 7.58177 42.8031 7.57664C42.8189 7.58222 42.8357 7.58517 42.856 7.5864C42.5973 7.76506 42.4038 8.01118 42.2784 8.30801C42.2731 8.30615 42.2652 8.30336 42.2599 8.3015C42.2841 8.23292 42.3111 8.15643 42.3359 8.1029L42.334 8.10817ZM23.8368 9.77816C24.3775 9.55657 24.8836 9.23975 25.2837 8.81142C25.3936 8.69301 25.4992 8.5701 25.583 8.43355C25.6838 8.38309 25.7786 8.32457 25.8802 8.28032C25.8909 8.2752 25.9042 8.27101 25.9149 8.26588C25.8823 8.30778 25.8541 8.35417 25.8206 8.39871C25.588 8.7052 25.3371 8.99633 25.0732 9.27397C24.9651 9.3871 24.851 9.49217 24.7376 9.60345C24.3964 9.74708 24.049 9.88264 23.7019 10.0094C23.7439 9.93225 23.7886 9.85606 23.8358 9.7808L23.8368 9.77816ZM25.9913 7.16592C25.9913 7.16592 26.0043 7.17942 26.0077 7.18655C25.892 7.22879 25.7763 7.27103 25.6623 7.31683C25.7634 7.24869 25.8619 7.17962 25.9638 7.11768C25.9723 7.13552 25.9756 7.1515 25.9877 7.16763L25.9913 7.16592ZM25.5147 10.5031C25.7728 10.3094 26.0281 10.1236 26.2989 9.96108C26.4853 9.86963 26.6725 9.78439 26.8546 9.68845C27.3134 9.44689 27.1356 8.88303 26.7418 8.7887C26.7753 8.74416 26.8114 8.70055 26.8423 8.65508C26.9429 8.51263 27.0634 8.34752 27.1628 8.17497C27.2311 8.31767 27.2861 8.46456 27.317 8.62078C27.4441 9.25276 27.1139 9.78578 26.6165 10.162C26.2114 10.47 25.7271 10.6492 25.2163 10.7271C25.3166 10.6527 25.4134 10.5801 25.5138 10.5058L25.5147 10.5031ZM24.8448 19.6379C24.8425 19.6193 24.8454 19.6025 24.8431 19.5839C24.8375 19.5493 24.831 19.5173 24.8244 19.4854C24.8246 19.3757 24.822 19.2651 24.8097 19.157C24.8952 19.2257 24.9772 19.2961 25.0501 19.3751C25.0779 19.4057 25.1038 19.4415 25.1307 19.4747C25.0325 19.5261 24.9387 19.582 24.8448 19.6379ZM33.12 38.275C32.9661 38.9473 32.3164 38.7628 31.8839 38.4502C31.3186 38.0433 30.9325 37.3972 30.8719 36.7026C30.844 36.3696 30.4454 36.2468 30.1818 36.3555C29.4682 36.6467 28.7611 36.9786 28.035 37.2298C27.8526 37.293 27.5293 37.4192 27.4887 37.1558C27.4386 36.8268 27.7162 36.4769 27.9217 36.2557C28.8579 35.2572 30.176 34.5801 31.4436 34.1136C31.4569 34.1094 31.4686 34.1017 31.4793 34.0966C31.4984 34.1685 31.5272 34.238 31.5721 34.3043C32.0007 34.9476 32.4255 35.6015 32.7469 36.3049C33.0146 36.8916 33.2675 37.6212 33.1174 38.2741L33.12 38.275ZM42.1065 31.1973C42.1989 31.1201 42.2914 31.043 42.3847 30.9632C42.435 30.9216 42.4748 30.8674 42.5015 30.8086C42.5561 30.822 42.61 30.8291 42.6639 30.8274C42.4812 30.9587 42.2977 31.0838 42.1099 31.2044C42.1099 31.2044 42.1065 31.1973 42.1048 31.1937L42.1065 31.1973ZM43.136 30.3799C43.1463 30.4013 43.1565 30.4227 43.1739 30.4407C43.1533 30.4572 43.1317 30.4763 43.1111 30.4927C43.1241 30.4558 43.1318 30.417 43.136 30.3799ZM46.5029 26.398C45.7979 27.6322 44.9502 28.7835 43.9284 29.7726C43.655 29.2106 43.0255 28.8849 42.4176 28.8426C41.7462 28.7957 40.9344 28.987 40.388 29.3845C40.0485 29.6325 39.8026 29.9936 39.6049 30.3777C39.3678 30.6381 39.2322 30.9639 39.2131 31.3041C39.0845 31.7362 39.068 32.1782 39.2751 32.5834C36.4916 33.6068 33.2869 34.0666 30.5739 32.5764C29.9579 32.2376 29.4062 31.8089 28.9564 31.2678C28.8438 31.1332 28.7057 31.0875 28.5746 31.0976C26.8382 29.3438 25.0473 27.5767 23.8946 25.3703C23.4433 24.5054 23.1119 23.6116 22.8596 22.6953C22.9739 22.6822 23.0848 22.662 23.1959 22.633C23.2993 22.794 23.4787 22.9076 23.6848 22.8528C24.8239 22.5574 26.1861 21.9908 26.4259 20.6964C26.654 19.469 25.6809 18.3935 24.6444 17.9184C24.0599 17.6501 23.3919 17.551 22.752 17.625C22.5302 17.5645 22.2989 17.5393 22.0578 17.567C21.9506 16.3401 21.8227 15.0792 21.9058 13.8511C21.9638 12.9967 22.1418 12.155 22.4377 11.3578C22.7303 11.4699 23.0411 11.5557 23.3593 11.6204C23.4953 11.7395 23.6898 11.7933 23.8851 11.702C24.9348 11.82 26.0272 11.6654 26.9158 11.1216C27.6032 10.7026 28.1644 10.0612 28.2979 9.2453C28.4146 8.52728 28.1448 7.80351 27.731 7.22764C27.5626 6.99034 27.3242 6.70762 27.0613 6.51115C28.3663 5.87988 29.7895 5.46823 31.1391 5.2738C32.5482 5.07066 33.9978 5.18135 35.4031 5.35055C36.9082 5.53119 38.3852 5.85022 39.8477 6.24419C40.5679 6.43878 41.2711 6.69852 41.9521 7.01273C41.8712 7.09095 41.7928 7.1701 41.7241 7.25561C41.6401 7.35943 41.5664 7.4758 41.5016 7.59234C41.4385 7.6116 41.3752 7.63971 41.3188 7.68208C40.914 7.97234 40.6639 8.42094 40.5954 8.9098C40.5239 9.41542 40.6956 9.92079 40.9814 10.3299C41.5183 11.1034 42.5697 11.5867 43.4988 11.5673C43.9465 11.5591 44.465 11.4008 44.7011 11.0422C44.9293 10.9921 45.1186 10.8335 45.2782 10.6585C45.3188 10.6105 45.3525 10.5571 45.3878 10.5073C45.4086 10.482 45.4268 10.4558 45.4449 10.4296C45.4767 10.3815 45.5076 10.336 45.5341 10.286C45.5505 10.2563 45.5634 10.2282 45.5772 10.1974C45.6762 9.99216 45.7445 9.77308 45.7705 9.54797C46.3646 10.0836 46.9208 10.6593 47.4243 11.2667C48.3733 12.4108 48.9675 13.7116 49.5127 15.084C49.9613 16.2089 49.9631 17.3899 49.7166 18.5603C49.5159 18.3976 49.234 18.3813 48.9439 18.4303C48.8852 18.2435 48.7148 18.1212 48.5138 18.0859C47.0464 17.8236 45.4641 18.2237 44.5477 19.4605C43.7626 20.5182 43.4089 22.1609 44.3707 23.2265C44.8099 23.7135 45.4523 24.0615 46.1122 24.1162C46.302 24.1327 46.4854 24.1173 46.6604 24.0752C46.9761 24.1806 47.3122 24.1863 47.6215 24.0997C47.2817 24.8784 46.9261 25.6516 46.5047 26.3927L46.5029 26.398Z" fill="#474744"/>
<path d="M35.8288 19.3764C36.4994 19.4172 37.1975 19.254 37.7172 18.8144C38.2243 18.3853 38.4944 17.754 38.4376 17.0904C38.3186 15.7288 36.7563 14.8104 35.5044 14.7783C35.0048 14.7653 34.4862 14.882 34.0597 15.1498C33.9884 15.1839 33.917 15.2181 33.8474 15.2558C33.2069 15.6172 32.493 16.187 32.594 17.0025C32.6801 17.709 33.2677 18.3135 33.8344 18.6912C34.4203 19.0816 35.1227 19.3351 35.8288 19.3764ZM34.6864 16.5687C34.6864 16.5687 34.6854 16.5714 34.6871 16.5749C34.6871 16.5749 34.6881 16.5723 34.6864 16.5687ZM35.3628 15.962C35.32 15.9321 35.2753 15.9075 35.2262 15.8872C35.2924 15.8927 35.3577 15.9009 35.4238 15.9153C35.4015 15.9282 35.3835 15.9456 35.3628 15.962ZM36.155 18.409C35.8328 18.423 35.5099 18.3714 35.1976 18.2732C35.2135 18.2699 35.2286 18.2693 35.2455 18.2634C35.3158 18.2407 35.3826 18.2109 35.4521 18.182C35.6113 18.1848 35.7736 18.1619 35.9298 18.131C35.936 18.1302 35.9431 18.1268 35.9493 18.126C36.054 18.3171 36.2597 18.3896 36.4511 18.3681C36.3543 18.3903 36.2541 18.4054 36.155 18.409ZM37.377 17.71C37.3108 17.8557 37.1251 18.063 36.9534 18.1715C36.8425 18.2422 36.7204 18.294 36.5941 18.3326C36.6698 18.3029 36.7334 18.2571 36.7849 18.1952C36.8819 18.1641 36.9738 18.1135 37.0303 18.0207C37.103 17.907 37.1265 17.7729 37.1021 17.6487C37.2372 17.5599 37.3707 17.4587 37.4754 17.3384C37.468 17.4603 37.4376 17.5801 37.377 17.71Z" fill="#474744"/>
<path d="M36.5406 23.331C36.337 23.1346 36.0906 23.0092 35.8258 22.9277C35.7697 22.8427 35.6904 22.7733 35.5891 22.7494C34.4351 22.4731 33.1548 22.5466 32.1334 23.1978C31.0665 23.8774 30.498 25.2546 31.2061 26.4087C31.5598 26.9871 32.1226 27.4346 32.7747 27.6289C33.4225 27.8187 34.0989 27.7843 34.7548 27.6567C35.3956 27.5297 36.1102 27.3784 36.4962 26.7968C36.8204 26.3061 37.0243 25.6099 37.0874 25.0272C37.1543 24.4251 36.9862 23.7579 36.5406 23.331ZM33.9286 24.3051C33.8815 24.3715 33.8327 24.4344 33.7785 24.4954C33.5737 24.7316 33.3172 24.9377 33.0482 25.095C33.1301 24.9637 33.2251 24.837 33.3331 24.7328C33.5004 24.5693 33.6885 24.431 33.8939 24.3196C33.9046 24.3144 33.9179 24.3103 33.9286 24.3051ZM36.0011 24.2054C35.9615 24.1914 35.9192 24.1854 35.874 24.1873C35.782 24.0362 35.6173 23.9396 35.4014 23.9969C35.3161 24.0202 35.2377 24.049 35.1558 24.0794C35.1902 23.9818 35.2017 23.8821 35.2007 23.7838C35.4055 23.8086 35.601 23.8597 35.763 23.9554C35.8707 24.02 35.9461 24.1089 36.0002 24.208L36.0011 24.2054ZM35.5647 26.3854C35.3236 26.5732 34.9424 26.6197 34.6512 26.6802C33.9952 26.8166 33.2537 26.8844 32.6567 26.5168C32.5666 26.4613 32.4801 26.3952 32.4017 26.3231C32.7276 26.5092 33.0967 26.4969 33.4575 26.3987C33.5831 26.6061 33.8605 26.7276 34.0891 26.6006C34.182 26.5474 34.2732 26.4906 34.3661 26.4373C34.426 26.4525 34.4906 26.4545 34.5624 26.4442C34.5908 26.4394 34.6175 26.431 34.6432 26.4253C34.8117 26.5025 35.0233 26.4911 35.1671 26.3609C35.2237 26.3096 35.2871 26.2727 35.3455 26.225C35.5111 26.1589 35.6743 26.083 35.8263 25.9883C35.7652 26.1447 35.684 26.291 35.563 26.3818L35.5647 26.3854Z" fill="#474744"/>
</svg>
