<svg width="55" height="50" viewBox="0 0 55 50" fill="none" xmlns="http://www.w3.org/2000/svg">
<path d="M52.5722 23.4819C50.8019 21.04 48.9067 18.6813 47.0375 16.3122C46.6469 15.8176 46.1106 15.6926 45.5952 15.802C44.6788 14.8023 43.7728 13.7922 42.8773 12.7716C43.1011 12.5009 43.2469 12.1573 43.2365 11.7667C43.2313 11.3762 43.2001 10.9909 43.1428 10.616C43.7572 10.0641 44.0488 9.04882 43.6791 8.23657C43.4864 7.80962 43.3146 7.38266 43.1272 6.9557C43.2261 6.89322 43.3198 6.82033 43.3979 6.74223C44.1477 5.99246 44.0123 4.95631 43.3979 4.19092C42.4763 3.04544 40.6123 2.60287 39.4929 3.72232C38.7483 4.46688 38.4203 5.98725 38.967 6.91926C39.0503 7.06505 39.1284 7.21083 39.2117 7.36183C39.1961 7.37745 39.1753 7.39828 39.1596 7.4139C38.5296 6.94009 37.7174 7.26812 37.306 7.85648C36.072 6.39859 34.6714 5.08648 33.0209 3.98786C31.839 3.20164 30.5477 4.27423 30.4331 5.47179C30.2509 7.32539 30.4071 9.09048 30.7976 10.7931C30.0166 11.2252 29.5428 12.1989 30.1051 13.1882C30.5737 14.0161 31.0631 14.8335 31.5526 15.651C31.1412 15.323 30.7143 15.0106 30.2613 14.7138C29.069 13.938 27.4445 15.5 28.2723 16.7027C28.767 17.4213 29.2668 18.145 29.7719 18.8635C29.272 18.8219 28.7566 18.9677 28.3452 19.2488C27.6996 18.3689 27.0592 17.4838 26.4239 16.5934C25.4711 15.2657 23.7216 15.651 23.1124 16.708C22.0034 16.4424 20.8683 17.6608 20.9725 18.9052C19.7437 17.4629 18.4784 16.0467 17.1507 14.6929C15.7501 13.2611 13.1051 15.1876 14.3234 16.8746C14.3599 16.9214 14.3911 16.9683 14.4276 17.0151C14.1672 16.8433 13.9121 16.6663 13.6414 16.5049C12.0533 15.5312 10.3038 17.4317 11.1629 18.9833C11.3973 19.405 11.6472 19.8216 11.8919 20.2433C10.4496 19.0978 8.93966 18.0253 7.32036 17.0672C5.70107 16.1092 4.39938 17.791 4.84716 19.228C3.51423 18.9 1.88452 20.108 2.89983 21.5294C3.85788 22.8727 4.83674 24.2005 5.82082 25.523C5.20122 25.1012 4.56079 24.7107 3.89953 24.3463C2.88942 23.7943 1.41591 24.9815 2.19692 26.0489C4.39938 29.0532 6.60704 32.0522 9.0438 34.8691C9.59051 35.5043 10.6995 34.6556 10.2101 33.9683C9.47075 32.9374 8.77305 31.8804 8.08055 30.813C10.3715 32.979 12.5063 35.3273 14.8337 37.4777C15.7917 38.3628 17.3486 37.587 17.3902 36.4988C18.6971 37.8161 20.0509 39.0866 21.5036 40.2633C22.9614 41.4452 25.1118 39.9925 24.1642 38.2118C23.4873 36.9466 22.7376 35.7282 21.9461 34.5515C22.649 35.2596 23.3519 35.9625 24.0653 36.655C25.2732 37.8265 26.8301 36.8789 27.0435 35.6189C27.9026 35.8063 28.7878 35.1607 29.069 34.2963C29.1471 34.3849 29.2252 34.4786 29.3033 34.5671C30.454 35.874 33.0053 34.4942 32.3232 32.8124C32.0628 32.172 31.7869 31.542 31.4953 30.9224C31.9691 30.9432 32.4325 30.7506 32.7866 30.4277C34.0414 30.6516 35.593 29.428 35.0255 28.0691C34.8224 27.5744 34.5985 27.0954 34.3746 26.606C34.7131 26.3404 34.9734 25.9551 35.0984 25.523C35.2858 25.7156 35.4733 25.9135 35.6711 26.1009C35.9679 26.3873 36.3063 26.4342 36.5979 26.3404C37.1655 27.1423 37.7382 27.9233 38.3474 28.6731C39.0503 29.5374 40.2322 29.2042 40.8102 28.4492C41.4298 29.4957 42.065 30.5371 42.7211 31.5472C43.9499 33.4424 46.7667 31.7919 45.741 29.7821C45.3505 29.0219 44.9183 28.2669 44.4497 27.512C44.7413 27.9858 45.0381 28.4544 45.3505 28.9178C46.5949 30.761 49.0889 29.277 48.4172 27.3297C49.4326 28.2669 51.031 27.3245 51.2081 26.1113C52.3431 25.9239 53.3793 24.6014 52.567 23.4819H52.5722ZM42.8096 25.0127C40.6019 21.2482 38.4619 17.4213 35.7024 14.0629C34.9838 12.5426 34.4215 10.9805 34.1143 9.35602C36.1397 11.5741 37.6132 14.3441 38.9774 16.9631C40.805 20.4672 42.3774 24.1067 44.4393 27.4807C43.929 26.658 43.3823 25.8354 42.8096 25.0127Z" fill="#7D4E24"/>
<path d="M53.1297 18.5564C50.9637 15.5 47.3867 13.2299 43.5389 11.8136C43.643 9.02801 43.3931 6.21116 43.289 3.42554C43.2733 2.94132 42.6746 2.49874 42.2632 2.92049C40.1649 5.04484 38.4467 7.45036 36.7909 9.91836C35.5049 7.05986 34.6562 4.06077 33.8023 1.04085C33.6148 0.369182 32.7557 0.468112 32.636 1.12416C32.0007 4.64393 31.5321 8.14807 31.3134 11.7199C31.3134 11.7303 31.3186 11.7303 31.3186 11.7407C30.6105 13.0528 30.1784 14.9221 29.9649 16.6819C23.9407 12.5269 13.7667 12.4801 7.96637 16.3695C2.54094 12.1469 8.20588 5.66965 12.8659 3.29538C13.3554 3.04545 13.095 2.3113 12.5639 2.39981C6.8313 3.34224 1.12991 13.4798 7.27908 16.8694C3.80098 19.5665 2.25978 23.8725 4.90481 29.7509C5.24845 30.5163 5.66499 31.2296 6.1336 31.9065C4.08735 34.0881 2.53573 36.655 0.598823 38.9304C0.427 39.1074 0.265591 39.2949 0.125009 39.4823C-0.223844 39.9509 0.270797 40.4559 0.723785 40.3987C0.520721 43.5071 6.19608 43.1895 6.68031 39.9874C7.17495 36.7331 5.17035 36.3582 3.14492 37.1861C4.22272 35.5772 5.31093 33.9736 6.54493 32.4844C7.57066 33.8174 8.82549 34.9576 10.2365 35.9105C9.61171 38.6128 8.31523 41.0339 7.18536 43.554C6.91461 44.1579 7.87786 44.6005 8.2163 44.0538C8.81507 43.101 9.90329 41.2526 11.2935 41.7056C12.1838 41.9972 12.5535 43.2728 12.6941 44.0746C12.8555 44.9962 12.6785 46.1521 11.7777 46.6155C11.1789 46.9227 10.3771 46.678 9.78874 46.4906C8.47143 46.0688 8.87755 45.6158 9.30972 44.6318C9.51799 44.1632 8.88276 43.8612 8.54432 44.1215C7.72686 44.7463 7.46653 45.2826 7.37801 46.3136C7.36239 46.5218 7.47173 46.777 7.66438 46.8811C9.25765 47.7506 11.1685 48.5524 12.8295 47.4434C14.027 46.6468 14.0999 44.8504 13.876 43.5904C13.6417 42.2731 12.8295 40.8985 11.5018 40.4716C10.7728 40.2373 10.0959 40.4091 9.49716 40.784C10.1011 39.3573 10.6895 37.9255 10.9863 36.3895C14.178 38.3212 18.031 39.3105 21.7278 39.2792C21.5352 40.0602 21.5195 40.9402 21.4519 41.6743C21.2904 43.4186 21.2488 45.1837 21.0457 46.9227C20.7958 46.9592 20.5719 47.1622 20.6604 47.4486C21.8424 51.4734 29.4494 49.6719 27.9238 45.4076C27.4448 44.0642 25.6797 43.3145 24.352 43.429C23.4356 43.5071 22.7327 43.8976 22.2016 44.4599C22.2277 43.7154 22.2589 42.976 22.2797 42.2315C22.3058 41.2838 22.4672 40.2425 22.4411 39.2532C23.5814 39.2011 24.7009 39.0658 25.7787 38.8158C26.5389 38.6388 27.5177 38.3264 28.5851 37.8994C29.4963 39.9249 29.8816 42.1169 30.3762 44.2777C30.4231 44.486 30.6105 44.6474 30.8136 44.7047C30.7824 44.8088 30.7876 44.9286 30.85 45.0431C32.4277 47.9693 39.0559 46.9644 38.051 43.0073C37.1658 39.5292 32.9171 40.5861 31.0791 42.8146C30.5585 41.0443 30.2148 39.2376 29.3453 37.587C33.3337 35.848 38.0458 32.651 37.0357 28.9282C40.1181 30.5631 43.591 31.4743 46.1735 31.2817C52.1665 30.8391 56.9879 23.987 53.1297 18.5512V18.5564ZM5.58689 38.8419C5.68582 41.3984 2.61384 42.3668 1.59852 39.9874C1.56728 39.9145 1.51 39.8572 1.44752 39.8155C2.49929 38.8262 5.50358 36.6394 5.58689 38.8419ZM26.4035 45.3763C27.3615 46.2719 26.6638 47.3028 25.9088 48.0266C24.7061 49.1825 23.2638 48.2453 22.1131 47.4642C22.1131 47.459 22.1183 47.4538 22.1183 47.4486C22.5192 45.3763 24.4562 43.5592 26.4035 45.3763ZM36.5202 42.6584C38.0666 44.1632 35.2862 45.5117 34.0991 45.418C33.0942 45.3347 32.3808 44.6578 31.4749 44.361C32.3756 42.7261 34.7968 40.987 36.5202 42.6636V42.6584ZM48.7769 16.2446C48.8029 16.255 48.8237 16.2446 48.8498 16.2446C52.1561 18.7178 54.0513 22.7686 52.38 26.0749C52.3904 25.8666 52.2862 25.6636 52.0259 25.6011C51.4115 25.4553 50.8335 25.3772 50.2816 25.2575C50.4326 24.8878 50.5836 24.5181 50.7294 24.1432C50.7294 24.1849 50.7398 24.2317 50.7554 24.2734C50.8023 24.4035 50.8752 24.4973 50.995 24.5702C51.146 24.6639 51.3646 24.7003 51.526 24.6066C52.609 23.9506 51.8957 21.2274 51.9894 20.16C52.0467 19.4884 50.9689 19.2593 50.8127 19.9362C50.6201 20.7953 50.3649 21.6336 50.0786 22.4614C50.0473 20.8578 50.1463 19.2437 50.0109 17.6452C50.0109 17.6452 50.0109 17.6452 50.0109 17.64C50.0109 17.5879 50.0057 17.541 50.0005 17.489C49.938 16.8173 48.8602 16.911 48.8342 17.5723C48.8029 18.5251 48.8185 19.478 48.8133 20.436C48.5894 19.2541 48.4749 18.0461 48.3343 16.8538C48.2666 16.255 47.3659 16.3643 47.319 16.9267C47.1784 18.6501 47.293 20.4881 47.0222 22.1855C46.9962 22.3573 47.2253 22.3937 47.3138 22.2844C47.6054 21.9147 47.7095 21.3732 47.7824 20.8734C47.975 21.8574 48.2458 22.8259 48.6415 23.7475C48.704 23.8881 48.829 23.9818 48.9747 24.0235C49.0008 24.3046 49.032 24.5806 49.0737 24.8617C48.7456 24.7003 48.428 24.4921 48.1208 24.1953C47.1888 23.3101 46.7046 22.0397 46.4651 20.8057C46.1839 19.3842 46.3037 15.2345 48.7873 16.255L48.7769 16.2446ZM42.0966 4.91468C42.1591 7.08068 42.2268 9.2519 42.3518 11.4179C40.8834 10.9545 39.3995 10.6161 37.9468 10.3974C39.2329 8.49171 40.5606 6.6277 42.0966 4.91468ZM31.782 11.0222C32.3964 8.60105 32.8286 6.14867 33.3024 3.7015C33.9272 5.89875 34.6353 8.06476 35.5517 10.1527C35.3539 10.1423 35.1508 10.1266 34.953 10.1214C34.802 10.1214 34.6822 10.1631 34.5781 10.2308C33.4066 9.70489 32.485 10.111 31.7768 11.0222H31.782ZM24.0656 37.8213C16.7658 39.274 8.68491 34.9004 5.68061 28.2357C2.5826 21.3576 7.92472 16.3383 14.1884 15.1199C19.4525 14.0942 25.1226 15.2449 29.8608 17.6868C29.7514 19.051 29.7722 20.259 29.8972 20.9671C30.3658 23.685 32.5474 26.1061 35.3122 27.9233C35.2758 28.0587 35.2758 28.2149 35.3695 28.3815C38.0301 33.3227 27.5177 37.1341 24.0656 37.8213ZM33.5107 24.4348C31.6258 22.6176 30.975 20.6703 30.9073 18.2075C31.1937 18.27 31.5165 17.9263 31.251 17.692C31.1364 17.5879 31.0167 17.489 30.8969 17.3953C30.949 14.7919 31.6467 11.0014 34.4427 11.2773C34.5416 11.3867 34.6822 11.4648 34.8801 11.4752C35.0519 11.4804 35.2289 11.5064 35.4007 11.5168C35.4945 11.5533 35.5778 11.5689 35.6767 11.6106C35.7652 11.647 35.8485 11.6106 35.911 11.5533C36.0256 11.5637 36.1401 11.5845 36.2599 11.5949C36.4577 11.7928 36.7753 11.8292 37.0096 11.6835C40.7168 12.1833 44.372 13.5475 47.5689 15.4115C45.8871 15.5729 45.2103 18.3845 45.2571 20.0195C45.3092 21.7898 46.1631 23.9193 47.5481 25.3147C45.2363 26.455 43.3723 26.6581 40.7533 25.8979C39.5609 25.549 34.9842 23.7267 36.1193 21.7273C36.3171 21.3732 35.8537 21.0712 35.5986 21.3836C32.4277 25.3043 45.4498 30.4694 48.4801 26.0801C49.4746 26.7257 50.6513 27.0121 51.9582 26.6476C52.0051 26.632 52.0519 26.6112 52.0936 26.5852C51.4688 27.5744 50.5003 28.4804 49.1205 29.2354C44.1377 31.9742 37.0461 27.866 33.5055 24.4452L33.5107 24.4348Z" fill="#3C3C3B"/>
<path d="M38.3264 16.9892C38.7377 16.6872 39.1178 16.3332 39.2792 15.901C39.3781 15.6355 39.2844 15.2762 39.0293 15.1304C39.0345 14.693 38.8366 14.3702 38.217 14.4275C37.9827 14.4483 37.7641 14.6514 37.6026 14.8076C37.2746 15.1304 36.9206 15.3699 36.7227 15.8021C36.6029 16.0676 36.6238 16.328 36.7331 16.5518C36.6811 16.7861 36.6498 17.0152 36.6706 17.2391C36.7019 17.5463 37.1184 17.7442 37.3788 17.588C37.4621 17.5359 37.5506 17.4838 37.6443 17.4266C37.8994 17.3953 38.1441 17.1975 38.3212 16.984L38.3264 16.9892Z" fill="#3C3C3B"/>
</svg>
