<svg width="51" height="46" viewBox="0 0 51 46" fill="none" xmlns="http://www.w3.org/2000/svg">
<path d="M48.8015 21.8863C47.1806 19.6504 45.4453 17.4907 43.7337 15.3215C43.3762 14.8686 42.8851 14.7542 42.4132 14.8543C41.5741 13.939 40.7445 13.0141 39.9245 12.0796C40.1295 11.8317 40.263 11.5171 40.2535 11.1595C40.2487 10.802 40.2201 10.4492 40.1677 10.1059C40.7302 9.60057 40.9972 8.67092 40.6587 7.9272C40.4823 7.53627 40.325 7.14533 40.1534 6.7544C40.244 6.69719 40.3298 6.63045 40.4013 6.55894C41.0878 5.87243 40.9638 4.9237 40.4013 4.22288C39.5574 3.17404 37.8507 2.76881 36.8257 3.79382C36.1439 4.47556 35.8436 5.86766 36.3442 6.72103C36.4205 6.85452 36.492 6.98801 36.5683 7.12626C36.554 7.14056 36.5349 7.15964 36.5206 7.17394C35.9437 6.7401 35.2 7.04045 34.8234 7.57918C33.6935 6.24429 32.411 5.04289 30.8998 4.03695C29.8175 3.31707 28.6352 4.29917 28.5303 5.39568C28.3635 7.0929 28.5065 8.70906 28.864 10.268C28.1489 10.6637 27.7151 11.5552 28.23 12.461C28.659 13.2191 29.1072 13.9676 29.5553 14.716C29.1787 14.4157 28.7878 14.1297 28.373 13.8579C27.2813 13.1476 25.7938 14.5778 26.5518 15.6791C27.0047 16.337 27.4624 16.9997 27.9249 17.6576C27.4672 17.6194 26.9952 17.7529 26.6186 18.0104C26.0274 17.2047 25.441 16.3942 24.8594 15.579C23.9869 14.3633 22.3851 14.7161 21.8273 15.6838C20.8118 15.4407 19.7725 16.5563 19.8679 17.6957C18.7427 16.3751 17.5843 15.0784 16.3685 13.8388C15.0861 12.5278 12.6642 14.2917 13.7798 15.8364C13.8132 15.8793 13.8418 15.9222 13.8752 15.9651C13.6368 15.8078 13.4032 15.6457 13.1553 15.4979C11.7012 14.6064 10.0993 16.3465 10.886 17.7672C11.1005 18.1534 11.3294 18.5348 11.5534 18.9209C10.2328 17.8721 8.85027 16.89 7.36759 16.0128C5.88492 15.1356 4.69305 16.6755 5.10305 17.9913C3.88259 17.6909 2.39037 18.797 3.32003 20.0985C4.19724 21.3285 5.09352 22.5442 5.99457 23.7552C5.42724 23.369 4.84084 23.0114 4.23538 22.6777C3.31049 22.1724 1.9613 23.2593 2.67642 24.2367C4.69305 26.9875 6.71445 29.7335 8.94562 32.3127C9.44621 32.8944 10.4617 32.1173 10.0135 31.488C9.33655 30.544 8.69771 29.5762 8.06364 28.5989C10.1613 30.5821 12.116 32.7323 14.247 34.7012C15.1242 35.5117 16.5497 34.8013 16.5879 33.8049C17.7845 35.0111 19.024 36.1744 20.3541 37.2518C21.689 38.334 23.658 37.0039 22.7903 35.3734C22.1705 34.2149 21.484 33.0994 20.7594 32.0219C21.403 32.6703 22.0466 33.3139 22.6997 33.948C23.8058 35.0206 25.2312 34.153 25.4267 32.9992C26.2133 33.1709 27.0238 32.5797 27.2813 31.7883C27.3528 31.8694 27.4243 31.9552 27.4958 32.0362C28.5494 33.2329 30.8854 31.9695 30.2609 30.4296C30.0225 29.8432 29.7699 29.2663 29.5029 28.699C29.9367 28.7181 30.361 28.5417 30.6852 28.2461C31.8342 28.4511 33.2549 27.3307 32.7352 26.0864C32.5493 25.6335 32.3443 25.1949 32.1393 24.7468C32.4492 24.5036 32.6875 24.1509 32.802 23.7552C32.9736 23.9316 33.1452 24.1127 33.3264 24.2843C33.5981 24.5465 33.908 24.5894 34.175 24.5036C34.6946 25.2378 35.2191 25.9529 35.7769 26.6395C36.4205 27.4309 37.5027 27.1257 38.0319 26.4345C38.5992 27.3927 39.1808 28.3462 39.7815 29.2711C40.9066 31.0064 43.4858 29.4952 42.5466 27.6549C42.1891 26.9589 41.7934 26.2676 41.3643 25.5763C41.6313 26.0101 41.903 26.4392 42.1891 26.8635C43.3285 28.5512 45.6121 27.1925 44.9971 25.4094C45.9268 26.2676 47.3904 25.4047 47.5525 24.2939C48.5918 24.1222 49.5405 22.9113 48.7968 21.8863H48.8015ZM39.8626 23.2879C37.8412 19.8411 35.8817 16.337 33.355 13.262C32.6971 11.8699 32.1822 10.4396 31.9009 8.9522C33.7555 10.9831 35.1046 13.5194 36.3537 15.9174C38.0271 19.1259 39.4669 22.4584 41.3548 25.5477C40.8876 24.7944 40.387 24.0412 39.8626 23.2879Z" fill="#7D4E24"/>
<path d="M49.3118 17.3763C47.3286 14.5778 44.0533 12.4992 40.5302 11.2025C40.6255 8.65186 40.3967 6.07267 40.3013 3.52208C40.287 3.07871 39.7388 2.67348 39.3622 3.05964C37.4409 5.00476 35.8676 7.20733 34.3516 9.4671C33.174 6.84977 32.3969 4.10371 31.615 1.33859C31.4434 0.723586 30.6568 0.81417 30.5471 1.41487C29.9655 4.63767 29.5364 7.84617 29.3362 11.1166C29.3362 11.1262 29.341 11.1262 29.341 11.1357C28.6926 12.3371 28.2969 14.0486 28.1014 15.66C22.5855 11.8556 13.2699 11.8127 7.95893 15.374C2.99124 11.5076 8.17823 5.57686 12.4451 3.4029C12.8932 3.17406 12.6549 2.50185 12.1686 2.58289C6.91962 3.4458 1.69926 12.728 7.32963 15.8317C4.14497 18.3012 2.7338 22.2439 5.15567 27.6263C5.47032 28.3272 5.85171 28.9803 6.28079 29.6001C4.40718 31.5976 2.98647 33.948 1.21298 36.0314C1.05565 36.1935 0.907863 36.3651 0.779142 36.5367C0.459723 36.9658 0.912631 37.4282 1.3274 37.3758C1.14147 40.2219 6.33799 39.9311 6.78137 36.9992C7.23428 34.0195 5.39881 33.6762 3.54427 34.4343C4.53113 32.9611 5.52753 31.4927 6.65741 30.1293C7.5966 31.3497 8.74556 32.3938 10.0375 33.2662C9.46545 35.7405 8.27835 37.9574 7.24381 40.2649C6.9959 40.8179 7.87788 41.2231 8.18777 40.7225C8.73602 39.8501 9.73242 38.1576 11.0053 38.5724C11.8206 38.8394 12.1591 40.0074 12.2878 40.7416C12.4356 41.5854 12.2735 42.6438 11.4487 43.0681C10.9004 43.3494 10.1663 43.1253 9.62754 42.9537C8.42137 42.5675 8.79323 42.1528 9.18893 41.2517C9.37963 40.8226 8.798 40.5461 8.48812 40.7845C7.73963 41.3566 7.50125 41.8477 7.42021 42.7916C7.4059 42.9823 7.50602 43.2159 7.68242 43.3113C9.14126 44.1074 10.8909 44.8416 12.4117 43.8261C13.5082 43.0967 13.575 41.452 13.37 40.2982C13.1555 39.0921 12.4117 37.8335 11.196 37.4425C10.5286 37.228 9.90882 37.3853 9.36056 37.7286C9.91358 36.4223 10.4523 35.1112 10.7241 33.7048C13.6465 35.4736 17.1744 36.3794 20.5593 36.3508C20.3829 37.0659 20.3686 37.8716 20.3066 38.5438C20.1588 40.1409 20.1207 41.7571 19.9348 43.3494C19.7059 43.3828 19.5009 43.5687 19.582 43.8309C20.6642 47.5162 27.6294 45.8666 26.2326 41.9621C25.794 40.7321 24.1778 40.0456 22.9621 40.1504C22.123 40.222 21.4794 40.5795 20.9931 41.0944C21.017 40.4127 21.0456 39.7357 21.0647 39.0539C21.0885 38.1863 21.2363 37.2328 21.2125 36.3269C22.2565 36.2793 23.2815 36.1553 24.2684 35.9265C24.9644 35.7644 25.8607 35.4783 26.838 35.0874C27.6724 36.9419 28.0251 38.949 28.4781 40.9275C28.521 41.1182 28.6926 41.266 28.8785 41.3185C28.8499 41.4138 28.8547 41.5235 28.9119 41.6284C30.3564 44.3077 36.4254 43.3875 35.5053 39.7643C34.6948 36.5796 30.8046 37.5474 29.1217 39.5879C28.6449 37.9669 28.3303 36.3126 27.5341 34.8014C31.186 33.209 35.5005 30.2818 34.5756 26.8731C37.398 28.3701 40.5779 29.2044 42.9425 29.028C48.4299 28.6227 52.8445 22.3488 49.3118 17.3715V17.3763ZM5.7802 35.9503C5.87078 38.2911 3.05799 39.1779 2.12833 36.9992C2.09973 36.9324 2.04729 36.88 1.99008 36.8418C2.9531 35.936 5.70392 33.9337 5.7802 35.9503ZM24.8405 41.9335C25.7177 42.7535 25.0789 43.6974 24.3876 44.3601C23.2863 45.4185 21.9657 44.5603 20.9121 43.8452C20.9121 43.8404 20.9169 43.8357 20.9169 43.8309C21.284 41.9335 23.0575 40.2696 24.8405 41.9335ZM34.1036 39.4449C35.5196 40.8226 32.9738 42.0574 31.8868 41.9716C30.9667 41.8953 30.3135 41.2756 29.484 41.0038C30.3088 39.5068 32.5256 37.9145 34.1036 39.4496V39.4449ZM45.3262 15.2596C45.3501 15.2691 45.3691 15.2596 45.393 15.2596C48.4203 17.5241 50.1557 21.2332 48.6253 24.2605C48.6348 24.0698 48.5395 23.8839 48.3011 23.8267C47.7386 23.6932 47.2094 23.6217 46.704 23.512C46.8423 23.1735 46.9805 22.835 47.114 22.4918C47.114 22.5299 47.1236 22.5728 47.1379 22.611C47.1808 22.7302 47.2475 22.816 47.3572 22.8827C47.4954 22.9685 47.6957 23.0019 47.8435 22.9161C48.8351 22.3154 48.1819 19.822 48.2678 18.8447C48.3202 18.2297 47.3333 18.0199 47.1903 18.6397C47.0139 19.4263 46.7803 20.1939 46.5181 20.9519C46.4895 19.4835 46.5801 18.0056 46.4561 16.542C46.4561 16.542 46.4561 16.542 46.4561 16.5372C46.4561 16.4896 46.4514 16.4467 46.4466 16.399C46.3894 15.784 45.4025 15.8698 45.3787 16.4753C45.3501 17.3477 45.3644 18.2201 45.3596 19.0974C45.1546 18.0151 45.0497 16.9091 44.921 15.8174C44.859 15.2691 44.0343 15.3692 43.9914 15.8841C43.8626 17.4621 43.9675 19.145 43.7196 20.6992C43.6958 20.8566 43.9055 20.8899 43.9866 20.7898C44.2536 20.4513 44.3489 19.9555 44.4157 19.4978C44.5921 20.3989 44.84 21.2856 45.2023 22.1295C45.2595 22.2582 45.3739 22.344 45.5074 22.3821C45.5312 22.6396 45.5598 22.8923 45.598 23.1497C45.2976 23.0019 45.0068 22.8112 44.7255 22.5395C43.8722 21.729 43.4288 20.5657 43.2095 19.4358C42.952 18.1343 43.0617 14.3347 45.3358 15.2691L45.3262 15.2596ZM39.2096 4.88558C39.2668 6.86884 39.3288 8.85687 39.4432 10.8401C38.0988 10.4158 36.7401 10.1059 35.4099 9.9057C36.5875 8.16082 37.8032 6.45407 39.2096 4.88558ZM29.7653 10.4778C30.3278 8.26093 30.7235 6.01546 31.1574 3.77476C31.7295 5.78662 32.3778 7.76988 33.2169 9.68163C33.0357 9.6721 32.8498 9.6578 32.6686 9.65303C32.5304 9.65303 32.4207 9.69117 32.3254 9.75315C31.2527 9.27164 30.4089 9.64349 29.7605 10.4778H29.7653ZM22.6999 35.0159C16.0159 36.346 8.61684 32.3414 5.86602 26.239C3.02938 19.9412 7.92079 15.3454 13.656 14.2298C18.4759 13.2906 23.6677 14.3442 28.0061 16.5801C27.906 17.8292 27.925 18.9353 28.0394 19.5836C28.4685 22.0723 30.4661 24.2891 32.9976 25.953C32.9642 26.0769 32.9642 26.2199 33.05 26.3725C35.4862 30.8968 25.8607 34.3866 22.6999 35.0159ZM31.3481 22.7588C29.6222 21.0949 29.0263 19.3119 28.9643 17.0569C29.2265 17.1141 29.5221 16.7994 29.279 16.5849C29.1741 16.4896 29.0645 16.399 28.9548 16.3132C29.0025 13.9294 29.6413 10.4587 32.2014 10.7114C32.292 10.8115 32.4207 10.883 32.6019 10.8926C32.7592 10.8973 32.9213 10.9212 33.0786 10.9307C33.1645 10.9641 33.2407 10.9784 33.3313 11.0165C33.4124 11.0499 33.4886 11.0165 33.5459 10.9641C33.6507 10.9736 33.7556 10.9927 33.8653 11.0022C34.0464 11.1834 34.3373 11.2168 34.5518 11.0833C37.9462 11.5409 41.293 12.79 44.2202 14.4968C42.6803 14.6446 42.0605 17.219 42.1034 18.716C42.1511 20.3369 42.933 22.2868 44.2011 23.5645C42.0844 24.6085 40.3776 24.7945 37.9796 24.0984C36.8878 23.779 32.6973 22.1104 33.7366 20.2797C33.9177 19.9555 33.4934 19.679 33.2598 19.965C30.3564 23.5549 42.2798 28.2842 45.0545 24.2653C45.9651 24.8564 47.0425 25.1186 48.2392 24.7849C48.2821 24.7706 48.325 24.7516 48.3631 24.7277C47.791 25.6335 46.9043 26.4631 45.6409 27.1544C41.0784 29.662 34.5852 25.9005 31.3433 22.7683L31.3481 22.7588Z" fill="#3C3C3B"/>
<path d="M35.758 15.9413C36.1346 15.6648 36.4826 15.3406 36.6304 14.9449C36.721 14.7018 36.6352 14.3728 36.4016 14.2394C36.4063 13.8389 36.2252 13.5433 35.6579 13.5958C35.4433 13.6148 35.2431 13.8008 35.0953 13.9438C34.7949 14.2394 34.4708 14.4587 34.2896 14.8544C34.1799 15.0975 34.199 15.3359 34.2991 15.5409C34.2515 15.7554 34.2228 15.9652 34.2419 16.1702C34.2705 16.4515 34.6519 16.6326 34.8903 16.4896C34.9666 16.4419 35.0476 16.3943 35.1334 16.3418C35.367 16.3132 35.5911 16.132 35.7532 15.9366L35.758 15.9413Z" fill="#3C3C3B"/>
</svg>
