<svg width="89" height="86" viewBox="0 0 89 86" fill="none" xmlns="http://www.w3.org/2000/svg">
<path d="M39.8416 80.4971C35.6887 81.6584 31.0341 82.7129 26.7232 81.8535C23.9221 81.2915 20.0479 78.927 21.0978 75.5034C22.3055 71.5642 27.6709 71.4434 30.537 69.4366C34.1743 66.8864 27.9867 66.4125 26.1983 66.2964C21.5716 65.9945 6.47434 63.8483 13.7489 56.2161C16.6522 53.1734 20.833 51.8681 24.7397 50.7021C27.4061 49.9078 33.6262 48.8579 35.2334 46.2287C35.2334 46.303 35.2474 46.3773 35.2659 46.447C34.6063 45.1881 31.4568 44.4031 30.2537 44.064C27.0066 43.1488 23.5505 42.9584 20.1966 42.9863C18.6358 43.0002 4.81132 44.2358 1.18798 44.5842C0.974292 44.6028 0.909256 44.3009 1.11365 44.2358C3.87761 43.3254 12.9638 41.8714 14.0322 41.7181C19.1839 40.9609 24.5724 40.501 29.7241 41.4765C32.0886 41.9225 39.0844 43.4833 37.7558 47.2367C36.5759 50.5767 30.1004 52.1421 27.1878 53.0851C23.4436 54.2929 18.3849 55.2824 15.7835 58.5713C13.21 61.823 20.5775 62.7335 22.6493 63.0122C26.0357 63.4721 31.5729 62.8682 33.8816 66.0038C36.771 69.9337 30.7414 72.2099 28.0982 73.1529C26.6071 73.6824 23.4297 74.5279 23.007 76.3303C22.5517 78.2627 25.1392 79.7213 26.635 80.2184C28.9576 80.9942 31.624 80.9384 34.0303 80.7805C35.1452 80.7061 36.26 80.6132 37.361 80.446C39.3074 80.1534 40.4083 80.3438 39.8323 80.5064L39.8416 80.4971Z" fill="#F17FB2"/>
<path d="M82.3878 26.4629L75.7311 39.9528L63.6254 64.4893C62.3898 67.0025 60.4109 69.0836 57.9628 70.4353L39.8275 80.5156L36.7941 59.988C36.3854 57.2241 36.8267 54.3904 38.067 51.8773L51.9564 23.7268L56.7086 14.1017C60.2437 6.93864 69.0651 3.83093 76.1631 7.50537C83.0382 11.0637 85.8253 19.4903 82.3878 26.4582V26.4629Z" fill="#F9B200"/>
<path d="M82.3877 26.4629L75.731 39.9528C70.9556 38.0715 66.3892 35.93 62.0273 33.1614C58.5944 30.9827 54.9479 28.1073 52.6066 24.7441C52.379 24.4096 52.1607 24.0752 51.9517 23.7268L56.7038 14.1017C60.2389 6.93864 69.0603 3.83093 76.1583 7.50537C83.0334 11.0637 85.8206 19.4903 82.383 26.4582L82.3877 26.4629Z" fill="#EDA82E"/>
<path opacity="0.4" d="M51.3457 43.3357C51.8407 42.3326 51.0706 40.9415 49.6257 40.2286C48.1808 39.5158 46.6083 39.7511 46.1134 40.7542C45.6185 41.7574 46.3886 43.1484 47.8335 43.8613C49.2783 44.5741 50.8508 44.3388 51.3457 43.3357Z" fill="#F17FB2"/>
<path opacity="0.4" d="M66.8199 50.9687C67.3148 49.9656 66.5447 48.5745 65.0998 47.8617C63.6549 47.1488 62.0824 47.3842 61.5875 48.3873C61.0926 49.3904 61.8627 50.7815 63.3076 51.4943C64.7525 52.2072 66.325 51.9719 66.8199 50.9687Z" fill="#F17FB2"/>
<path d="M82.3832 26.4628L79.2616 32.7851L53.7031 20.1777L56.8248 13.8554C60.3041 6.79923 68.8515 3.90056 75.9031 7.38454C82.9546 10.8685 85.858 19.4112 82.3786 26.4675L82.3832 26.4628Z" fill="#F17FB2"/>
<path opacity="0.15" d="M71.4854 9.22876C69.0791 9.24734 67.3789 9.88839 65.3954 11.2866C63.9042 12.3365 61.786 14.2736 63.0635 16.3082C64.6614 18.8585 68.452 18.4822 70.9001 17.6879C73.1716 16.9493 76.0192 15.3652 75.8938 12.6105C75.852 11.6304 75.5918 10.8407 74.8161 10.2182C73.7848 9.3867 72.879 9.45638 71.4807 9.23341L71.4854 9.22876Z" fill="white"/>
<path d="M80.2184 30.848C80.2184 30.848 74.9041 31.7678 66.0363 27.3919C57.1684 23.016 54.6646 18.2406 54.6646 18.2406L56.8293 13.8555C56.8293 13.8555 59.3331 18.6308 68.201 23.0067C77.0689 27.3826 82.3831 26.4628 82.3831 26.4628L80.2184 30.848Z" fill="#C9C9C9"/>
<path d="M78.0494 35.2518C78.0494 35.2518 72.7352 36.1716 63.8673 31.7957C54.9994 27.4198 52.4956 22.6444 52.4956 22.6444L54.6603 18.2593C54.6603 18.2593 57.1641 23.0347 66.032 27.4105C74.8999 31.7864 80.2141 30.8666 80.2141 30.8666L78.0494 35.2518Z" fill="#A5A5A5"/>
<path d="M67.2908 43.0048C67.0214 43.7945 66.7009 44.5842 66.0505 45.3088C65.7346 45.6619 65.2469 46.0149 64.6384 46.1032C64.4944 46.131 64.3364 46.1264 64.1971 46.1218C64.0716 46.1078 63.9508 46.1078 63.8161 46.0753C63.5606 46.0335 63.2819 45.9452 63.0125 45.7966C62.7431 45.6433 62.4969 45.3924 62.3389 45.1137C62.181 44.835 62.102 44.5377 62.0741 44.2636C62.037 43.7201 62.1299 43.2463 62.2692 42.8189C62.548 41.9642 62.9939 41.2163 63.491 40.566L63.5003 40.5567C63.6303 40.3848 63.8765 40.3523 64.0484 40.487C64.1831 40.5938 64.2296 40.7704 64.1785 40.9237C63.909 41.6994 63.6443 42.4287 63.5003 43.1441C63.4352 43.4972 63.3981 43.8409 63.4445 44.1103C63.4956 44.3798 63.5699 44.4866 63.7232 44.5795C63.8115 44.626 63.9183 44.6771 64.067 44.7003C64.132 44.7189 64.2156 44.7189 64.29 44.7328C64.355 44.7328 64.4014 44.7421 64.4572 44.7328C64.6662 44.7328 64.8985 44.6074 65.154 44.3937C65.6603 43.9663 66.1156 43.2881 66.594 42.6517V42.6424C66.7287 42.4705 66.9749 42.4334 67.1468 42.5634C67.2862 42.6656 67.3326 42.8468 67.2815 43.0001L67.2908 43.0048Z" fill="black"/>
<path d="M58.6828 46.8883C58.4877 47.7012 58.2415 48.5141 57.6655 49.2992C57.3821 49.6801 56.9315 50.0796 56.3369 50.2236C56.1929 50.2654 56.035 50.2747 55.9003 50.284C55.7702 50.284 55.6541 50.2933 55.5193 50.2747C55.2592 50.2607 54.9758 50.1957 54.6925 50.0749C54.4091 49.9449 54.1397 49.7219 53.9585 49.4618C53.7727 49.197 53.6658 48.909 53.6147 48.6395C53.5265 48.1007 53.5729 47.6222 53.6705 47.1809C53.8656 46.3029 54.2372 45.5179 54.6739 44.8211V44.8118C54.7947 44.6306 55.0362 44.5749 55.2174 44.691C55.3614 44.7839 55.4264 44.9558 55.3893 45.1137C55.1988 45.9127 54.9991 46.6653 54.9247 47.3899C54.8969 47.7476 54.8876 48.096 54.9619 48.3562C55.0362 48.621 55.1198 48.7185 55.2871 48.7975C55.38 48.8346 55.4914 48.8764 55.6401 48.8857C55.7051 48.8997 55.7934 48.8904 55.8677 48.895C55.9328 48.8904 55.9839 48.895 56.035 48.8811C56.244 48.8579 56.4623 48.7139 56.6992 48.4816C57.1591 48.0078 57.5493 47.2924 57.9674 46.6095V46.6002C58.0835 46.4144 58.3251 46.3587 58.5109 46.4702C58.6596 46.5584 58.7246 46.735 58.6874 46.8929L58.6828 46.8883Z" fill="black"/>
<path d="M56.1561 37.5094C55.8866 38.2991 55.5661 39.0888 54.9158 39.8135C54.5999 40.1665 54.1121 40.5196 53.5036 40.6078C53.3596 40.6357 53.2016 40.631 53.0623 40.6264C52.9369 40.6125 52.8161 40.6125 52.6814 40.5799C52.4259 40.5381 52.1472 40.4499 51.8777 40.3012C51.6083 40.1479 51.3621 39.8971 51.2042 39.6184C51.0462 39.3396 50.9672 39.0423 50.9394 38.7683C50.9022 38.2248 50.9951 37.7509 51.1345 37.3236C51.4132 36.4688 51.8591 35.7209 52.3608 35.0706L52.3701 35.0613C52.5002 34.8894 52.7464 34.8569 52.9183 34.9916C53.053 35.0985 53.0995 35.275 53.0484 35.4283C52.7789 36.2041 52.5141 36.9334 52.3701 37.6487C52.3051 38.0018 52.2679 38.3455 52.3144 38.615C52.3655 38.8844 52.4398 38.9912 52.5931 39.0842C52.6814 39.1306 52.7882 39.1817 52.9369 39.2049C53.0019 39.2235 53.0855 39.2235 53.1598 39.2374C53.2249 39.2374 53.2713 39.2467 53.3271 39.2374C53.5361 39.2374 53.7684 39.112 54.0239 38.8983C54.5302 38.471 54.9855 37.7928 55.4639 37.1563V37.1471C55.5986 36.9752 55.8448 36.938 56.0167 37.0681C56.1561 37.1703 56.2025 37.3515 56.1514 37.5047L56.1561 37.5094Z" fill="black"/>
<path opacity="0.4" d="M63.6209 64.494C62.3852 67.0024 60.4063 69.0789 57.9582 70.4353L49.6245 75.0667L39.8229 80.5156L38.1831 69.418L36.7896 59.988C36.3808 57.2194 36.8267 54.3904 38.067 51.8773L42.717 58.5573L50.8463 58.181L55.4962 64.8609L63.6255 64.4847V64.494H63.6209Z" fill="white"/>
<path d="M49.6294 75.0666L39.8278 80.5156L38.188 69.418C40.5617 68.4517 43.0749 68.396 45.2721 69.4783C47.4693 70.5607 48.9558 72.5907 49.634 75.062L49.6294 75.0666Z" fill="black"/>
<path opacity="0.15" d="M40.6965 70.6118C40.7522 71.3829 40.0136 77.9374 41.7928 76.9108C42.4431 76.5345 42.5081 74.4302 42.6289 73.7985C42.8008 72.9019 43.1399 71.9403 42.7358 71.1135C42.4292 70.4864 41.8346 69.8778 40.7011 70.6118H40.6965Z" fill="white"/>
</svg>
