<svg width="54" height="60" viewBox="0 0 54 60" fill="none" xmlns="http://www.w3.org/2000/svg">
<path d="M15.4316 2.24763C15.4316 2.24763 14.5338 0.144531 13.1625 0.144531C11.8131 0.144531 11.1111 0.767572 10.6432 1.19744C10.1752 1.62731 2.34503 8.06178 2.34503 8.06178C2.34503 8.06178 0.0677968 10.0506 0.241922 13.7916C0.38884 17.5325 1.12071 22.857 4.91881 30.2736C8.6897 37.6739 18.1278 48.9812 24.0916 52.9561C24.0916 52.9561 29.6174 57.195 34.7595 58.9172C36.2531 59.3878 39.2405 60 39.937 60C40.6444 60 41.8932 60 43.327 58.9525C44.7853 57.8942 52.9664 51.3155 52.9664 51.3155C52.9664 51.3155 54.9689 49.5063 52.6427 47.4031C50.3056 45.3 43.21 40.6232 41.6918 39.3934C40.171 38.1446 38.0053 38.6942 37.0694 39.5403C36.1362 40.3919 34.4684 41.7931 34.2643 41.9699C33.9596 42.2039 33.1243 42.963 32.1884 42.5848C30.9967 42.1141 26.1104 39.4614 21.5804 33.2637C17.0776 27.0713 16.5825 25.0471 15.9105 22.8597C15.7965 22.5363 15.7949 22.184 15.906 21.8596C16.0171 21.5352 16.2343 21.2578 16.5226 21.0722C17.1973 20.6042 19.6813 18.5338 19.6813 18.5338C19.6813 18.5338 21.2893 16.9476 20.6173 15.0785C19.9453 13.2093 15.4316 2.24763 15.4316 2.24763Z" fill="white"/>
</svg>
