<svg width="138" height="42" viewBox="0 0 138 42" fill="none" xmlns="http://www.w3.org/2000/svg">
<path d="M13.6385 11.6208C13.8218 12.2542 13.8552 12.9125 13.7385 13.5958C13.6218 14.2792 13.3635 14.8958 12.9635 15.4458C12.2635 16.4125 11.2635 17.0458 9.9635 17.3458C8.98016 17.5458 8.00516 17.5792 7.0385 17.4458C6.1385 17.2958 5.29683 16.9875 4.5135 16.5208C3.28016 15.7542 2.38016 14.7625 1.8135 13.5458C1.69683 13.3292 1.74683 13.1542 1.9635 13.0208C2.64683 12.6208 3.34683 12.3042 4.0635 12.0708C4.28016 11.9875 4.44683 12.0458 4.5635 12.2458C4.83016 12.7125 5.19683 13.1208 5.6635 13.4708C6.5135 14.1042 7.45516 14.3792 8.4885 14.2958C9.1385 14.2625 9.64683 14.1208 10.0135 13.8708C10.3635 13.6208 10.5468 13.3042 10.5635 12.9208C10.5968 12.1208 9.7885 11.4292 8.1385 10.8458C6.67183 10.3125 5.63016 9.90415 5.0135 9.62082C4.28016 9.28749 3.67183 8.80415 3.1885 8.17082C2.72183 7.52082 2.43016 6.78749 2.3135 5.97082C2.2135 5.13749 2.3885 4.26249 2.8385 3.34582C3.12183 2.77915 3.49683 2.29582 3.9635 1.89582C4.44683 1.49582 4.9635 1.20415 5.5135 1.02082C6.49683 0.77082 7.39683 0.67082 8.2135 0.72082C9.03016 0.754153 9.77183 0.929153 10.4385 1.24582C11.1218 1.56249 11.6885 1.92082 12.1385 2.32082C12.5885 2.70415 12.9385 3.12082 13.1885 3.57082C13.2885 3.77082 13.2468 3.93749 13.0635 4.07082C12.4968 4.50415 11.8052 4.84582 10.9885 5.09582C10.7885 5.14582 10.6302 5.08749 10.5135 4.92082C10.2635 4.58749 9.8885 4.31249 9.3885 4.09582C9.02183 3.92915 8.59683 3.82082 8.1135 3.77082C7.63016 3.72082 7.15516 3.76249 6.6885 3.89582C6.25516 4.01249 5.9385 4.23749 5.7385 4.57082C5.52183 5.00415 5.48016 5.42082 5.6135 5.82082C5.7635 6.22082 5.9885 6.51249 6.2885 6.69582C6.67183 6.92915 7.3885 7.21249 8.4385 7.54582C9.75516 7.99582 10.6718 8.37082 11.1885 8.67082C11.7718 9.00415 12.2635 9.38749 12.6635 9.82082C12.7468 9.90415 12.9385 10.1792 13.2385 10.6458C13.3052 10.7458 13.4385 11.0708 13.6385 11.6208Z" fill="#3E6772"/>
<path d="M28.1994 0.74582C28.3494 0.74582 28.4744 0.79582 28.5744 0.89582C28.6744 0.99582 28.7244 1.12082 28.7244 1.27082V3.39582C28.7244 3.54582 28.6744 3.67915 28.5744 3.79582C28.4744 3.89582 28.3494 3.94582 28.1994 3.94582C27.8994 3.94582 27.1328 3.93749 25.8994 3.92082C24.6828 3.88749 23.6494 3.87082 22.7994 3.87082C22.6828 11.4042 22.6161 15.7708 22.5994 16.9708C22.5994 17.1875 22.1078 17.2958 21.1244 17.2958C20.1411 17.2958 19.6411 17.1875 19.6244 16.9708C19.5744 15.8208 19.5328 13.7625 19.4994 10.7958C19.4828 7.81249 19.5078 5.49582 19.5744 3.84582C17.2411 3.82915 15.7078 3.81249 14.9744 3.79582C14.8244 3.77915 14.6911 3.72082 14.5744 3.62082C14.4578 3.50415 14.3994 3.36249 14.3994 3.19582V1.37082C14.3994 1.20415 14.4494 1.06249 14.5494 0.94582C14.6661 0.829153 14.8078 0.77082 14.9744 0.77082C15.8078 0.754153 20.2161 0.74582 28.1994 0.74582Z" fill="#3E6772"/>
<path d="M53.9877 2.44582C53.9877 2.86249 54.0294 5.16249 54.1127 9.34582C54.2127 13.5292 54.2627 15.9708 54.2627 16.6708C54.2627 16.8375 54.2044 16.9792 54.0877 17.0958C53.971 17.1958 53.8377 17.2458 53.6877 17.2458H51.6127C51.4627 17.2458 51.3211 17.1958 51.1877 17.0958C51.0711 16.9792 51.0127 16.8375 51.0127 16.6708C50.9627 16.1208 50.9627 14.8125 51.0127 12.7458C51.0627 10.6625 51.071 9.27915 51.0377 8.59582C51.0377 8.51249 50.996 8.46249 50.9127 8.44582C50.8294 8.42915 50.7794 8.45415 50.7627 8.52082C50.0794 10.0042 48.7127 12.6375 46.6627 16.4208C46.5294 16.6708 46.2711 16.8625 45.8877 16.9958C45.5211 17.1125 45.1211 17.1042 44.6877 16.9708C44.2711 16.8208 43.9627 16.5208 43.7627 16.0708C43.6461 15.8208 42.9127 13.5958 41.5627 9.39582C41.5294 9.31249 41.4711 9.27915 41.3877 9.29582C41.3044 9.31249 41.2627 9.36249 41.2627 9.44582C41.1294 12.9458 41.0377 15.3792 40.9877 16.7458C40.9877 16.8792 40.9377 16.9958 40.8377 17.0958C40.7377 17.1958 40.6127 17.2458 40.4627 17.2458L38.3127 17.2708C38.1461 17.2708 38.0044 17.2125 37.8877 17.0958C37.7877 16.9792 37.7377 16.8458 37.7377 16.6958C37.7877 13.8125 37.946 9.11249 38.2127 2.59582C38.246 2.07915 38.4461 1.64582 38.8127 1.29582C39.1961 0.929154 39.646 0.74582 40.1627 0.74582H40.3377C40.7544 0.74582 41.1377 0.87082 41.4877 1.12082C41.8544 1.35415 42.1127 1.67082 42.2627 2.07082C42.8627 3.55415 43.5294 5.34582 44.2627 7.44582C44.6627 8.56249 45.0877 9.71249 45.5377 10.8958C46.0544 9.79582 46.8877 8.17082 48.0377 6.02082C49.1877 3.85415 49.9211 2.43749 50.2377 1.77082C50.3877 1.45415 50.6044 1.20415 50.8877 1.02082C51.1877 0.837486 51.5127 0.74582 51.8627 0.74582H52.2127C52.6794 0.74582 53.0877 0.887487 53.4377 1.17082C53.8044 1.45415 53.9877 1.87915 53.9877 2.44582Z" fill="#3E6772"/>
<path d="M71.2906 16.4958C71.3406 16.6792 71.3073 16.8542 71.1906 17.0208C71.074 17.1875 70.9156 17.2708 70.7156 17.2708H68.5156C68.0823 17.2708 67.7906 17.0792 67.6406 16.6958C67.4906 16.3458 67.2323 15.6625 66.8656 14.6458C66.5156 13.6292 66.224 12.8208 65.9906 12.2208C63.824 12.2375 62.1323 12.2458 60.9156 12.2458C60.799 12.7125 60.5906 13.4625 60.2906 14.4958C59.9906 15.5292 59.7906 16.2125 59.6906 16.5458C59.574 16.9458 59.3073 17.1708 58.8906 17.2208C58.474 17.2542 57.5656 17.2625 56.1656 17.2458C55.999 17.2458 55.8656 17.1792 55.7656 17.0458C55.6656 16.8958 55.6406 16.7375 55.6906 16.5708C55.974 15.7042 56.4823 14.2625 57.2156 12.2458C56.949 12.2292 56.7573 12.2208 56.6406 12.2208C56.2406 12.2042 55.9573 12.0042 55.7906 11.6208C55.6406 11.2208 55.6656 10.8208 55.8656 10.4208C56.0823 10.0208 56.424 9.80415 56.8906 9.77082C57.1406 9.75415 57.5573 9.73749 58.1406 9.72082C58.6573 8.33749 59.0073 7.42082 59.1906 6.97082C59.324 6.67082 59.5823 6.04582 59.9656 5.09582C60.349 4.14582 60.6823 3.31249 60.9656 2.59582C61.2656 1.87915 61.4573 1.43749 61.5406 1.27082C61.7406 0.87082 62.0656 0.654153 62.5156 0.62082C63.149 0.554153 63.724 0.554153 64.2406 0.62082C64.5906 0.67082 64.8573 0.837487 65.0406 1.12082C65.5073 1.82082 65.8656 2.48749 66.1156 3.12082L66.4656 3.92082C67.1323 5.48749 67.7573 7.02082 68.3406 8.52082C68.4906 8.90415 68.6573 9.32915 68.8406 9.79582C69.1906 9.81249 69.4323 9.82915 69.5656 9.84582C69.8656 9.86249 70.074 10.0625 70.1907 10.4458C70.3073 10.8292 70.324 11.2125 70.2406 11.5958C70.1573 11.9792 69.999 12.1792 69.7656 12.1958C70.449 14.0125 70.9573 15.4458 71.2906 16.4958ZM61.6656 9.69582C62.8656 9.69582 63.999 9.69582 65.0656 9.69582C64.9656 9.32915 64.799 8.75415 64.5656 7.97082C64.349 7.17082 64.174 6.57082 64.0406 6.17082C64.0406 6.15415 64.0323 6.12915 64.0156 6.09582C63.9656 5.94582 63.924 5.82915 63.8906 5.74582C63.8573 5.66249 63.8156 5.56249 63.7656 5.44582C63.7156 5.32915 63.6573 5.25415 63.5906 5.22082C63.5406 5.17082 63.4823 5.16249 63.4156 5.19582C63.349 5.22915 63.274 5.30415 63.1906 5.42082C63.124 5.53749 63.049 5.68749 62.9656 5.87082C62.899 6.03749 62.8323 6.20415 62.7656 6.37082C62.7156 6.53749 62.649 6.72915 62.5656 6.94582C62.499 7.16249 62.4406 7.32082 62.3906 7.42082C62.2573 7.80415 62.0156 8.56249 61.6656 9.69582Z" fill="#3E6772"/>
<path d="M86.0238 16.6958C86.1239 16.8125 86.1405 16.9375 86.0739 17.0708C86.0072 17.1875 85.8988 17.2458 85.7488 17.2458L82.8239 17.2708C82.4905 17.2875 82.2405 17.1958 82.0739 16.9958C81.6072 16.4958 80.9238 15.6458 80.0238 14.4458C79.1238 13.2292 78.4905 12.3375 78.1238 11.7708C77.4738 12.0042 76.8155 12.1958 76.1488 12.3458C76.1488 14.4792 76.1239 16.0375 76.0739 17.0208C76.0572 17.2208 75.5489 17.3208 74.5489 17.3208C73.5655 17.3208 73.0655 17.2458 73.0489 17.0958C72.8822 15.8792 72.8655 11.6375 72.9988 4.37082C72.6822 4.45415 72.3905 4.53749 72.1238 4.62082C72.0072 4.65415 71.8655 4.58749 71.6989 4.42082C71.5489 4.25415 71.4155 4.03749 71.2989 3.77082C71.1822 3.50415 71.0905 3.22915 71.0238 2.94582C70.9572 2.66249 70.9322 2.41249 70.9489 2.19582C70.9822 1.96249 71.0738 1.82082 71.2238 1.77082C72.6738 1.28749 74.2322 0.912487 75.8988 0.64582C77.3822 0.445821 78.6072 0.412487 79.5739 0.54582C80.3572 0.64582 81.0738 0.837487 81.7238 1.12082C82.6238 1.50415 83.3155 2.07082 83.7989 2.82082C84.3489 3.62082 84.5739 4.54582 84.4739 5.59582C84.4072 6.46249 84.1322 7.27915 83.6488 8.04582C83.0488 8.96249 82.1738 9.76249 81.0238 10.4458C81.1572 10.5958 81.5988 11.1375 82.3488 12.0708C83.1155 13.0042 83.8155 13.8708 84.4489 14.6708C85.0822 15.4542 85.6072 16.1292 86.0238 16.6958ZM78.3239 8.22082C79.4239 7.68749 80.1988 7.15415 80.6488 6.62082C80.9322 6.32082 81.1155 5.99582 81.1989 5.64582C81.2989 5.29582 81.2989 4.99582 81.1989 4.74582C81.1155 4.51249 80.9322 4.31249 80.6488 4.14582C80.3488 3.96249 79.9322 3.82082 79.3988 3.72082C78.9488 3.62082 78.4655 3.57915 77.9489 3.59582C77.0989 3.61249 76.4739 3.66249 76.0739 3.74582C76.1072 5.42915 76.1322 7.21249 76.1488 9.09582C76.9155 8.84582 77.6405 8.55415 78.3239 8.22082Z" fill="#3E6772"/>
<path d="M99.6106 0.74582C99.7606 0.74582 99.8856 0.79582 99.9856 0.89582C100.086 0.99582 100.136 1.12082 100.136 1.27082V3.39582C100.136 3.54582 100.086 3.67915 99.9856 3.79582C99.8856 3.89582 99.7606 3.94582 99.6106 3.94582C99.3106 3.94582 98.5439 3.93749 97.3106 3.92082C96.0939 3.88749 95.0606 3.87082 94.2106 3.87082C94.0939 11.4042 94.0272 15.7708 94.0106 16.9708C94.0106 17.1875 93.5189 17.2958 92.5356 17.2958C91.5522 17.2958 91.0522 17.1875 91.0356 16.9708C90.9856 15.8208 90.9439 13.7625 90.9106 10.7958C90.8939 7.81249 90.9189 5.49582 90.9856 3.84582C88.6522 3.82915 87.1189 3.81249 86.3856 3.79582C86.2356 3.77915 86.1022 3.72082 85.9856 3.62082C85.8689 3.50415 85.8106 3.36249 85.8106 3.19582V1.37082C85.8106 1.20415 85.8606 1.06249 85.9606 0.94582C86.0772 0.829153 86.2189 0.77082 86.3856 0.77082C87.2189 0.754153 91.6272 0.74582 99.6106 0.74582Z" fill="#3E6772"/>
<path d="M101.464 5.54582C101.464 5.37915 101.981 5.29582 103.014 5.29582C104.048 5.29582 104.573 5.38749 104.589 5.57082C104.606 6.52082 104.606 7.53749 104.589 8.62082C104.573 9.70415 104.548 11.1792 104.514 13.0458C104.481 14.9125 104.464 16.1708 104.464 16.8208C104.464 16.9375 104.423 17.0375 104.339 17.1208C104.273 17.2042 104.181 17.2542 104.064 17.2708C103.331 17.3375 102.564 17.2958 101.764 17.1458C101.548 17.0958 101.431 16.9625 101.414 16.7458C101.381 15.1625 101.373 13.2042 101.389 10.8708C101.406 8.52082 101.431 6.74582 101.464 5.54582ZM102.614 4.09582C102.214 4.09582 101.873 3.95415 101.589 3.67082C101.323 3.38749 101.189 3.04582 101.189 2.64582C101.189 2.54582 101.189 2.43749 101.189 2.32082C101.189 2.20415 101.189 2.11249 101.189 2.04582C101.189 1.67915 101.314 1.37082 101.564 1.12082C101.831 0.87082 102.139 0.74582 102.489 0.74582H103.214C103.648 0.74582 104.006 0.854153 104.289 1.07082C104.573 1.27082 104.723 1.57082 104.739 1.97082C104.739 2.08749 104.739 2.37915 104.739 2.84582C104.739 3.19582 104.614 3.49582 104.364 3.74582C104.131 3.97915 103.839 4.09582 103.489 4.09582C103.339 4.09582 103.048 4.09582 102.614 4.09582Z" fill="#3E6772"/>
<path d="M121.206 1.29582C121.406 2.02915 121.606 3.33749 121.806 5.22082C122.006 7.10415 122.081 9.12082 122.031 11.2708C121.998 13.4208 121.773 14.9125 121.356 15.7458C121.04 16.3458 120.64 16.7792 120.156 17.0458C119.69 17.3125 119.24 17.4125 118.806 17.3458C118.373 17.2958 117.981 17.1958 117.631 17.0458C117.298 16.8958 117.056 16.7292 116.906 16.5458C116.14 15.5792 115.231 14.1375 114.181 12.2208C113.131 10.3042 112.373 8.82915 111.906 7.79582C111.74 7.46249 111.281 6.58749 110.531 5.17082C110.448 5.02082 110.315 4.97082 110.131 5.02082C109.965 5.05415 109.881 5.16249 109.881 5.34582C109.998 11.9792 110.048 15.5958 110.031 16.1958C110.031 16.4792 109.923 16.7208 109.706 16.9208C109.506 17.1042 109.256 17.2125 108.956 17.2458C108.673 17.2792 108.381 17.2708 108.081 17.2208C107.798 17.1542 107.556 17.0292 107.356 16.8458C107.156 16.6625 107.056 16.4458 107.056 16.1958C107.056 15.1292 107.015 13.4875 106.931 11.2708C106.881 9.82082 106.856 8.65415 106.856 7.77082C106.84 5.82082 106.89 4.32915 107.006 3.29582C107.09 2.64582 107.323 2.07915 107.706 1.59582C108.09 1.11249 108.581 0.82082 109.181 0.72082C109.765 0.604153 110.365 0.69582 110.981 0.99582C111.598 1.27915 112.123 1.70415 112.556 2.27082C112.74 2.48749 113.006 2.88749 113.356 3.47082C113.373 3.50415 113.623 4.02082 114.106 5.02082C114.59 6.00415 115.098 7.03749 115.631 8.12082C116.181 9.20415 116.715 10.2292 117.231 11.1958C117.748 12.1625 118.065 12.6875 118.181 12.7708C118.298 12.8708 118.423 12.8958 118.556 12.8458C118.706 12.7792 118.79 12.6625 118.806 12.4958C118.823 11.9958 118.806 11.1875 118.756 10.0708C118.706 8.93749 118.648 7.87082 118.581 6.87082C118.515 5.87082 118.431 4.80415 118.331 3.67082C118.248 2.53749 118.206 1.89582 118.206 1.74582C118.173 1.37915 118.39 1.10415 118.856 0.920821C119.323 0.737487 119.806 0.687486 120.306 0.77082C120.823 0.854153 121.123 1.02915 121.206 1.29582Z" fill="#3E6772"/>
<path d="M135.416 11.6208C135.599 12.2542 135.633 12.9125 135.516 13.5958C135.399 14.2792 135.141 14.8958 134.741 15.4458C134.041 16.4125 133.041 17.0458 131.741 17.3458C130.758 17.5458 129.783 17.5792 128.816 17.4458C127.916 17.2958 127.074 16.9875 126.291 16.5208C125.058 15.7542 124.158 14.7625 123.591 13.5458C123.474 13.3292 123.524 13.1542 123.741 13.0208C124.424 12.6208 125.124 12.3042 125.841 12.0708C126.058 11.9875 126.224 12.0458 126.341 12.2458C126.608 12.7125 126.974 13.1208 127.441 13.4708C128.291 14.1042 129.233 14.3792 130.266 14.2958C130.916 14.2625 131.424 14.1208 131.791 13.8708C132.141 13.6208 132.324 13.3042 132.341 12.9208C132.374 12.1208 131.566 11.4292 129.916 10.8458C128.449 10.3125 127.408 9.90415 126.791 9.62082C126.058 9.28749 125.449 8.80415 124.966 8.17082C124.499 7.52082 124.208 6.78749 124.091 5.97082C123.991 5.13749 124.166 4.26249 124.616 3.34582C124.899 2.77915 125.274 2.29582 125.741 1.89582C126.224 1.49582 126.741 1.20415 127.291 1.02082C128.274 0.77082 129.174 0.67082 129.991 0.72082C130.808 0.754153 131.549 0.929153 132.216 1.24582C132.899 1.56249 133.466 1.92082 133.916 2.32082C134.366 2.70415 134.716 3.12082 134.966 3.57082C135.066 3.77082 135.024 3.93749 134.841 4.07082C134.274 4.50415 133.583 4.84582 132.766 5.09582C132.566 5.14582 132.408 5.08749 132.291 4.92082C132.041 4.58749 131.666 4.31249 131.166 4.09582C130.799 3.92915 130.374 3.82082 129.891 3.77082C129.408 3.72082 128.933 3.76249 128.466 3.89582C128.033 4.01249 127.716 4.23749 127.516 4.57082C127.299 5.00415 127.258 5.42082 127.391 5.82082C127.541 6.22082 127.766 6.51249 128.066 6.69582C128.449 6.92915 129.166 7.21249 130.216 7.54582C131.533 7.99582 132.449 8.37082 132.966 8.67082C133.549 9.00415 134.041 9.38749 134.441 9.82082C134.524 9.90415 134.716 10.1792 135.016 10.6458C135.083 10.7458 135.216 11.0708 135.416 11.6208Z" fill="#3E6772"/>
<path d="M13.0347 26.8208C13.5847 27.6208 13.8097 28.5375 13.7097 29.5708C13.643 30.4542 13.368 31.2792 12.8847 32.0458C12.2014 33.0625 11.1264 33.9708 9.65969 34.7708C8.30969 35.4875 6.88469 36.0125 5.38469 36.3458C5.38469 38.4792 5.35969 40.0375 5.30969 41.0208C5.29302 41.2208 4.78469 41.3208 3.78469 41.3208C2.80135 41.3208 2.30135 41.2458 2.28469 41.0958C2.11802 39.8792 2.10135 35.6292 2.23469 28.3458C1.91802 28.4292 1.62635 28.5125 1.35969 28.5958C1.24302 28.6458 1.10135 28.5875 0.934688 28.4208C0.784688 28.2542 0.651354 28.0375 0.534688 27.7708C0.418021 27.5042 0.326354 27.2292 0.259688 26.9458C0.193021 26.6625 0.168021 26.4125 0.184687 26.1958C0.218021 25.9625 0.309688 25.8208 0.459688 25.7708C1.90969 25.2708 3.46802 24.8958 5.13469 24.6458C6.61802 24.4458 7.84302 24.4125 8.80969 24.5458C9.59302 24.6458 10.3097 24.8375 10.9597 25.1208C11.8597 25.5042 12.5514 26.0708 13.0347 26.8208ZM10.4347 29.6458C10.5347 29.2958 10.5347 28.9958 10.4347 28.7458C10.3514 28.5125 10.168 28.3125 9.88469 28.1458C9.58469 27.9625 9.16802 27.8125 8.63469 27.6958C8.18469 27.6125 7.70135 27.5708 7.18469 27.5708C6.33469 27.5875 5.70969 27.6458 5.30969 27.7458C5.34302 29.4292 5.36802 31.2042 5.38469 33.0708C6.15135 32.8375 6.87635 32.5542 7.55969 32.2208C8.65969 31.6875 9.43469 31.1542 9.88469 30.6208C10.168 30.3042 10.3514 29.9792 10.4347 29.6458Z" fill="#3E6772"/>
<path d="M29.4443 40.6958C29.5443 40.8125 29.5609 40.9375 29.4943 41.0708C29.4276 41.1875 29.3193 41.2458 29.1693 41.2458L26.2443 41.2708C25.9109 41.2875 25.6609 41.1958 25.4943 40.9958C25.0276 40.4958 24.3443 39.6458 23.4443 38.4458C22.5443 37.2292 21.9109 36.3375 21.5443 35.7708C20.8943 36.0042 20.2359 36.1958 19.5693 36.3458C19.5693 38.4792 19.5443 40.0375 19.4943 41.0208C19.4776 41.2208 18.9693 41.3208 17.9693 41.3208C16.9859 41.3208 16.4859 41.2458 16.4693 41.0958C16.3026 39.8792 16.2859 35.6375 16.4193 28.3708C16.1026 28.4542 15.8109 28.5375 15.5443 28.6208C15.4276 28.6542 15.2859 28.5875 15.1193 28.4208C14.9693 28.2542 14.8359 28.0375 14.7193 27.7708C14.6026 27.5042 14.5109 27.2292 14.4443 26.9458C14.3776 26.6625 14.3526 26.4125 14.3693 26.1958C14.4026 25.9625 14.4943 25.8208 14.6443 25.7708C16.0943 25.2875 17.6526 24.9125 19.3193 24.6458C20.8026 24.4458 22.0276 24.4125 22.9943 24.5458C23.7776 24.6458 24.4943 24.8375 25.1443 25.1208C26.0443 25.5042 26.7359 26.0708 27.2193 26.8208C27.7693 27.6208 27.9943 28.5458 27.8943 29.5958C27.8276 30.4625 27.5526 31.2792 27.0693 32.0458C26.4693 32.9625 25.5943 33.7625 24.4443 34.4458C24.5776 34.5958 25.0193 35.1375 25.7693 36.0708C26.5359 37.0042 27.2359 37.8708 27.8693 38.6708C28.5026 39.4542 29.0276 40.1292 29.4443 40.6958ZM21.7443 32.2208C22.8443 31.6875 23.6193 31.1542 24.0693 30.6208C24.3526 30.3208 24.5359 29.9958 24.6193 29.6458C24.7193 29.2958 24.7193 28.9958 24.6193 28.7458C24.5359 28.5125 24.3526 28.3125 24.0693 28.1458C23.7693 27.9625 23.3526 27.8208 22.8193 27.7208C22.3693 27.6208 21.8859 27.5792 21.3693 27.5958C20.5193 27.6125 19.8943 27.6625 19.4943 27.7458C19.5276 29.4292 19.5526 31.2125 19.5693 33.0958C20.3359 32.8458 21.0609 32.5542 21.7443 32.2208Z" fill="#3E6772"/>
<path d="M41.2839 37.1958C41.4339 37.1625 41.5756 37.2458 41.7089 37.4458C41.8422 37.6458 41.9339 37.9125 41.9839 38.2458C42.0506 38.5625 42.0922 38.8875 42.1089 39.2208C42.1422 39.5542 42.1339 39.8458 42.0839 40.0958C42.0339 40.3292 41.9506 40.4625 41.8339 40.4958C41.8172 40.4958 41.6089 40.5375 41.2089 40.6208C40.8256 40.6875 40.4589 40.7458 40.1089 40.7958C39.7756 40.8458 39.3339 40.9042 38.7839 40.9708C38.2339 41.0375 37.7089 41.0792 37.2089 41.0958C36.7089 41.0958 36.1839 41.0875 35.6339 41.0708C35.1006 41.0542 34.5839 40.9875 34.0839 40.8708C33.6006 40.7542 33.1672 40.5958 32.7839 40.3958C32.2172 40.0792 31.7339 39.6542 31.3339 39.1208C30.9506 38.5708 30.6839 37.9875 30.5339 37.3708C30.4006 36.7542 30.3089 36.2792 30.2589 35.9458C30.2256 35.5958 30.2089 35.2792 30.2089 34.9958C30.1756 31.9625 30.1172 29.5542 30.0339 27.7708C30.0006 26.9875 30.0339 26.4792 30.1339 26.2458C30.2672 25.7792 30.5339 25.4125 30.9339 25.1458C31.3006 24.8792 31.7256 24.7375 32.2089 24.7208C34.9756 24.7042 37.7922 24.6875 40.6589 24.6708C40.9756 24.6708 41.2006 24.9208 41.3339 25.4208C41.4672 25.9042 41.4672 26.3958 41.3339 26.8958C41.2172 27.3792 41.0089 27.6292 40.7089 27.6458C40.6256 27.6458 39.8089 27.6625 38.2589 27.6958C36.7089 27.7292 35.1256 27.7708 33.5089 27.8208C33.4256 27.8208 33.3506 27.8542 33.2839 27.9208C33.2339 27.9708 33.2089 28.0375 33.2089 28.1208C33.2256 28.2875 33.2422 28.6292 33.2589 29.1458C33.2756 29.6625 33.2922 30.1458 33.3089 30.5958C33.3422 31.0292 33.3589 31.2625 33.3589 31.2958C34.5422 31.2625 36.5672 31.2542 39.4339 31.2708C39.5839 31.2708 39.7089 31.3292 39.8089 31.4458C39.9256 31.5458 39.9839 31.6708 39.9839 31.8208L40.0089 33.7458C40.0089 33.8958 39.9506 34.0292 39.8339 34.1458C39.7339 34.2458 39.6089 34.2958 39.4589 34.2958C36.6089 34.3125 34.5922 34.3125 33.4089 34.2958C33.4089 34.6958 33.4422 35.2542 33.5089 35.9708C33.5422 36.5208 33.7672 36.9625 34.1839 37.2958C34.6006 37.6125 35.1006 37.7792 35.6839 37.7958C36.6172 37.8292 37.6172 37.7792 38.6839 37.6458C39.7672 37.4958 40.6339 37.3458 41.2839 37.1958Z" fill="#3E6772"/>
<path d="M49.8948 34.0458C49.9782 34.0292 50.0698 34.2292 50.1698 34.6458C50.2865 35.0458 50.3532 35.4208 50.3698 35.7708C50.4032 36.1042 50.3698 36.2958 50.2698 36.3458L43.3198 36.2208C43.2532 36.2042 43.1782 36.0375 43.0948 35.7208C43.0115 35.4042 42.9532 35.1125 42.9198 34.8458C42.9032 34.5625 42.9282 34.3958 42.9948 34.3458L49.8948 34.0458Z" fill="#3E6772"/>
<path d="M63.5042 35.6208C63.6876 36.2542 63.7209 36.9125 63.6042 37.5958C63.4876 38.2792 63.2292 38.8958 62.8292 39.4458C62.1292 40.4125 61.1292 41.0458 59.8292 41.3458C58.8459 41.5458 57.8709 41.5792 56.9042 41.4458C56.0042 41.2958 55.1626 40.9875 54.3792 40.5208C53.1459 39.7542 52.2459 38.7625 51.6792 37.5458C51.5626 37.3292 51.6126 37.1542 51.8292 37.0208C52.5126 36.6208 53.2126 36.3042 53.9292 36.0708C54.1459 35.9875 54.3126 36.0458 54.4292 36.2458C54.6959 36.7125 55.0626 37.1208 55.5292 37.4708C56.3792 38.1042 57.3209 38.3792 58.3542 38.2958C59.0042 38.2625 59.5126 38.1208 59.8792 37.8708C60.2292 37.6208 60.4126 37.3042 60.4292 36.9208C60.4626 36.1208 59.6542 35.4292 58.0042 34.8458C56.5376 34.3125 55.4959 33.9042 54.8792 33.6208C54.1459 33.2875 53.5376 32.8042 53.0542 32.1708C52.5876 31.5208 52.2959 30.7875 52.1792 29.9708C52.0792 29.1375 52.2542 28.2625 52.7042 27.3458C52.9876 26.7792 53.3626 26.2958 53.8292 25.8958C54.3126 25.4958 54.8292 25.2042 55.3792 25.0208C56.3626 24.7708 57.2626 24.6708 58.0792 24.7208C58.8959 24.7542 59.6376 24.9292 60.3042 25.2458C60.9876 25.5625 61.5542 25.9208 62.0042 26.3208C62.4542 26.7042 62.8042 27.1208 63.0542 27.5708C63.1542 27.7708 63.1126 27.9375 62.9292 28.0708C62.3626 28.5042 61.6709 28.8458 60.8542 29.0958C60.6542 29.1458 60.4959 29.0875 60.3792 28.9208C60.1292 28.5875 59.7542 28.3125 59.2542 28.0958C58.8876 27.9292 58.4626 27.8208 57.9792 27.7708C57.4959 27.7208 57.0209 27.7625 56.5542 27.8958C56.1209 28.0125 55.8042 28.2375 55.6042 28.5708C55.3876 29.0042 55.3459 29.4208 55.4792 29.8208C55.6292 30.2208 55.8542 30.5125 56.1542 30.6958C56.5376 30.9292 57.2542 31.2125 58.3042 31.5458C59.6209 31.9958 60.5376 32.3708 61.0542 32.6708C61.6376 33.0042 62.1292 33.3875 62.5292 33.8208C62.6126 33.9042 62.8042 34.1792 63.1042 34.6458C63.1709 34.7458 63.3042 35.0708 63.5042 35.6208Z" fill="#3E6772"/>
<path d="M76.2902 36.1958C76.3902 36.0292 76.6652 36.0292 77.1152 36.1958C77.5818 36.3458 77.9985 36.5875 78.3652 36.9208C78.7485 37.2542 78.8902 37.5375 78.7902 37.7708C78.3068 38.7875 77.6068 39.6292 76.6902 40.2958C76.0902 40.7458 75.3568 41.0792 74.4902 41.2958C73.6402 41.5125 72.7818 41.5708 71.9152 41.4708C71.7818 41.4542 71.3318 41.3708 70.5652 41.2208C70.1152 41.1042 69.6318 40.9042 69.1152 40.6208C68.2652 40.1375 67.4985 39.4958 66.8152 38.6958C65.9985 37.7458 65.4652 36.8042 65.2152 35.8708C64.9485 34.8542 64.8152 33.8375 64.8152 32.8208C64.8485 31.7208 65.0485 30.6875 65.4152 29.7208C65.7818 28.7542 66.3318 27.8708 67.0652 27.0708C67.7485 26.3208 68.5402 25.7208 69.4402 25.2708C70.3402 24.8208 71.2485 24.5625 72.1652 24.4958C73.0318 24.3792 73.8985 24.4458 74.7652 24.6958C75.6485 24.9292 76.3652 25.3125 76.9152 25.8458C77.6485 26.5458 78.2068 27.4792 78.5902 28.6458C78.6568 28.8792 78.6068 29.0958 78.4402 29.2958C78.2735 29.4792 78.0485 29.6208 77.7652 29.7208C77.4818 29.8208 77.1902 29.8958 76.8902 29.9458C76.5902 29.9958 76.3152 29.9875 76.0652 29.9208C75.8318 29.8542 75.6902 29.7458 75.6402 29.5958C75.0735 27.8458 74.0568 26.9708 72.5902 26.9708C72.1402 26.9708 71.6985 27.0625 71.2652 27.2458C70.8318 27.4292 70.4152 27.7208 70.0152 28.1208C69.6152 28.5208 69.2652 29.0792 68.9652 29.7958C68.6818 30.4958 68.5068 31.3208 68.4402 32.2708C68.2902 33.9708 68.5402 35.3292 69.1902 36.3458C69.8568 37.3458 70.7318 38.0042 71.8152 38.3208C72.8152 38.6042 73.7068 38.5125 74.4902 38.0458C75.2735 37.5625 75.8735 36.9458 76.2902 36.1958Z" fill="#3E6772"/>
<path d="M93.4747 33.2458C93.4747 34.4292 93.4497 36.0542 93.3997 38.1208C93.3664 40.1708 93.3164 41.3458 93.2497 41.6458C93.2164 41.7792 93.0914 41.8625 92.8747 41.8958C92.6747 41.9292 92.4247 41.9125 92.1247 41.8458C91.8247 41.7958 91.5497 41.7292 91.2997 41.6458C91.0497 41.5792 90.8081 41.5042 90.5747 41.4208C90.3414 41.3375 90.2247 41.1708 90.2247 40.9208C90.2247 40.1542 90.2331 37.8625 90.2497 34.0458C89.6664 34.0458 88.6664 34.0208 87.2497 33.9708C85.8497 33.9208 84.7914 33.9042 84.0747 33.9208C84.0914 34.5208 84.1081 35.3792 84.1247 36.4958C84.1414 37.5958 84.1581 38.5208 84.1747 39.2708C84.1914 40.0042 84.2164 40.5708 84.2497 40.9708C84.2497 41.1042 83.9997 41.1958 83.4997 41.2458C83.0164 41.2792 82.5247 41.2792 82.0247 41.2458C81.5247 41.1958 81.2664 41.1208 81.2497 41.0208C81.0164 40.1375 80.8831 37.7625 80.8497 33.8958C80.6497 33.8958 80.3997 33.9208 80.0997 33.9708C79.7997 34.0208 79.6247 34.0458 79.5747 34.0458C79.1581 34.0292 78.8747 33.8292 78.7247 33.4458C78.5747 33.0458 78.5997 32.6458 78.7997 32.2458C78.9997 31.8458 79.3414 31.6292 79.8247 31.5958C79.8581 31.5792 79.9997 31.5458 80.2497 31.4958C80.4997 31.4292 80.6997 31.3958 80.8497 31.3958C80.9497 28.2625 81.0747 26.1042 81.2247 24.9208C81.2581 24.6708 81.7581 24.6125 82.7247 24.7458C83.6914 24.8625 84.1747 25.0375 84.1747 25.2708C84.2081 26.1375 84.1664 28.1625 84.0497 31.3458C84.8664 31.3458 86.0247 31.3792 87.5247 31.4458C89.0247 31.5125 89.9331 31.5542 90.2497 31.5708C90.2664 30.7708 90.2747 29.8792 90.2747 28.8958C90.2747 27.9125 90.2747 27.1042 90.2747 26.4708C90.2914 25.8208 90.2997 25.3542 90.2997 25.0708C90.2997 24.9042 90.5414 24.7792 91.0247 24.6958C91.5247 24.6125 92.0164 24.6042 92.4997 24.6708C92.9997 24.7375 93.2581 24.8542 93.2747 25.0208C93.3581 26.8708 93.4247 29.6125 93.4747 33.2458Z" fill="#3E6772"/>
<path d="M107.634 27.8458C108.351 28.5458 108.943 29.4875 109.409 30.6708C109.893 31.8375 110.026 33.1292 109.809 34.5458C109.676 35.4292 109.401 36.3208 108.984 37.2208C108.568 38.1042 108.126 38.7875 107.659 39.2708C106.743 40.2542 105.618 40.9208 104.284 41.2708C103.668 41.4208 103.026 41.5042 102.359 41.5208C101.526 41.5208 100.843 41.4375 100.309 41.2708C98.9595 40.9042 97.8428 40.1458 96.9595 38.9958C96.2262 38.0458 95.7262 36.9292 95.4595 35.6458C95.0095 33.4125 95.2845 31.2875 96.2845 29.2708C96.7012 28.4042 97.2345 27.6292 97.8845 26.9458C98.5345 26.2625 99.2345 25.7292 99.9845 25.3458C101.134 24.7292 102.343 24.4292 103.609 24.4458C103.976 24.4625 104.234 24.6125 104.384 24.8958C104.534 25.1792 104.584 25.5125 104.534 25.8958C105.768 26.3792 106.801 27.0292 107.634 27.8458ZM106.609 34.0708C106.726 32.6042 106.434 31.4042 105.734 30.4708C105.234 29.7542 104.468 29.1458 103.434 28.6458C103.118 28.5125 103.059 28.0875 103.259 27.3708C102.626 27.4375 102.018 27.6208 101.434 27.9208C100.468 28.4542 99.7095 29.2875 99.1595 30.4208C98.4928 31.7042 98.2678 33.0958 98.4845 34.5958C98.5845 35.3625 98.8262 36.0625 99.2095 36.6958C99.6095 37.3292 100.093 37.7792 100.659 38.0458C101.259 38.3292 101.943 38.4292 102.709 38.3458C103.493 38.2625 104.151 38.0292 104.684 37.6458C105.234 37.2458 105.676 36.7208 106.009 36.0708C106.359 35.4042 106.559 34.7375 106.609 34.0708Z" fill="#3E6772"/>
<path d="M123.357 27.8458C124.074 28.5458 124.665 29.4875 125.132 30.6708C125.615 31.8375 125.749 33.1292 125.532 34.5458C125.399 35.4292 125.124 36.3208 124.707 37.2208C124.29 38.1042 123.849 38.7875 123.382 39.2708C122.465 40.2542 121.34 40.9208 120.007 41.2708C119.39 41.4208 118.749 41.5042 118.082 41.5208C117.249 41.5208 116.565 41.4375 116.032 41.2708C114.682 40.9042 113.565 40.1458 112.682 38.9958C111.949 38.0458 111.449 36.9292 111.182 35.6458C110.732 33.4125 111.007 31.2875 112.007 29.2708C112.424 28.4042 112.957 27.6292 113.607 26.9458C114.257 26.2625 114.957 25.7292 115.707 25.3458C116.857 24.7292 118.065 24.4292 119.332 24.4458C119.699 24.4625 119.957 24.6125 120.107 24.8958C120.257 25.1792 120.307 25.5125 120.257 25.8958C121.49 26.3792 122.524 27.0292 123.357 27.8458ZM122.332 34.0708C122.449 32.6042 122.157 31.4042 121.457 30.4708C120.957 29.7542 120.19 29.1458 119.157 28.6458C118.84 28.5125 118.782 28.0875 118.982 27.3708C118.349 27.4375 117.74 27.6208 117.157 27.9208C116.19 28.4542 115.432 29.2875 114.882 30.4208C114.215 31.7042 113.99 33.0958 114.207 34.5958C114.307 35.3625 114.549 36.0625 114.932 36.6958C115.332 37.3292 115.815 37.7792 116.382 38.0458C116.982 38.3292 117.665 38.4292 118.432 38.3458C119.215 38.2625 119.874 38.0292 120.407 37.6458C120.957 37.2458 121.399 36.7208 121.732 36.0708C122.082 35.4042 122.282 34.7375 122.332 34.0708Z" fill="#3E6772"/>
<path d="M136.405 37.3958C136.755 37.3458 137.038 37.5375 137.255 37.9708C137.471 38.4042 137.538 38.8792 137.455 39.3958C137.371 39.9125 137.138 40.2292 136.755 40.3458C135.255 40.7792 133.53 41.0708 131.58 41.2208C130.413 41.3208 129.396 40.9708 128.53 40.1708C127.68 39.3542 127.255 38.3625 127.255 37.1958C127.255 34.9625 127.255 33.4792 127.255 32.7458C127.255 31.8625 127.255 30.8375 127.255 29.6708C127.271 28.4875 127.28 27.5125 127.28 26.7458C127.28 25.9792 127.28 25.4375 127.28 25.1208C127.28 24.8875 127.771 24.7625 128.755 24.7458C129.755 24.7292 130.255 24.8458 130.255 25.0958C130.405 27.7292 130.48 31.2792 130.48 35.7458C130.48 35.9125 130.48 36.0542 130.48 36.1708C130.496 36.2708 130.513 36.4375 130.53 36.6708C130.563 36.9042 130.605 37.0958 130.655 37.2458C130.721 37.3958 130.805 37.5542 130.905 37.7208C131.005 37.8708 131.146 37.9875 131.33 38.0708C131.513 38.1375 131.713 38.1542 131.93 38.1208C132.58 38.0375 134.071 37.7958 136.405 37.3958Z" fill="#3E6772"/>
</svg>
