<svg width="35" height="22" viewBox="0 0 35 22" fill="none" xmlns="http://www.w3.org/2000/svg">
<path d="M34.7539 9.47255C31.043 6.72518 27.4123 3.88031 23.8505 0.94366C23.5751 0.714234 23.1106 0.886304 23.0016 1.21323C22.4051 3.00276 22.1068 4.84389 22.0839 6.71371C21.8717 6.62194 21.6193 6.65062 21.43 6.89725C21.2981 7.06932 21.1834 7.24712 21.0572 7.41919C19.9445 7.40772 18.8318 7.5167 17.7248 7.64862C15.9582 7.8551 14.2089 8.0329 12.4308 8.03864C8.88619 8.05011 5.34155 7.90098 1.80267 7.81495C1.51589 7.80921 1.32663 7.98129 1.25206 8.19924C0.965284 8.16483 0.678479 8.31969 0.68995 8.68677C0.764512 10.677 0.907922 12.6673 1.13734 14.6461C1.24059 15.5179 1.21191 16.6421 1.64209 17.4279C2.05505 18.185 2.88098 18.2022 3.64382 18.1563C7.85951 17.8982 12.0695 17.6114 16.2794 17.3418C18.4647 17.1985 20.65 17.0608 22.8353 16.9174C22.9844 18.2653 23.2597 19.5902 23.6727 20.8865C23.7931 21.2593 24.2462 21.5289 24.5904 21.2077C28.2554 17.7778 31.6968 14.1184 34.8973 10.2583C35.0923 10.0174 34.9891 9.64462 34.7596 9.47829L34.7539 9.47255ZM29.6721 7.02917C29.6721 7.02917 29.6148 7.05211 29.5918 7.06932C28.5537 7.79775 27.7736 8.72692 27.114 9.74786C27.5041 8.66956 27.8884 7.59126 28.2784 6.50723C28.4332 6.07705 28.0604 5.72145 27.6474 5.7616C26.9248 5.83042 26.3971 6.35236 26.0357 6.94314C25.9153 7.13815 25.8006 7.34463 25.6916 7.55111C25.9612 6.54737 26.2307 5.53791 26.5061 4.53417C27.5557 5.37157 28.6168 6.20324 29.6779 7.02917L29.6721 7.02917ZM29.6091 9.61594C29.6263 9.73639 29.6377 9.85684 29.6549 9.97729C29.5058 10.1494 29.3567 10.3272 29.2133 10.4992L29.6148 9.61594L29.6091 9.61594ZM31.6395 9.31769C31.6853 8.84737 31.1634 8.36557 30.7447 8.79001C30.7046 8.83016 30.6644 8.87604 30.6242 8.92193C30.6013 8.81295 30.5841 8.70398 30.5612 8.60073C30.5153 8.39999 30.3891 8.27954 30.24 8.21645C30.3203 8.03864 30.4006 7.86657 30.4809 7.68877C30.4809 7.6773 30.4809 7.67156 30.4866 7.66009C31.0143 8.06732 31.542 8.46882 32.0696 8.87031C31.9262 9.01944 31.7771 9.16856 31.6395 9.32343L31.6395 9.31769ZM24.3323 5.1823C24.0971 4.90125 23.5293 4.94713 23.3343 5.34289C23.3056 5.40598 23.2712 5.47481 23.2425 5.53791C23.3343 4.46534 23.5235 3.40425 23.816 2.3661C24.3953 2.84215 24.9747 3.31821 25.5597 3.78854C25.0435 4.15562 24.6477 4.63741 24.3265 5.1823L24.3323 5.1823ZM17.7592 16.1259C18.5909 14.1872 19.4455 12.2486 20.4836 10.4189C19.9961 12.2945 19.5086 14.17 19.0211 16.0456C18.6024 16.0743 18.1779 16.0972 17.7592 16.1259ZM22.2101 10.7573C22.1412 11.0212 22.0724 11.2793 22.0036 11.5431C21.6595 12.6214 21.3268 13.6997 21.0113 14.7895C20.8106 15.4778 21.8315 15.8678 22.0667 15.1738C22.4223 14.1184 22.7492 13.0516 23.0417 11.979C23.34 11.0499 23.644 10.1207 23.9652 9.20298C24.1774 8.595 24.3724 7.90099 24.619 7.22418C23.9136 9.83963 23.2081 12.4608 22.5083 15.0763C22.4108 15.4433 22.646 15.7187 22.9213 15.799C22.0323 15.8563 21.1433 15.9137 20.2485 15.971C20.8851 14.2274 21.5218 12.4838 22.2101 10.7631L22.2101 10.7573ZM23.2826 15.776C23.4031 15.7244 23.5006 15.6212 23.5637 15.4548C24.143 13.8259 24.7797 12.2199 25.4851 10.6426C25.64 10.2927 25.8121 9.94861 25.9726 9.60447C25.2155 11.7037 24.4584 13.8087 23.7071 15.9079C23.5924 15.8219 23.4318 15.776 23.2884 15.776L23.2826 15.776ZM24.4986 16.9576C25.8694 14.9157 26.6839 12.3977 28.0604 10.3272C27.0854 12.478 26.1103 14.6289 25.1353 16.7798C24.8886 17.2845 24.6592 17.795 24.4412 18.3112C24.1602 18.9822 25.2041 19.3493 25.4966 18.6955C25.7203 18.2079 25.9382 17.7204 26.1619 17.2271C26.1963 17.1526 26.2365 17.0837 26.2709 17.0092C26.3569 17.2673 26.615 17.4508 26.8617 17.4279C26.0874 18.2079 25.3016 18.9708 24.5043 19.7279C24.2806 18.8905 24.1086 18.0416 23.9938 17.1812C24.1774 17.2042 24.3667 17.1468 24.4986 16.9518L24.4986 16.9576ZM29.0699 14.4109C29.1101 14.583 29.2362 14.7264 29.3911 14.8067C28.7774 15.4663 28.1465 16.1087 27.5155 16.7568C28.026 15.971 28.5365 15.1852 29.0699 14.4167L29.0699 14.4109ZM33.0332 9.58726C33.2282 9.73066 33.4232 9.87978 33.6125 10.0232C32.7694 11.0326 31.909 12.0249 31.0315 13C31.6968 11.8586 32.3621 10.7229 33.0332 9.58153L33.0332 9.58726ZM19.9445 9.094C19.9789 8.99076 20.0133 8.88178 20.0477 8.77854C20.0707 8.70397 20.0764 8.62941 20.0707 8.55485C20.1453 8.55485 20.2198 8.55485 20.2944 8.54911C20.1797 8.73266 20.0592 8.91046 19.9502 9.094L19.9445 9.094ZM18.3041 8.70398C18.2123 8.81869 18.1206 8.94487 18.046 9.07105C17.9313 9.2546 17.8223 9.43814 17.7191 9.62741C17.7248 9.61021 17.7363 9.593 17.742 9.57579C18.0231 8.90472 16.962 8.52617 16.6867 9.1915C15.7345 11.4743 14.8111 13.7685 14.4383 16.2291C14.4326 16.2693 14.4383 16.3037 14.4383 16.3381C14.1286 16.3553 13.8188 16.3783 13.5091 16.3955C13.8188 15.8104 14.1171 15.2197 14.3867 14.6059C14.5874 14.1528 14.1515 13.8259 13.7615 13.8833C13.8819 13.5219 14.0024 13.1663 14.1114 12.8107C14.4956 11.5489 14.8857 10.2813 15.27 9.01944C15.9812 8.96208 16.6924 8.89325 17.4093 8.80722C17.7076 8.7728 18.0116 8.73839 18.3098 8.70398L18.3041 8.70398ZM3.01291 11.784C3.18498 10.8548 3.37426 9.92566 3.59222 9.00796C3.59222 8.99649 3.59222 8.99076 3.59222 8.97929C3.80443 8.98502 4.01664 8.99076 4.22886 8.99649C3.82163 9.92567 3.4144 10.8548 3.00717 11.784L3.01291 11.784ZM1.9518 11.3883C1.89444 10.5681 1.84283 9.7536 1.81415 8.9334C2.0321 8.9334 2.25007 8.94487 2.46802 8.95061C2.27874 9.75933 2.1124 10.5738 1.95754 11.3883L1.9518 11.3883ZM5.29568 9.37504C5.3301 9.24886 5.3301 9.12841 5.29568 9.03091C5.5079 9.03664 5.72011 9.04238 5.93233 9.04811C5.85777 9.10547 5.78897 9.1743 5.74308 9.27754C5.41041 9.95434 5.08346 10.6311 4.75079 11.308C4.93433 10.6656 5.11214 10.0232 5.29568 9.38078L5.29568 9.37504ZM6.66077 9.06532C6.91314 9.07105 7.17125 9.07679 7.42362 9.08253C7.40068 9.11694 7.372 9.14562 7.34905 9.18003L5.57098 13.0803C5.95527 11.9331 6.37397 10.7917 6.79268 9.65609C6.89018 9.39799 6.80989 9.1915 6.65503 9.06532L6.66077 9.06532ZM12.3792 11.8528C12.5455 10.9753 12.7348 10.1035 12.9298 9.23165C12.9355 9.19724 12.9298 9.16856 12.9356 9.13415C13.2109 9.12841 13.4919 9.12268 13.7672 9.1112C13.2223 9.98302 12.7692 10.9065 12.3735 11.8528L12.3792 11.8528ZM9.97595 12.7189C10.0849 11.6349 10.257 10.5566 10.5037 9.48976C10.5323 9.35784 10.5208 9.24312 10.4807 9.13415C10.8248 9.13415 11.1633 9.13415 11.5074 9.13988C10.9051 9.89125 10.6298 10.8893 10.3144 11.7783C10.2054 12.088 10.0907 12.4035 9.98169 12.7132L9.97595 12.7189ZM8.39865 9.10547C8.73131 9.1112 9.06972 9.12267 9.40238 9.12841C8.74852 9.99449 8.30688 10.9523 7.9398 11.9503C8.10614 11.1072 8.27247 10.2641 8.4388 9.42093C8.46174 9.29475 8.43883 9.1915 8.39294 9.10547L8.39865 9.10547ZM8.85753 12.696C8.74281 13.8718 8.69692 15.0533 8.73706 16.2463C8.7428 16.4356 8.83457 16.5847 8.95502 16.688L7.41213 16.7855C8.02011 15.4835 8.38147 14.0611 8.85753 12.696ZM9.82111 16.4815C10.2226 15.3573 10.6298 14.2274 11.0313 13.1032C10.8593 14.2503 10.7503 15.4032 10.756 16.5733C10.4176 16.5962 10.0735 16.6192 9.73506 16.6364C9.76947 16.5905 9.79817 16.5446 9.82111 16.4815ZM12.0351 16.2807C12.0293 16.3496 12.0293 16.4184 12.0236 16.4872C12.0064 16.4872 11.9892 16.4872 11.972 16.4872C11.9949 16.4184 12.0121 16.3496 12.0351 16.275L12.0351 16.2807ZM3.19071 17.0493C3.28248 16.8601 3.37424 16.6765 3.46601 16.4872C3.45454 16.6765 3.46601 16.86 3.49468 17.0379C3.43733 17.0379 3.37424 17.0436 3.31688 17.0493C3.271 17.0493 3.23086 17.0493 3.19071 17.0493ZM5.04331 16.9461C5.50217 15.9423 5.95529 14.9386 6.41414 13.9349C6.25354 14.8468 6.16175 15.7645 6.32235 16.6937C6.33382 16.7511 6.35104 16.8027 6.37399 16.8486C6.28222 16.8543 6.19616 16.8601 6.10439 16.8658C5.74878 16.8887 5.39318 16.9174 5.03757 16.9461L5.04331 16.9461ZM15.6198 16.2578C16.2278 14.9673 16.853 13.6882 17.5068 12.4207C17.6617 12.1167 17.8281 11.8127 17.9887 11.5144C17.4897 13.0803 16.9907 14.6404 16.4917 16.2062C16.1991 16.2234 15.9066 16.2463 15.6198 16.2635L15.6198 16.2578Z" fill="#E20613"/>
</svg>
