<svg width="14" height="14" viewBox="0 0 14 14" fill="none" xmlns="http://www.w3.org/2000/svg">
<path d="M13.3987 2.89097C12.9695 2.07863 12.1121 1.56442 11.1906 1.82493C10.239 2.09482 9.60186 2.98862 9.18499 3.83103C8.81219 4.58553 8.57351 5.39636 8.37496 6.21384C8.11948 5.42111 7.79681 4.64976 7.4046 3.91454C6.89834 2.96096 6.29891 1.93362 5.48388 1.21137C5.15956 0.923816 4.70465 0.610274 4.24787 0.669718C3.75206 0.735962 3.45041 1.2854 3.2975 1.70942C2.95048 2.674 2.92318 3.79321 2.89589 4.80747C2.87268 5.68554 2.9169 6.56391 3.02248 7.43695C2.74334 7.07493 2.43064 6.73942 2.06341 6.4641C1.61213 6.12344 0.343022 5.41011 0.0663909 6.33031C0.00628748 6.53318 0.0390655 6.7723 0.0500982 6.98002C0.0649194 7.23978 0.0873274 7.49865 0.119712 7.75772C0.180527 8.24964 0.273429 8.73737 0.392985 9.21702C0.634289 10.1874 1.00152 11.1241 1.47619 12.0044C1.70754 12.434 1.96359 12.8503 2.24584 13.2468C2.4759 13.5679 2.7467 13.8816 3.17323 13.8732C3.64486 13.8636 4.14804 13.5807 4.58142 13.4172C5.09454 13.2236 5.60396 13.0255 6.11381 12.8233C8.13611 12.0267 10.1401 11.1817 12.121 10.2859C12.4592 10.1325 12.7536 9.96803 12.9069 9.66067C13.0266 9.66304 13.1532 9.59947 13.1908 9.45258C13.4821 8.36647 13.6703 7.25388 13.7431 6.12937C13.81 5.07839 13.9058 3.85213 13.3963 2.88989L13.3987 2.89097ZM2.54061 12.7316C1.59763 11.3448 0.971699 9.74326 0.71127 8.08705C1.17961 9.82721 1.87029 11.4954 2.76982 13.061C2.68829 12.9551 2.6152 12.8401 2.54061 12.7316ZM9.93844 5.77058C10.0182 5.44146 10.1039 5.11211 10.1985 4.78535C10.2306 4.67621 10.3642 4.13275 10.5078 3.74192C10.4579 4.5964 10.4244 5.45259 10.4144 6.30786C10.3947 6.19254 10.3749 6.07721 10.3576 5.96296C10.3257 5.74726 10.0859 5.67335 9.93779 5.76884L9.93844 5.77058ZM9.40175 4.66807C9.59271 4.18217 9.82939 3.68101 10.1517 3.25448C10.0445 3.46916 9.97627 3.71867 9.91614 3.90571C9.79413 4.28045 9.68342 4.65885 9.57921 5.03876C9.56336 4.91801 9.46538 4.82625 9.35647 4.80001C9.37352 4.75596 9.38644 4.71147 9.40348 4.66742L9.40175 4.66807ZM10.0705 7.65343C10.0775 7.69831 10.0846 7.74318 10.0916 7.78805C10.1727 8.33371 10.2554 8.81538 9.86593 9.26329C9.85641 9.2748 9.8445 9.28523 9.83432 9.29501C9.81633 9.29982 9.79835 9.30462 9.78209 9.30877C9.87903 8.75735 9.97596 8.20593 10.0722 7.65278L10.0705 7.65343ZM10.0669 9.81716C10.0536 9.84993 10.04 9.87685 10.0215 9.88577C10.0111 9.8897 10.0001 9.89189 9.98946 9.88996C10.0161 9.86605 10.042 9.84042 10.0669 9.81716ZM8.66731 7.33524C8.66874 7.40203 8.6719 7.46816 8.67745 7.53538C8.61655 7.55241 8.56284 7.58852 8.52434 7.63868C8.50367 7.6049 8.48474 7.57045 8.46407 7.53666C8.55965 7.50655 8.64365 7.43526 8.66731 7.33524ZM4.62483 1.27009C4.84448 1.36941 5.03996 1.52537 5.21463 1.68918C5.91807 2.34659 6.45635 3.26433 6.90666 4.10634C7.34304 4.92192 7.69148 5.78256 7.9582 6.66809C7.93122 6.62282 7.90359 6.57582 7.87835 6.52989C7.87763 6.4965 7.86802 6.46053 7.84951 6.42196C7.7744 6.2701 7.69821 6.12062 7.62309 5.96876L6.34998 3.42327C6.29076 3.30304 6.17138 3.24906 6.06276 3.26033C5.68352 2.7222 5.25924 2.21691 4.77173 1.75923C4.69136 1.57767 4.60471 1.40045 4.50831 1.2289C4.54736 1.23793 4.58598 1.25108 4.62896 1.27051L4.62483 1.27009ZM3.61275 2.68159C3.65749 2.3855 3.71891 2.08115 3.83524 1.80162C3.83617 2.27651 3.88872 2.75174 3.95578 3.22348C3.99866 3.52611 4.04501 3.82744 4.08897 4.12769C4.07486 4.23203 4.06422 4.33505 4.06009 4.43958C4.0115 4.32127 3.96356 4.2047 3.91324 4.08705C3.83287 3.90549 3.58646 3.87171 3.46592 3.99837C3.49737 3.55681 3.54356 3.1176 3.61209 2.67986L3.61275 2.68159ZM5.36225 8.52659C5.31754 8.28207 5.27282 8.03755 5.22983 7.79238C5.26711 7.89119 5.30157 7.99304 5.3343 8.09555C5.53352 8.72337 5.66319 9.38732 5.65213 10.0509C5.57068 9.54103 5.47405 9.03293 5.36117 8.52898L5.36225 8.52659ZM6.15075 10.643C6.16224 10.8624 6.16028 11.083 6.12124 11.2997C6.1178 11.3168 6.1109 11.3353 6.10746 11.3524C6.06586 11.3681 6.02599 11.3831 5.98504 11.4006C6.06761 11.1575 6.11981 10.9022 6.15075 10.643ZM3.99736 5.9583C3.98065 5.84578 3.96503 5.73089 3.95006 5.61772C4.31414 6.60909 4.61344 7.62293 4.84424 8.65468C4.95276 9.2573 5.06193 9.86167 5.17804 10.4634C5.22119 10.6828 5.45918 10.7415 5.60366 10.6573C5.58291 10.8018 5.55392 10.9454 5.51669 11.0881C5.29778 10.8123 5.09663 10.5258 4.90566 10.2295C4.79296 9.82056 4.66574 9.41508 4.50971 9.02246C4.43338 8.58392 4.35532 8.14604 4.28139 7.70858C4.18483 7.12718 4.0859 6.5447 3.99867 5.96177L3.99736 5.9583ZM3.43208 5.76164C3.4411 5.82754 3.44839 5.8941 3.45741 5.96C3.53631 6.4946 3.62452 7.02766 3.71448 7.56007C3.69034 7.52759 3.66794 7.49445 3.64273 7.46436C3.61621 7.4308 3.58775 7.40787 3.55714 7.38972C3.49211 6.84989 3.44746 6.30633 3.43208 5.76164ZM4.90203 11.7002C4.9334 11.6626 4.95522 11.6207 4.98008 11.5817C5.03209 11.562 5.07798 11.521 5.11062 11.471C5.16236 11.5347 5.21409 11.5983 5.26864 11.6589C5.26517 11.6603 5.26171 11.6616 5.25651 11.6635C5.11629 11.7065 4.98415 11.7762 4.87845 11.7269C4.88515 11.7185 4.89359 11.7093 4.90029 11.7009L4.90203 11.7002ZM4.17011 10.2377C4.17011 10.2377 4.17947 10.252 4.18555 10.2576C4.20199 10.3484 4.21909 10.441 4.23965 10.5323C4.06425 10.2143 3.87628 9.90498 3.6751 9.60265C3.8479 9.80875 4.01615 10.0185 4.17185 10.237L4.17011 10.2377ZM2.58064 11.5779C2.30086 11.0042 2.0499 10.4177 1.82428 9.81966C2.10429 10.3992 2.37844 10.9789 2.58064 11.5779ZM0.872873 6.89341C0.783229 6.84999 0.670063 6.86496 0.586034 6.92042C0.584893 6.89115 0.582672 6.86426 0.579797 6.83565C0.576601 6.75368 0.536127 6.57291 0.573715 6.49933C0.731425 6.19825 1.50161 6.71761 1.6597 6.83223C1.92094 7.02081 2.1547 7.24154 2.36638 7.48248C1.98209 7.13042 1.56409 6.84651 1.01826 6.83262C0.965991 6.83056 0.914217 6.85603 0.871138 6.89406L0.872873 6.89341ZM2.458 8.31327C2.42504 8.30986 2.39272 8.30819 2.35825 8.31129C2.32277 8.24349 2.2873 8.17568 2.25182 8.10787C2.26833 8.12541 2.28658 8.14229 2.30244 8.15809C2.35545 8.20937 2.40673 8.26132 2.458 8.31327ZM4.69298 12.8048C4.26199 12.9694 3.83234 13.1533 3.39219 13.2935C3.41012 13.2571 3.42262 13.2167 3.42103 13.1757C3.41833 13.0164 3.40457 12.8592 3.38627 12.7057C3.57652 12.7428 3.79394 12.5895 3.69136 12.3648C3.29198 11.5056 2.89324 10.6481 2.49386 9.78885C2.38955 9.56484 2.28524 9.34082 2.18027 9.11507C2.2941 9.32757 2.4114 9.53877 2.52977 9.74758C2.96933 10.5243 3.44267 11.2804 3.94114 12.0191C3.92927 12.0454 3.91913 12.071 3.91137 12.0977C3.87862 12.2051 3.88107 12.3428 3.98595 12.4161C4.53685 12.8004 5.19998 12.5898 5.5985 12.1187C5.62797 12.1076 5.65744 12.0964 5.68691 12.0853C5.90301 12.2592 6.19021 12.3014 6.38729 12.0627C6.45003 11.9875 6.49864 11.8959 6.53771 11.8C6.58274 11.8721 6.66329 11.9229 6.77776 11.9114C6.866 11.9039 6.95402 11.8905 7.0403 11.8777C6.26048 12.1937 5.47631 12.5034 4.6906 12.8037L4.69298 12.8048ZM6.67776 11.1214C6.67881 11.1032 6.68094 11.0826 6.68199 11.0644C6.68533 10.9998 6.68628 10.9341 6.68723 10.8684C6.72945 10.9435 6.7788 11.0061 6.83528 11.0561C6.78154 11.0763 6.73085 11.0994 6.67776 11.1214ZM8.06677 10.5044C7.84145 10.6052 7.59332 10.6929 7.4049 10.7026C7.35134 10.5921 7.2707 10.4938 7.1682 10.4216C6.90479 9.78628 6.66629 9.14357 6.45142 8.48998C6.30555 7.53114 6.08315 6.57939 5.70234 5.68541C5.59123 5.42238 5.12146 5.49464 5.18517 5.80526C5.26026 6.16704 5.34641 6.52662 5.43667 6.88663C5.25375 6.49623 5.04329 6.10631 4.87532 5.70828L4.87401 5.70482C4.78972 5.18216 4.71236 4.65689 4.63153 4.13292C4.65978 3.94009 4.69735 3.74571 4.72298 3.54594C4.73728 3.43164 4.74681 3.31517 4.7481 3.19785C5.62041 5.37375 6.44938 7.56598 7.22982 9.77653C7.3009 9.97546 7.50585 9.9833 7.63511 9.88503C7.74584 10.0631 7.86111 10.2374 7.98786 10.4054C8.00699 10.4299 8.02763 10.4479 8.05 10.4652C8.05457 10.4773 8.0585 10.4877 8.06308 10.4998C8.06438 10.5033 8.06504 10.505 8.06569 10.5068L8.06677 10.5044ZM7.33138 6.71247C7.31372 6.66566 7.29887 6.61582 7.28122 6.56902C7.3132 6.6223 7.34411 6.67797 7.37609 6.73125C7.36111 6.72304 7.34678 6.71656 7.32964 6.71312L7.33138 6.71247ZM8.13942 8.51854C8.02107 8.09982 7.87367 7.6881 7.70201 7.28553C7.70201 7.28553 7.70266 7.28726 7.70332 7.28899C7.93765 7.6897 8.17198 8.09042 8.40631 8.49113C8.40827 8.82702 8.47333 9.15694 8.67618 9.42696C8.72683 9.493 8.78353 9.54884 8.84413 9.59924C8.82516 9.65393 8.80379 9.70753 8.78004 9.76005C8.5444 9.35587 8.33064 8.94146 8.13877 8.51681L8.13942 8.51854ZM11.9734 9.79499C11.7093 9.92432 11.4135 10.022 11.1605 10.1334C10.7248 10.3274 10.2878 10.518 9.84837 10.7075C9.66269 10.7875 9.47635 10.8657 9.29001 10.9439C9.30538 10.9322 9.31968 10.9228 9.33506 10.9111C9.43466 10.8339 9.45654 10.7187 9.42685 10.619C9.50139 10.5909 9.56524 10.5292 9.58563 10.4205L9.60965 10.2847C9.73654 10.4111 9.89435 10.4882 10.0992 10.4486C10.3721 10.3951 10.4994 10.1709 10.5737 9.92698C10.6548 10.1261 10.9787 10.192 11.0636 9.95009C11.1635 9.66886 11.2616 9.38828 11.3614 9.10705C11.368 9.14021 11.3729 9.17403 11.3794 9.20719C11.42 9.43545 11.7274 9.51552 11.8551 9.36044C11.8508 9.41748 11.8449 9.47518 11.8406 9.53222C11.8296 9.65519 11.8912 9.74485 11.9752 9.79434L11.9734 9.79499ZM11.3749 7.46829C11.2598 7.79292 11.1453 8.11928 11.0301 8.44392C11.0498 7.76124 11.1259 7.08105 11.2085 6.40237C11.2234 6.27396 11.1605 6.18084 11.0737 6.13439C11.0749 6.09037 11.0751 6.04873 11.0763 6.00471C11.0867 5.44435 11.0929 4.88356 11.1075 4.32363C11.1185 3.88579 11.1525 3.4195 11.4491 3.07196C11.6735 2.81108 11.2569 2.47318 11.0332 2.73579C11.0029 2.77098 10.9757 2.80897 10.9484 2.84698C10.9226 2.83098 10.8916 2.81695 10.8573 2.81008C10.7273 2.78583 10.6166 2.80188 10.5221 2.84543C10.6476 2.72679 10.7823 2.61658 10.9318 2.52456C11.4574 2.20151 12.017 2.25181 12.4444 2.56583C12.4283 2.56001 12.414 2.55353 12.3992 2.55118C11.8267 2.40874 11.7015 3.36291 11.625 3.73235C11.5073 4.30745 11.4633 4.89433 11.4445 5.47964C11.4252 6.11071 11.4405 6.74453 11.4452 7.37642C11.4151 7.40164 11.3887 7.43139 11.3756 7.47002L11.3749 7.46829ZM12.7569 7.01627C12.6997 7.4735 12.6431 7.93246 12.5859 8.38969C12.5573 8.61831 12.5287 8.84692 12.5007 9.07727C12.4806 9.2393 12.4727 9.39675 12.3784 9.51945C12.4994 8.42825 12.6254 7.32923 12.8538 6.25494C12.8227 6.50828 12.7898 6.76227 12.7593 7.01735L12.7569 7.01627ZM12.1014 6.17639C12.0629 6.75134 12.0209 7.32759 11.9741 7.90168C11.9816 7.29687 11.9667 6.69059 11.966 6.08493C11.9658 5.57013 11.9798 5.05596 12.0367 4.54538C12.0659 4.28684 12.1046 4.03262 12.1592 3.77836C12.1721 3.71805 12.1891 3.65817 12.2037 3.59721C12.2746 4.45167 12.1579 5.33924 12.0997 6.17705L12.1014 6.17639ZM13.1963 3.95544C13.0837 3.94048 12.9641 3.98561 12.9177 4.1041C12.853 4.27901 12.7941 4.45369 12.7359 4.6301C12.7631 3.98817 12.748 3.34437 12.6027 2.71796C12.5988 2.70756 12.5949 2.69716 12.5892 2.68742C12.7244 2.81466 12.84 2.96905 12.9338 3.1495C13.0614 3.39841 13.1448 3.67191 13.1963 3.95544Z" fill="#E95B0C"/>
</svg>
