<svg width="141" height="49" viewBox="0 0 141 49" fill="none" xmlns="http://www.w3.org/2000/svg">
<path d="M15.5758 14.3609C15.7591 14.9943 15.7924 15.6526 15.6758 16.3359C15.5591 17.0193 15.3008 17.6359 14.9008 18.1859C14.2008 19.1526 13.2008 19.7859 11.9008 20.0859C10.9174 20.2859 9.94244 20.3193 8.97577 20.1859C8.07577 20.0359 7.2341 19.7276 6.45077 19.2609C5.21744 18.4943 4.31744 17.5026 3.75077 16.2859C3.6341 16.0693 3.6841 15.8943 3.90077 15.7609C4.5841 15.3609 5.2841 15.0443 6.00077 14.8109C6.21744 14.7276 6.3841 14.7859 6.50077 14.9859C6.76744 15.4526 7.1341 15.8609 7.60077 16.2109C8.45077 16.8443 9.39244 17.1193 10.4258 17.0359C11.0758 17.0026 11.5841 16.8609 11.9508 16.6109C12.3008 16.3609 12.4841 16.0443 12.5008 15.6609C12.5341 14.8609 11.7258 14.1693 10.0758 13.5859C8.6091 13.0526 7.56744 12.6443 6.95077 12.3609C6.21744 12.0276 5.6091 11.5443 5.12577 10.9109C4.6591 10.2609 4.36744 9.5276 4.25077 8.71094C4.15077 7.8776 4.32577 7.0026 4.77577 6.08594C5.0591 5.51927 5.4341 5.03594 5.90077 4.63594C6.3841 4.23594 6.90077 3.94427 7.45077 3.76094C8.4341 3.51094 9.3341 3.41094 10.1508 3.46094C10.9674 3.49427 11.7091 3.66927 12.3758 3.98594C13.0591 4.3026 13.6258 4.66094 14.0758 5.06094C14.5258 5.44427 14.8758 5.86094 15.1258 6.31094C15.2258 6.51094 15.1841 6.6776 15.0008 6.81094C14.4341 7.24427 13.7424 7.58594 12.9258 7.83594C12.7258 7.88594 12.5674 7.8276 12.4508 7.66094C12.2008 7.3276 11.8258 7.0526 11.3258 6.83594C10.9591 6.66927 10.5341 6.56094 10.0508 6.51094C9.56744 6.46094 9.09244 6.5026 8.62577 6.63594C8.19244 6.7526 7.87577 6.9776 7.67577 7.31094C7.4591 7.74427 7.41744 8.16094 7.55077 8.56094C7.70077 8.96094 7.92577 9.2526 8.22577 9.43594C8.6091 9.66927 9.32577 9.9526 10.3758 10.2859C11.6924 10.7359 12.6091 11.1109 13.1258 11.4109C13.7091 11.7443 14.2008 12.1276 14.6008 12.5609C14.6841 12.6443 14.8758 12.9193 15.1758 13.3859C15.2424 13.4859 15.3758 13.8109 15.5758 14.3609ZM30.1367 3.48594C30.2867 3.48594 30.4117 3.53594 30.5117 3.63594C30.6117 3.73594 30.6617 3.86094 30.6617 4.01094V6.13594C30.6617 6.28594 30.6117 6.41927 30.5117 6.53594C30.4117 6.63594 30.2867 6.68594 30.1367 6.68594C29.8367 6.68594 29.07 6.6776 27.8367 6.66094C26.62 6.6276 25.5867 6.61094 24.7367 6.61094C24.62 14.1443 24.5534 18.5109 24.5367 19.7109C24.5367 19.9276 24.045 20.0359 23.0617 20.0359C22.0784 20.0359 21.5784 19.9276 21.5617 19.7109C21.5117 18.5609 21.47 16.5026 21.4367 13.5359C21.42 10.5526 21.445 8.23594 21.5117 6.58594C19.1784 6.56927 17.645 6.5526 16.9117 6.53594C16.7617 6.51927 16.6284 6.46094 16.5117 6.36094C16.395 6.24427 16.3367 6.1026 16.3367 5.93594V4.11094C16.3367 3.94427 16.3867 3.8026 16.4867 3.68594C16.6034 3.56927 16.745 3.51094 16.9117 3.51094C17.745 3.49427 22.1534 3.48594 30.1367 3.48594ZM55.925 5.18594C55.925 5.6026 55.9667 7.9026 56.05 12.0859C56.15 16.2693 56.2 18.7109 56.2 19.4109C56.2 19.5776 56.1417 19.7193 56.025 19.8359C55.9083 19.9359 55.775 19.9859 55.625 19.9859H53.55C53.4 19.9859 53.2583 19.9359 53.125 19.8359C53.0083 19.7193 52.95 19.5776 52.95 19.4109C52.9 18.8609 52.9 17.5526 52.95 15.4859C53 13.4026 53.0083 12.0193 52.975 11.3359C52.975 11.2526 52.9333 11.2026 52.85 11.1859C52.7667 11.1693 52.7167 11.1943 52.7 11.2609C52.0167 12.7443 50.65 15.3776 48.6 19.1609C48.4667 19.4109 48.2083 19.6026 47.825 19.7359C47.4583 19.8526 47.0583 19.8443 46.625 19.7109C46.2083 19.5609 45.9 19.2609 45.7 18.8109C45.5833 18.5609 44.85 16.3359 43.5 12.1359C43.4667 12.0526 43.4083 12.0193 43.325 12.0359C43.2417 12.0526 43.2 12.1026 43.2 12.1859C43.0667 15.6859 42.975 18.1193 42.925 19.4859C42.925 19.6193 42.875 19.7359 42.775 19.8359C42.675 19.9359 42.55 19.9859 42.4 19.9859L40.25 20.0109C40.0833 20.0109 39.9417 19.9526 39.825 19.8359C39.725 19.7193 39.675 19.5859 39.675 19.4359C39.725 16.5526 39.8833 11.8526 40.15 5.33594C40.1833 4.81927 40.3833 4.38594 40.75 4.03594C41.1333 3.66927 41.5833 3.48594 42.1 3.48594H42.275C42.6917 3.48594 43.075 3.61094 43.425 3.86094C43.7917 4.09427 44.05 4.41094 44.2 4.81094C44.8 6.29427 45.4667 8.08594 46.2 10.1859C46.6 11.3026 47.025 12.4526 47.475 13.6359C47.9917 12.5359 48.825 10.9109 49.975 8.76094C51.125 6.59427 51.8583 5.1776 52.175 4.51094C52.325 4.19427 52.5417 3.94427 52.825 3.76094C53.125 3.5776 53.45 3.48594 53.8 3.48594H54.15C54.6167 3.48594 55.025 3.6276 55.375 3.91094C55.7417 4.19427 55.925 4.61927 55.925 5.18594ZM73.2279 19.2359C73.2779 19.4193 73.2446 19.5943 73.1279 19.7609C73.0113 19.9276 72.8529 20.0109 72.6529 20.0109H70.4529C70.0196 20.0109 69.7279 19.8193 69.5779 19.4359C69.4279 19.0859 69.1696 18.4026 68.8029 17.3859C68.4529 16.3693 68.1613 15.5609 67.9279 14.9609C65.7613 14.9776 64.0696 14.9859 62.8529 14.9859C62.7363 15.4526 62.5279 16.2026 62.2279 17.2359C61.9279 18.2693 61.7279 18.9526 61.6279 19.2859C61.5113 19.6859 61.2446 19.9109 60.8279 19.9609C60.4113 19.9943 59.5029 20.0026 58.1029 19.9859C57.9363 19.9859 57.8029 19.9193 57.7029 19.7859C57.6029 19.6359 57.5779 19.4776 57.6279 19.3109C57.9113 18.4443 58.4196 17.0026 59.1529 14.9859C58.8863 14.9693 58.6946 14.9609 58.5779 14.9609C58.1779 14.9443 57.8946 14.7443 57.7279 14.3609C57.5779 13.9609 57.6029 13.5609 57.8029 13.1609C58.0196 12.7609 58.3613 12.5443 58.8279 12.5109C59.0779 12.4943 59.4946 12.4776 60.0779 12.4609C60.5946 11.0776 60.9446 10.1609 61.1279 9.71094C61.2613 9.41094 61.5196 8.78594 61.9029 7.83594C62.2863 6.88594 62.6196 6.0526 62.9029 5.33594C63.2029 4.61927 63.3946 4.1776 63.4779 4.01094C63.6779 3.61094 64.0029 3.39427 64.4529 3.36094C65.0863 3.29427 65.6613 3.29427 66.1779 3.36094C66.5279 3.41094 66.7946 3.5776 66.9779 3.86094C67.4446 4.56094 67.8029 5.2276 68.0529 5.86094L68.4029 6.66094C69.0696 8.2276 69.6946 9.76094 70.2779 11.2609C70.4279 11.6443 70.5946 12.0693 70.7779 12.5359C71.1279 12.5526 71.3696 12.5693 71.5029 12.5859C71.8029 12.6026 72.0113 12.8026 72.1279 13.1859C72.2446 13.5693 72.2613 13.9526 72.1779 14.3359C72.0946 14.7193 71.9363 14.9193 71.7029 14.9359C72.3863 16.7526 72.8946 18.1859 73.2279 19.2359ZM63.6029 12.4359C64.8029 12.4359 65.9363 12.4359 67.0029 12.4359C66.9029 12.0693 66.7363 11.4943 66.5029 10.7109C66.2863 9.91094 66.1113 9.31094 65.9779 8.91094C65.9779 8.89427 65.9696 8.86927 65.9529 8.83594C65.9029 8.68594 65.8613 8.56927 65.8279 8.48594C65.7946 8.4026 65.7529 8.3026 65.7029 8.18594C65.6529 8.06927 65.5946 7.99427 65.5279 7.96094C65.4779 7.91094 65.4196 7.9026 65.3529 7.93594C65.2863 7.96927 65.2113 8.04427 65.1279 8.16094C65.0613 8.2776 64.9863 8.4276 64.9029 8.61094C64.8363 8.7776 64.7696 8.94427 64.7029 9.11094C64.6529 9.2776 64.5863 9.46927 64.5029 9.68594C64.4363 9.9026 64.3779 10.0609 64.3279 10.1609C64.1946 10.5443 63.9529 11.3026 63.6029 12.4359ZM87.9611 19.4359C88.0611 19.5526 88.0778 19.6776 88.0111 19.8109C87.9445 19.9276 87.8361 19.9859 87.6861 19.9859L84.7611 20.0109C84.4278 20.0276 84.1778 19.9359 84.0111 19.7359C83.5445 19.2359 82.8611 18.3859 81.9611 17.1859C81.0611 15.9693 80.4278 15.0776 80.0611 14.5109C79.4111 14.7443 78.7528 14.9359 78.0861 15.0859C78.0861 17.2193 78.0611 18.7776 78.0111 19.7609C77.9945 19.9609 77.4861 20.0609 76.4861 20.0609C75.5028 20.0609 75.0028 19.9859 74.9861 19.8359C74.8195 18.6193 74.8028 14.3776 74.9361 7.11094C74.6195 7.19427 74.3278 7.2776 74.0611 7.36094C73.9445 7.39427 73.8028 7.3276 73.6361 7.16094C73.4861 6.99427 73.3528 6.7776 73.2361 6.51094C73.1195 6.24427 73.0278 5.96927 72.9611 5.68594C72.8945 5.4026 72.8695 5.1526 72.8861 4.93594C72.9195 4.7026 73.0111 4.56094 73.1611 4.51094C74.6111 4.0276 76.1695 3.6526 77.8361 3.38594C79.3195 3.18594 80.5445 3.1526 81.5111 3.28594C82.2945 3.38594 83.0111 3.5776 83.6611 3.86094C84.5611 4.24427 85.2528 4.81094 85.7361 5.56094C86.2861 6.36094 86.5111 7.28594 86.4111 8.33594C86.3445 9.2026 86.0695 10.0193 85.5861 10.7859C84.9861 11.7026 84.1111 12.5026 82.9611 13.1859C83.0945 13.3359 83.5361 13.8776 84.2861 14.8109C85.0528 15.7443 85.7528 16.6109 86.3861 17.4109C87.0195 18.1943 87.5445 18.8693 87.9611 19.4359ZM80.2611 10.9609C81.3611 10.4276 82.1361 9.89427 82.5861 9.36094C82.8695 9.06094 83.0528 8.73594 83.1361 8.38594C83.2361 8.03594 83.2361 7.73594 83.1361 7.48594C83.0528 7.2526 82.8695 7.0526 82.5861 6.88594C82.2861 6.7026 81.8695 6.56094 81.3361 6.46094C80.8861 6.36094 80.4028 6.31927 79.8861 6.33594C79.0361 6.3526 78.4111 6.4026 78.0111 6.48594C78.0445 8.16927 78.0695 9.9526 78.0861 11.8359C78.8528 11.5859 79.5778 11.2943 80.2611 10.9609ZM101.548 3.48594C101.698 3.48594 101.823 3.53594 101.923 3.63594C102.023 3.73594 102.073 3.86094 102.073 4.01094V6.13594C102.073 6.28594 102.023 6.41927 101.923 6.53594C101.823 6.63594 101.698 6.68594 101.548 6.68594C101.248 6.68594 100.481 6.6776 99.2478 6.66094C98.0312 6.6276 96.9978 6.61094 96.1478 6.61094C96.0312 14.1443 95.9645 18.5109 95.9478 19.7109C95.9478 19.9276 95.4562 20.0359 94.4728 20.0359C93.4895 20.0359 92.9895 19.9276 92.9728 19.7109C92.9228 18.5609 92.8812 16.5026 92.8478 13.5359C92.8312 10.5526 92.8562 8.23594 92.9228 6.58594C90.5895 6.56927 89.0562 6.5526 88.3228 6.53594C88.1728 6.51927 88.0395 6.46094 87.9228 6.36094C87.8062 6.24427 87.7478 6.1026 87.7478 5.93594V4.11094C87.7478 3.94427 87.7978 3.8026 87.8978 3.68594C88.0145 3.56927 88.1562 3.51094 88.3228 3.51094C89.1562 3.49427 93.5645 3.48594 101.548 3.48594ZM103.402 8.28594C103.402 8.11927 103.918 8.03594 104.952 8.03594C105.985 8.03594 106.51 8.1276 106.527 8.31094C106.543 9.26094 106.543 10.2776 106.527 11.3609C106.51 12.4443 106.485 13.9193 106.452 15.7859C106.418 17.6526 106.402 18.9109 106.402 19.5609C106.402 19.6776 106.36 19.7776 106.277 19.8609C106.21 19.9443 106.118 19.9943 106.002 20.0109C105.268 20.0776 104.502 20.0359 103.702 19.8859C103.485 19.8359 103.368 19.7026 103.352 19.4859C103.318 17.9026 103.31 15.9443 103.327 13.6109C103.343 11.2609 103.368 9.48594 103.402 8.28594ZM104.552 6.83594C104.152 6.83594 103.81 6.69427 103.527 6.41094C103.26 6.1276 103.127 5.78594 103.127 5.38594C103.127 5.28594 103.127 5.1776 103.127 5.06094C103.127 4.94427 103.127 4.8526 103.127 4.78594C103.127 4.41927 103.252 4.11094 103.502 3.86094C103.768 3.61094 104.077 3.48594 104.427 3.48594H105.152C105.585 3.48594 105.943 3.59427 106.227 3.81094C106.51 4.01094 106.66 4.31094 106.677 4.71094C106.677 4.8276 106.677 5.11927 106.677 5.58594C106.677 5.93594 106.552 6.23594 106.302 6.48594C106.068 6.71927 105.777 6.83594 105.427 6.83594C105.277 6.83594 104.985 6.83594 104.552 6.83594ZM123.144 4.03594C123.344 4.76927 123.544 6.0776 123.744 7.96094C123.944 9.84427 124.019 11.8609 123.969 14.0109C123.935 16.1609 123.71 17.6526 123.294 18.4859C122.977 19.0859 122.577 19.5193 122.094 19.7859C121.627 20.0526 121.177 20.1526 120.744 20.0859C120.31 20.0359 119.919 19.9359 119.569 19.7859C119.235 19.6359 118.994 19.4693 118.844 19.2859C118.077 18.3193 117.169 16.8776 116.119 14.9609C115.069 13.0443 114.31 11.5693 113.844 10.5359C113.677 10.2026 113.219 9.3276 112.469 7.91094C112.385 7.76094 112.252 7.71094 112.069 7.76094C111.902 7.79427 111.819 7.9026 111.819 8.08594C111.935 14.7193 111.985 18.3359 111.969 18.9359C111.969 19.2193 111.86 19.4609 111.644 19.6609C111.444 19.8443 111.194 19.9526 110.894 19.9859C110.61 20.0193 110.319 20.0109 110.019 19.9609C109.735 19.8943 109.494 19.7693 109.294 19.5859C109.094 19.4026 108.994 19.1859 108.994 18.9359C108.994 17.8693 108.952 16.2276 108.869 14.0109C108.819 12.5609 108.794 11.3943 108.794 10.5109C108.777 8.56094 108.827 7.06927 108.944 6.03594C109.027 5.38594 109.26 4.81927 109.644 4.33594C110.027 3.8526 110.519 3.56094 111.119 3.46094C111.702 3.34427 112.302 3.43594 112.919 3.73594C113.535 4.01927 114.06 4.44427 114.494 5.01094C114.677 5.2276 114.944 5.6276 115.294 6.21094C115.31 6.24427 115.56 6.76094 116.044 7.76094C116.527 8.74427 117.035 9.7776 117.569 10.8609C118.119 11.9443 118.652 12.9693 119.169 13.9359C119.685 14.9026 120.002 15.4276 120.119 15.5109C120.235 15.6109 120.36 15.6359 120.494 15.5859C120.644 15.5193 120.727 15.4026 120.744 15.2359C120.76 14.7359 120.744 13.9276 120.694 12.8109C120.644 11.6776 120.585 10.6109 120.519 9.61094C120.452 8.61094 120.369 7.54427 120.269 6.41094C120.185 5.2776 120.144 4.63594 120.144 4.48594C120.11 4.11927 120.327 3.84427 120.794 3.66094C121.26 3.4776 121.744 3.4276 122.244 3.51094C122.76 3.59427 123.06 3.76927 123.144 4.03594ZM137.353 14.3609C137.536 14.9943 137.57 15.6526 137.453 16.3359C137.336 17.0193 137.078 17.6359 136.678 18.1859C135.978 19.1526 134.978 19.7859 133.678 20.0859C132.695 20.2859 131.72 20.3193 130.753 20.1859C129.853 20.0359 129.011 19.7276 128.228 19.2609C126.995 18.4943 126.095 17.5026 125.528 16.2859C125.411 16.0693 125.461 15.8943 125.678 15.7609C126.361 15.3609 127.061 15.0443 127.778 14.8109C127.995 14.7276 128.161 14.7859 128.278 14.9859C128.545 15.4526 128.911 15.8609 129.378 16.2109C130.228 16.8443 131.17 17.1193 132.203 17.0359C132.853 17.0026 133.361 16.8609 133.728 16.6109C134.078 16.3609 134.261 16.0443 134.278 15.6609C134.311 14.8609 133.503 14.1693 131.853 13.5859C130.386 13.0526 129.345 12.6443 128.728 12.3609C127.995 12.0276 127.386 11.5443 126.903 10.9109C126.436 10.2609 126.145 9.5276 126.028 8.71094C125.928 7.8776 126.103 7.0026 126.553 6.08594C126.836 5.51927 127.211 5.03594 127.678 4.63594C128.161 4.23594 128.678 3.94427 129.228 3.76094C130.211 3.51094 131.111 3.41094 131.928 3.46094C132.745 3.49427 133.486 3.66927 134.153 3.98594C134.836 4.3026 135.403 4.66094 135.853 5.06094C136.303 5.44427 136.653 5.86094 136.903 6.31094C137.003 6.51094 136.961 6.6776 136.778 6.81094C136.211 7.24427 135.52 7.58594 134.703 7.83594C134.503 7.88594 134.345 7.8276 134.228 7.66094C133.978 7.3276 133.603 7.0526 133.103 6.83594C132.736 6.66927 132.311 6.56094 131.828 6.51094C131.345 6.46094 130.87 6.5026 130.403 6.63594C129.97 6.7526 129.653 6.9776 129.453 7.31094C129.236 7.74427 129.195 8.16094 129.328 8.56094C129.478 8.96094 129.703 9.2526 130.003 9.43594C130.386 9.66927 131.103 9.9526 132.153 10.2859C133.47 10.7359 134.386 11.1109 134.903 11.4109C135.486 11.7443 135.978 12.1276 136.378 12.5609C136.461 12.6443 136.653 12.9193 136.953 13.3859C137.02 13.4859 137.153 13.8109 137.353 14.3609ZM14.972 29.5609C15.522 30.3609 15.747 31.2776 15.647 32.3109C15.5803 33.1943 15.3053 34.0193 14.822 34.7859C14.1386 35.8026 13.0636 36.7109 11.597 37.5109C10.247 38.2276 8.82196 38.7526 7.32196 39.0859C7.32196 41.2193 7.29696 42.7776 7.24696 43.7609C7.23029 43.9609 6.72196 44.0609 5.72196 44.0609C4.73863 44.0609 4.23863 43.9859 4.22196 43.8359C4.05529 42.6193 4.03863 38.3693 4.17196 31.0859C3.85529 31.1693 3.56363 31.2526 3.29696 31.3359C3.18029 31.3859 3.03863 31.3276 2.87196 31.1609C2.72196 30.9943 2.58863 30.7776 2.47196 30.5109C2.35529 30.2443 2.26363 29.9693 2.19696 29.6859C2.13029 29.4026 2.10529 29.1526 2.12196 28.9359C2.15529 28.7026 2.24696 28.5609 2.39696 28.5109C3.84696 28.0109 5.40529 27.6359 7.07196 27.3859C8.55529 27.1859 9.78029 27.1526 10.747 27.2859C11.5303 27.3859 12.247 27.5776 12.897 27.8609C13.797 28.2443 14.4886 28.8109 14.972 29.5609ZM12.372 32.3859C12.472 32.0359 12.472 31.7359 12.372 31.4859C12.2886 31.2526 12.1053 31.0526 11.822 30.8859C11.522 30.7026 11.1053 30.5526 10.572 30.4359C10.122 30.3526 9.63863 30.3109 9.12196 30.3109C8.27196 30.3276 7.64696 30.3859 7.24696 30.4859C7.28029 32.1693 7.30529 33.9443 7.32196 35.8109C8.08863 35.5776 8.81363 35.2943 9.49696 34.9609C10.597 34.4276 11.372 33.8943 11.822 33.3609C12.1053 33.0443 12.2886 32.7193 12.372 32.3859ZM31.3815 43.4359C31.4815 43.5526 31.4982 43.6776 31.4315 43.8109C31.3649 43.9276 31.2565 43.9859 31.1065 43.9859L28.1815 44.0109C27.8482 44.0276 27.5982 43.9359 27.4315 43.7359C26.9649 43.2359 26.2815 42.3859 25.3815 41.1859C24.4815 39.9693 23.8482 39.0776 23.4815 38.5109C22.8315 38.7443 22.1732 38.9359 21.5065 39.0859C21.5065 41.2193 21.4815 42.7776 21.4315 43.7609C21.4149 43.9609 20.9065 44.0609 19.9065 44.0609C18.9232 44.0609 18.4232 43.9859 18.4065 43.8359C18.2399 42.6193 18.2232 38.3776 18.3565 31.1109C18.0399 31.1943 17.7482 31.2776 17.4815 31.3609C17.3649 31.3943 17.2232 31.3276 17.0565 31.1609C16.9065 30.9943 16.7732 30.7776 16.6565 30.5109C16.5399 30.2443 16.4482 29.9693 16.3815 29.6859C16.3149 29.4026 16.2899 29.1526 16.3065 28.9359C16.3399 28.7026 16.4315 28.5609 16.5815 28.5109C18.0315 28.0276 19.5899 27.6526 21.2565 27.3859C22.7399 27.1859 23.9649 27.1526 24.9315 27.2859C25.7149 27.3859 26.4315 27.5776 27.0815 27.8609C27.9815 28.2443 28.6732 28.8109 29.1565 29.5609C29.7065 30.3609 29.9315 31.2859 29.8315 32.3359C29.7649 33.2026 29.4899 34.0193 29.0065 34.7859C28.4065 35.7026 27.5315 36.5026 26.3815 37.1859C26.5149 37.3359 26.9565 37.8776 27.7065 38.8109C28.4732 39.7443 29.1732 40.6109 29.8065 41.4109C30.4399 42.1943 30.9649 42.8693 31.3815 43.4359ZM23.6815 34.9609C24.7815 34.4276 25.5565 33.8943 26.0065 33.3609C26.2899 33.0609 26.4732 32.7359 26.5565 32.3859C26.6565 32.0359 26.6565 31.7359 26.5565 31.4859C26.4732 31.2526 26.2899 31.0526 26.0065 30.8859C25.7065 30.7026 25.2899 30.5609 24.7565 30.4609C24.3065 30.3609 23.8232 30.3193 23.3065 30.3359C22.4565 30.3526 21.8315 30.4026 21.4315 30.4859C21.4649 32.1693 21.4899 33.9526 21.5065 35.8359C22.2732 35.5859 22.9982 35.2943 23.6815 34.9609ZM43.2212 39.9359C43.3712 39.9026 43.5128 39.9859 43.6462 40.1859C43.7795 40.3859 43.8712 40.6526 43.9212 40.9859C43.9878 41.3026 44.0295 41.6276 44.0462 41.9609C44.0795 42.2943 44.0712 42.5859 44.0212 42.8359C43.9712 43.0693 43.8878 43.2026 43.7712 43.2359C43.7545 43.2359 43.5462 43.2776 43.1462 43.3609C42.7628 43.4276 42.3962 43.4859 42.0462 43.5359C41.7128 43.5859 41.2712 43.6443 40.7212 43.7109C40.1712 43.7776 39.6462 43.8193 39.1462 43.8359C38.6462 43.8359 38.1212 43.8276 37.5712 43.8109C37.0378 43.7943 36.5212 43.7276 36.0212 43.6109C35.5378 43.4943 35.1045 43.3359 34.7212 43.1359C34.1545 42.8193 33.6712 42.3943 33.2712 41.8609C32.8878 41.3109 32.6212 40.7276 32.4712 40.1109C32.3378 39.4943 32.2462 39.0193 32.1962 38.6859C32.1628 38.3359 32.1462 38.0193 32.1462 37.7359C32.1128 34.7026 32.0545 32.2943 31.9712 30.5109C31.9378 29.7276 31.9712 29.2193 32.0712 28.9859C32.2045 28.5193 32.4712 28.1526 32.8712 27.8859C33.2378 27.6193 33.6628 27.4776 34.1462 27.4609C36.9128 27.4443 39.7295 27.4276 42.5962 27.4109C42.9128 27.4109 43.1378 27.6609 43.2712 28.1609C43.4045 28.6443 43.4045 29.1359 43.2712 29.6359C43.1545 30.1193 42.9462 30.3693 42.6462 30.3859C42.5628 30.3859 41.7462 30.4026 40.1962 30.4359C38.6462 30.4693 37.0628 30.5109 35.4462 30.5609C35.3628 30.5609 35.2878 30.5943 35.2212 30.6609C35.1712 30.7109 35.1462 30.7776 35.1462 30.8609C35.1628 31.0276 35.1795 31.3693 35.1962 31.8859C35.2128 32.4026 35.2295 32.8859 35.2462 33.3359C35.2795 33.7693 35.2962 34.0026 35.2962 34.0359C36.4795 34.0026 38.5045 33.9943 41.3712 34.0109C41.5212 34.0109 41.6462 34.0693 41.7462 34.1859C41.8628 34.2859 41.9212 34.4109 41.9212 34.5609L41.9462 36.4859C41.9462 36.6359 41.8878 36.7693 41.7712 36.8859C41.6712 36.9859 41.5462 37.0359 41.3962 37.0359C38.5462 37.0526 36.5295 37.0526 35.3462 37.0359C35.3462 37.4359 35.3795 37.9943 35.4462 38.7109C35.4795 39.2609 35.7045 39.7026 36.1212 40.0359C36.5378 40.3526 37.0378 40.5193 37.6212 40.5359C38.5545 40.5693 39.5545 40.5193 40.6212 40.3859C41.7045 40.2359 42.5712 40.0859 43.2212 39.9359ZM51.8321 36.7859C51.9155 36.7693 52.0071 36.9693 52.1071 37.3859C52.2238 37.7859 52.2905 38.1609 52.3071 38.5109C52.3405 38.8443 52.3071 39.0359 52.2071 39.0859L45.2571 38.9609C45.1905 38.9443 45.1155 38.7776 45.0321 38.4609C44.9488 38.1443 44.8905 37.8526 44.8571 37.5859C44.8405 37.3026 44.8655 37.1359 44.9321 37.0859L51.8321 36.7859ZM65.4415 38.3609C65.6248 38.9943 65.6582 39.6526 65.5415 40.3359C65.4248 41.0193 65.1665 41.6359 64.7665 42.1859C64.0665 43.1526 63.0665 43.7859 61.7665 44.0859C60.7832 44.2859 59.8082 44.3193 58.8415 44.1859C57.9415 44.0359 57.0998 43.7276 56.3165 43.2609C55.0832 42.4943 54.1832 41.5026 53.6165 40.2859C53.4998 40.0693 53.5498 39.8943 53.7665 39.7609C54.4498 39.3609 55.1498 39.0443 55.8665 38.8109C56.0832 38.7276 56.2498 38.7859 56.3665 38.9859C56.6332 39.4526 56.9998 39.8609 57.4665 40.2109C58.3165 40.8443 59.2582 41.1193 60.2915 41.0359C60.9415 41.0026 61.4498 40.8609 61.8165 40.6109C62.1665 40.3609 62.3498 40.0443 62.3665 39.6609C62.3998 38.8609 61.5915 38.1693 59.9415 37.5859C58.4748 37.0526 57.4332 36.6443 56.8165 36.3609C56.0832 36.0276 55.4748 35.5443 54.9915 34.9109C54.5248 34.2609 54.2332 33.5276 54.1165 32.7109C54.0165 31.8776 54.1915 31.0026 54.6415 30.0859C54.9248 29.5193 55.2998 29.0359 55.7665 28.6359C56.2498 28.2359 56.7665 27.9443 57.3165 27.7609C58.2998 27.5109 59.1998 27.4109 60.0165 27.4609C60.8332 27.4943 61.5748 27.6693 62.2415 27.9859C62.9248 28.3026 63.4915 28.6609 63.9415 29.0609C64.3915 29.4443 64.7415 29.8609 64.9915 30.3109C65.0915 30.5109 65.0498 30.6776 64.8665 30.8109C64.2998 31.2443 63.6082 31.5859 62.7915 31.8359C62.5915 31.8859 62.4332 31.8276 62.3165 31.6609C62.0665 31.3276 61.6915 31.0526 61.1915 30.8359C60.8248 30.6693 60.3998 30.5609 59.9165 30.5109C59.4332 30.4609 58.9582 30.5026 58.4915 30.6359C58.0582 30.7526 57.7415 30.9776 57.5415 31.3109C57.3248 31.7443 57.2832 32.1609 57.4165 32.5609C57.5665 32.9609 57.7915 33.2526 58.0915 33.4359C58.4748 33.6693 59.1915 33.9526 60.2415 34.2859C61.5582 34.7359 62.4748 35.1109 62.9915 35.4109C63.5748 35.7443 64.0665 36.1276 64.4665 36.5609C64.5498 36.6443 64.7415 36.9193 65.0415 37.3859C65.1082 37.4859 65.2415 37.8109 65.4415 38.3609ZM78.2274 38.9359C78.3274 38.7693 78.6024 38.7693 79.0524 38.9359C79.5191 39.0859 79.9358 39.3276 80.3024 39.6609C80.6858 39.9943 80.8274 40.2776 80.7274 40.5109C80.2441 41.5276 79.5441 42.3693 78.6274 43.0359C78.0274 43.4859 77.2941 43.8193 76.4274 44.0359C75.5774 44.2526 74.7191 44.3109 73.8524 44.2109C73.7191 44.1943 73.2691 44.1109 72.5024 43.9609C72.0524 43.8443 71.5691 43.6443 71.0524 43.3609C70.2024 42.8776 69.4358 42.2359 68.7524 41.4359C67.9358 40.4859 67.4024 39.5443 67.1524 38.6109C66.8858 37.5943 66.7524 36.5776 66.7524 35.5609C66.7858 34.4609 66.9858 33.4276 67.3524 32.4609C67.7191 31.4943 68.2691 30.6109 69.0024 29.8109C69.6858 29.0609 70.4774 28.4609 71.3774 28.0109C72.2774 27.5609 73.1858 27.3026 74.1024 27.2359C74.9691 27.1193 75.8358 27.1859 76.7024 27.4359C77.5858 27.6693 78.3024 28.0526 78.8524 28.5859C79.5858 29.2859 80.1441 30.2193 80.5274 31.3859C80.5941 31.6193 80.5441 31.8359 80.3774 32.0359C80.2108 32.2193 79.9858 32.3609 79.7024 32.4609C79.4191 32.5609 79.1274 32.6359 78.8274 32.6859C78.5274 32.7359 78.2524 32.7276 78.0024 32.6609C77.7691 32.5943 77.6274 32.4859 77.5774 32.3359C77.0108 30.5859 75.9941 29.7109 74.5274 29.7109C74.0774 29.7109 73.6358 29.8026 73.2024 29.9859C72.7691 30.1693 72.3524 30.4609 71.9524 30.8609C71.5524 31.2609 71.2024 31.8193 70.9024 32.5359C70.6191 33.2359 70.4441 34.0609 70.3774 35.0109C70.2274 36.7109 70.4774 38.0693 71.1274 39.0859C71.7941 40.0859 72.6691 40.7443 73.7524 41.0609C74.7524 41.3443 75.6441 41.2526 76.4274 40.7859C77.2108 40.3026 77.8108 39.6859 78.2274 38.9359ZM95.412 35.9859C95.412 37.1693 95.387 38.7943 95.337 40.8609C95.3037 42.9109 95.2537 44.0859 95.187 44.3859C95.1537 44.5193 95.0287 44.6026 94.812 44.6359C94.612 44.6693 94.362 44.6526 94.062 44.5859C93.762 44.5359 93.487 44.4693 93.237 44.3859C92.987 44.3193 92.7453 44.2443 92.512 44.1609C92.2787 44.0776 92.162 43.9109 92.162 43.6609C92.162 42.8943 92.1703 40.6026 92.187 36.7859C91.6037 36.7859 90.6037 36.7609 89.187 36.7109C87.787 36.6609 86.7287 36.6443 86.012 36.6609C86.0287 37.2609 86.0453 38.1193 86.062 39.2359C86.0787 40.3359 86.0953 41.2609 86.112 42.0109C86.1287 42.7443 86.1537 43.3109 86.187 43.7109C86.187 43.8443 85.937 43.9359 85.437 43.9859C84.9537 44.0193 84.462 44.0193 83.962 43.9859C83.462 43.9359 83.2037 43.8609 83.187 43.7609C82.9537 42.8776 82.8203 40.5026 82.787 36.6359C82.587 36.6359 82.337 36.6609 82.037 36.7109C81.737 36.7609 81.562 36.7859 81.512 36.7859C81.0953 36.7693 80.812 36.5693 80.662 36.1859C80.512 35.7859 80.537 35.3859 80.737 34.9859C80.937 34.5859 81.2787 34.3693 81.762 34.3359C81.7953 34.3193 81.937 34.2859 82.187 34.2359C82.437 34.1693 82.637 34.1359 82.787 34.1359C82.887 31.0026 83.012 28.8443 83.162 27.6609C83.1953 27.4109 83.6953 27.3526 84.662 27.4859C85.6287 27.6026 86.112 27.7776 86.112 28.0109C86.1453 28.8776 86.1037 30.9026 85.987 34.0859C86.8037 34.0859 87.962 34.1193 89.462 34.1859C90.962 34.2526 91.8703 34.2943 92.187 34.3109C92.2037 33.5109 92.212 32.6193 92.212 31.6359C92.212 30.6526 92.212 29.8443 92.212 29.2109C92.2287 28.5609 92.237 28.0943 92.237 27.8109C92.237 27.6443 92.4787 27.5193 92.962 27.4359C93.462 27.3526 93.9537 27.3443 94.437 27.4109C94.937 27.4776 95.1953 27.5943 95.212 27.7609C95.2953 29.6109 95.362 32.3526 95.412 35.9859ZM109.572 30.5859C110.288 31.2859 110.88 32.2276 111.347 33.4109C111.83 34.5776 111.963 35.8693 111.747 37.2859C111.613 38.1693 111.338 39.0609 110.922 39.9609C110.505 40.8443 110.063 41.5276 109.597 42.0109C108.68 42.9943 107.555 43.6609 106.222 44.0109C105.605 44.1609 104.963 44.2443 104.297 44.2609C103.463 44.2609 102.78 44.1776 102.247 44.0109C100.897 43.6443 99.7801 42.8859 98.8968 41.7359C98.1634 40.7859 97.6634 39.6693 97.3968 38.3859C96.9468 36.1526 97.2218 34.0276 98.2218 32.0109C98.6384 31.1443 99.1718 30.3693 99.8218 29.6859C100.472 29.0026 101.172 28.4693 101.922 28.0859C103.072 27.4693 104.28 27.1693 105.547 27.1859C105.913 27.2026 106.172 27.3526 106.322 27.6359C106.472 27.9193 106.522 28.2526 106.472 28.6359C107.705 29.1193 108.738 29.7693 109.572 30.5859ZM108.547 36.8109C108.663 35.3443 108.372 34.1443 107.672 33.2109C107.172 32.4943 106.405 31.8859 105.372 31.3859C105.055 31.2526 104.997 30.8276 105.197 30.1109C104.563 30.1776 103.955 30.3609 103.372 30.6609C102.405 31.1943 101.647 32.0276 101.097 33.1609C100.43 34.4443 100.205 35.8359 100.422 37.3359C100.522 38.1026 100.763 38.8026 101.147 39.4359C101.547 40.0693 102.03 40.5193 102.597 40.7859C103.197 41.0693 103.88 41.1693 104.647 41.0859C105.43 41.0026 106.088 40.7693 106.622 40.3859C107.172 39.9859 107.613 39.4609 107.947 38.8109C108.297 38.1443 108.497 37.4776 108.547 36.8109ZM125.294 30.5859C126.011 31.2859 126.603 32.2276 127.069 33.4109C127.553 34.5776 127.686 35.8693 127.469 37.2859C127.336 38.1693 127.061 39.0609 126.644 39.9609C126.228 40.8443 125.786 41.5276 125.319 42.0109C124.403 42.9943 123.278 43.6609 121.944 44.0109C121.328 44.1609 120.686 44.2443 120.019 44.2609C119.186 44.2609 118.503 44.1776 117.969 44.0109C116.619 43.6443 115.503 42.8859 114.619 41.7359C113.886 40.7859 113.386 39.6693 113.119 38.3859C112.669 36.1526 112.944 34.0276 113.944 32.0109C114.361 31.1443 114.894 30.3693 115.544 29.6859C116.194 29.0026 116.894 28.4693 117.644 28.0859C118.794 27.4693 120.003 27.1693 121.269 27.1859C121.636 27.2026 121.894 27.3526 122.044 27.6359C122.194 27.9193 122.244 28.2526 122.194 28.6359C123.428 29.1193 124.461 29.7693 125.294 30.5859ZM124.269 36.8109C124.386 35.3443 124.094 34.1443 123.394 33.2109C122.894 32.4943 122.128 31.8859 121.094 31.3859C120.778 31.2526 120.719 30.8276 120.919 30.1109C120.286 30.1776 119.678 30.3609 119.094 30.6609C118.128 31.1943 117.369 32.0276 116.819 33.1609C116.153 34.4443 115.928 35.8359 116.144 37.3359C116.244 38.1026 116.486 38.8026 116.869 39.4359C117.269 40.0693 117.753 40.5193 118.319 40.7859C118.919 41.0693 119.603 41.1693 120.369 41.0859C121.153 41.0026 121.811 40.7693 122.344 40.3859C122.894 39.9859 123.336 39.4609 123.669 38.8109C124.019 38.1443 124.219 37.4776 124.269 36.8109ZM138.342 40.1359C138.692 40.0859 138.975 40.2776 139.192 40.7109C139.409 41.1443 139.475 41.6193 139.392 42.1359C139.309 42.6526 139.075 42.9693 138.692 43.0859C137.192 43.5193 135.467 43.8109 133.517 43.9609C132.35 44.0609 131.334 43.7109 130.467 42.9109C129.617 42.0943 129.192 41.1026 129.192 39.9359C129.192 37.7026 129.192 36.2193 129.192 35.4859C129.192 34.6026 129.192 33.5776 129.192 32.4109C129.209 31.2276 129.217 30.2526 129.217 29.4859C129.217 28.7193 129.217 28.1776 129.217 27.8609C129.217 27.6276 129.709 27.5026 130.692 27.4859C131.692 27.4693 132.192 27.5859 132.192 27.8359C132.342 30.4693 132.417 34.0193 132.417 38.4859C132.417 38.6526 132.417 38.7943 132.417 38.9109C132.434 39.0109 132.45 39.1776 132.467 39.4109C132.5 39.6443 132.542 39.8359 132.592 39.9859C132.659 40.1359 132.742 40.2943 132.842 40.4609C132.942 40.6109 133.084 40.7276 133.267 40.8109C133.45 40.8776 133.65 40.8943 133.867 40.8609C134.517 40.7776 136.009 40.5359 138.342 40.1359Z" fill="black"/>
</svg>
