<svg width="61" height="54" viewBox="0 0 61 54" fill="none" xmlns="http://www.w3.org/2000/svg">
<path d="M56.8325 19.4833C56.1296 18.1267 54.5649 17.9701 53.2084 17.8137C49.7951 17.4195 46.3106 17.5588 42.9389 18.2255C42.3749 18.3375 41.8172 18.4684 41.261 18.6089C40.8087 18.0456 40.3304 17.5063 39.8039 17.0175C38.876 16.1623 37.7598 15.664 36.6162 15.1601C35.5047 14.671 34.3825 14.0513 33.2056 13.7344C32.0014 13.4119 30.8803 13.8265 29.7002 14.0554C29.3701 14.1207 29.0399 14.1859 28.7178 14.2598C28.5919 14.1739 28.4274 14.137 28.2482 14.195C26.0301 14.9047 23.9449 15.9967 22.0968 17.4182C20.3134 18.7898 18.5366 20.5173 17.5871 22.587C16.7333 24.4467 16.3879 26.5964 16.3626 28.6593C13.4843 30.1077 10.8132 31.9695 8.49241 34.209C6.59065 36.0454 4.76115 38.5083 5.67199 41.2896C6.05603 42.4684 6.94709 43.4252 8.1637 43.7425C9.68662 44.1371 11.3787 43.6755 12.8964 43.4495C16.451 42.9159 20.0144 42.4172 23.5547 41.7932C23.6837 41.7729 23.8149 41.7456 23.9434 41.7221C25.5663 42.4578 27.344 42.875 29.0946 43.1412C31.3795 43.4851 33.7748 43.501 36.0105 42.8612C38.1704 42.2432 40.0151 41.0305 41.4596 39.3124C42.5949 37.9603 43.4742 36.3676 44.1709 34.7276C46.4269 33.3774 48.5793 31.8518 50.5893 30.1569C51.8 29.1366 52.9651 28.0574 54.0648 26.9191C55.0679 25.882 56.0208 24.7767 56.6255 23.4553C57.1767 22.2547 57.4679 20.7051 56.8315 19.4769L56.8325 19.4833ZM8.73008 42.0305C7.24927 41.5467 6.79153 39.9631 7.22255 38.5666C7.67345 37.1075 8.84506 35.9017 9.92174 34.8695C11.8169 33.0539 14.0339 31.6239 16.4435 30.6196C16.6387 32.6346 17.2168 34.6256 18.2215 36.3874C19.0988 37.928 20.2689 39.3135 21.6838 40.386C20.033 40.7321 18.374 41.0464 16.7098 41.3284C15.2547 41.5742 13.7961 41.7974 12.3349 42.0045C11.1677 42.1686 9.88014 42.4079 8.73008 42.0305ZM43.7104 24.9252C43.8852 25.4265 44.0293 25.9425 44.1411 26.4635C44.0851 26.4228 44.021 26.3932 43.9497 26.3813C43.4785 24.4396 42.6889 22.5745 41.601 20.872C41.3861 20.5357 41.1535 20.1923 40.9086 19.8542C42.0842 21.4007 43.0708 23.0894 43.7076 24.929L43.7104 24.9252ZM42.5576 31.9347C42.5576 31.9347 42.5522 31.9422 42.55 31.9492C42.6717 31.421 42.7735 30.8927 42.8577 30.3573C42.8717 30.6558 42.8728 30.9564 42.8637 31.2553C42.7645 31.4857 42.6616 31.7135 42.5576 31.9347ZM24.1427 19.6637C24.464 19.3751 24.8008 19.1006 25.1561 18.8596C25.2505 18.9967 25.4069 19.0877 25.59 19.0754C25.3833 19.6301 25.1766 20.1849 24.9694 20.7364C24.8373 20.863 24.7057 20.9928 24.5704 21.1198C24.1991 21.4692 23.8268 21.8121 23.4503 22.149C23.3743 22.0651 23.2956 21.985 23.2044 21.9101C23.1666 21.8797 23.1206 21.8605 23.0746 21.8413C23.2294 21.2089 23.4689 20.5895 23.7756 20.019C23.7811 20.0115 23.7865 20.004 23.7882 19.9939C23.9062 19.8827 24.0237 19.7684 24.1422 19.6605L24.1427 19.6637ZM40.0396 35.7752C39.9841 35.8004 39.9324 35.8284 39.8769 35.8537C39.8908 35.7953 39.908 35.7364 39.9219 35.6781C39.9898 35.6475 40.0572 35.6138 40.1251 35.5832C40.0988 35.6469 40.066 35.7115 40.0364 35.7757L40.0396 35.7752ZM36.0461 18.2541C36.1055 18.3372 36.1649 18.4204 36.2243 18.5036C35.9383 18.4297 35.6496 18.3595 35.3583 18.293C35.495 18.3012 35.6351 18.3089 35.7719 18.3171C35.8652 18.3222 35.9604 18.2973 36.0456 18.2508L36.0461 18.2541ZM23.1064 37.7526C23.1064 37.7526 23.1266 37.7759 23.1356 37.791C22.9284 37.7344 22.7056 37.558 22.5189 37.4222C22.5559 37.4262 22.5934 37.4336 22.6289 37.428C22.6708 37.4214 22.7095 37.4153 22.7472 37.4027C22.8735 37.5117 22.9943 37.6282 23.1032 37.7531L23.1064 37.7526ZM26.8292 18.9066C26.7951 18.9417 26.7637 18.9731 26.7296 19.0082C26.7411 18.9766 26.7527 18.9451 26.7615 18.9173C26.7841 18.9137 26.8034 18.9106 26.826 18.9071L26.8292 18.9066ZM36.7181 19.7081C36.8791 19.7653 37.0375 19.8263 37.1926 19.8878C37.3425 20.1054 37.493 20.3263 37.6403 20.5476C37.8781 21.2603 38.1155 21.9698 38.3534 22.6826C38.2224 22.6272 38.0858 22.5992 37.9543 22.6034C37.696 22.0128 37.3085 21.4625 36.8956 21.0021C36.7037 20.791 36.4999 20.5885 36.2907 20.3934C36.375 20.0893 36.504 19.8178 36.7181 19.7081ZM38.1584 29.7295C38.1087 29.939 38.0559 30.1489 38.0025 30.3556C37.8471 30.9419 37.6814 31.5265 37.5152 32.1079C37.5474 31.8715 37.58 31.6384 37.6122 31.4019C37.9403 29.1426 38.2855 26.8871 38.6271 24.629C38.6886 24.768 38.7529 24.9033 38.8085 25.0465C38.8111 25.608 38.7776 26.1718 38.7163 26.7267C38.661 27.2147 38.5848 27.6959 38.4958 28.1793C38.3753 28.694 38.265 29.2104 38.1616 29.729L38.1584 29.7295ZM25.2647 23.9947C26.2092 22.2497 27.2835 20.5734 28.4592 18.9736C28.6742 19.0587 28.8946 19.1364 29.114 19.2075C27.5357 21.188 26.1547 23.3092 24.8655 25.4887C24.8732 25.2858 24.8841 25.0825 24.8919 24.8797C24.918 24.7731 24.9447 24.6698 24.9714 24.5664C25.0702 24.3757 25.1621 24.1828 25.2647 23.9947ZM33.9985 32.1895C34.0886 31.7754 34.1819 31.3608 34.2725 30.9499C34.3049 30.7994 34.2764 30.6816 34.2128 30.5925C34.2911 30.0613 34.3795 29.5318 34.4716 29.005C34.4837 28.9767 34.4953 28.9451 34.5073 28.9168C34.5073 28.9168 34.5073 28.9168 34.5078 28.92C34.5081 29.614 34.4242 30.4237 34.712 31.0757L33.9393 35.2327C33.8779 35.5563 33.8198 35.8794 33.7584 36.2031C33.7573 36.0909 33.7529 35.9792 33.7522 35.8703C33.7632 34.6391 33.854 33.4119 33.9953 32.19L33.9985 32.1895ZM22.9955 31.1967C22.9788 31.1332 22.9622 31.0697 22.9456 31.0063C22.9631 30.9705 22.9843 30.9374 23.0018 30.9016C23.0009 31.0008 22.9968 31.1006 22.9965 31.2032C22.9965 31.2032 22.996 31.1999 22.9955 31.1967ZM31.1446 30.8777C31.1434 30.7655 31.146 30.656 31.1481 30.5433C31.2103 30.246 31.2725 29.9487 31.3417 29.6536C31.2782 30.1527 31.2152 30.655 31.1486 31.1547C31.1472 31.0623 31.1427 30.9705 31.1446 30.8777ZM31.6898 24.648C31.5838 24.982 31.481 25.3154 31.3782 25.6489C31.3949 25.4612 31.4116 25.2735 31.4283 25.0858C31.4424 24.9448 31.3968 24.8231 31.3188 24.7263C31.5985 24.1105 31.8889 23.4996 32.2044 22.9013C32.1958 22.972 32.1866 23.0396 32.1779 23.1103C32.0145 23.6252 31.8505 24.1369 31.6871 24.6517L31.6898 24.648ZM29.9416 22.9703C30.0126 22.7079 30.0841 22.4488 30.1519 22.1869C30.2176 22.1006 30.2866 22.0137 30.3555 21.9268C30.2257 22.2778 30.0853 22.6238 29.9416 22.9703ZM28.3335 33.0259C28.4552 32.4978 28.6042 31.9753 28.795 31.466C28.8346 31.3606 28.8843 31.257 28.9271 31.1511C28.9147 32.4353 28.936 33.7242 28.5457 34.9391C28.5137 34.9243 28.4789 34.9132 28.4468 34.8985C28.3949 34.2754 28.3591 33.6498 28.333 33.0227L28.3335 33.0259ZM35.7109 27.62C35.6644 28.0173 35.6078 28.4129 35.5409 28.8068C35.5401 28.7177 35.5398 28.6318 35.539 28.5427C35.547 27.7549 35.5712 26.9645 35.6158 26.1776C35.6171 26.1443 35.6217 26.1105 35.6226 26.074C35.6604 26.5869 35.6886 27.1014 35.7103 27.6168L35.7109 27.62ZM30.4742 20.1631C30.5301 20.0354 30.5827 19.9081 30.6386 19.7803C30.7139 19.818 30.7915 19.8488 30.8673 19.8897C30.7224 19.9555 30.5949 20.0483 30.4742 20.1631ZM28.5683 36.0889C28.5966 36.101 28.625 36.113 28.6506 36.1288C28.758 36.1813 28.8734 36.1796 28.9768 36.1435C28.9443 36.294 28.9119 36.4446 28.8724 36.5929C28.8257 36.7787 28.7723 36.9854 28.7168 37.1991C28.6589 36.8314 28.6069 36.4596 28.5651 36.0894L28.5683 36.0889ZM27.9472 23.506C27.8003 23.7274 27.6572 23.9516 27.5146 24.1789C27.6077 23.847 27.6735 23.5094 27.6781 23.1617C27.6777 23.0957 27.6717 23.0371 27.6567 22.9833C28.0635 22.3772 28.4815 21.7793 28.9145 21.1922C28.5867 21.9643 28.2653 22.7354 27.9477 23.5092L27.9472 23.506ZM25.7253 29.666C25.4768 30.5215 25.2657 31.3843 25.1152 32.254C25.0994 31.9227 25.0808 31.5952 25.0585 31.2649C25.2678 30.7263 25.491 30.1921 25.7253 29.666ZM36.3656 22.2951C36.3478 22.4335 36.3326 22.568 36.3147 22.7064C36.2772 22.4049 36.2445 22.0928 36.2017 21.779C36.2862 21.8747 36.3647 21.9747 36.44 22.0752C36.403 22.1339 36.375 22.2077 36.3651 22.2919L36.3656 22.2951ZM33.071 26.2613C33.2131 25.5482 33.3627 24.8405 33.5284 24.1303C33.6606 23.5641 33.7988 22.9937 33.9685 22.4349C34.0945 22.5638 34.2206 22.6926 34.3472 22.8247C33.8419 23.9387 33.4286 25.0912 33.0742 26.2608L33.071 26.2613ZM33.8683 19.9324C33.8683 19.9324 33.8827 19.94 33.8864 19.9427C33.881 19.9502 33.8756 19.9577 33.8701 19.9651C33.8681 19.9522 33.8666 19.9426 33.8646 19.9297L33.8683 19.9324ZM32.9356 19.6762C32.8818 19.754 32.8317 19.8346 32.7784 19.9157C32.2726 19.5162 31.7304 19.1588 31.1506 18.8767C31.8196 19.0324 32.4724 19.2534 33.0957 19.5386C33.0348 19.5713 32.9791 19.6164 32.9361 19.6794L32.9356 19.6762ZM34.9659 20.8996C34.9996 21.0298 35.0274 21.1642 35.0552 21.2987C35.044 21.3533 35.036 21.4074 35.0253 21.4653C35.003 21.4919 34.984 21.5181 34.9687 21.5469C34.918 21.6442 34.8704 21.7409 34.8196 21.8381C34.6654 21.6773 34.5052 21.5208 34.3478 21.3605C34.43 21.1691 34.5187 20.9767 34.6185 20.7924C34.6616 20.7096 34.7219 20.6307 34.7613 20.5452C34.7662 20.5345 34.7744 20.5233 34.7825 20.5121C34.8049 20.5284 34.8236 20.542 34.846 20.5583C34.8889 20.6837 34.9508 20.8458 34.9654 20.8964L34.9659 20.8996ZM35.4754 19.6659C35.3048 19.4846 35.1025 19.3546 34.8827 19.3231C34.7984 19.2703 34.713 19.211 34.6287 19.1582C34.969 19.2203 35.3075 19.2925 35.6417 19.3787C35.5802 19.471 35.5257 19.5655 35.4787 19.6654L35.4754 19.6659ZM22.895 26.3015C22.8554 26.4069 22.8186 26.5085 22.779 26.6139C22.7494 26.678 22.7231 26.7417 22.6968 26.8053C22.7936 25.9308 22.9677 25.0639 23.1942 24.2152C23.2452 24.5179 23.2962 24.8205 23.337 25.1214C23.1907 25.5146 23.0413 25.9083 22.895 26.3015ZM21.4146 28.1905C21.4146 28.1905 21.4089 28.1749 21.4046 28.1689C21.407 28.1421 21.4126 28.1148 21.415 28.088C21.4136 28.1212 21.416 28.1572 21.4146 28.1905ZM26.9586 35.7311C26.9676 35.7462 26.9766 35.7614 26.9824 35.777C26.9815 36.296 27.0134 36.8131 27.0744 37.3257C26.8579 37.0425 26.6932 36.7314 26.5786 36.4024C26.7226 36.2046 26.8476 35.9701 26.9586 35.7311ZM24.0385 23.2395C24.0229 23.1824 24.0009 23.1264 23.9788 23.0704C24.0394 23.0146 24.1 22.9588 24.1639 22.9024C24.1221 23.0148 24.0803 23.1271 24.0385 23.2395ZM25.4337 36.7712C25.5069 36.8158 25.5774 36.8444 25.647 36.8665C25.7917 37.2601 25.9933 37.6381 26.2694 37.9846C26.5948 38.3927 26.983 38.738 27.4124 39.0306C27.2284 39.0794 27.0439 39.125 26.8599 39.1738C26.4422 38.8299 26.0901 38.1682 25.9164 37.8419C25.721 37.4827 25.5573 37.1152 25.4023 36.7398C25.4135 36.7479 25.4257 36.7625 25.4369 36.7707L25.4337 36.7712ZM30.4646 39.2305C30.6034 39.1888 30.7385 39.1443 30.8774 39.1026C30.8794 39.1155 30.8819 39.1317 30.884 39.1446C30.7446 39.183 30.6015 39.2188 30.4622 39.2573C30.4612 39.2508 30.4661 39.2401 30.4678 39.23L30.4646 39.2305ZM37.2695 39.0638C37.2907 38.9679 37.3087 38.8725 37.33 38.7766C37.5349 38.546 37.7393 38.3122 37.9325 38.0703C37.9383 38.2743 37.944 38.4783 37.9534 38.685C37.7185 38.8509 37.4755 39.0082 37.2321 39.1622C37.2469 39.1301 37.2622 39.1013 37.2695 39.0638ZM40.5303 34.2536C40.5734 34.1708 40.6128 34.0853 40.6522 33.9998C40.6339 34.0721 40.6192 34.1471 40.5977 34.2199C40.5761 34.2299 40.5518 34.2436 40.5303 34.2536ZM39.7849 31.4529C39.5785 32.5132 39.3625 33.5751 39.1186 34.6281C39.092 34.6686 39.0621 34.7097 39.0354 34.7503C39.1568 32.9829 39.4021 31.2257 39.6983 29.477C39.7169 29.679 39.7318 29.8782 39.7499 30.077C39.7774 30.4196 39.8167 30.7737 39.8505 31.1352C39.8308 31.2407 39.8084 31.35 39.7886 31.4556L39.7849 31.4529ZM39.5168 37.1762C39.631 37.1251 39.7416 37.0714 39.8558 37.0203C39.8685 37.0382 39.8807 37.0528 39.8929 37.0674C39.7366 37.2077 39.5797 37.3447 39.4201 37.4856C39.4533 37.3812 39.4869 37.2801 39.5168 37.1762ZM40.9252 32.6282C40.934 32.1806 40.909 31.7285 40.8717 31.2816C40.9954 30.6408 41.109 29.9983 41.206 29.3551C41.1837 29.8014 41.1615 30.2478 41.1292 30.6924C41.0858 31.3404 41.0194 31.9887 40.922 32.6287L40.9252 32.6282ZM19.6781 26.1044C19.9009 25.5472 20.1596 25.0074 20.4396 24.4774C20.4262 24.539 20.4122 24.5974 20.3988 24.659C20.2712 25.2542 20.1601 25.85 20.063 26.4503C19.853 26.837 19.6242 27.2101 19.3714 27.5772C19.3737 27.319 19.3894 27.0621 19.4153 26.8068C19.496 26.5429 19.605 26.2911 19.6781 26.1044ZM30.3753 40.3418C30.6804 40.4325 30.9872 40.513 31.2968 40.5898C30.8859 40.5621 30.4732 40.5015 30.0735 40.4191C30.1752 40.3931 30.2768 40.3672 30.3753 40.3418ZM41.6965 24.7501C41.5646 25.0452 41.5013 25.3989 41.47 25.6616C41.4676 25.6884 41.4658 25.7185 41.4601 25.7458C41.4548 25.5649 41.4526 25.3834 41.4403 25.2003C41.4237 24.9484 41.4002 24.6944 41.3665 24.4386C41.3689 24.4118 41.375 24.3877 41.3742 24.3614C41.3468 23.9988 41.2941 23.6436 41.2221 23.2914C41.3885 23.7808 41.5414 24.2689 41.6933 24.7506L41.6965 24.7501ZM32.4158 16.44C31.5186 16.4723 30.633 16.5986 29.7665 16.8045C29.596 16.5406 29.1607 16.4208 28.8789 16.7296C28.8285 16.7871 28.7776 16.8414 28.7266 16.8957C27.9822 16.8907 27.2438 16.9443 26.5311 17.1194C27.2213 16.6966 27.9717 16.3834 28.7571 16.187C29.5468 16.0394 30.3626 16.0364 31.1785 16.0962C31.3886 16.1292 31.5959 16.166 31.8043 16.2091C32.1526 16.2798 32.5078 16.3528 32.8635 16.4289C32.7148 16.4292 32.5666 16.4327 32.419 16.4395L32.4158 16.44ZM19.4623 29.0137C19.5419 28.9945 19.6142 28.9501 19.6775 28.8905C19.6345 29.1419 19.6022 29.3981 19.5726 29.6507C19.5293 29.4394 19.4888 29.2243 19.4623 29.0137ZM24.2048 39.2915C24.3169 39.1846 24.412 39.0539 24.4682 38.8864C24.4731 38.8757 24.4743 38.8623 24.4755 38.8489C24.769 39.0968 25.074 39.333 25.3892 39.551C25.1918 39.5986 24.9939 39.643 24.7965 39.6907C24.5975 39.5601 24.4012 39.4258 24.2048 39.2915ZM19.1346 23.5363C19.1412 23.5154 19.1473 23.4913 19.154 23.4704C19.4492 22.5547 19.8665 21.6793 20.4492 20.91C20.5231 20.8124 20.6054 20.7267 20.6835 20.6351C20.0497 21.5413 19.5253 22.513 19.1346 23.5363ZM18.5332 29.6822C18.674 30.4499 18.8962 31.2312 19.2232 31.9431C19.3085 32.128 19.4137 32.313 19.5384 32.4751C19.5707 32.8269 19.6127 33.1773 19.6708 33.525C19.6843 33.8203 19.7106 34.1136 19.7532 34.4044C18.9142 32.9601 18.4836 31.3392 18.432 29.6486C18.4383 29.6047 18.435 29.5622 18.4278 29.5171C18.4226 29.3163 18.4207 29.115 18.4187 28.9137C18.4492 29.17 18.4829 29.4258 18.53 29.6828L18.5332 29.6822ZM20.2832 37.5795C18.9815 35.9669 18.1603 34.0902 17.7436 32.1168C17.9976 33.1839 18.404 34.2105 19.0141 35.1884C19.3724 35.7632 19.7901 36.2955 20.2478 36.7886C20.2598 36.823 20.2649 36.8553 20.277 36.8897C20.5271 37.4914 21.0145 38.026 21.4781 38.4719C22.0656 39.0337 22.7272 39.5408 23.4068 40.0154C23.3014 40.0386 23.196 40.0618 23.0906 40.085C22.0263 39.4133 21.08 38.5676 20.2832 37.5795ZM28.0157 40.9086C28.1559 40.9592 28.2928 41.0103 28.432 41.0545C28.8912 41.2002 29.3913 41.3329 29.9131 41.4358C29.9314 41.5519 29.9991 41.6668 30.1379 41.7507C30.1854 41.7796 30.2357 41.8047 30.2859 41.8298C29.5904 41.7576 28.9012 41.6415 28.2353 41.4424C27.8986 41.3401 27.5718 41.2165 27.2526 41.0784C27.5085 41.0248 27.7635 40.9648 28.0157 40.9086ZM35.8381 41.5366C35.9417 41.4806 36.0405 41.4155 36.1398 41.3536C36.3485 41.357 36.5578 41.3637 36.7654 41.3806C36.3576 41.5407 35.9247 41.6453 35.4834 41.7181C35.603 41.6596 35.7222 41.5979 35.8376 41.5334L35.8381 41.5366ZM43.7697 32.5799C43.7978 32.3805 43.8226 32.1816 43.8405 31.9805C43.915 31.9918 43.9944 31.9926 44.0676 31.9744C44.022 32.1468 43.9738 32.323 43.9218 32.4964C43.87 32.5244 43.8215 32.5519 43.7697 32.5799ZM45.1859 26.3617C44.6794 23.986 43.5793 21.7864 42.1782 19.8161C45.1447 19.0314 48.2179 18.6727 51.2862 18.8073C52.4675 18.8591 54.0083 18.8212 55.0255 19.5301C56.1691 20.3281 55.3076 22.0337 54.8331 23.0074C53.6764 25.3775 51.6692 27.2371 49.597 28.8096C48.1829 29.8817 46.6987 30.8658 45.1696 31.7743C45.5606 29.9975 45.5735 28.1712 45.1892 26.3612L45.1859 26.3617ZM31.7638 14.6722C32.9079 14.5084 33.9421 15.1155 34.9542 15.5608C36.0053 16.0231 37.1299 16.4276 38.1132 17.0261C38.5664 17.3017 38.9665 17.6386 39.3416 18.0058C38.844 17.5323 38.3029 17.1185 37.7125 16.8116C36.8449 16.3601 35.8893 16.1471 34.9622 15.8636C33.9902 15.5673 33.0518 15.1698 32.0753 14.8875C31.8676 14.8276 31.6512 14.7758 31.4391 14.7299C31.5482 14.7094 31.6568 14.6857 31.767 14.6716L31.7638 14.6722Z" fill="#F9B200"/>
<path d="M43.1464 14.0051C43.7673 13.709 44.0716 13.0397 44.2399 12.4084C44.4137 11.7498 44.4151 11.0456 43.9859 10.482C43.5821 9.95407 42.905 9.80959 42.2955 10.0312C41.8766 10.1832 41.5625 10.497 41.368 10.878C41.1317 11.0772 40.9528 11.3466 40.8687 11.6309C40.6784 12.269 40.8682 12.9496 41.3034 13.4461C41.7593 13.9692 42.4705 14.3297 43.1496 14.0046L43.1464 14.0051Z" fill="#F9B200"/>
<path d="M29.6059 9.11607C30.3895 9.11819 31.0872 8.7009 31.5361 8.06833C31.9872 7.42881 32.2305 6.56095 32.0232 5.79053C31.821 5.05236 31.18 4.40316 30.3788 4.39391C29.958 4.38749 29.5593 4.56268 29.2162 4.81834C28.8243 5.0156 28.4885 5.35934 28.2429 5.75165C27.82 6.42309 27.5677 7.27585 27.8963 8.04036C28.1829 8.70575 28.8985 9.11517 29.6096 9.11879L29.6059 9.11607ZM30.623 5.54518C30.623 5.54518 30.6146 5.51344 30.6062 5.50156C30.6131 5.50377 30.6201 5.50598 30.6243 5.51192C30.6318 5.51735 30.6462 5.52499 30.6542 5.53365C30.6418 5.53891 30.6326 5.54366 30.6202 5.54891L30.623 5.54518Z" fill="#F9B200"/>
<path d="M16.8128 47.8557C15.8658 47.7604 14.9584 48.3991 14.7334 49.3202C14.6694 49.5848 14.6583 49.8708 14.7052 50.1476C14.7014 50.2705 14.7041 50.3923 14.7271 50.5176C14.7967 50.9594 15.0386 51.4038 15.424 51.6471C15.8248 51.9045 16.3307 51.9901 16.7939 51.8675C17.7036 51.6217 18.5379 50.75 18.5251 49.7671C18.5187 49.2856 18.3586 48.8151 18.0193 48.4654C17.6996 48.1357 17.2831 47.9039 16.8197 47.8579L16.8128 47.8557ZM17.4552 49.982C17.4552 49.982 17.4557 49.9852 17.453 49.9889C17.453 49.9889 17.4525 49.9857 17.4552 49.982Z" fill="#F9B200"/>
<path d="M10.3858 27.1782C10.7896 27.0353 11.1122 26.6705 11.2221 26.2566C11.3509 25.7736 11.272 25.2936 11.0041 24.8732C10.8686 24.6632 10.6694 24.4897 10.4384 24.3872C10.1652 24.2684 9.82849 24.2917 9.56962 24.4316C9.33503 24.5578 9.14607 24.7429 8.988 24.9562C8.91465 25.057 8.8525 25.1659 8.80799 25.282C8.68404 25.4602 8.60811 25.6704 8.5853 25.8822C8.53527 26.3197 8.70942 26.7748 9.07423 27.0346C9.46144 27.3107 9.95396 27.3322 10.3895 27.181L10.3858 27.1782Z" fill="#F9B200"/>
</svg>
