<svg width="84" height="128" viewBox="0 0 84 128" fill="none" xmlns="http://www.w3.org/2000/svg">
<path d="M78.8255 27.0661C78.8726 24.8039 78.0214 22.7913 77.0838 20.7759C74.9997 16.28 71.0171 12.7814 66.7152 10.45C64.3574 9.17233 61.8344 8.48088 59.2242 7.90602C56.8097 7.37709 54.3412 7.0271 51.8685 6.92423C47.0919 6.72275 42.2974 8.1262 38.3685 10.8614C34.0476 13.8727 32.1086 18.9161 32.3648 24.0657C32.575 28.3015 32.771 32.7993 34.0978 36.8578C35.4495 40.9896 37.9747 44.3519 40.9451 47.4568C41.7922 48.3447 42.6548 49.215 43.5158 50.0894C43.6792 50.2529 43.8661 50.3234 44.0501 50.3238C44.8726 51.203 45.8314 51.9047 46.8754 52.443C45.9207 52.8661 45.0071 53.3681 44.1374 53.9546C43.0065 54.7206 41.7102 55.6816 41.2083 57.0008C40.9668 57.6338 40.9271 58.4254 41.2876 59.0221C41.6616 59.6327 42.3553 59.8588 43.0402 59.7964C43.7292 59.7355 44.3748 59.406 45.0095 59.1464L45.4451 58.9685C44.6236 62.0303 43.8075 65.0895 42.9778 68.1484C42.0526 71.5696 41.0599 74.9992 39.4933 78.1897C37.9866 81.2493 35.9453 84.0101 34.2957 86.9917C32.6801 89.9163 31.682 92.9435 31.216 96.2504C30.3945 102.028 30.7186 108.749 26.4001 113.294C24.4465 115.349 21.6538 116.689 18.7893 116.614C15.7244 116.533 12.995 114.663 11.812 111.83C11.1722 110.301 10.9928 108.512 11.1625 106.868C11.2414 106.109 11.4639 105.308 12.1388 104.869C12.7776 104.454 13.5976 104.44 14.3356 104.488C15.1462 104.539 15.9456 104.687 16.7407 104.848C17.6056 105.019 18.5784 105.224 19.2111 105.884C20.5237 107.254 19.2355 108.623 17.7947 109.04C16.8659 109.311 17.141 110.803 18.0809 110.527C19.4872 110.116 20.9355 109.259 21.2314 107.701C21.4956 106.312 20.6931 104.906 19.5091 104.203C18.1035 103.372 16.1678 103.104 14.5578 102.983C13.0561 102.868 11.3959 103.111 10.4453 104.41C9.54123 105.643 9.54666 107.325 9.6315 108.782C9.73256 110.493 10.1414 112.194 11.0444 113.667C12.7968 116.532 15.9353 118.246 19.3002 118.129C22.5442 118.016 25.5863 116.464 27.7395 114.065C29.8115 111.753 30.9541 108.786 31.5565 105.771C32.3101 102.027 32.2885 98.1706 33.0517 94.4253C33.8481 90.5076 35.8786 87.1768 37.9697 83.8306C39.1205 81.9897 40.2522 80.1375 41.1731 78.165C42.1326 76.1093 42.8711 73.962 43.5208 71.7925C44.7346 67.7227 45.7804 63.5937 46.8739 59.486C47.2959 60.2609 47.9077 60.9415 48.6164 61.4123C49.8153 62.2032 51.5711 62.394 52.4067 60.9899C53.1362 59.7693 52.8356 58.1672 52.3917 56.9058C51.991 55.7702 51.3746 54.7242 50.7191 53.7106C52.8673 54.0811 55.1193 54.0003 57.1737 53.5921C62.327 52.5683 67.131 50.1324 70.5766 46.1173C72.2342 44.1835 73.5356 41.9676 74.6106 39.6626C75.57 37.607 76.4796 35.4969 77.3068 33.3854C78.0923 31.379 78.769 29.2375 78.8159 27.0673L78.8255 27.0661ZM65.5818 12.96C65.6217 12.8728 65.6246 12.8646 65.5933 12.9272C65.6188 12.881 65.6443 12.8347 65.6739 12.7899C65.7291 12.6989 65.7936 12.6203 65.8569 12.5322C65.9185 12.4618 65.9228 12.4495 65.8781 12.4982C65.9144 12.4604 65.9507 12.4225 65.9912 12.3862C66.068 12.3119 66.1501 12.2488 66.2322 12.1857C66.3059 12.1334 66.3184 12.124 66.2642 12.1601C66.2809 12.1522 66.2934 12.1428 66.31 12.1348C66.3345 12.1435 66.3605 12.1481 66.3921 12.15C65.9905 12.4273 65.6901 12.8094 65.4954 13.2702C65.4872 13.2673 65.4749 13.263 65.4668 13.2601C65.5043 13.1536 65.5461 13.0349 65.5847 12.9518L65.5818 12.96ZM36.8667 15.5525C37.7061 15.2085 38.4918 14.7166 39.1129 14.0517C39.2836 13.8679 39.4475 13.6771 39.5775 13.4651C39.734 13.3868 39.8811 13.2959 40.0388 13.2272C40.0555 13.2193 40.0762 13.2128 40.0928 13.2048C40.0422 13.2699 39.9984 13.3419 39.9464 13.411C39.5854 13.8868 39.1959 14.3388 38.7861 14.7698C38.6183 14.9454 38.4411 15.1085 38.2652 15.2812C37.7354 15.5042 37.1962 15.7147 36.6573 15.9114C36.7225 15.7917 36.7919 15.6734 36.8653 15.5566L36.8667 15.5525ZM40.2114 11.4972C40.2114 11.4972 40.2316 11.5182 40.2369 11.5293C40.0573 11.5948 39.8776 11.6604 39.7006 11.7315C39.8576 11.6257 40.0105 11.5185 40.1687 11.4223C40.182 11.45 40.187 11.4748 40.2058 11.4999L40.2114 11.4972ZM39.4715 16.6779C39.8722 16.3772 40.2685 16.0887 40.6889 15.8364C40.9783 15.6945 41.2689 15.5621 41.5516 15.4132C42.2639 15.0382 41.9878 14.1629 41.3765 14.0164C41.4285 13.9473 41.4846 13.8796 41.5325 13.809C41.6887 13.5879 41.8757 13.3315 42.03 13.0637C42.1361 13.2852 42.2214 13.5132 42.2694 13.7557C42.4668 14.7368 41.9541 15.5643 41.182 16.1484C40.5531 16.6264 39.8013 16.9046 39.0083 17.0256C39.1641 16.9101 39.3143 16.7974 39.4701 16.682L39.4715 16.6779ZM38.4316 30.8587C38.428 30.8298 38.4325 30.8037 38.4289 30.7748C38.4202 30.7211 38.4101 30.6715 38.4 30.6219C38.4001 30.4517 38.3962 30.2799 38.3771 30.1121C38.5099 30.2187 38.6371 30.328 38.7503 30.4508C38.7934 30.4982 38.8337 30.5539 38.8754 30.6054C38.723 30.6851 38.5773 30.7719 38.4316 30.8587ZM51.278 59.791C51.039 60.8346 50.0305 60.5481 49.3591 60.0629C48.4815 59.4312 47.8822 58.4281 47.7881 57.35C47.7448 56.8329 47.126 56.6424 46.7166 56.8111C45.609 57.2631 44.5112 57.7784 43.384 58.1683C43.1008 58.2664 42.599 58.4624 42.536 58.0535C42.4582 57.5427 42.8891 56.9995 43.2081 56.6561C44.6614 55.1061 46.7077 54.055 48.6755 53.3308C48.6962 53.3243 48.7143 53.3122 48.7309 53.3043C48.7605 53.416 48.8054 53.5239 48.875 53.6267C49.5403 54.6255 50.1999 55.6406 50.6988 56.7326C51.1144 57.6433 51.5069 58.776 51.2739 59.7895L51.278 59.791ZM65.2286 48.8034C65.3721 48.6837 65.5156 48.5639 65.6605 48.4401C65.7385 48.3755 65.8004 48.2914 65.8418 48.2001C65.9266 48.2208 66.0101 48.2319 66.094 48.2292C65.8103 48.433 65.5255 48.6272 65.2339 48.8145C65.2339 48.8145 65.2286 48.8034 65.226 48.7979L65.2286 48.8034ZM66.8268 47.5346C66.8427 47.5678 66.8586 47.601 66.8856 47.629C66.8536 47.6545 66.8201 47.6841 66.7881 47.7097C66.8083 47.6523 66.8203 47.5921 66.8268 47.5346ZM72.0535 41.353C70.9591 43.269 69.6432 45.0563 68.0569 46.5917C67.6324 45.7193 66.6552 45.2137 65.7116 45.1481C64.6692 45.0753 63.409 45.3722 62.5608 45.9893C62.0337 46.3743 61.652 46.9349 61.3451 47.5311C60.977 47.9353 60.7665 48.4412 60.7368 48.9693C60.5372 49.6401 60.5117 50.3263 60.8332 50.9552C56.512 52.544 51.5371 53.2577 47.3255 50.9444C46.3691 50.4185 45.5127 49.7529 44.8145 48.9129C44.6395 48.7039 44.4252 48.633 44.2217 48.6487C41.5262 45.9261 38.7459 43.1828 36.9564 39.7576C36.2558 38.415 35.7414 37.0275 35.3497 35.605C35.5272 35.5847 35.6994 35.5533 35.8718 35.5082C36.0323 35.7582 36.3108 35.9346 36.6308 35.8494C38.3991 35.391 40.5138 34.5114 40.8861 32.5019C41.2401 30.5966 39.7295 28.9269 38.1204 28.1894C37.213 27.7728 36.1762 27.6191 35.1828 27.7338C34.8383 27.64 34.4792 27.6009 34.105 27.6439C33.9386 25.7392 33.7401 23.7818 33.869 21.8753C33.9591 20.549 34.2355 19.2423 34.6948 18.0047C35.1491 18.1787 35.6315 18.3119 36.1255 18.4124C36.3366 18.5973 36.6386 18.6808 36.9418 18.539C38.5713 18.7222 40.2672 18.4822 41.6466 17.638C42.7138 16.9876 43.585 15.9919 43.7921 14.7253C43.9733 13.6106 43.5545 12.487 42.9121 11.593C42.6507 11.2247 42.2806 10.7858 41.8725 10.4808C43.8983 9.50078 46.1077 8.86173 48.2029 8.55991C50.3903 8.24456 52.6407 8.41639 54.8223 8.67905C57.1587 8.95948 59.4517 9.45474 61.722 10.0663C62.8401 10.3684 63.9317 10.7716 64.9889 11.2594C64.8632 11.3808 64.7417 11.5037 64.635 11.6365C64.5046 11.7976 64.3902 11.9783 64.2896 12.1592C64.1916 12.1891 64.0934 12.2327 64.0057 12.2985C63.3773 12.7491 62.9891 13.4455 62.8827 14.2044C62.7717 14.9893 63.0384 15.7739 63.482 16.409C64.3155 17.6098 65.9477 18.3601 67.39 18.3299C68.0851 18.3171 68.8899 18.0714 69.2564 17.5147C69.6107 17.4371 69.9046 17.1908 70.1524 16.919C70.2154 16.8446 70.2677 16.7617 70.3225 16.6844C70.3548 16.6451 70.383 16.6044 70.4111 16.5637C70.4605 16.489 70.5084 16.4185 70.5495 16.3409C70.5751 16.2947 70.595 16.251 70.6164 16.2034C70.7702 15.8847 70.8763 15.5446 70.9166 15.1951C71.8388 16.0266 72.7023 16.9203 73.484 17.8633C74.9571 19.6394 75.8795 21.6587 76.7259 23.7893C77.4223 25.5356 77.4252 27.3688 77.0424 29.1858C76.731 28.9333 76.2933 28.908 75.843 28.984C75.7519 28.6941 75.4873 28.5041 75.1752 28.4493C72.8972 28.0422 70.4409 28.6633 69.0183 30.5833C67.7996 32.2253 67.2505 34.7754 68.7435 36.4297C69.4254 37.1856 70.4226 37.7259 71.447 37.8108C71.7417 37.8365 72.0264 37.8125 72.2981 37.7472C72.7882 37.9107 73.3099 37.9197 73.79 37.7851C73.2626 38.9941 72.7106 40.1944 72.0564 41.3448L72.0535 41.353Z" fill="#474744"/>
<path d="M55.4834 30.4527C56.5245 30.5159 57.6082 30.2626 58.415 29.5803C59.2023 28.9141 59.6214 27.934 59.5334 26.9039C59.3486 24.7902 56.9233 23.3644 54.9797 23.3145C54.2043 23.2944 53.3992 23.4755 52.7371 23.8912C52.6263 23.9442 52.5156 23.9973 52.4074 24.0558C51.4132 24.6169 50.305 25.5014 50.4618 26.7674C50.5954 27.8641 51.5075 28.8025 52.3873 29.3889C53.2969 29.995 54.3873 30.3886 55.4834 30.4527ZM53.7099 26.094C53.7099 26.094 53.7085 26.0981 53.7111 26.1036C53.7111 26.1036 53.7126 26.0995 53.7099 26.094ZM54.7601 25.1522C54.6936 25.1057 54.6242 25.0675 54.5479 25.0359C54.6507 25.0446 54.7521 25.0573 54.8547 25.0797C54.82 25.0997 54.7921 25.1266 54.7601 25.1522ZM55.9898 28.9509C55.4895 28.9725 54.9883 28.8925 54.5035 28.74C54.5283 28.7349 54.5517 28.734 54.5779 28.7248C54.687 28.6896 54.7908 28.6433 54.8986 28.5985C55.1457 28.6027 55.3977 28.5672 55.6402 28.5192C55.6498 28.518 55.6609 28.5127 55.6705 28.5115C55.8329 28.8082 56.1523 28.9207 56.4495 28.8874C56.2992 28.9219 56.1436 28.9453 55.9898 28.9509ZM57.8869 27.8657C57.7841 28.0919 57.4958 28.4138 57.2292 28.5822C57.0571 28.6919 56.8675 28.7724 56.6715 28.8322C56.789 28.7861 56.8877 28.715 56.9677 28.6189C57.1182 28.5707 57.261 28.4921 57.3486 28.3481C57.4614 28.1715 57.498 27.9634 57.4601 27.7705C57.6698 27.6327 57.8771 27.4756 58.0396 27.2889C58.0281 27.4782 57.981 27.6641 57.8869 27.8657Z" fill="#474744"/>
<path d="M56.5879 36.5917C56.2718 36.287 55.8893 36.0923 55.4781 35.9657C55.3911 35.8338 55.268 35.726 55.1107 35.6889C53.3192 35.2599 51.3317 35.3741 49.7461 36.385C48.0898 37.44 47.2072 39.578 48.3066 41.3696C48.8556 42.2675 49.7293 42.9622 50.7417 43.2639C51.7473 43.5585 52.7973 43.5051 53.8155 43.307C54.8103 43.1099 55.9197 42.8749 56.5188 41.972C57.0221 41.2103 57.3387 40.1296 57.4366 39.225C57.5405 38.2902 57.2796 37.2545 56.5879 36.5917ZM52.533 38.104C52.4598 38.2071 52.384 38.3047 52.3 38.3994C51.982 38.766 51.5838 39.086 51.1663 39.3301C51.2933 39.1264 51.4409 38.9298 51.6084 38.7679C51.8682 38.5142 52.1603 38.2995 52.4791 38.1264C52.4957 38.1185 52.5164 38.112 52.533 38.104ZM55.7503 37.9492C55.6888 37.9275 55.6231 37.9181 55.553 37.9211C55.4101 37.6865 55.1545 37.5366 54.8193 37.6256C54.6869 37.6618 54.5653 37.7064 54.4381 37.7536C54.4915 37.6021 54.5093 37.4472 54.5078 37.2948C54.8257 37.3332 55.1292 37.4126 55.3807 37.5611C55.5479 37.6614 55.665 37.7994 55.7488 37.9533L55.7503 37.9492ZM55.0729 41.3334C54.6985 41.6249 54.1068 41.6972 53.6548 41.791C52.6363 42.0029 51.4852 42.1081 50.5585 41.5374C50.4185 41.4512 50.2843 41.3487 50.1627 41.2367C50.6685 41.5255 51.2415 41.5065 51.8016 41.3541C51.9966 41.6761 52.4272 41.8647 52.7822 41.6676C52.9264 41.5849 53.068 41.4967 53.2122 41.414C53.3052 41.4376 53.4054 41.4407 53.5169 41.4248C53.5609 41.4173 53.6023 41.4043 53.6423 41.3953C53.9039 41.5152 54.2324 41.4975 54.4556 41.2953C54.5435 41.2158 54.6419 41.1585 54.7325 41.0845C54.9896 40.9818 55.243 40.8639 55.4789 40.7169C55.3841 40.9597 55.258 41.1869 55.0702 41.3279L55.0729 41.3334Z" fill="#474744"/>
</svg>
