<svg width="28" height="29" viewBox="0 0 28 29" fill="none" xmlns="http://www.w3.org/2000/svg">
<g clip-path="url(#clip0_66_308)">
<path fill-rule="evenodd" clip-rule="evenodd" d="M25.7915 19.9444C23.9915 19.9444 22.1915 19.6333 20.3915 19.0111C19.9415 18.8556 19.3415 19.0111 18.8915 19.3222L15.5915 22.7444C11.3915 20.5667 7.9415 16.8333 5.6915 12.4778L8.9915 9.05556C9.4415 8.58889 9.5915 7.96667 9.2915 7.5C8.8415 5.78889 8.5415 3.92222 8.5415 2.05556C8.5415 1.12222 7.9415 0.5 7.0415 0.5H1.7915C0.891504 0.5 0.291504 1.12222 0.291504 2.05556C0.291504 16.6778 11.6915 28.5 25.7915 28.5C26.6915 28.5 27.2915 27.8778 27.2915 26.9444V21.5C27.2915 20.5667 26.6915 19.9444 25.7915 19.9444ZM24.2915 14.5H27.2915C27.2915 6.72222 21.2915 0.5 13.7915 0.5V3.61111C19.6415 3.61111 24.2915 8.43333 24.2915 14.5ZM18.2915 14.5H21.2915C21.2915 10.1444 17.9915 6.72222 13.7915 6.72222V9.83333C16.3415 9.83333 18.2915 11.8556 18.2915 14.5Z" fill="#F17FB2"/>
</g>
<defs>
<clipPath id="clip0_66_308">
<rect width="27" height="28" fill="white" transform="translate(0.291504 0.5)"/>
</clipPath>
</defs>
</svg>
