<svg width="162" height="136" viewBox="0 0 162 136" fill="none" xmlns="http://www.w3.org/2000/svg">
<path opacity="0.1" d="M114.953 72.78C100.507 69.3809 93.2835 60.4581 93.2835 46.0117L93.2835 28.1661C93.2835 18.8185 96.2578 11.8077 102.206 7.13389C107.73 2.46005 116.015 0.123134 127.063 0.123135C150.007 0.123137 161.479 9.47079 161.479 28.1661L161.479 47.2864C161.479 59.1834 159.992 69.8058 157.018 79.1534L137.897 135.877L100.294 135.877L114.953 72.78ZM22.5386 72.78C8.09223 69.3809 0.869025 60.4581 0.869026 46.0117L0.869028 28.1661C0.869029 18.8185 3.8433 11.8077 9.79182 7.13388C15.3154 2.46004 23.6009 0.123126 34.6481 0.123127C57.5924 0.123129 69.0645 9.47079 69.0645 28.1661L69.0645 47.2864C69.0645 59.1834 67.5774 69.8058 64.6031 79.1534L45.4829 135.877L7.87978 135.877L22.5386 72.78Z" fill="#7053BF"/>
</svg>
