<svg width="154" height="136" viewBox="0 0 154 136" fill="none" xmlns="http://www.w3.org/2000/svg">
<path opacity="0.1" d="M39.2207 63.1923C53.6671 66.5914 60.8903 75.5142 60.8903 89.9606V107.806C60.8903 117.154 57.9161 124.165 51.9675 128.838C46.4439 133.512 38.1585 135.849 27.1112 135.849C4.16696 135.849 -7.30518 126.501 -7.30518 107.806V88.6859C-7.30518 76.7888 -5.81805 66.1665 -2.84379 56.8189L16.2764 0.095459H53.8796L39.2207 63.1923ZM131.635 63.1923C146.082 66.5914 153.305 75.5142 153.305 89.9606V107.806C153.305 117.154 150.331 124.165 144.382 128.838C138.858 133.512 130.573 135.849 119.526 135.849C96.5814 135.849 85.1093 126.501 85.1093 107.806V88.6859C85.1093 76.7888 86.5964 66.1665 89.5707 56.8189L108.691 0.095459H146.294L131.635 63.1923Z" fill="#7053BF"/>
</svg>
