<svg width="105" height="168" viewBox="0 0 105 168" fill="none" xmlns="http://www.w3.org/2000/svg">
<path d="M127.102 99.9042C126.665 99.7325 126.253 99.7188 125.889 99.8145C125.817 99.7085 125.736 99.6037 125.641 99.5173C125.126 98.9961 124.344 98.8181 123.715 98.4575C123.295 98.2628 122.878 98.0634 122.461 97.8641C121.757 97.017 120.566 96.3984 119.746 95.799C118.279 94.8831 116.822 93.9243 115.222 93.2502C115.063 93.1809 114.903 93.1326 114.74 93.0888C114.32 92.8071 113.896 92.5218 113.469 92.2493C111.423 91.0694 111.372 91.097 109.148 89.7096C107.743 89.0377 106.432 90.1623 105.572 91.1917C104.458 92.3927 103.546 93.7397 102.708 95.1428C101.855 96.4031 100.865 97.5746 100.089 98.8864C98.8416 100.984 98.5944 101.684 97.6921 102.98C96.6512 104.382 95.5086 105.707 94.5776 107.185C93.2365 109.445 93.2266 109.794 92.0692 111.522C92.0587 111.536 92.0446 111.555 92.0341 111.569C91.7987 111.783 91.5286 111.957 91.2632 112.134C89.7272 113.249 90.1975 115.221 91.305 116.468C93.9481 119.425 97.7566 120.892 101.021 123.039C104.013 124.863 106.875 126.974 110.263 127.999C112.926 129.537 114.363 126.593 115.284 124.562C118.029 119.989 116.002 119.697 113.113 116.343C111.312 114.177 109.426 112.085 107.451 110.071C107.706 110.148 107.956 110.221 108.188 110.309C110.911 111.231 113.642 112.122 116.38 112.974C116.454 113.001 116.529 113.028 116.599 113.06C117.749 113.502 118.908 113.922 120.049 114.386C120.487 114.624 121.102 114.908 121.565 114.749C122.074 114.874 122.631 114.793 123.111 114.4C123.504 114.312 123.872 114.096 124.132 113.725C124.728 112.496 125.754 111.613 126.61 110.58C127.925 108.884 128.983 107.007 130.115 105.187C132.096 102.612 129.121 101.005 127.112 99.9112L127.102 99.9042ZM111.203 124.329C110.889 124.215 110.571 124.105 110.251 124C110.418 123.952 110.574 123.881 110.719 123.795C111.043 123.742 111.318 123.667 111.566 123.571C111.381 123.94 111.279 124.161 111.206 124.324L111.203 124.329ZM101.531 110.986C101.724 110.789 101.915 110.585 102.094 110.378C102.109 110.368 102.129 110.361 102.144 110.351C102.348 110.571 102.61 110.85 102.918 111.163C102.44 111.026 101.965 110.951 101.527 110.982L101.531 110.986Z" fill="#C95B47"/>
<path d="M77.2282 76.812C87.3069 79.8508 97.0929 83.8616 106.413 88.7563C100.273 96.9431 94.1295 105.135 87.9851 113.318C82.4464 109.149 77.0864 104.744 71.9201 100.122C70.3898 98.751 68.7758 97.1638 68.5936 95.1185C68.4498 93.5027 69.2478 91.9602 70.0243 90.5324C72.6525 85.682 75.2807 80.8316 77.2282 76.812Z" fill="#3769AE"/>
<path d="M45.6648 32.708C45.6209 32.6971 45.5734 32.6909 45.5342 32.6836C45.5484 32.6944 45.5923 32.7053 45.6826 32.7141L45.6732 32.7069L45.6648 32.708Z" fill="#222221"/>
<path d="M24.8717 80.3931C24.8717 80.3931 24.8743 80.3788 24.8731 80.3698C24.8692 80.3749 24.8652 80.3801 24.8665 80.3892L24.8717 80.3931Z" fill="#222221"/>
<path d="M91.3977 24.2068C90.248 24.4273 89.3762 25.4334 89.1929 26.5683C89.1541 27.5799 89.4424 28.6209 89.8391 29.5476C90.4367 30.6703 91.6063 31.3457 92.7573 31.7959C93.9535 32.244 95.3317 32.9611 96.6166 32.6393C97.4313 33.7445 98.197 34.8854 98.9698 36.0171C100.401 38.0849 101.37 40.2456 102.585 42.9644C103.949 46.0146 104.36 48.2768 104.597 51.7181C105.162 56.8411 103.499 61.5421 100.248 65.8405C98.2933 68.2462 96.6531 70.9192 94.5069 73.165C94.3003 73.4087 91.1894 75.7459 90.021 76.4326C89.3367 76.8457 89.0049 77.0818 88.5581 77.3255C87.6642 76.9683 86.7692 76.6029 85.8753 76.2457C83.537 75.4123 81.1928 74.5964 78.8157 73.8719C79.3061 71.8997 79.7072 69.9108 79.9889 67.8969C80.4727 64.4638 80.1307 60.9872 79.6805 57.5669C79.1598 53.6345 78.3792 49.7089 76.471 46.1953C75.4696 43.944 74.0707 41.8137 72.3137 40.0597C72.4395 37.9058 72.6945 35.6678 71.9265 33.608C71.2442 31.7806 69.2203 30.2829 67.2633 31.1362C66.9669 31.2391 66.6923 31.3805 66.4328 31.5404C65.3685 30.6973 64.0705 30.1721 62.6703 30.1371C62.5775 30.1251 62.4987 30.1235 62.407 30.1196C61.7427 29.1137 60.814 28.2934 59.6783 27.8038C57.3178 26.7789 55.7697 27.2943 54.9421 28.5014C54.0181 28.5872 53.261 28.9523 52.6987 29.5598C51.4966 28.8888 50.0869 28.6647 48.7047 29.1821C47.5858 29.506 46.8654 30.1683 46.4515 31.012C45.8908 30.849 45.3355 30.7557 44.804 30.7751C43.8052 30.9788 42.8935 31.6054 42.1885 32.4395C41.6949 32.3128 41.1753 32.2684 40.6227 32.3445C38.5024 32.6737 36.5224 34.172 36.4071 36.312C35.3143 36.7358 34.3575 37.5756 33.7488 38.8684C33.676 39.0317 33.609 39.2065 33.542 39.3814C31.7786 40.2577 30.1573 41.955 30.1317 43.7846C29.6311 44.1185 29.21 44.5781 28.9342 45.1917C28.6909 45.8007 28.6066 46.421 28.6336 47.0384C27.7597 47.5479 27.0561 48.3322 26.6821 49.3153C26.2236 50.4964 26.2495 51.7972 26.6193 53.0092C25.8636 53.5356 25.297 54.2927 25.0959 55.2976C25.0414 55.5038 25.0079 55.7113 24.9825 55.9177C22.2605 56.3877 20.7846 58.6903 21.0729 61.0853C20.0411 62.0721 19.2848 63.406 18.9057 64.7128C18.7977 65.4316 18.8498 66.1408 19.0134 66.818C18.2129 67.7108 17.7371 68.886 17.834 70.1315C17.8501 70.8497 18.0568 71.5086 18.3703 72.1321C17.7732 72.5166 17.266 73.0129 16.9829 73.6937C16.178 75.4567 16.6356 77.4268 17.7196 78.9545C16.7775 80.3223 16.2271 82.0088 17.2478 83.4376C17.333 83.5749 17.4344 83.71 17.5393 83.8405C16.7379 85.3877 17.0243 87.4683 18.0068 88.8899C18.6273 89.6078 19.368 90.2056 20.1672 90.7167C19.9449 91.298 19.8121 91.867 19.8048 92.3856C19.8679 94.1367 21.2739 95.7774 22.9837 96.7677C23.5446 98.9471 26.0636 100.07 28.1637 100.046C29.573 99.9059 30.9673 99.2668 31.9587 98.2566C32.7921 98.8665 33.6536 99.4393 34.5303 99.9729C37.674 101.904 40.9942 103.824 44.6393 104.585C50.3181 105.832 56.4093 104.691 61.1936 101.366C63.7661 99.7199 65.7539 97.3758 67.4389 95.7195C67.4997 95.62 67.5362 95.5239 67.5552 95.4219C68.1547 96.6478 68.7925 97.8519 69.5676 98.9708C70.2236 99.7956 70.9169 100.59 71.6323 101.366C71.9279 101.648 72.2281 101.934 72.5272 102.211C72.4791 111.907 72.8486 122.771 71.5757 133.315C71.4315 134.523 73.2866 134.764 73.4448 133.538C74.4975 124.552 74.4736 115.777 74.3681 107.312C74.3607 106.265 74.3776 105.215 74.3957 104.173C75.9106 105.613 77.4792 106.991 79.0793 108.328C81.58 110.31 84.0932 112.354 86.7128 114.208C86.7618 114.384 86.8712 114.547 87.0412 114.668C87.1799 114.773 87.3186 114.878 87.4526 114.98C87.5715 115.332 87.8999 115.552 88.2571 115.59C91.3951 117.961 94.5925 120.283 98.0029 122.256C100.885 123.793 103.523 125.72 106.384 127.284C107.737 127.997 109.08 128.731 110.439 129.426C111.062 129.709 111.691 130.156 112.404 130.07C112.79 130.021 113.121 129.748 113.253 129.382C113.539 128.842 113.575 128.746 114.078 127.89C114.183 127.714 114.297 127.524 114.411 127.326C115.283 128.191 116.248 129.09 117.529 130.214C118.385 130.986 119.288 131.744 120.386 132.139C122.751 132.869 125.234 133.099 127.675 133.471C129.798 133.858 131.95 133.88 134.078 133.571C132.989 135.228 131.519 137.426 131.964 139.51C132.177 141.033 133.945 141.572 135.258 141.155C136.18 140.718 136.815 139.831 137.493 139.1C138.691 137.424 141.212 135.135 140.277 132.912C139.957 132.182 139.292 131.656 138.604 131.287C138.115 131.048 137.526 130.798 136.972 130.924C136.59 131.034 136.381 131.291 136.308 131.578C136.206 131.53 136.094 131.496 135.979 131.474C135.427 131.252 134.781 131.586 134.203 131.628C131.555 132.154 129.925 131.894 127.142 131.495C124.913 131.218 121.213 130.597 120.559 130.181C119.028 129.225 117.77 127.878 116.421 126.681C116.479 126.739 116.541 126.801 116.599 126.859C116.155 126.494 115.797 125.968 115.331 125.622C115.975 124.399 116.576 123.202 116.886 122.658C117.334 121.884 118.336 121.159 117.896 120.163C116.859 118.641 115.479 117.341 114.233 115.989C113.277 115.031 112.444 114.334 111.684 113.627C112.165 113.781 112.664 113.948 113.181 114.121C115.427 114.921 117.733 115.577 119.925 116.518C120.586 116.807 121.294 117.199 121.336 117.238C121.714 117.488 122.165 117.691 122.615 117.501C123.467 116.982 123.116 116.753 123.532 116.042C124.45 114.11 124.75 113.253 126.023 111.728C126.288 111.426 126.551 111.117 126.811 110.804C129.349 114.263 133.302 116.721 137.631 116.974C139.062 117.17 140.507 117.319 141.953 117.36C141.096 118.741 140.084 120.086 139.85 121.691C139.908 126.569 143.627 126.09 145.935 122.795C146.724 121.784 147.616 120.75 147.842 119.444C148.328 117.315 147.117 115.531 144.828 115.776C144.478 115.7 144.159 115.814 143.934 116.015C143.897 115.987 143.864 115.963 143.82 115.944C143.766 115.852 143.692 115.767 143.605 115.7C143.081 115.354 142.38 115.558 141.781 115.475C139.669 115.389 137.562 115.087 135.47 114.754C134.407 114.457 132.366 113.558 131.04 112.503C129.704 111.49 129.219 110.671 127.99 109.324C129.049 107.907 129.976 106.397 130.608 104.728C130.978 103.75 131.699 102.644 131.343 101.741C131.358 101.519 131.306 101.29 131.161 101.107C131.146 101.089 131.119 101.076 131.104 101.057C131.094 101.013 131.088 100.972 131.075 100.933C130.838 100.448 130.277 100.219 129.885 99.8711C128.96 99.1703 128.036 98.4694 127.092 97.7836C125.774 96.8719 124.445 95.966 123.087 95.097C122.911 94.6286 122.288 94.3748 121.853 94.1324C121.584 93.9872 121.316 93.8419 121.051 93.6921C120.234 93.2331 119.426 92.7731 118.599 92.3361C117.299 91.6125 115.984 90.9073 114.668 90.2149C113.633 89.6493 112.576 89.0951 111.468 88.5686C110.776 88.1752 109.979 87.7094 109.152 87.1773C108.651 86.9067 108.195 86.3939 107.587 86.4569C107.442 86.4852 107.314 86.5484 107.205 86.6255C102.156 83.0391 96.4675 80.5181 90.7292 78.1777C92.6146 77.0445 94.4056 75.7379 96.0177 74.2737C98.2456 71.9297 99.9583 69.1515 101.99 66.6441C104.96 62.5624 106.984 57.6254 106.527 52.5041C106.42 49.4382 105.989 46.3672 104.869 43.4946C103.622 40.4821 102.276 37.4749 100.435 34.7761C99.6929 33.6898 98.9547 32.5989 98.1827 31.5334C97.845 31.0954 97.5173 30.5194 96.9178 30.4363C96.8761 30.4338 96.8389 30.4348 96.8018 30.4358C96.8136 30.401 96.8219 30.3709 96.829 30.3326C96.8692 29.9627 96.662 29.631 96.5884 29.2768C96.2133 27.7549 95.7409 26.1885 94.4593 25.1807C93.6182 24.485 92.5388 23.8634 91.4176 24.171L91.3977 24.2068ZM136.719 132.64C136.888 132.753 137.1 132.819 137.351 132.805C137.646 132.934 138.415 133.226 138.609 133.854C138.613 133.878 138.616 133.902 138.619 133.927C138.618 133.948 138.62 133.964 138.613 134.002C138.606 134.04 138.608 134.057 138.599 134.079C138.521 134.325 138.426 134.566 138.312 134.793C138.082 135.317 136.544 137.347 135.602 138.417C135.175 138.865 135.373 138.68 134.718 139.304C134.677 139.339 134.635 139.365 134.593 139.392C134.524 139.397 134.459 139.406 134.393 139.407C134.318 139.409 134.244 139.411 134.17 139.413C134.149 139.412 134.12 139.411 134.073 139.405C134.061 139.403 134.048 139.401 134.031 139.395C133.978 139.377 133.933 139.35 133.885 139.328C133.862 139.31 133.843 139.296 133.825 139.282C133.814 139.238 133.797 139.203 133.793 139.171C133.772 139.083 133.752 138.994 133.74 138.905C133.732 138.848 133.723 138.783 133.723 138.725C133.873 137.259 134.639 136.201 135.661 134.545C135.997 133.919 136.53 133.312 136.727 132.63L136.719 132.64ZM144.023 117.51C144.48 117.791 145.112 117.6 145.636 117.706C145.658 117.716 145.679 117.717 145.701 117.726C145.848 117.859 146.269 117.967 145.915 119.461C145.56 120.429 143.174 123.614 142.137 123.476C142.137 123.476 142.128 123.469 142.123 123.465C142.123 123.465 142.118 123.462 142.114 123.458C142.114 123.458 142.118 123.462 142.123 123.465C142.019 123.314 141.976 123.208 141.786 122.642C141.352 121.658 142.507 120.058 143.878 117.75C143.917 117.67 143.968 117.592 144.019 117.507L144.023 117.51ZM67.2804 36.6741C66.8288 36.492 66.376 36.3308 65.9126 36.1834C65.911 36.0511 65.9128 35.9142 65.9345 35.7704C66.0128 35.1965 66.1684 34.703 66.3805 34.2887C66.9183 35.0967 67.2329 35.9685 67.2804 36.6741ZM68.5274 34.2126C68.3162 33.7614 68.0585 33.3331 67.7635 32.9348C68.9945 32.4631 70.3926 33.3844 70.5308 36.1024C70.6096 36.7955 70.5915 37.6261 70.5382 38.532C70.0759 38.1815 69.5925 37.8589 69.0917 37.5593C69.298 36.4419 68.9806 35.2185 68.5274 34.2126ZM65.0511 32.8735C64.4843 33.6886 64.1358 34.6765 64.0658 35.6716C64.0229 35.661 63.98 35.6503 63.9326 35.6361C64.0164 34.4404 63.7 33.2251 63.3043 32.0954C63.9499 32.2135 64.5356 32.4973 65.0476 32.8781L65.0511 32.8735ZM58.2298 29.2827C59.0699 29.49 59.8483 29.9708 60.494 30.7515C60.3053 30.9141 60.1361 31.0989 59.9947 31.3047C59.6032 30.4766 58.9965 29.7693 58.2298 29.2827ZM61.4785 32.4585C61.6882 32.9887 61.8569 33.5824 61.9741 34.2536C62.036 34.6426 62.0657 34.9491 62.0783 35.2206C62.0482 35.2124 62.018 35.2041 61.989 35.2039C61.7202 35.1457 61.4454 35.1049 61.1776 35.0548C60.9451 34.238 61.0151 33.2428 61.4832 32.462L61.4785 32.4585ZM56.1366 30.4404C56.8707 30.5091 58.0485 31.3946 58.1277 31.7895C58.8807 33.1682 59.0521 34.1425 58.9874 34.7559C58.4516 34.7138 57.9192 34.696 57.3854 34.6991C56.3306 33.5938 55.9179 31.7086 56.1366 30.4404ZM48.1544 31.7713C48.2013 31.6613 48.2576 31.5584 48.3253 31.4786C48.7463 31.048 50.4426 30.3466 51.7924 31.1876C51.6178 31.7541 51.5113 32.394 51.4926 33.1005C51.4288 33.7801 51.6636 34.6132 52.0775 35.3636C51.9892 35.3841 51.8963 35.401 51.8091 35.4295C51.0321 33.9962 49.6617 32.6445 48.1498 31.7678L48.1544 31.7713ZM53.4025 32.8375C53.8366 33.4941 54.1936 34.2524 54.319 34.9225C54.2296 34.9348 54.1367 34.9517 54.0473 34.9641C53.8328 34.6996 53.6235 34.3226 53.4394 33.7972C53.4239 33.6545 53.3927 33.3979 53.3761 33.247C53.3849 33.1008 53.3949 32.9628 53.4107 32.8364L53.4025 32.8375ZM45.674 34.9285C45.1665 34.34 44.5869 33.7697 43.9442 33.3116C44.3138 32.9585 44.6942 32.7446 45.0498 32.6501C45.1333 32.6552 45.1785 32.6531 45.1983 32.6462C45.2528 32.6511 45.3108 32.6514 45.3653 32.6563C45.4244 32.6648 45.4719 32.6789 45.5311 32.6873C45.5126 32.6733 45.5578 32.6712 45.6586 32.7112C45.676 32.7171 45.6922 32.7149 45.7096 32.7207C45.6887 32.7195 45.6841 32.716 45.6713 32.7136C45.6806 32.7206 45.6887 32.7195 45.7061 32.7254C45.8057 32.7572 45.8994 32.8064 46.0002 32.8464C45.9603 33.8498 46.1682 34.9391 46.5586 35.9702C46.2625 35.5638 45.9476 35.2014 45.6648 34.9215L45.674 34.9285ZM47.9832 33.9563C48.9067 34.649 49.5857 35.2802 50.0241 35.9983C49.63 36.1436 49.2463 36.3041 48.8638 36.4727C48.4273 35.8289 48.1107 34.8829 47.9832 33.9563ZM50.5881 37.8088C50.5782 37.9178 50.5646 38.0895 50.5465 38.2286C50.536 38.2425 50.5336 38.2552 50.5277 38.2726C50.5277 38.2726 50.5242 38.2772 50.5207 38.2818C50.4974 38.2933 50.4742 38.3048 50.4463 38.3128C50.3098 38.2239 50.1874 38.1165 50.0649 38.0092C50.2417 37.9393 50.4184 37.8694 50.5916 37.8042L50.5881 37.8088ZM38.4477 35.675C39.1961 34.7645 40.1387 34.2124 41.1237 34.2092C40.8147 34.9723 40.6691 35.7791 40.7209 36.5462C39.9604 36.1955 39.148 36.0092 38.3428 35.9958C38.3668 35.8393 38.4011 35.7269 38.4524 35.6785L38.4477 35.675ZM42.9188 34.8565C42.9974 34.9161 43.076 34.9756 43.1476 35.0445C43.8947 35.749 45.0375 36.8919 45.6064 37.9564C45.1039 38.216 44.6071 38.4873 44.1171 38.7784C43.0373 38.0327 42.2003 36.5248 42.6531 35.5432C42.7309 35.2964 42.8156 35.0694 42.9107 34.8576L42.9188 34.8565ZM39.0596 39.9385C38.745 39.2779 38.5423 38.5273 38.4309 37.8387C38.9553 37.8576 39.5289 37.994 40.1447 38.286C40.7334 38.6521 41.4816 39.3648 41.9994 40.2086C41.5312 40.5671 41.0755 40.9569 40.6384 41.3608C40.2026 40.8121 39.6679 40.3268 39.0631 39.9338L39.0596 39.9385ZM42.6197 42.1273C42.6199 42.3095 42.5993 42.4904 42.5624 42.6735C42.5401 42.7221 42.506 42.8055 42.4848 42.8622C42.4638 42.89 42.4463 42.9131 42.4288 42.9362C42.3845 42.9754 42.3402 43.0147 42.2948 43.0458C42.2855 43.0388 42.2774 43.0399 42.2693 43.041C42.2693 43.041 42.2693 43.041 42.2647 43.0375C42.1257 42.9904 41.9706 42.9165 41.8086 42.8229C42.0708 42.5921 42.3447 42.3557 42.6313 42.1216L42.6197 42.1273ZM36.6045 38.3469C36.6417 38.5571 36.687 38.7662 36.7359 38.9706C36.4971 38.9207 36.2549 38.8754 36.0113 38.8509C36.1875 38.6569 36.3879 38.4885 36.5998 38.3434L36.6045 38.3469ZM34.8993 41.6913C34.9159 41.3909 34.9534 41.0918 35.021 40.8009C35.7042 40.6199 36.4222 40.6618 37.0942 41.062C37.3016 41.1246 37.4949 41.2056 37.6813 41.2959C38.0459 41.9289 38.4826 42.5147 38.9998 43.0232C38.6287 43.4553 38.276 43.9013 37.9372 44.3579C37.3266 43.7422 36.4987 43.4131 35.6167 43.2323C35.1807 42.7126 34.8911 42.1728 34.8993 41.6913ZM33.0484 41.9917C33.0689 42.2912 33.122 42.5861 33.2156 42.8755C33.2293 42.915 33.2558 42.9569 33.2777 42.9953C32.9296 42.9936 32.5757 43.0092 32.2262 43.0573C32.4252 42.6986 32.7137 42.3277 33.0484 41.9917ZM32.4069 44.9413C33.1023 44.8497 33.9064 44.8549 34.7063 44.9808C35.2407 45.5242 35.8682 46.0216 36.5275 46.4195C36.1872 46.9549 35.8607 47.5009 35.554 48.04C34.4724 47.4022 33.1032 46.0586 32.4069 44.9413ZM30.7539 45.7775C30.8771 45.98 31.0129 46.1849 31.1534 46.3933C30.9411 46.3853 30.7311 46.3935 30.5233 46.418C30.5651 46.1803 30.6428 45.9626 30.7539 45.7775ZM30.8132 48.2828C31.5212 48.2226 32.2918 48.4063 33.0226 48.902C33.887 49.5863 34.1234 49.8601 34.0774 50.6987C33.9943 50.8468 33.9123 51.003 33.8326 51.1465C33.0631 51.2111 31.5192 49.9826 30.812 48.2747L30.8132 48.2828ZM28.1767 51.3289C28.1282 50.375 28.4896 49.5716 29.0853 49.0259C29.6173 50.2735 30.5305 51.4024 31.5345 52.2289C31.6547 52.3201 31.7738 52.403 31.8999 52.4768C30.8136 52.0756 29.5238 52.0006 28.3553 52.265C28.2675 51.9583 28.203 51.64 28.1767 51.3289ZM29.2292 54.0411C30.3078 53.9051 31.3079 54.1317 31.8708 54.5511C31.659 54.9074 31.4437 55.2683 31.2272 55.6211C30.5494 55.4494 29.8133 54.8551 29.2292 54.0411ZM27.3983 54.728C27.8795 55.4857 28.4979 56.1583 29.2217 56.6632C28.516 56.2594 27.7237 56.0082 26.9097 55.9008C27.0027 55.4035 27.1639 54.9797 27.3983 54.728ZM27.222 58.3795C27.1185 58.1991 27.0453 57.9981 26.979 57.7877C27.7579 57.9413 28.5113 58.3304 29.1887 59.0404C28.9745 59.4094 28.7603 59.7784 28.5473 60.1556C28.1329 59.7323 27.7424 59.1816 27.2185 58.3841L27.222 58.3795ZM24.7892 57.8822C24.8856 57.8606 24.982 57.8391 25.0784 57.8175C25.2294 58.4634 25.485 59.0866 25.8266 59.6731C25.5208 59.5868 25.2066 59.5307 24.8783 59.5221C24.2078 59.4943 23.5703 59.6152 22.9773 59.85C23.1418 58.9992 23.7139 58.2828 24.7973 57.8811L24.7892 57.8822ZM23.2435 61.8133C24.1651 61.289 25.182 61.1862 26.0593 61.8439C26.4748 62.2753 26.7755 62.6852 26.9929 63.0611C26.6811 63.6837 26.3774 64.3052 26.0958 64.9361C26.039 64.9149 25.9915 64.9008 25.9337 64.8715C24.6282 63.9912 23.7068 62.8924 23.2435 61.8133ZM20.7275 65.1328C20.9237 64.4225 21.2951 63.7213 21.7669 63.1181C21.837 63.2368 21.9037 63.3601 21.9866 63.4812C22.4382 64.1146 22.9373 64.7623 23.5041 65.3302C23.3894 65.3087 23.2746 65.2872 23.1564 65.2704C22.3089 65.1304 21.4624 65.2676 20.7043 65.5956C20.7039 65.4424 20.7035 65.2893 20.724 65.1374L20.7275 65.1328ZM21.2298 67.4279C21.3113 67.3878 21.3834 67.3406 21.4706 67.312C22.5775 66.8408 23.8961 67.1851 24.9256 67.8052C24.7255 68.3669 24.53 68.9321 24.3577 69.5149C24.3034 69.6921 24.2619 69.8717 24.2123 70.0525C23.1208 69.5237 21.9131 68.6009 21.2345 67.4315L21.2298 67.4279ZM26.4185 69.2353C26.7071 69.767 26.679 70.2553 26.1486 70.5229C26.1126 70.532 26.0627 70.5306 26.0175 70.5327C26.0813 70.3044 26.137 70.0773 26.2054 69.8526C26.2714 69.6406 26.3432 69.4402 26.4185 69.2353ZM19.8192 70.8064C19.6308 70.2195 19.6692 69.5061 19.9243 68.8623C20.4562 69.6586 21.1616 70.3607 21.9604 70.9298C21.3196 70.9973 20.69 71.1461 20.0902 71.3612C19.9949 71.1797 19.903 70.9936 19.8239 70.8099L19.8192 70.8064ZM25.4437 73.6137C25.4437 73.6137 25.4576 73.6242 25.4622 73.6277L25.4576 73.6242C25.5547 73.6978 25.5627 73.7257 25.5026 73.6801C25.4992 73.6557 25.4946 73.6522 25.4922 73.665C25.5015 73.672 25.4968 73.6685 25.498 73.6766C25.498 73.6766 25.498 73.6766 25.4887 73.6696C25.4887 73.6696 25.4887 73.6696 25.4898 73.6777C25.4806 73.6707 25.4748 73.6591 25.4634 73.6358C25.4541 73.6288 25.4449 73.6218 25.4437 73.6137C25.4667 73.6602 25.4908 73.7149 25.5068 73.7706C25.5135 73.8194 25.5213 73.8763 25.5373 73.9321C25.5371 74.4124 25.5862 74.3477 25.4482 74.789C25.4052 74.8074 25.3587 74.8303 25.3156 74.8487C25.2366 74.8761 25.1565 74.8955 25.0728 74.9194C25.1448 74.4499 25.226 73.9873 25.3154 73.5237C25.3432 73.5447 25.3755 73.5693 25.4033 73.5903C25.4171 73.6008 25.4217 73.6043 25.4356 73.6148C25.4217 73.6043 25.4125 73.5973 25.401 73.574C25.4241 73.5915 25.4345 73.6067 25.4449 73.6218L25.4437 73.6137ZM21.1855 72.9702C21.9661 72.7757 22.7821 72.7172 23.5334 72.8208C23.412 73.4131 23.308 74.0113 23.2168 74.6118C22.5108 74.2659 21.8025 73.6927 21.1855 72.9702ZM18.6245 76.685C18.2461 75.8013 18.5604 74.2343 19.0538 73.9386C19.1668 73.8568 19.2809 73.7831 19.3984 73.7048C19.7247 74.1195 20.0696 74.5192 20.3995 74.9003C20.8735 75.4561 21.632 75.9728 22.4725 76.3333C21.1977 76.2769 19.9176 76.5732 18.9836 77.4886C18.8271 77.2244 18.7032 76.9558 18.6199 76.6815L18.6245 76.685ZM24.8603 80.2032C24.8603 80.2032 24.8647 80.2647 24.8656 80.3019C24.869 80.3262 24.8723 80.3506 24.87 80.3634C24.877 80.3541 24.8747 80.3379 24.8806 80.3205C24.8782 80.3332 24.8723 80.3506 24.87 80.3634C24.8698 80.3924 24.8663 80.397 24.8687 80.3842C24.8617 80.3935 24.8604 80.4144 24.8534 80.4236C24.8604 80.4144 24.8617 80.3935 24.8676 80.3761C24.863 80.3726 24.8607 80.3564 24.862 80.3355C24.8594 80.3772 24.8523 80.4155 24.844 80.4456C24.837 80.4549 24.8381 80.463 24.8357 80.4757C24.7894 80.4697 24.7395 80.4683 24.6931 80.4622C24.6869 80.0863 24.6807 79.7103 24.6907 79.3322C24.7836 79.5554 24.7995 79.6112 24.8659 80.2438C24.8659 80.2438 24.8659 80.2438 24.8682 80.2601C24.8694 80.2392 24.8672 80.223 24.8673 80.194L24.8603 80.2032ZM20.1935 78.9079C20.4813 78.6529 20.7793 78.4711 21.1316 78.3232C21.8364 78.4498 22.3881 78.5478 22.8298 78.6277C22.8057 79.2646 22.7908 79.9084 22.8038 80.5443C21.9401 80.1953 20.9823 79.615 20.1935 78.9079ZM24.7908 82.7055C25.0091 82.6671 25.2217 82.6172 25.4425 82.5371C25.4926 82.5095 25.538 82.4784 25.5834 82.4473C25.9079 82.5186 26.2032 82.6187 26.4694 82.7477C26.4246 83.3542 25.7433 84.301 25.0018 84.5687C24.9901 84.5745 24.9739 84.5767 24.9587 84.5871C24.8944 83.9997 24.8429 83.4147 24.7994 82.8285C24.7938 82.7879 24.7964 82.7461 24.7908 82.7055ZM18.5518 81.8709C18.5532 81.821 18.5487 81.7885 18.55 81.7676C18.5562 81.6923 18.5542 81.618 18.5685 81.5415C18.5898 81.4557 18.6005 81.4129 18.5994 81.4047C18.6064 81.3955 18.6088 81.3827 18.6112 81.37C18.6444 81.2205 18.9048 80.6753 19.0466 80.3825C19.1483 80.4596 19.25 80.5367 19.3518 80.6138C19.6637 80.8648 20.0012 81.1206 20.3574 81.3615C19.7885 81.651 19.2577 82.0056 18.7764 82.4197C18.637 82.2194 18.5533 82.0322 18.5518 81.8709ZM22.6499 82.5241C22.7321 82.55 22.8225 82.5748 22.9083 82.5961C22.9548 83.2647 23.0024 83.9413 23.0733 84.6065C22.8031 84.5692 22.511 84.5224 22.1898 84.4756C21.5764 84.411 20.8309 84.0788 20.1717 83.652C20.8671 83.109 21.7427 82.7318 22.6534 82.5194L22.6499 82.5241ZM26.827 90.2469C26.827 90.2469 26.8235 90.2516 26.82 90.2562C26.7337 90.1107 26.3241 89.2106 26.1881 89.0347C25.9641 88.5811 25.7797 88.1137 25.615 87.6395C26.2166 87.5277 27.1383 87.4256 27.6947 87.5271C28.8074 87.759 28.7952 87.6406 29.2471 88.216C29.2482 88.2242 29.2505 88.2404 29.2516 88.2485C29.2478 88.3112 29.2405 88.3784 29.2321 88.4376C29.2096 88.5152 29.1732 88.6113 29.1367 88.7074C29.083 88.7686 28.9849 88.8981 28.9289 88.9721C28.6165 89.2594 28.2591 89.4908 27.9006 89.714C27.8354 89.752 27.6981 89.8371 27.591 89.9016C27.3154 90.0348 27.0781 90.1461 26.856 90.2471C26.8353 90.2168 26.8192 90.19 26.7984 90.1598C26.8179 90.2109 26.8259 90.2388 26.8327 90.2586L26.827 90.2469ZM21.7107 92.6946C21.6212 92.4957 21.6532 92.1269 21.8122 91.6578C22.8515 92.169 23.977 92.6144 25.1538 92.5601C24.3631 93.1327 23.6923 93.8544 23.3017 94.6867C23.2693 94.6621 23.237 94.6376 23.2046 94.6131C22.1088 93.5714 22.1603 93.9453 21.7188 92.6935L21.7107 92.6946ZM30.4515 97.1142C30.0249 97.5042 29.4303 97.8469 28.5739 98.0932C27.9694 98.3338 27.0167 98.1213 26.2193 97.7425C26.2935 97.7405 26.3735 97.7502 26.4467 97.7401C27.614 97.7078 28.8483 97.2894 29.7814 96.5481C29.9986 96.7418 30.2192 96.9309 30.448 97.1188L30.4515 97.1142ZM28.3958 95.2358C28.2864 95.313 28.1723 95.3867 28.0652 95.4511C26.8643 95.9311 25.9089 96.0295 24.9187 95.6648C25.2298 94.9471 26.0184 94.118 26.9444 93.6261C27.4022 94.1842 27.8902 94.7216 28.3958 95.2358ZM19.2813 87.4101C18.9703 86.5047 18.8242 85.8044 19.0131 85.1614C20.2621 85.9625 21.8582 86.4881 23.3649 86.5746C23.3672 86.5909 23.3729 86.6025 23.3751 86.6187C22.5065 87.2269 21.6853 88.0895 21.0505 89.0423C20.123 88.4412 19.3396 87.8037 19.2813 87.4101ZM24.042 90.56C23.7465 90.4889 23.2533 90.2752 22.6967 89.9916C22.9316 89.6528 23.206 89.3004 23.5258 88.9458C23.5328 88.9365 23.5328 88.9365 23.5398 88.9273C23.5293 88.9412 23.5223 88.9504 23.5025 88.9573C23.513 88.9434 23.5281 88.933 23.5433 88.9227C23.7032 88.7309 23.6704 88.7934 23.5759 88.8892C23.6925 88.7738 23.8149 88.67 23.9361 88.558C24.2236 89.2928 24.5646 89.9953 24.9406 90.6806C24.6738 90.6676 24.3827 90.629 24.0339 90.5611L24.042 90.56ZM29.3317 93.0407C29.3489 93.0756 29.3615 93.107 29.3706 93.143C29.391 93.2313 29.4329 93.445 29.4471 93.6087C29.4448 93.6214 29.4435 93.6423 29.4341 93.6643C29.2437 93.4545 29.0557 93.2319 28.862 92.9977C28.9826 93.0018 29.1299 93.0188 29.3236 93.0419L29.3317 93.0407ZM66.0445 94.5243C64.8384 95.5682 63.3272 97.2835 62.7304 97.8211C61.0149 99.3161 59.1546 100.541 57.6566 101.269C51.5994 104.161 45.2686 103.803 39.2079 100.534C37.2695 99.5378 35.0984 98.2342 32.9934 96.6897C33.1098 96.3921 33.2077 96.0805 33.2616 95.7501C33.3731 95.0267 32.9239 94.3805 32.7127 93.7181C32.4364 93.0646 31.7566 93.0298 31.3131 93.3269C31.2222 92.0351 30.4631 91.1831 29.2104 91.1072C29.7623 90.7248 30.2681 90.2783 30.6768 89.7583C32.2662 86.8066 29.4043 85.5982 26.8448 85.5945C27.8598 84.726 28.6164 83.334 28.2472 82.006C27.9581 81.3502 27.3427 81.0001 26.6673 80.7867C26.8534 79.7922 26.5807 78.6537 26.057 77.8273C25.7424 77.4069 25.3112 77.1019 24.8413 76.8767C24.8436 76.864 24.8425 76.8558 24.8449 76.8431C25.9681 76.8209 26.9452 76.3386 27.3216 75.1025C27.5282 74.1673 27.4993 72.9953 26.7604 72.2896C28.2992 71.7672 28.9097 69.886 28.119 68.4132C27.8765 67.9455 27.5619 67.5251 27.1925 67.1577C27.236 67.0524 27.2794 66.947 27.3229 66.8416C28.3824 66.5674 29.2374 65.6795 29.2704 64.4452C29.2598 64.0077 29.1866 63.5665 29.0612 63.1365C29.1174 63.0336 29.169 62.9271 29.2252 62.8241C29.9927 63.1656 30.8413 63.3138 31.5192 62.794C32.7176 61.6642 32.2532 60.1257 31.4439 58.879C31.7189 58.4105 31.9986 57.9455 32.2782 57.4805C33.8312 57.1507 34.5216 55.7596 34.0838 54.4742C34.4606 53.8426 34.8246 53.2086 35.1887 52.5747C35.6102 52.2682 35.905 51.7928 35.9814 51.1447C36.0177 51.0776 36.054 51.0104 36.0938 50.9387C36.2179 50.727 36.3514 50.4933 36.4977 50.233C36.6775 50.2455 36.8515 50.2464 37.0314 50.2299C38.5891 49.8747 39.257 48.5902 39.2035 47.2394C40.0123 47.2192 40.7715 46.8993 41.3752 46.1412C41.6568 45.7505 41.7878 45.3184 41.8377 44.8685C42.2792 44.9775 42.7283 44.9612 43.1728 44.7012C44.5029 43.926 44.693 42.3595 44.3337 40.9224C45.0149 41.1185 45.7423 41.1384 46.4628 40.8984C47.5056 40.5023 47.8654 39.7778 47.8383 38.9493C47.9628 38.8907 48.0918 38.8357 48.2163 38.7772C48.7088 39.347 49.261 39.8093 49.835 40.0988C50.6491 40.4173 51.6026 40.0045 52.0957 39.3155C52.4922 38.677 52.5067 37.88 52.4234 37.1544C52.6059 37.0962 52.7778 37.0518 52.9219 37.0154C53.0949 36.9792 53.261 36.9522 53.4259 36.9171C54.1312 37.4079 54.9483 37.5687 55.7513 37.0855C55.8588 36.934 55.9432 36.7651 56.016 36.6019C56.2423 36.5914 56.4686 36.5809 56.6914 36.5751C57.015 36.8204 57.3632 37.0333 57.7371 37.193C58.5319 37.6426 59.3685 37.4032 59.9712 36.8482C60.9262 38.1908 62.5584 38.9184 63.4397 37.4099C63.7399 37.4846 64.0411 37.5673 64.3388 37.6547C64.5758 38.2929 64.9545 38.8784 65.5114 39.3441C66.3029 39.9805 67.4627 39.8332 68.2085 39.2047C68.9916 39.66 69.7095 40.1823 70.3609 40.7634C70.3363 41.0359 70.3117 41.3084 70.2872 41.581C70.2092 42.5482 69.5534 44.1913 71.1268 44.161C71.8083 44.0879 71.9802 43.352 72.0214 42.779C72.0357 42.7025 72.0419 42.6271 72.0516 42.5471C73.3983 44.2085 74.4789 46.1922 75.4515 48.4143C77.021 51.664 77.2978 54.5161 77.8946 58.3096C78.7005 63.652 78.3911 67.9305 77.0548 73.3525C77.0478 73.3617 77.0465 73.3826 77.0406 73.4C76.839 73.3491 76.6363 73.29 76.4311 73.2437C76.1865 73.2112 75.9401 73.2865 75.7491 73.4329C75.2646 73.7936 75.2676 74.5675 75.752 74.9273C76.1004 75.0822 76.3344 75.1576 76.5279 75.2097C75.8886 77.484 75.0659 80.2597 74.011 82.583C72.742 85.0351 70.1945 88.3961 68.1853 91.3062C68.0472 91.5364 67.8277 91.8068 67.6012 92.0864C66.9289 91.9554 66.2557 92.6899 66.5644 93.3679C66.74 93.7412 66.9156 94.1145 67.0901 94.4797C66.7825 94.2902 66.3824 94.2418 66.0515 94.515L66.0445 94.5243ZM108.712 89.6313C108.949 89.6731 109.189 89.7311 109.432 89.7846C109.535 89.8408 109.63 89.8981 109.717 89.9566C110.862 90.6063 112.175 91.2662 113.467 91.9039C114.685 92.6596 115.954 93.5409 117.238 94.4489C117.02 95.3029 116.491 96.2122 116.774 97.0966C117.601 98.5893 119.249 97.2321 119.39 95.9705C119.628 96.1364 119.862 96.307 120.096 96.4695C122.734 98.2801 125.528 99.8374 128.198 101.606C128.633 101.907 129.06 102.208 129.491 102.513C129.366 102.841 129.22 103.159 129.09 103.484C128.173 105.722 127.656 106.749 126.196 108.598C125.178 109.77 124.199 110.964 123.371 112.258C123.344 111.91 123.118 111.564 122.857 111.323C122.188 110.525 120.911 110.241 120.018 110.824C118.797 111.878 120.242 113.323 121.255 113.879C121.578 114.029 121.875 114.291 122.208 114.427C122.161 114.537 122.108 114.635 122.066 114.749C121.992 114.875 121.889 115.117 121.783 115.371C121.613 115.279 121.456 115.189 121.39 115.161C119.297 114.128 117.042 113.503 114.845 112.733C113.88 112.431 112.915 112.071 111.936 111.758C111.86 111.744 111.776 111.71 111.702 111.683C111.063 111.489 110.417 111.313 109.761 111.209C109.814 111.14 109.867 111.078 109.925 111.012C109.711 110.967 109.482 110.924 109.215 110.882C108.748 111.249 108.357 111.717 108.099 112.249C108.224 112.468 108.302 112.702 108.344 112.944C108.375 112.903 108.407 112.861 108.44 112.828C108.808 113.456 109.463 114.099 109.857 114.492C112.053 116.52 114.514 118.873 115.963 120.736C115.143 121.606 113.7 124.931 112.743 126.463C112.848 126.324 112.262 127.27 111.835 128.045C110.35 127.248 107.128 125.679 105.718 124.792C104.418 123.953 103.109 123.135 101.791 122.339C98.1135 120.804 94.7329 118.686 91.784 115.854C92.2264 115.789 92.6689 115.695 93.0403 115.445C93.6843 114.979 93.5737 113.905 92.8116 113.634C92.2963 113.44 91.7445 113.582 91.2561 113.794C90.9189 113.931 90.5734 114.128 90.2936 114.382C90.1444 114.291 89.9998 114.203 89.8541 114.107C91.7801 111.374 93.9268 108.801 95.9082 106.11C96.6279 105.141 97.2573 104.119 97.8948 103.095C98.6682 103.871 99.3557 104.894 100.447 105.183C101.289 105.311 101.91 104.406 101.659 103.641C101.455 102.97 100.94 102.419 100.383 102.012C100.055 101.705 99.6111 101.667 99.2645 101.826C99.1526 101.705 99.0301 101.598 98.8843 101.531C99.2538 100.966 99.636 100.404 100.046 99.8635C101.718 97.5712 103.345 95.252 105.188 93.0894C106.092 91.8967 106.746 90.5437 107.554 89.2854C107.711 89.4046 107.87 89.5318 108.023 89.6556C108.236 89.6056 108.462 89.5952 108.705 89.6405L108.712 89.6313ZM103.918 87.5626C104.588 87.8305 105.262 88.0938 105.931 88.3536C105.247 89.4292 104.667 90.5691 103.941 91.6131C101.485 94.6428 99.1181 97.7553 96.9748 101.015C94.7695 104.847 91.8624 108.183 89.2455 111.731C88.9242 112.165 88.6111 112.597 88.299 113.038C86.8643 112.03 85.4287 110.957 83.9609 109.829C80.562 107.217 77.1214 104.332 74.3984 101.577C74.4089 101.112 74.4055 100.636 74.0171 100.342C73.8219 100.186 73.6005 100.142 73.3764 100.169C73.2285 100.057 73.0547 99.9979 72.8761 99.9935C71.2444 98.2472 70.2791 96.8605 69.3655 94.9159C69.1691 94.5123 68.9809 94.1076 68.788 93.6994C69.1185 93.2729 69.387 92.7267 69.7055 92.393C70.4638 91.3445 71.177 90.2691 71.9307 89.2171C73.5059 87.0044 75.1334 84.7804 76.1997 82.2692C76.8937 80.3931 77.5218 78.4889 78.0815 76.5692C80.3759 77.5949 82.6305 78.6924 84.9989 79.534C87.4887 80.4458 90.0445 81.1746 92.4698 82.2486C96.3401 83.8937 100.083 85.8132 103.908 87.5556L103.918 87.5626ZM94.6537 29.3899C94.798 29.7759 94.8418 30.275 95.0348 30.6542C94.1207 30.3908 93.0268 29.9038 92.4483 29.5818C91.2159 28.7204 91.3572 28.5436 91.0538 26.8214C91.0562 26.8087 91.0586 26.7959 91.0609 26.7832C91.3897 26.0133 91.5764 26.0456 92.2146 26.0198C92.9222 26.2868 94.2691 27.2276 94.6548 29.3981L94.6537 29.3899Z" fill="#222221"/>
<path d="M25.4689 73.6483C25.4689 73.6483 25.4892 73.6712 25.4987 73.6784C25.4987 73.6784 25.4987 73.6784 25.5024 73.6737C25.4928 73.6664 25.4736 73.6519 25.4677 73.6398L25.4773 73.6471L25.4689 73.6483Z" fill="#222221"/>
<path d="M24.8656 80.3026C24.8656 80.3026 24.8633 80.2862 24.861 80.2698C24.8609 80.299 24.8607 80.3283 24.863 80.3447C24.8654 80.3318 24.8631 80.3154 24.8656 80.3026Z" fill="#222221"/>
<path d="M23.548 88.927C23.548 88.927 23.548 88.927 23.5444 88.9316C23.555 88.9176 23.5738 88.9025 23.5891 88.8921C23.5785 88.9061 23.5668 88.9119 23.5562 88.9258L23.548 88.927Z" fill="#222221"/>
<path d="M41.8604 73.9405C41.7006 73.8631 41.5302 73.7995 41.3678 73.7639C40.8711 73.4676 40.2988 73.4345 39.8643 73.9501C39.6994 74.1676 39.6402 74.3995 39.6472 74.6307C39.5061 74.9609 39.5274 75.3558 39.7871 75.6474C39.816 75.6766 39.8414 75.7104 39.8703 75.7396C39.8725 75.7558 39.8736 75.764 39.8759 75.7802C39.881 75.908 39.9152 76.0359 39.9819 76.1593C40.1622 76.5655 40.5298 76.8879 40.9861 76.8913C41.3301 77.0719 41.6929 77.2084 42.0938 77.1408C42.6366 77.0495 42.9203 76.7328 43.0117 76.3431C43.1809 76.1872 43.2923 75.9729 43.3086 75.7303C43.3563 75.2638 43.0481 74.8918 42.7548 74.5675C42.5077 74.3073 42.2 74.0595 41.8569 73.9452L41.8604 73.9405Z" fill="#222221"/>
<path d="M49.1308 61.0616C48.5103 60.795 47.825 60.7196 47.182 60.982C46.2204 61.396 46.0737 62.646 46.6544 63.4356C47.1899 64.2273 48.11 64.6844 49.0102 64.9373C49.8758 65.1494 50.9955 65.1319 51.6303 64.4192C52.204 63.6239 51.8059 62.5069 51.1198 61.914C50.5581 61.4737 49.8566 61.1604 49.1308 61.0616Z" fill="#222221"/>
<path d="M54.0228 64.0571C53.7052 64.4569 53.8848 64.9498 53.944 65.4095C54.5832 71.1351 54.4647 76.1989 49.831 79.1143C49.653 79.205 49.2703 79.4026 49.1436 79.4449C49.0925 79.4644 49.0459 79.4874 48.9983 79.5022C48.8276 79.5257 48.6477 79.5422 48.5091 79.6482C47.6146 80.0985 48.1223 81.5607 49.1047 81.3881C52.1495 80.6459 54.317 77.8631 55.3328 75.0152C56.4579 71.6389 56.168 67.9687 55.7064 64.4961C55.6246 63.6916 54.4949 63.3958 54.0228 64.0571Z" fill="#222221"/>
<path d="M99.2643 110.596C98.6903 110.671 98.2296 111.298 98.4926 111.883C98.8312 112.657 99.1493 113.583 99.9964 113.927C102.097 114.528 102.461 112.145 101.211 110.921C100.707 110.269 99.7924 110.188 99.2597 110.592L99.2643 110.596Z" fill="#222221"/>
<path d="M55.7521 48.8497C54.8948 49.7503 54.5508 51.0109 54.2489 52.187C53.9579 53.2912 53.6599 54.4047 53.69 55.5558C53.5736 56.9962 54.0493 58.3759 55.0021 59.462C55.7452 60.4984 56.7706 61.4504 58.1046 61.5152C58.6842 61.394 58.755 61.848 60.007 61.1373C60.071 61.0912 60.1223 61.0427 60.1736 60.9943C62.0554 61.0085 63.6254 59.1485 64.5694 57.4036C65.5492 55.4675 65.3569 53.1379 64.7034 51.1286C63.3507 46.9878 58.8327 45.3904 55.7602 48.8485L55.7521 48.8497Z" fill="#C95B47"/>
<path d="M36.2364 87.5726C35.8483 88.152 35.5606 88.8292 35.3725 89.5383C34.6029 91.1971 34.4352 92.9261 35.4084 94.3407C36.4719 95.8092 38.3002 96.7583 40.1246 96.445C42.8911 95.8778 45.2676 93.7701 46.6593 91.3673C47.4468 89.5985 47.8781 87.3777 46.7195 85.6697C43.8021 81.4421 38.4476 83.9639 36.2318 87.5691L36.2364 87.5726Z" fill="#C95B47"/>
</svg>
