<svg width="154" height="242" viewBox="0 0 154 242" fill="none" xmlns="http://www.w3.org/2000/svg">
<path d="M121.059 101.335C121.059 101.335 121.053 101.339 121.046 101.342C117.957 103.209 114.741 104.862 111.655 106.718C108.262 108.867 105.021 111.259 101.907 113.784C99.1149 116.044 97.6749 117.246 94.5936 118.967C93.1536 119.833 91.596 120.535 90.2003 121.465C89.1883 122.546 90.1684 123.631 91.2912 124.063C94.5418 125.273 97.2835 127.162 99.7958 129.452C100.013 129.606 100.324 130.408 101.444 130.531C103.265 130.754 103.639 130.759 105.533 131.402C106.936 131.732 108.996 133.476 109.936 135.017C110.996 136.535 110.909 136.778 111.202 138.668C111.449 139.53 111.365 142.371 111.167 142.958C111.023 143.753 110.597 144.502 110.589 145.32C110.603 146.673 111.3 147.871 111.774 149.112C111.821 149.245 111.903 149.474 111.95 149.59C112.53 151.135 112.818 152.762 113.121 154.381C113.213 154.772 113.314 155.114 113.423 155.408C113.344 155.938 113.71 156.487 114.203 156.692C114.888 157.242 115.756 156.798 116.808 155.677C118.112 154.788 119.156 153.814 120.136 152.883C121.538 151.949 123.065 150.999 124.465 150.252C130.254 147.336 136.304 144.859 141.707 141.227C142.813 140.493 144.031 139.944 145.224 139.382C145.968 139.032 146.997 138.782 147.226 137.886C147.47 135.974 145.361 134.911 144.211 133.725C144.175 133.692 144.149 133.662 144.107 133.632C142.058 129.238 138.12 125.119 136.093 122.092C133.34 118.325 131.937 113.786 129.258 109.979C127.22 107.268 125.631 105.352 123.958 102.147C123.95 102.037 123.941 101.926 123.929 101.792C123.901 101.197 123.483 100.809 122.975 100.674C122.837 100.583 122.688 100.506 122.504 100.492C121.854 100.356 121.378 100.823 121.066 101.331L121.059 101.335ZM116.881 142.241C116.796 142.455 116.704 142.657 116.546 142.93C116.481 142.957 116.409 142.987 116.349 143.021C116.434 142.744 116.52 142.467 116.595 142.187C116.689 142.214 116.783 142.224 116.877 142.234L116.881 142.241Z" fill="#E8B518"/>
<path d="M143.058 133.717C143.556 134.025 144.106 133.836 144.638 133.728C151.257 132.537 157.692 130.581 164.241 129.102C166.599 128.666 168.954 128.239 171.284 127.703C172.115 127.447 173.252 127.633 173.769 126.808C174.342 125.908 173.435 124.667 172.397 124.949C166.369 126.105 160.371 127.332 154.449 128.952C150.73 130.096 146.43 130.571 142.959 131.649C142.233 132.112 142.314 133.314 143.062 133.723L143.058 133.717Z" fill="#C95B47"/>
<path d="M74.8639 128.435C74.5375 130.18 75.4593 131.784 76.5177 133.092C77.9375 134.509 79.6608 135.979 81.7746 135.996C82.5662 135.957 82.9445 135.217 82.8513 134.552C83.4807 133.771 83.2914 132.373 82.8465 131.327C82.2296 129.555 80.9918 128.099 79.4389 127.065C78.6529 126.571 77.6408 126.388 76.7212 126.516C75.8704 126.8 75.108 127.549 74.867 128.424L74.8639 128.435Z" fill="#C95B47"/>
<path d="M137.86 88.9498C138.697 89.8575 139.401 90.6979 140.051 91.506C139.098 92.5983 138.08 93.7003 136.96 94.8411C136.797 95.0106 136.63 95.1734 136.457 95.3398C136.076 94.4896 135.733 93.6619 135.408 92.8336C134.687 91.7375 132.835 92.5932 133.192 93.8637C133.568 95.0086 134.03 96.1154 134.538 97.196C133.521 98.1559 132.501 99.109 131.527 100.116C131.331 99.7288 131.131 99.3351 130.937 98.9032C130.255 97.4141 130.3 97.4781 129.754 96.0111C129.678 95.6817 129.469 95.3993 129.178 95.2242C128.278 94.6517 127.026 95.5554 127.319 96.5964C127.968 98.5718 128.83 100.403 129.784 102.113C128.614 103.644 127.277 105.657 127.064 105.96C125.639 107.269 127.817 109.195 128.943 107.6C129.715 106.564 130.488 105.403 131.172 104.433C132.067 105.812 132.996 107.094 133.904 108.272C134.439 109.082 134.921 109.921 135.402 110.76C134.398 111.934 133.216 113.091 131.934 114.596C131.335 115.784 133.032 116.951 133.948 115.985C134.948 115.043 135.866 114.032 136.745 112.998C136.808 113.096 136.864 113.197 136.927 113.295C137.628 114.261 138.44 115.28 139.058 116.079C138.101 116.652 137.269 117.147 136.674 117.494C136.117 117.766 135.378 117.821 134.98 118.333C134.404 118.969 134.79 120.1 135.612 120.309C136.828 120.397 136.631 120.055 137.675 119.77C138.612 119.305 139.515 118.762 140.403 118.209C141.091 119.518 141.721 120.85 142.337 122.19C141.548 122.458 140.752 122.712 139.962 122.98C138.86 123.705 139.722 125.554 140.993 125.196C141.789 124.942 142.575 124.684 143.372 124.43C144.166 126.122 144.986 127.799 145.96 129.401C147.24 131.302 150.727 134.716 151.237 135.575C152.238 137.754 154.967 136.228 153.432 134.362C151.967 132.254 148.962 129.44 148.191 128.239C147.275 126.773 146.522 125.218 145.793 123.658C146.992 123.269 148.189 122.873 149.382 122.488C152.851 126.911 156.707 130.607 159.217 134.941C159.958 135.61 161.248 134.985 161.239 133.992C161.103 132.962 160.295 132.108 159.811 131.2C157.571 128.043 154.264 124.556 151.89 121.668C154.034 120.97 156.177 120.272 158.32 119.574C158.916 120.685 159.503 121.811 160.052 122.949C161.074 125.55 162.275 127.963 163.849 130.268C164.442 131.036 164.649 132.275 165.627 132.636C166.389 132.879 167.222 132.259 167.224 131.462C167.142 130.561 166.412 129.833 166.026 129.038C165.384 127.908 164.585 126.863 163.984 125.71C163.259 124.254 162.72 122.704 162.002 121.244C161.59 120.419 161.176 119.605 160.737 118.795C161.157 118.66 161.571 118.528 161.988 118.387C164.175 117.673 166.352 116.956 168.54 116.242C168.063 115.524 167.607 114.795 167.162 114.068C164.623 114.914 162.07 115.751 159.52 116.576C158.578 114.904 157.612 113.253 156.64 111.606C156.351 111.147 156.116 110.561 155.535 110.422C154.514 110.094 153.538 111.305 154.089 112.238C155.102 113.942 156.114 115.646 157.086 117.373C154.813 118.107 152.539 118.842 150.266 119.576C150.222 119.512 150.167 119.445 150.126 119.371C148.947 117.67 148.056 115.802 147.077 113.982C147.933 113.403 148.742 112.77 149.392 111.995C149.987 110.8 148.294 109.64 147.378 110.606C146.959 110.952 146.398 111.36 145.775 111.801C144.451 109.854 143.181 107.876 141.982 105.851C142.952 104.404 143.903 102.941 144.89 101.511C145.379 100.844 145.845 100.215 146.308 99.6136C147.042 100.429 147.572 101.117 148.262 102.381C148.782 103.499 148.58 103.053 148.955 104.084C149.031 104.413 149.244 104.703 149.532 104.871C150.207 105.293 151.168 104.904 151.376 104.143C151.557 103.416 151.054 102.73 150.85 102.056C150.046 100.201 148.969 98.8597 147.878 97.6056C148.55 96.757 149.222 95.9256 149.891 95.0874C150.416 94.2933 151.51 93.7771 151.607 92.7686C151.643 91.9703 150.833 91.3213 150.059 91.5195C149.435 91.6872 149.076 92.3013 148.629 92.725C147.775 93.692 146.967 94.6779 146.184 95.6767C145.608 94.9868 145.066 94.261 144.595 93.4248C144.157 92.8089 143.71 92.2073 143.259 91.5989C144.758 89.8328 146.172 88.0702 147.453 86.4517C146.842 85.8429 146.306 85.193 145.827 84.5026C144.416 86.2201 143.089 87.8994 141.679 89.5891C141.304 89.1334 140.921 88.6815 140.536 88.2402C140.005 87.7113 139.609 86.8512 138.77 86.8373C137.687 86.7815 137.053 88.2105 137.843 88.9678L137.86 88.9498ZM147.815 120.374C146.79 120.71 145.768 121.037 144.746 121.38C144.392 120.612 144.021 119.844 143.64 119.091C143.317 118.314 142.944 117.575 142.54 116.86C142.993 116.575 143.438 116.293 143.898 116.022C144.245 115.786 144.61 115.549 144.978 115.319C145.893 117.024 146.734 118.769 147.822 120.37L147.815 120.374ZM143.722 113.174C142.902 113.707 142.041 114.245 141.2 114.771C140.674 114.028 140.107 113.306 139.521 112.596C139.188 112.17 138.811 111.6 138.409 110.938C139.099 110.026 139.767 109.091 140.421 108.146C141.465 109.859 142.567 111.532 143.715 113.178L143.722 113.174ZM139.016 105.73C138.369 106.672 137.715 107.616 137.034 108.576C136.862 108.282 136.691 107.988 136.513 107.697C135.09 105.619 133.927 104.139 132.82 102.39C133.738 101.396 134.718 100.466 135.709 99.5379C136.168 100.416 136.633 101.291 137.092 102.169C137.703 103.37 138.351 104.559 139.016 105.73ZM144.629 97.7118C143.258 99.5662 141.94 101.47 140.594 103.434C140.007 102.371 139.435 101.29 138.891 100.193C138.416 99.3328 137.995 98.5222 137.606 97.7381C138.095 97.2641 138.588 96.7796 139.056 96.2823C139.916 95.3912 140.765 94.4625 141.606 93.5203C142.571 94.8349 143.496 96.172 144.64 97.7148L144.629 97.7118Z" fill="#C95B47"/>
<path d="M115.324 159.14C115.274 159.149 115.23 159.155 115.176 159.157C115.223 159.159 115.292 159.148 115.36 159.138C115.36 159.138 115.346 159.146 115.335 159.143C115.335 159.143 115.335 159.143 115.328 159.147L115.324 159.14Z" fill="#222221"/>
<path d="M11.2487 88.1057C9.21637 91.9965 11.1137 95.3338 15.5158 95.5714C17.5039 95.6488 19.6783 95.1192 21.2656 93.8795C23.0509 92.5658 24.7069 90.8902 25.5069 88.7858C25.5137 88.782 25.513 88.7647 25.516 88.7542C27.1066 88.4323 32.6569 87.1955 34.6156 86.9796C44.1756 86.0382 57.0409 84.6938 66.7572 87.4594C70.9975 88.8122 73.8198 89.9672 77.4742 92.8198C80.2114 94.685 83.3874 97.3599 84.5483 99.2207C86.3581 101.696 87.2426 103.152 87.6981 105.801C88.6708 109.481 88.7619 113.118 88.0602 116.264C87.726 117.82 87.5104 119.398 87.1168 120.942C87.035 121.226 86.8983 121.522 86.8307 121.816C85.0566 121.214 83.24 120.759 81.3786 120.478C77.3095 119.915 73.1878 119.593 69.0915 120.053C67.7778 120.284 63.4423 120.487 60.9836 121.43C60.9424 121.356 60.9013 121.281 60.8563 121.2C60.3745 120.52 60.1205 119.484 59.2635 119.197C58.6701 119.004 58.1086 119.332 57.8376 119.817C57.4114 120.15 57.1823 120.728 57.5237 121.361C57.9533 122.203 58.4504 123.086 58.9686 123.976C58.9181 124.349 59.0247 124.75 59.2925 125.026C59.4402 125.166 59.5926 125.249 59.7474 125.305C61.5229 128.294 63.4104 131.31 64.233 133.534C65.4556 136.723 65.7094 140.19 66.2769 143.537C66.6109 146.094 66.994 148.915 66.7565 152.23C66.6126 153.697 66.1329 155.757 65.7332 157.994C65.4061 159.387 64.7735 160.258 63.8407 161.242C63.7414 161.27 63.6458 161.305 63.5442 161.362C60.1766 162.692 54.6596 164.149 50.5515 166.508C49.2677 167.129 47.9652 167.716 46.7001 168.371C46.6866 168.378 46.6663 168.39 46.6527 168.397C44.0058 167.464 42.4075 163.899 40.1104 160.19C36.9879 155.116 35.0439 151.486 35.8025 146.107C35.9294 144.48 37.0084 141.328 37.7935 138.861C38.8144 135.476 39.74 132.047 41.186 128.807C42.1511 126.169 45.2585 121.552 46.7167 117.934C46.9925 116.641 45.0509 115.928 44.4101 117.104C43.0255 120.071 41.2972 122.848 39.8203 125.76C37.8726 129.772 36.5829 134.03 35.342 138.297C34.1009 141.971 32.8882 145.745 33.1643 149.669C33.4765 153.546 35.2636 157.068 37.2791 160.331C38.7222 162.735 40.1014 165.182 41.7169 167.482C42.7883 169.021 44.4013 170.419 46.2518 170.856C46.2701 174.409 47.6588 177.93 49.3952 180.976C51.1153 183.881 53.8611 185.954 56.3194 188.194C58.6743 190.279 61.0495 192.353 63.7987 193.92C66.9691 195.705 70.3978 196.949 73.8123 198.183C76.9472 199.36 80.1162 200.438 83.2693 201.552C84.4811 201.873 86.4513 203.198 87.0897 201.457C87.4685 199.806 85.3947 199.75 84.3253 199.271C81.6957 198.336 79.0435 197.441 76.4162 196.479C71.6966 194.675 68.331 193.785 64.0793 191.147C60.5183 188.88 54.8073 183.697 52.3007 180.874C50.6592 178.447 50.0792 176.982 49.3576 174.604C48.8284 172.606 48.645 171.938 48.7618 170.15C50.6326 169.231 52.5154 168.349 54.3712 167.403C55.6678 166.758 57.0363 166.258 58.4678 165.776C58.6846 165.656 58.917 165.581 59.1614 165.543C60.6479 165.049 62.2005 164.562 63.8166 163.935C64.5276 164.293 65.4811 164.483 66.1061 164.685C67.5303 165.119 68.0791 165.408 68.8624 165.753C75.7499 169.224 82.4284 173.085 89.2872 176.616C91.1362 177.69 92.1505 178.261 93.2318 179.45C93.4929 179.65 93.8865 180.458 94.5057 181.195C95.4704 182.749 96.3403 184.355 97.0679 186.039C97.3074 186.473 97.6716 186.652 98.0429 186.668C98.0714 186.687 98.0932 186.711 98.1285 186.727C99.0322 187.306 100.269 186.392 99.9875 185.354C99.5264 184.168 99.0097 182.977 98.3981 181.838C101.613 180.76 104.435 178.794 106.955 176.553C109.343 174.49 111.681 172.128 113.024 169.246C114.085 167.183 114.181 164.876 114.066 162.604C113.997 161.52 113.897 160.443 113.78 159.367C114.159 159.317 114.55 159.224 114.902 159.189C114.985 159.179 115.068 159.168 115.15 159.158C115.074 159.165 115.067 159.151 115.292 159.142C115.326 159.14 115.35 159.136 115.381 159.128C115.368 159.135 115.34 159.133 115.326 159.14C116.876 159.08 118.436 159.279 119.991 159.357C124.626 159.457 129.035 159.673 132.8 160.502C141.664 163.022 148.907 165.952 156.766 169.965C162.183 172.631 165.812 175.391 169.966 179.851C170.11 179.984 170.238 180.151 170.36 180.323C170.275 180.458 170.194 180.583 170.127 180.735C169.254 182.579 169.469 184.776 170.66 186.435C171.506 187.55 172.289 188.807 173.494 189.564C174.196 189.875 175.051 190.428 175.818 190.057C176.646 189.635 176.494 188.304 175.598 188.074C174.542 187.747 174.516 187.797 173.756 186.917C172.813 185.723 172.581 185.639 171.897 184.178C171.849 184.01 171.8 183.842 171.769 183.674C171.754 183.39 171.745 183.103 171.769 182.825C171.776 182.742 171.786 182.665 171.804 182.585C171.818 182.515 171.832 182.427 171.849 182.347C171.874 182.183 172.033 181.768 172.125 181.549C172.507 181.489 172.815 181.247 172.989 180.921C173.926 180.536 175.406 180.319 176.575 180.69C177.096 180.88 178.376 181.597 179.12 182.432C179.316 182.465 179.649 183.661 180.256 184.36C180.807 184.86 181.78 184.525 181.956 183.818C182.06 182.726 181.231 181.69 180.596 180.847C179.015 179.298 176.901 178.079 174.606 178.375C173.87 178.419 173.061 178.556 172.332 178.835C171.051 177.191 169.52 175.764 167.927 174.417C166.347 173.079 164.797 171.681 163.02 170.594C158.183 167.714 153.067 165.271 147.884 163.077C142.763 161.027 137.545 159.073 132.167 157.837C127.579 156.976 122.911 156.992 118.269 156.736C122.571 154.041 127.094 151.665 131.497 149.152C136.806 146.183 142.119 143.22 147.357 140.122C147.816 140.169 148.294 139.994 148.545 139.536C148.665 139.32 148.704 139.104 148.709 138.889C152.302 137.982 155.812 136.75 159.404 135.826C163.984 134.144 168.684 132.696 173.2 130.917C175.59 128.986 173.259 125.375 172.497 123.1C172.319 122.65 172.114 122.215 171.902 121.783C176.93 119.81 182.755 117.758 188.782 115.223C192.664 113.255 196.594 111.375 200.525 109.494C204.453 107.483 208.381 105.471 212.453 103.751C213.746 107.131 215.447 110.48 218.325 112.744C219.943 113.848 222.089 115.139 224.084 114.381C225.981 113.333 226.677 110.976 226.353 108.935C225.897 106.19 223.923 103.912 221.776 102.251C219.37 100.459 216.157 99.892 213.295 100.81C212.992 100.854 212.741 100.975 212.536 101.132C211.836 101.13 211.198 101.624 210.55 101.859C205.958 103.742 201.653 106.209 197.175 108.33C193.062 110.135 189.173 112.443 184.995 114.097C180.501 115.855 175.571 117.687 170.774 119.551C170.655 119.334 170.545 119.103 170.432 118.882C169.899 117.727 169.523 116.502 168.908 115.374C168.212 114.034 167.472 112.71 166.915 111.303C166.866 111.135 166.512 110.19 166.291 110.029C165.744 109.536 164.981 109.418 164.275 109.278C160.705 108.818 157.176 109.664 153.65 110.1C152.181 110.258 150.724 110.47 149.26 110.669C151.034 106.294 153.226 100.9 154.353 97.8188C154.868 96.5263 155.275 96.7347 155.363 95.439C154.892 93.1617 153.007 90.7904 151.493 88.9476C149.947 87.4144 148.697 85.6473 147.852 83.6384C147.35 82.8104 146.838 81.9966 146.282 81.1986C145.332 79.4781 143.903 79.4538 142.4 80.5411C139.956 82.4397 138.099 84.9514 136.092 87.2719C134.395 89.2887 132.496 91.1163 130.538 92.8702C128.392 94.5867 126.198 96.2498 124.354 98.3038C124.231 98.4336 124.081 98.5783 123.931 98.7231C123.685 98.4699 123.393 98.2776 123.001 98.2729C122.519 98.2478 122.132 98.5236 121.912 98.9102C119.487 100.074 117.092 101.309 114.769 102.689C108.447 106.289 102.565 110.574 96.6569 114.812C94.4761 116.53 92.8782 118.103 91.1536 119.206C90.7327 119.5 90.2969 119.768 89.8505 120.032C90.9697 115.417 91.5008 110.57 90.2671 105.937C89.8353 103.444 88.9889 101.064 87.4503 99.0318C85.9585 96.8763 84.317 94.7859 82.1683 93.2498C80.0558 91.6673 77.9758 90.0314 75.7819 88.5734C73.1002 87.049 70.184 85.884 67.2341 84.9941C59.2827 82.9421 51.0124 82.9852 42.8825 83.7464C39.6458 84.0495 36.3907 84.1595 33.176 84.6627C30.9976 85.0088 27.0193 85.8102 25.057 86.2756C25.0401 86.1169 25.0059 85.959 24.913 85.807C24.6023 85.2447 23.9073 85.1071 23.3478 84.8946C22.1324 84.4875 20.8299 84.4026 19.5513 84.393C16.449 84.4273 12.9897 85.3839 11.2036 88.1041L11.2487 88.1057ZM219.435 103.713C220.803 104.54 220.878 104.596 222.05 105.884C223.354 107.507 223.26 107.178 223.859 109.014C223.881 109.134 223.898 109.196 223.907 109.244C223.941 109.658 223.969 110.076 223.934 110.494C223.917 110.574 223.883 110.69 223.845 110.781C223.768 111.01 223.687 111.231 223.6 111.456C223.568 111.527 223.526 111.595 223.483 111.662C223.337 111.814 223.181 111.962 223.027 112.1C221.89 112.251 218.664 110.285 217.417 108.029C216.089 106.075 215.538 104.629 214.875 102.997C216.495 102.712 218.206 102.96 219.435 103.713ZM110.158 169.389C108.071 172.54 104.411 175.774 101.204 177.794C100.089 178.561 98.237 179.275 97.9157 179.381C97.6494 179.475 97.3583 179.557 97.1002 179.682C96.5225 178.86 95.8808 178.083 95.142 177.386C94.6648 176.987 94.1692 176.394 93.5327 176.33C91.5696 174.842 89.2928 173.81 87.138 172.631C81.4551 169.644 75.8817 166.454 70.1444 163.577C68.9385 162.979 67.6737 162.546 66.3997 162.145C66.4132 162.137 66.4193 162.116 66.4291 162.102C67.8015 160.521 68.3067 158.491 68.5661 156.464C69.1506 153.922 69.4909 151.338 69.3345 148.718C69.1238 145.793 68.7718 142.884 68.2784 139.991C67.8843 137.406 67.5061 134.785 66.4607 132.365C65.6167 130.294 64.5146 128.348 63.365 126.427C63.3468 126.155 63.2558 125.878 63.0579 125.616C62.7918 124.958 62.4955 124.326 62.182 123.695C62.8282 123.488 63.4795 123.322 64.154 123.215C68.9847 122.42 73.1605 122.04 78.5301 122.636C81.0727 122.805 83.607 123.359 86.0736 124.206C86.3464 124.604 86.8111 124.869 87.3661 124.721C87.3797 124.713 87.4 124.702 87.4173 124.702C92.5296 126.704 97.3362 129.946 101.327 133.744C104.132 136.916 106.475 140.98 108.126 144.975C108.116 144.989 108.1 145.007 108.094 145.028C107.742 145.736 108.185 146.41 108.788 146.669C108.987 147.205 109.179 147.744 109.35 148.278C110.439 151.257 111.009 156.849 111.26 158.726C111.724 163.006 112.034 166.831 110.158 169.389ZM102.758 131.645C107.704 132.13 111.115 136.046 110.403 141.303C110.396 141.722 110.258 142.161 109.973 142.973C109.79 142.561 109.6 142.153 109.403 141.749C107.734 138.153 105.616 134.752 102.938 131.811C102.88 131.754 102.816 131.701 102.748 131.642L102.758 131.645ZM137.882 89.0861C139.894 86.8069 142.163 83.6962 144.16 82.495C144.423 82.9068 144.963 83.7229 145.103 83.9284C146.241 85.6516 147.142 87.5231 148.445 89.1286C150.194 91.3809 151.156 92.2107 152.334 94.4865C152.456 94.6581 152.74 95.2526 152.838 95.446C152.156 96.5307 151.728 97.7573 151.296 98.9598C150.547 100.948 149.751 102.917 148.935 104.88C148.139 106.752 147.435 108.662 146.671 110.544C146.435 111.284 145.778 112.063 146.225 112.841C146.535 113.449 147.272 113.598 147.834 113.367C148.716 113.348 149.617 113.107 150.498 113.036C153.45 112.634 156.401 112.294 159.339 111.802C160.391 111.689 163.322 111.537 164.504 111.883C165.458 114.442 167.017 116.72 167.927 119.294C169.53 122.723 171.119 125.47 171.788 128.505C171.786 128.55 171.791 128.591 171.779 128.633C171.765 128.703 171.751 128.79 171.731 128.881C166.767 130.572 158.412 133.677 152.146 135.3C151.024 135.638 149.919 136.054 148.773 136.333C148.479 136.408 148.148 136.449 147.85 136.534C145.602 132.674 142.891 129.097 140.326 125.448C137.911 121.654 135.327 117.953 133.051 114.074C131.47 111.181 129.699 108.392 128.121 105.489C127.303 103.881 126.522 102.243 125.508 100.761C125.651 100.62 125.794 100.479 125.934 100.331C127.257 98.9982 128.541 97.6081 130.06 96.4855C132.944 94.3436 135.535 91.8155 137.879 89.0966L137.882 89.0861ZM116.918 104.385C118.836 103.263 120.81 102.243 122.807 101.281C123.963 102.782 124.852 104.501 125.94 106.711C128.478 111.048 130.803 115.51 133.618 119.676C136.182 123.741 138.841 127.736 141.655 131.628C143.091 133.62 144.42 135.688 145.709 137.779C145.791 137.928 145.847 138.03 145.896 138.118C143.887 139.299 141.863 140.453 139.81 141.57C132.646 145.776 125.299 149.65 118.158 153.88C116.591 154.772 115.065 155.739 113.624 156.827C113.603 156.839 113.583 156.85 113.563 156.861C113.556 156.865 113.539 156.865 113.528 156.862C113.377 155.629 113.208 154.395 113.026 153.17C112.707 150.64 112.034 148.174 111.139 145.786C111.2 145.752 111.264 145.708 111.328 145.664C111.313 145.637 111.301 145.616 111.286 145.589C111.582 145.453 111.825 145.203 111.92 144.832C113.498 141.334 113.437 136.841 111.064 133.714C109.43 131.557 107.13 129.875 104.428 129.387C103.155 129.162 101.798 128.868 100.547 129.339C100.42 129.365 100.304 129.411 100.206 129.474C100.17 129.441 100.137 129.415 100.095 129.385C98.8501 128.605 97.6464 127.723 96.4933 126.724C94.3872 125.298 92.1801 124.024 89.8619 122.997C91.1965 122.18 93.3367 120.82 94.47 119.911C97.4601 117.321 99.1913 115.958 102.415 113.823C107.043 110.372 111.884 107.228 116.903 104.375L116.918 104.385ZM23.2164 87.505C23.2164 87.505 23.2795 87.5231 23.308 87.5428C22.5892 89.6023 20.7616 91.3993 18.825 92.4871C18.2999 92.6889 17.7471 92.8087 17.2055 92.9488C16.0955 93.1643 16.5865 93.1406 15.5237 93.0735C15.5169 93.0773 15.5064 93.0742 15.4959 93.0712C15.0112 92.9942 14.5333 92.9135 14.0638 92.7839C14.039 92.771 14.0285 92.768 14.0112 92.7687C14.0075 92.7619 14.0075 92.7619 13.9902 92.7626C13.4595 92.4104 13.7829 92.6915 13.2444 92.1491C12.8456 91.2995 12.8414 91.5318 13.0749 90.3063C13.4558 89.0435 13.2041 89.6601 14.1327 88.5722C15.8632 86.8555 21.1914 86.4488 23.2133 87.5155L23.2164 87.505Z" fill="#222221"/>
<path d="M177.023 44.9959C177.48 47.5993 178.91 49.8682 180.438 51.9771C180.468 52.014 180.497 52.0509 180.522 52.081C180.344 52.2062 180.166 52.3313 179.99 52.4459C171.374 58.9671 163.667 66.6216 155.663 73.9003C152.198 76.894 149.009 80.2124 146.158 83.8043C145.766 84.2951 145.661 84.9541 146.139 85.4505C146.533 85.8603 147.386 85.9637 147.785 85.4693C150.038 82.6329 152.732 79.9238 155.489 77.4892C159.034 74.2394 162.557 70.9662 166.055 67.6628C169.393 64.6154 172.797 61.6381 176.248 58.7142C178.398 56.7654 180.249 55.2029 182.073 54.0712C182.161 54.0226 182.235 53.9641 182.305 53.8989C183.504 54.7397 184.755 55.5161 186.248 55.6728C189.196 55.9357 190.603 53.7612 190.616 51.0484C190.399 45.8717 185.999 38.983 181.106 37.0716C176.433 35.896 176.466 41.9254 177.023 45.0132L177.023 44.9959ZM187.956 52.3323C187.912 52.4276 187.794 52.5987 187.715 52.7128C187.626 52.8239 187.538 52.9349 187.441 53.0324C186.041 53.3638 185.547 53.0447 183.508 51.66C183.407 51.5568 183.307 51.4709 183.196 51.3992C183.022 51.1327 182.767 50.8939 182.566 50.6423C182.503 50.5618 182.441 50.4812 182.379 50.4006C182.184 50.1108 181.368 48.8904 181.182 48.5863C178.69 45.1176 179.19 40.3409 179.762 39.4237C182.869 39.254 189.18 48.0661 187.959 52.3218L187.956 52.3323Z" fill="#222221"/>
<path d="M54.9337 173.541C55.6641 175.631 57.4426 177.009 59.1347 178.311C63.3916 181.662 68.4548 183.736 73.3607 185.941C76.5105 187.224 81.4549 190.363 83.1779 191.657C85.423 193.432 87.4035 195.512 89.6946 197.225C90.0969 197.489 90.4342 197.94 90.9384 197.988C91.5433 198.123 92.1592 197.685 92.3326 197.103C92.6401 196.075 91.5971 195.564 90.9308 195.03C88.4877 193.073 84.7654 189.33 81.1041 187.232C76.8834 184.507 72.1433 182.794 67.6463 180.592C64.6287 179.068 61.4128 177.105 59.5786 175.466C58.1996 174.283 57.9654 174.147 57.2966 172.712C56.8114 170.858 54.1062 171.787 54.9337 173.541Z" fill="#222221"/>
<path d="M60.222 169.846C65.2962 172.436 70.4397 173.935 74.8871 176.111C83.2957 180.094 89.2085 184.458 93.5858 191.739C94.0054 192.338 94.1747 193.253 94.9598 193.473C96.2903 193.817 97.0192 192.255 96.1953 191.261C94.3762 188.225 92.2435 185.31 89.7429 182.801C87.5895 180.728 85.0797 179.002 82.5576 177.399C76.764 173.827 70.3686 171.455 64.0811 168.925C63.0515 168.486 62.8545 168.498 61.5115 167.684C61.2345 167.518 60.8964 167.467 60.5775 167.545C59.5163 167.769 59.2716 169.311 60.2288 169.843L60.222 169.846Z" fill="#222221"/>
<path d="M48.711 119.094C48.3678 120.265 47.9779 122.488 47.357 124.485C46.5809 128.008 45.5666 131.469 44.3066 134.854C43.0016 138.236 41.8136 141.687 41.6039 145.34C41.4085 148.666 42.0604 151.958 43.0568 155.121C43.9177 158.023 45.1284 160.838 47.0948 163.164C48.2439 164.316 50.0263 162.597 48.8863 161.414C46.266 158.352 44.1137 151.433 44.0925 146.803C44.0263 142.507 45.3173 139.371 46.9116 135.023C48.201 131.596 49.1117 128.06 49.9594 124.506C50.2967 123.276 50.634 122.046 50.8908 120.799C50.9468 120.308 51.1743 119.776 50.9573 119.303C50.6543 118.339 49.209 118.236 48.7222 119.115L48.711 119.094Z" fill="#222221"/>
<path d="M51.9024 119.925C52.9824 123.351 53.1666 125.301 53.0563 128.926C53.3708 133.111 52.9194 137.286 53.0506 141.476C52.9812 143.91 53.4261 146.3 53.8672 148.682C54.4716 152.336 55.1347 155.984 55.6669 159.651C55.884 160.716 57.4388 160.953 57.9641 160C58.3894 159.057 57.7875 157.984 57.7709 156.994C56.9442 150.554 55.2947 145.329 55.5299 139.354C55.4844 136.232 55.8687 133.119 55.5946 129.999C55.5119 127.657 55.6886 125.304 55.2706 122.98C54.9647 121.61 54.6869 120.164 54.1184 118.895C53.394 117.792 51.5451 118.655 51.9024 119.925Z" fill="#222221"/>
<path d="M86.2885 162.533C87.2191 165.529 89.2868 167.959 91.5357 170.076C92.8613 171.227 94.4299 172.305 96.2544 172.279C97.5888 172.213 97.7641 170.162 96.4689 169.835C94.4189 169.517 94.2712 169.042 92.8696 167.898C91.6772 166.62 90.4976 165.398 90.0505 164.637C88.9341 162.68 88.6947 162.167 88.1755 160.076C87.95 159.395 88.4233 157.516 86.509 157.716C84.6964 158.196 85.9018 161.305 86.2952 162.529L86.2885 162.533Z" fill="#222221"/>
<path d="M71.1568 131.406C69.6615 134.796 71.5729 138.559 73.1356 141.595C74.1957 143.193 75.6579 144.463 77.3313 145.395C78.0868 145.738 78.7743 146.534 79.664 146.352C80.4536 146.181 80.8647 145.229 80.4686 144.528C79.9358 143.788 78.9449 143.531 78.22 143.003C76.0039 141.681 75.1025 140.402 73.9455 137.46C73.658 136.62 72.9833 135.127 73.1439 133.898C73.0516 132.835 73.5229 132.839 73.5978 131.631C73.5324 130.296 71.4746 130.125 71.1538 131.416L71.1568 131.406Z" fill="#222221"/>
<path d="M94.2937 158.905C93.5916 159.938 93.6361 161.187 93.8334 162.36C94.0202 164.202 94.8671 166.006 96.3551 167.147C98.8457 169.078 103.561 170.106 104.23 165.908C104.801 163.037 103.353 159.841 100.855 158.329C99.7629 157.633 98.4057 157.145 97.1034 157.317C96.6415 157.457 96.1713 157.646 95.764 157.933C95.1991 158.095 94.6887 158.403 94.2869 158.908L94.2937 158.905Z" fill="#C95B47"/>
<path d="M80.2704 133.577C80.5239 135.188 81.4563 134.699 82.5544 135.118C84.2793 135.535 85.4877 136.026 86.4136 136.469C90.7128 138.665 92.7572 140.78 94.7798 144.888C96.1482 147.749 97.0976 150.107 97.0155 153.158C97.0045 154.402 96.7221 154.947 96.1666 156.598C95.7007 157.563 95.7633 157.149 95.2222 158.058C94.6235 159.246 96.3204 160.413 97.2367 159.447C101.584 154.162 98.9091 146.824 95.8351 141.582C93.4712 137.512 89.3079 134.666 84.9093 133.171C83.5448 132.926 80.5161 131.302 80.2599 133.574L80.2704 133.577Z" fill="#222221"/>
</svg>
