<svg width="243" height="130" viewBox="0 0 243 130" fill="none" xmlns="http://www.w3.org/2000/svg">
<path d="M139.854 10.002C140.565 10.9661 141.133 12.0168 141.801 13.0118C143.884 16.4851 146.733 19.2044 148.717 21.9423C148.815 22.103 148.927 22.2142 149.056 22.2946C149.1 22.3502 149.155 22.3996 149.217 22.4491C149.458 22.6468 149.699 22.8384 150.002 22.9311C150.805 23.2216 151.671 23.3205 152.511 23.4379C156.689 23.7037 160.218 22.4305 163.753 22.0968C164.866 21.8558 167.412 21.7754 169.532 21.7631C169.878 21.9361 170.261 21.9423 170.558 21.7631C170.613 21.7631 170.675 21.7631 170.731 21.7631C173.011 21.5529 173.907 21.281 176.206 21.2192C178.153 21.1203 179.006 20.7866 180.57 20.7619C181.843 20.8113 183.097 20.5703 184.371 20.4961C185.489 20.4405 186.614 20.4837 187.733 20.3231C188.845 20.2118 190.996 19.8039 191.2 19.7915C192.275 19.6988 193.363 19.6989 194.432 19.5196C195.773 19.3219 197.145 19.5073 198.474 19.1859C198.709 19.1303 198.944 19.0685 199.178 19.0005C199.593 19.0376 200.007 19.0376 200.408 18.914C201.329 18.5617 201.638 18.2403 202.003 17.9869C202.392 17.7644 202.744 17.5481 203.06 17.338C203.146 17.2947 203.233 17.2515 203.319 17.2082C203.381 17.1897 203.461 17.1588 203.523 17.134C204.395 16.8559 205.266 16.5284 205.977 15.9351C206.236 15.7064 206.471 15.4283 206.694 15.1316C208.047 14.0872 209.055 12.6533 210.136 11.3493C210.736 10.5212 211.477 9.80424 212.04 8.95136C212.274 8.51874 212.46 8.05522 212.639 7.5917C212.75 7.48046 212.855 7.36921 212.967 7.25796C213.331 6.93041 213.424 6.43599 213.3 6.02191C213.387 5.81796 213.473 5.56458 213.541 5.19994C213.554 4.30998 212.553 3.92681 211.792 4.1184C210.927 4.45831 210.216 5.0887 209.549 5.76853C209.079 5.81797 208.56 5.84269 207.843 5.86123C207.095 5.97247 205.933 6.11462 204.938 6.11462C204.846 5.81179 204.636 5.55839 204.271 5.46569C203.82 5.33591 203.443 5.52131 203.159 5.83032C203.146 5.83032 203.134 5.84268 203.121 5.84886C202.281 5.59547 201.521 5.07015 200.347 4.43976C197.584 2.99976 194.834 4.6499 192.189 5.51514C191.008 5.80561 189.321 5.40389 187.547 5.10106C186.453 4.88475 185.31 3.95152 184.185 4.43977C182.578 5.51513 181.565 6.74501 179.952 7.04784C179.037 7.36921 175.891 7.40012 175.421 7.33831C174.723 7.17145 174.179 6.98604 173.672 6.73883C173.617 6.67084 173.567 6.59669 173.493 6.54106C173.326 6.39274 173.129 6.33093 172.931 6.32475C172.486 6.04046 172.016 5.69436 171.435 5.2432C170.558 4.63754 169.594 3.66723 168.438 3.9268C167.659 4.15547 167.338 5.00835 166.726 5.48423C165.805 6.42364 164.421 7.04784 163.512 7.07874C162.746 7.13437 161.652 6.71411 160.342 6.23823C159.328 5.88595 159.099 5.88596 158.525 5.56458C157.888 5.20613 157.338 4.6808 156.64 4.43977C156.096 4.26672 155.552 4.66226 155.41 5.16286C154.73 4.82912 153.883 4.69934 153.321 5.28029C152.703 6.01574 152.283 6.64612 151.93 6.86243C150.07 8.16029 147.493 7.29506 144.304 7.05403C143.315 6.9366 142.314 6.91806 141.319 6.80064C140.478 6.71411 139.409 6.60286 138.89 7.41248C138.402 8.35806 139.415 9.2233 139.854 9.98966L139.854 10.002Z" fill="#DEABBC"/>
<path d="M157.919 56.6384C158.58 58.1031 159.501 59.6853 161.058 60.3033C162.288 60.6494 163.24 59.4813 163.431 58.3751C163.629 57.6334 163.054 57.1514 162.467 57.1267C162.27 56.7497 161.936 56.4221 161.72 56.0636C160.99 55.1119 160.286 54.0674 159.278 53.3876C158.469 52.8066 157.307 53.3505 157.282 54.3641C157.282 55.1613 157.597 55.9153 157.912 56.6384L157.919 56.6384Z" fill="#B75E99"/>
<path d="M191.357 96.7105C191.444 96.8836 191.573 97.0197 191.734 97.1063C192.167 97.4589 192.724 97.6506 193.324 97.5455C193.782 97.5022 194.159 97.261 194.462 96.9393C194.604 96.8589 194.728 96.7538 194.821 96.5868C194.914 96.4507 194.994 96.3022 195.074 96.1476C195.229 95.962 195.328 95.7517 195.347 95.5229C195.421 95.3126 195.47 95.0899 195.507 94.8734C195.507 94.8487 195.507 94.8239 195.52 94.7992C195.575 94.3229 195.52 93.8405 195.278 93.3951C194.777 92.7951 194.815 92.7766 194.01 92.4487C193.683 92.424 193.547 92.2508 192.773 92.5972C192.656 92.6714 192.557 92.7642 192.458 92.857C192.272 92.9126 192.087 92.9807 191.926 93.0611C191.277 93.4446 190.918 94.1683 190.875 94.9105C190.782 95.5476 190.98 96.1971 191.357 96.6981L191.357 96.7105Z" fill="#222221"/>
<path d="M173.667 99.2696C174.026 99.6466 174.409 100.036 174.91 100.209C175.688 100.382 176.529 100.296 177.227 99.9186C177.672 100.122 178.253 100.048 178.525 99.5416C179.458 98.2993 179.619 96.4514 178.519 95.2586C177.672 94.4119 177.135 93.7815 175.528 94.004C173.229 94.3872 171.801 97.5762 173.667 99.2634L173.667 99.2696Z" fill="#222221"/>
<path d="M194.352 58.8815C195.767 58.9557 196.713 57.7443 197.053 56.4836C197.504 55.3526 197.702 54.1474 197.417 52.9485C196.762 50.8595 194.661 52.0214 194.235 53.6097C193.777 54.8458 193.289 56.1931 193.431 57.528C193.233 58.109 193.542 58.8815 194.352 58.8877L194.352 58.8815Z" fill="#B85E98"/>
<path d="M170.491 87.6632C170.633 87.8672 170.849 87.9908 171.084 88.0341C171.387 88.5656 172.209 88.6768 172.635 88.2195C172.771 88.0402 172.951 87.8981 173.117 87.7559C173.185 87.7065 173.223 87.6756 173.247 87.6509C173.26 87.6447 173.26 87.6385 173.278 87.6323C173.896 87.175 174.527 86.73 175.2 86.3592C179.613 84.1652 184.866 82.9601 189.668 84.2703C191.059 84.5731 192.128 85.0799 192.857 85.4013C193.5 85.6608 194.155 86.1862 194.884 86.0069C196.195 85.5558 195.589 83.9674 194.612 84.0169C194.489 83.9613 194.365 83.9056 194.242 83.85C194.872 83.85 195.478 83.2938 195.175 82.478C195.101 82.3482 195.008 82.2308 194.915 82.1134L194.928 82.1134C194.983 82.2061 195.169 82.4224 195.002 82.1937C194.909 82.0454 194.804 81.9341 194.687 81.8538C194.13 81.2914 193.407 80.8588 192.826 80.3334C191.59 79.4497 190.639 78.2507 189.427 77.3484C188.42 76.6624 187.252 76.2606 186.121 75.828C184.162 75.0864 181.955 75.1358 179.959 75.6797C177.45 76.7612 175.46 78.8007 173.859 80.9638C172.827 82.3791 171.937 83.8871 171.066 85.4074C170.726 86.0873 169.885 86.9092 170.491 87.6571L170.491 87.6632ZM174.947 82.8797C176.103 80.902 178.995 78.2198 180.404 77.645C181.72 77.2557 182.134 77.2619 183.766 77.2989C183.964 77.3237 183.692 77.2866 183.599 77.2742C184.86 77.3607 186.726 78.1951 187.11 78.3496C188.624 78.9923 188.964 79.6042 190.323 80.8526C191.343 81.7673 192.517 82.5151 193.475 83.4916C193.475 83.4916 193.475 83.4916 193.475 83.4977C192.666 83.1393 191.85 82.7994 191.003 82.5336C189.019 82.0639 186.98 81.6684 184.934 81.6807C181.016 81.928 177.098 83.0219 173.661 84.9377C174.075 84.2456 174.502 83.5534 174.947 82.8797Z" fill="#222221"/>
<path d="M190.088 31.7132C190.91 32.4054 191.856 32.9555 192.9 32.6959C196.596 30.7058 188.976 25.6627 187.023 25.0262C186.17 24.7975 185.657 25.5948 185.799 26.2499C185.787 26.2684 185.775 26.2808 185.768 26.2931C185.262 27.3314 185.299 28.5119 185.113 29.6305C184.946 31.157 184.483 32.8133 185.132 34.2842C187.147 36.6883 189.353 34.0865 190.088 31.7132Z" fill="#222221"/>
<path d="M171.653 43.7152C172.784 43.9748 173.643 43.2517 174.205 42.3123C174.273 42.405 174.335 42.4977 174.409 42.5842C175.299 43.6781 176.745 43.9624 177.61 42.6831C177.95 42.0774 177.882 41.3482 177.876 40.6745C177.783 39.0058 176.838 37.5349 176.041 36.1135C175.744 35.6067 175.416 35.1185 175.095 34.6302C174.91 34.3274 174.7 34.006 174.329 33.9195C174.014 33.8206 173.711 33.9071 173.476 34.0864C173.29 34.0369 173.086 34.0307 172.852 34.0802C172.382 34.1976 172.098 34.6117 171.869 35.001C171.492 35.7056 171.164 36.4349 170.837 37.1579C170.305 38.4558 169.65 39.8093 169.724 41.2431C169.842 42.3556 170.503 43.4556 171.653 43.7152Z" fill="#222221"/>
<path d="M181.721 56.0816C182.487 56.7738 183.822 56.7985 184.385 55.8405C184.416 55.8096 184.446 55.754 184.483 55.6798C186.9 57.0519 188.773 55.3894 187.085 52.6515C186.529 51.7801 185.757 51.1064 184.885 50.5626C184.409 50.303 184.014 49.8086 183.47 49.7221C183.124 49.6541 182.84 49.7777 182.642 49.994C182.03 50.1671 181.702 50.9458 181.486 51.5452C181.171 52.3487 180.893 53.2077 180.961 54.0792C181.053 54.7837 181.239 55.5253 181.715 56.0754L181.721 56.0816Z" fill="#222221"/>
<path d="M166.796 57.343C166.833 58.1402 167.056 59.0116 167.754 59.4752C168.533 59.9201 169.577 59.71 170.041 58.9128C170.127 58.7706 170.208 58.6285 170.276 58.474C170.659 58.8695 171.11 59.1909 171.654 59.333C173.137 59.5864 173.681 58.097 173.304 56.8795C173.075 55.3282 172.111 54.0613 171.122 52.8994C170.683 52.5162 170.325 51.8796 169.719 51.7746C169.546 51.6077 169.324 51.4964 169.027 51.4903C167.896 51.5212 167.754 52.8499 167.457 53.6966C167.13 54.8832 166.722 56.0946 166.796 57.3368L166.796 57.343Z" fill="#222221"/>
<path d="M156.299 32.9739C156.608 33.9813 157.486 35.1617 158.672 34.8774C159.346 34.692 159.785 34.1481 160.05 33.5177C160.613 33.802 161.249 33.9009 161.855 33.5857C162.9 32.9306 162.825 31.3546 162.312 30.372C161.379 28.6415 160.205 27.0037 158.753 25.675C157.949 24.8777 156.787 25.8233 157.09 26.7009C157.016 26.8492 156.96 27.0037 156.917 27.1644C156.552 28.1409 156.416 29.1792 156.28 30.2113C156.169 31.126 155.971 32.0901 156.299 32.9739Z" fill="#222221"/>
<path d="M27.2192 55.6368C27.5221 56.4959 27.9362 57.3487 28.5171 58.0533C28.7582 58.2696 29.0115 58.4674 29.2649 58.6651C30.1796 60.0372 31.2797 61.2979 32.6826 62.1817C33.8136 62.9481 35.0126 63.6094 36.1745 64.3386C36.8481 64.9443 37.4723 65.4511 37.942 65.7539C38.8196 66.409 39.5427 67.3917 40.6304 67.6883C41.712 67.8985 42.5154 66.7922 42.9975 65.964C44.2953 63.77 44.2892 61.9098 45.6983 60.3276C46.0444 59.9259 46.7366 58.9556 47.336 58.1954C47.7254 58.523 48.1456 58.8011 48.6277 58.9742C49.8452 59.2152 50.4138 59.3079 51.1122 59.6478C51.5695 60.031 52.0886 60.3338 52.6325 60.5872C53.3556 61.0754 53.8933 61.5019 54.536 62.0087C55.3704 62.7256 56.2727 63.3683 57.3233 63.733C57.688 63.8627 58.0959 63.9925 58.4852 63.8936C58.8931 63.7577 59.2083 63.4548 59.4555 63.1149C59.9994 62.4475 60.0674 62.2868 60.8832 61.4092C62.2737 60.3029 63.6396 59.1596 64.9745 57.9853C65.574 58.01 66.1241 57.3796 66.4825 56.6318C66.8657 56.2796 67.2488 55.9273 67.6258 55.5688C67.6444 55.5565 67.6629 55.5441 67.6938 55.5194C67.7124 55.5008 67.7371 55.4823 67.768 55.4638C68.2254 55.9829 68.1944 55.9767 68.5653 56.4773C70.0794 58.4859 71.2228 60.7355 72.6566 62.7936C72.6381 62.8492 72.6257 62.9048 72.6071 62.9542C72.5948 62.979 72.5824 62.9913 72.5639 63.0222C72.5762 63.0099 72.5763 63.0037 72.5886 62.9913C72.4774 63.1582 72.3105 63.4548 72.3661 63.6032C72.3414 64.3819 73.2746 64.8392 73.8926 64.4499C74.1831 64.8269 74.523 65.1606 75.0236 65.1668C76.303 64.9937 77.2424 63.9678 78.1879 63.1767C79.3869 62.1261 80.2274 61.5266 81.8899 60.4389C83.0333 59.6849 84.189 58.9371 85.3879 58.2696C87.0628 57.4723 87.6005 57.0026 88.7315 55.4081C89.1517 54.7716 89.3804 54.0238 89.8068 53.3872C89.9057 53.2883 90.0602 53.1091 90.122 53.0225C90.4001 52.695 90.3754 52.2191 90.2704 51.8298C89.6956 50.5443 88.4163 49.7161 87.4769 48.6964C86.5004 47.8188 85.629 46.626 84.3435 46.1995C83.3114 45.9894 82.2298 46.0327 81.2966 46.558C80.2089 47.2502 79.1335 47.9671 78.0705 48.7025C77.7059 48.7025 77.3845 48.925 77.1991 49.2649C76.7232 49.5554 76.2226 49.8273 75.722 50.0869C75.7344 49.9077 75.7467 49.7285 75.7591 49.5554C76.0928 49.4627 76.3895 49.2217 76.476 48.8571C76.476 48.7705 76.476 48.6902 76.476 48.6037C76.4822 48.6037 76.4884 48.6037 76.4946 48.6037C76.4822 48.3812 76.4822 48.1587 76.476 47.9362C76.476 47.6334 76.476 47.3367 76.476 47.0339C76.4884 46.4776 76.5193 45.9152 76.5563 45.359C76.5625 45.359 76.5749 45.3528 76.581 45.3467C77.2485 44.5309 77.4648 42.1206 77.4277 40.3468C77.4092 39.29 77.3659 38.2393 77.2856 37.1887C77.2362 36.583 77.1558 35.724 76.5563 35.4582C76.9086 34.1851 77.4154 32.4793 77.6194 31.645C77.8851 30.0505 77.7862 28.4313 77.8542 26.8244C77.9407 26.2311 77.8665 26.021 78.2435 24.9703C78.2435 24.9703 78.2435 24.9765 78.2435 24.9827C78.293 24.8467 78.3548 24.6737 78.3424 24.5871C78.429 24.1113 78.4042 23.5488 78.0458 23.1842C76.6861 22.0779 74.455 23.246 73.6578 23.0915C73.2993 23.1101 72.9471 23.1224 72.5886 23.1348C72.2734 22.9988 71.9335 22.8567 71.2846 22.6713C69.826 22.5415 68.4416 22.9185 67.0573 23.2955C66.3095 23.3202 65.5678 23.3511 64.82 23.3943C62.7434 23.5674 60.6607 23.6168 58.5903 23.8764C56.1305 23.9629 53.6708 23.9938 51.2111 24.1669C50.1542 24.1669 49.289 23.8393 47.6945 23.9073C46.1432 23.9567 43.9183 24.6798 43.2262 24.7046C41.7738 24.8467 41.6996 24.7664 40.3894 24.3894C38.146 24.0247 38.2696 26.88 38.4117 28.388C38.4859 29.0617 38.523 29.7291 38.5415 30.4028C38.4859 30.5758 38.455 30.7674 38.455 30.9714C38.4797 31.2557 38.5168 31.5338 38.5415 31.8119C38.5106 33.5485 38.3561 35.2852 38.2263 37.028C38.251 40.6435 38.4179 44.2528 38.2634 47.8682C38.2634 47.9856 38.2572 48.1092 38.251 48.2267C37.083 47.9424 35.4266 47.2687 34.5985 46.2675C34.1968 45.7978 34.5367 46.2984 34.1164 45.563C33.7209 44.8213 32.6023 44.8831 32.2315 45.6124C31.2179 47.8373 29.5369 49.6543 28.307 51.7494C27.8002 52.5343 27.5963 53.1214 27.6148 53.6406C27.3058 53.7827 27.0709 54.067 27.0338 54.4317C26.9782 54.8334 27.1266 55.2351 27.2069 55.6244L27.2192 55.6368ZM87.2915 53.9063C87.1926 54.0917 87.0937 54.2771 86.9763 54.4502C86.4262 55.1795 86.6796 54.9632 85.9504 55.6306C86.0183 55.5812 86.0863 55.5256 86.1543 55.4761C85.8206 55.8098 85.493 55.9891 85.0295 56.2239C85.8268 55.4947 86.5869 54.7283 87.2915 53.9063ZM30.2661 53.9002C30.4762 54.1535 30.7915 54.308 31.1128 54.2895C31.0943 54.4626 31.0881 54.6418 31.0943 54.821C31.0139 54.7654 30.9398 54.7098 30.8532 54.6665C30.742 54.648 30.6369 54.6418 30.538 54.6418C30.4083 54.4935 30.2847 54.3637 30.1796 54.2401C30.2105 54.1226 30.2352 54.0114 30.2723 53.894L30.2661 53.9002ZM62.008 53.8569C62.2367 53.8569 62.453 53.7765 62.6322 53.6282C62.4159 54.0238 62.2058 54.4131 62.0018 54.7777C62.0018 54.4687 62.0018 54.1659 62.0018 53.8569L62.008 53.8569ZM68.1388 32.3125C67.6444 31.4102 67.1809 30.4893 66.7174 29.5684C66.7174 29.5684 66.7297 29.5684 66.7359 29.5684C66.8657 29.5684 66.9769 29.5684 67.0758 29.5684C67.4651 29.8095 67.8174 30.0443 68.1017 30.2668C68.1512 30.8601 68.1821 31.5461 68.1945 32.2074C68.1759 32.2445 68.1574 32.2754 68.1388 32.3125ZM44.1779 32.6277C44.2706 32.6029 44.3571 32.572 44.4498 32.5226C44.524 32.9243 44.6043 33.3199 44.6785 33.7216C44.5611 33.4558 44.3942 33.1777 44.1841 32.9676C44.1841 32.8563 44.1841 32.7451 44.1779 32.6277ZM56.5508 51.3724C56.557 51.7371 56.5632 52.0955 56.5755 52.4601C56.4828 52.1141 56.3963 51.768 56.3098 51.4219C56.3901 51.4095 56.4705 51.3971 56.5508 51.3724ZM63.3367 27.9059C63.3862 28.0419 63.4418 28.184 63.4912 28.32C63.2811 28.3942 63.0772 28.4745 62.867 28.5549C62.6136 28.1779 62.3603 27.8009 62.1069 27.4239C62.3664 27.4053 62.6446 27.393 62.9289 27.3744C62.9968 27.5907 63.1328 27.7762 63.3367 27.8998L63.3367 27.9059ZM72.7307 29.8836C72.638 29.1605 72.465 28.4622 72.1993 27.8009C72.3538 27.7762 72.5083 27.7514 72.6566 27.7082C72.6566 28.4313 72.6875 29.1544 72.7369 29.8836L72.7307 29.8836ZM58.5347 28.2459C58.4049 28.1902 58.2751 28.1284 58.133 28.0852C58.0094 28.0481 57.8796 28.0172 57.7498 27.9801C57.7498 27.9616 57.7436 27.943 57.7374 27.9307C57.9105 27.9059 58.0835 27.8812 58.2566 27.8565C58.3431 27.9739 58.442 28.1037 58.5347 28.2459ZM36.6194 61.953C36.6751 61.8912 36.7307 61.8233 36.7801 61.7429C36.8728 61.5204 36.9099 61.2979 36.9285 61.0693C36.9408 61.1249 36.9656 61.1743 36.9779 61.23C37.1139 61.6255 37.2684 62.1199 37.5712 62.4413C37.5527 62.5711 37.5341 62.6947 37.5156 62.8245C37.4847 62.8059 37.46 62.7874 37.4291 62.7688C37.1819 62.5463 36.9532 62.293 36.6194 61.9592L36.6194 61.953ZM63.7755 56.2054C63.7755 56.2734 63.7694 56.3475 63.7632 56.4155C63.4603 56.6689 63.1637 56.9223 62.8732 57.1757C62.9597 57.0459 63.0401 56.9161 63.1266 56.7925C63.3429 56.6009 63.5592 56.4032 63.7817 56.2054L63.7755 56.2054ZM60.6421 59.0607C60.6112 59.0854 60.5803 59.1101 60.5494 59.1348C60.5927 59.0545 60.6236 58.9741 60.6545 58.8938C60.9017 58.6899 61.149 58.4859 61.3962 58.2758C61.4209 58.2758 61.4394 58.2881 61.4641 58.2881C61.5259 58.282 61.5877 58.2572 61.6433 58.2449C61.3158 58.523 60.9821 58.8011 60.636 59.0669L60.6421 59.0607ZM40.3894 26.4721C40.6181 26.5525 40.8468 26.6143 41.0754 26.6575C40.8653 26.8924 40.7169 27.2261 40.6613 27.5908C40.5748 27.5908 40.4883 27.6093 40.408 27.634C40.4018 27.461 40.3894 27.2879 40.3832 27.1087C40.3462 26.9789 40.3647 26.6946 40.3832 26.4721L40.3894 26.4721Z" fill="#94C6D2"/>
<path d="M195.674 91.1116C195.804 91.5751 196.033 92.0386 196.36 92.3291C196.478 92.4898 196.651 92.6257 196.904 92.6937C197.85 92.9966 198.851 92.8421 199.821 92.7494C201.521 92.6381 203.239 91.6987 203.95 90.1042C204.481 88.9979 203.77 87.663 202.738 87.1315C201.119 86.3219 199.005 86.4084 197.33 87.0079C196.75 87.2984 196.218 87.731 195.921 88.3119C195.915 88.3305 195.909 88.349 195.903 88.3675C195.439 89.171 195.371 90.2031 195.674 91.1116Z" fill="#C95B47"/>
<path d="M163.11 94.2512C164.198 96.0929 166.515 96.9149 168.549 96.3649C170.736 95.9446 172.603 94.8198 172.689 92.3786C172.615 90.5122 170.953 89.6346 169.284 89.4615C168.308 89.3008 167.208 89.1031 166.293 89.6098C166.231 89.6346 166.182 89.6716 166.126 89.7025C165.533 89.7952 164.958 89.9806 164.445 90.2711C163.129 91.0375 162.443 92.8483 163.11 94.2512Z" fill="#C95B47"/>
<path d="M44.344 67.2619C44.9991 67.0024 45.5925 66.6007 46.2414 66.3164C46.2476 66.3164 46.2537 66.3164 46.2599 66.3102C47.7988 65.927 49.2759 65.3337 50.8086 64.9196C52.5453 64.5797 53.12 64.3572 54.5662 64.4808C54.6342 64.4067 55.8517 64.8269 56.7293 64.6662C57.9344 64.487 59.1211 64.3016 60.3509 64.1471C60.4375 64.2027 60.524 64.2522 60.6229 64.2769C61.0184 64.3943 61.383 64.2151 61.7106 63.9988C63.4658 63.8381 65.3446 63.7825 67.5139 63.9555C67.5757 63.9308 67.8538 63.974 68.2184 64.0544C68.4594 64.2213 68.7561 64.3201 69.0404 64.4252C69.5101 64.6601 70.0663 65 70.8079 65.4202C71.2035 65.6304 71.6114 65.995 72.0873 65.9023C72.1367 65.9023 72.18 65.8899 72.2294 65.8776C72.3036 65.9208 72.3777 65.9641 72.4395 66.0135C73.039 66.4709 74.0279 66.8664 74.5037 66.0444C74.8498 65.4882 74.5037 64.7342 73.9166 64.5673C73.6941 64.4499 73.484 64.3078 73.2801 64.1718C73.243 64.1533 73.2121 64.1347 73.175 64.1162C72.5879 62.806 71.5001 61.78 70.8018 60.5254C70.0725 59.4315 69.6646 58.1213 68.7685 57.151C67.3655 56.0139 66.4632 57.9236 66.0244 58.3685C65.1406 59.1658 64.1703 59.8642 63.2618 60.6367C62.5635 61.0631 61.8713 61.5081 61.1853 61.9531C61.1235 61.9902 61.0617 62.0273 60.9999 62.0643C59.7082 62.2188 58.4783 62.4228 57.1248 62.5835C57.0259 62.6082 56.9456 62.6267 56.8591 62.6391C56.8344 62.5958 56.8096 62.5464 56.7787 62.5031C56.5501 62.1756 56.1483 62.0767 55.759 62.0458C55.3202 61.916 55.4005 61.8728 54.5971 61.5699C52.5885 60.8901 52.1126 60.7541 50.2524 59.6788C49.6591 59.3883 49.0905 58.9495 48.4168 58.8877C47.7556 58.9062 47.3785 59.3821 47.2302 59.9754C46.8779 60.5749 46.3155 61.1558 46.3773 61.8975C45.1722 62.8925 43.9547 64.1595 43.5777 64.9011C43.4973 65.0679 43.4788 65.241 43.5035 65.414C42.6692 66.131 43.2007 67.5215 44.344 67.2558L44.344 67.2619Z" fill="#E8B518"/>
<path d="M0.786536 34.1914C1.2995 35.1308 2.02875 35.8972 2.85073 36.5585C3.91992 37.0282 5.11888 37.2321 6.25605 37.4361C7.18309 37.5597 8.11633 37.6215 9.04337 37.7389C9.38329 37.7451 9.74174 37.8625 10.0817 37.8687C10.403 38.0356 10.7553 38.1715 11.0581 38.3508C13.4314 39.3891 15.7119 40.6004 17.8503 42.0651C19.7538 43.1343 20.4892 43.5916 22.0034 45.0316C23.8636 46.8981 25.866 48.6656 26.8796 50.3776C26.9847 50.5506 27.1145 50.668 27.2504 50.7484C26.447 52.3305 25.4952 53.8818 25.0132 55.5752C25.0811 56.4157 25.7301 57.0399 26.2245 57.6765C27.1454 58.7333 28.1836 59.685 29.2034 60.6492C30.7361 62.0335 32.1884 63.4983 33.7088 64.8888C35.2662 66.1496 36.9534 67.2312 38.6097 68.3498C38.9126 68.5537 39.2154 68.7577 39.5245 68.9616C38.5109 69.6724 37.5097 70.4696 36.5085 71.3843C36.4776 71.409 36.4528 71.4337 36.4219 71.4584C35.7607 71.99 35.1426 72.5709 34.6173 73.2322C34.5493 73.362 34.5246 73.4918 34.5184 73.6215C33.783 74.7093 33.202 75.9082 32.6891 77.1258C30.9401 81.3901 30.6187 86.0501 30.8226 90.6049C30.9339 91.9646 31.1934 93.2933 31.5704 94.585C29.9945 95.5615 28.3938 96.5133 27.0836 97.8482C26.5706 98.3982 25.8722 98.8432 25.4952 99.4983C25.18 100.116 25.7301 100.907 26.4099 100.883C26.8981 100.889 27.201 100.506 27.5223 100.191C28.3011 99.4551 29.0613 98.6949 29.9018 98.0336C30.0377 97.8667 31.1502 97.224 32.2441 96.5503C32.6952 97.6752 33.2329 98.7629 33.851 99.8135C33.8386 99.8444 33.8262 99.863 33.82 99.8815C33.4183 100.357 32.9795 100.809 32.5098 101.21C31.0636 102.008 29.636 102.823 28.4618 104.004C28.1095 104.331 27.6398 104.659 27.6583 105.19C27.646 105.74 28.1466 106.235 28.7028 106.222C29.2096 106.229 29.531 105.839 29.8647 105.524C30.6681 104.813 30.9895 104.504 31.4345 104.214C32.652 103.472 33.9993 102.916 34.914 101.773C34.951 101.729 34.9881 101.686 35.0252 101.649C35.8719 102.854 36.8113 104.004 37.8249 105.067C37.8867 105.141 37.9485 105.209 38.0103 105.283C36.9905 106.42 35.4331 106.952 33.7891 108.627C33.0166 109.418 32.0772 110.116 31.4654 111.031C31.1378 111.667 31.7064 112.483 32.4171 112.458C33.0352 112.458 33.3689 111.896 33.7768 111.525C34.4999 110.79 35.2601 110.079 36.0326 109.393C36.7928 108.627 38.0103 108.157 39.2402 107.02C39.2896 106.976 39.339 106.927 39.3823 106.884C40.4762 108.114 41.6319 109.3 42.9236 110.314C41.1561 112.069 39.2896 113.738 37.8372 115.771C37.1574 116.939 38.9435 117.971 39.6357 116.815C40.0127 116.278 41.533 114.498 42.6455 113.478C43.2821 112.811 44.0113 112.199 44.6603 111.537C46.1312 112.6 47.7504 113.398 49.4562 113.973C48.4673 115.641 47.256 117.946 46.8975 118.447C46.3537 119.108 45.6182 119.584 45.0187 120.19C44.7221 120.449 44.4316 120.758 44.4501 121.179C44.4316 121.846 45.13 122.359 45.7727 122.174C46.5514 121.809 47.0705 121.024 47.7689 120.524C48.8504 119.609 49.4005 118.262 50.0865 117.063C50.4882 116.185 51.0754 115.388 51.5574 114.553C52.5895 114.794 53.6402 114.974 54.697 115.091C54.9751 115.134 55.2594 115.171 55.5375 115.202C55.4077 116.562 55.383 117.341 55.0864 118.286C54.697 119.72 53.875 121.111 53.7638 122.594C53.8194 123.422 54.9628 123.781 55.5252 123.187C55.8527 122.866 55.8465 122.371 56.0072 121.97C56.3471 120.913 56.7551 119.881 57.1011 118.824C57.4411 117.65 57.4905 116.624 57.6141 115.314C59.4681 115.314 61.3284 115.073 63.1578 114.733C63.1578 117.069 61.8229 119.498 61.7981 122.402C61.7672 123.428 63.2443 123.818 63.7387 122.922C63.9241 122.637 63.8685 122.304 63.8809 121.988C63.9427 121.142 63.9242 121.451 63.9983 120.993C64.363 119.047 65.1355 117.155 65.2158 115.165C65.2035 114.887 65.2405 114.578 65.222 114.288C66.3159 113.997 67.3789 113.62 68.4481 113.262C69.1774 114.683 69.2083 115.326 69.1341 117.248C69.0352 118.509 68.7324 120.14 69.3257 121.296C69.7954 121.982 70.9573 121.735 71.1489 120.944C71.223 120.017 71.0253 120.252 71.0685 119.108C71.1921 117.23 71.4579 115.252 70.809 113.447C72.4653 112.891 74.1339 112.205 75.7284 111.383C76.5257 112.242 76.9954 113.039 77.7 114.498C78.0708 115.141 78.1388 116.16 78.9546 116.408C79.5973 116.599 80.2833 116.074 80.2772 115.413C80.1659 114.696 79.7147 114.059 79.4675 113.379C78.9607 112.316 78.3489 111.259 77.5887 110.339C79.1152 109.411 80.5367 108.336 81.7851 107.119C81.9582 107.255 82.1683 107.341 82.4094 107.335C83.9235 107.187 86.8282 107.353 87.3659 107.471C87.8232 107.539 88.3177 107.755 88.7503 107.483C89.3312 107.162 89.4363 106.321 88.9604 105.864C88.6576 105.555 88.2002 105.543 87.7985 105.462C86.3709 105.265 84.9247 105.172 83.4847 105.227C84.5292 103.886 85.3697 102.397 85.9259 100.747C87.7985 101.359 89.7638 101.754 91.6921 102.02C92.3843 101.977 92.786 101.105 92.4213 100.53C91.9146 99.8073 90.8516 99.968 90.0852 99.727C88.8492 99.486 87.6131 99.2326 86.4203 98.8247C87.4154 91.3033 87.8356 83.2195 84.4179 76.2234C83.6825 74.6907 82.6998 73.294 81.5626 72.0209C81.5626 72.0209 81.5626 72.0147 81.5626 72.0085C81.5008 71.8354 81.4019 71.6871 81.2907 71.5512C81.2907 71.5512 81.2907 71.5512 81.2845 71.545C81.2166 71.4646 81.1424 71.3905 81.0682 71.3163C80.5614 70.8033 80.2401 70.6365 79.9372 70.3707C79.9125 70.346 79.8878 70.3213 79.8569 70.2966C80.0052 70.2039 80.1597 70.1173 80.308 70.0184C80.3142 70.0184 80.3204 70.0123 80.3266 70.0061C79.9372 70.037 79.5355 69.9628 79.2079 69.7465C79.0163 69.6167 78.8557 69.4684 78.7135 69.3139C78.5528 69.1841 78.4045 69.0234 78.2624 68.8442C78.0275 68.6402 77.7865 68.4487 77.5393 68.2571C77.5393 68.152 77.5393 68.0408 77.5022 67.9172C77.2303 67.2991 76.9151 66.8603 76.6061 66.4833C79.313 64.4871 81.4452 62.528 83.7628 60.1115C84.319 59.6294 84.8814 59.1535 85.4377 58.6653C87.3535 56.9657 89.3869 55.3465 91.0123 53.3503C91.1421 53.1587 91.2904 52.9486 91.414 52.7322C91.4387 52.7075 91.4634 52.689 91.4881 52.6643C91.5067 52.6519 91.5128 52.6519 91.5314 52.6334C91.9764 52.4047 92.1927 51.9782 92.2112 51.5333C90.9937 50.0562 89.7948 48.5667 88.5834 47.0835C90.7589 43.0169 96.3953 41.1999 101.216 38.8637C103.027 38.2333 104.868 37.3187 106.803 36.6079C106.908 36.6079 107.013 36.5832 107.124 36.5338C108.589 35.959 110.183 35.7241 111.685 35.2853C111.759 35.2853 111.834 35.2853 111.914 35.2853C112.056 35.514 112.204 35.7303 112.384 35.9404C113.725 37.3125 115.808 37.5102 117.631 37.5782C118.502 37.6215 119.361 37.4855 120.214 37.3125C120.27 37.3001 120.331 37.2877 120.393 37.2816C120.492 37.2692 120.591 37.2507 120.69 37.2321C120.987 37.1827 121.289 37.1147 121.518 36.9726C121.537 36.9602 121.561 36.9602 121.58 36.9478C122.105 37.1827 122.773 36.9416 123.341 37.0096C125.251 37.0096 127.766 38.153 130.115 39.0244C131.61 39.5621 133.199 39.8155 134.651 40.4706C136.283 41.206 139.206 42.7017 141.48 43.7708C144.039 45.0934 146.628 46.3666 149.329 47.3678C150.164 47.547 152.79 49.4443 153.254 49.8028C153.612 50.0562 154.273 50.668 154.372 50.736C154.397 50.7669 154.416 50.7978 154.434 50.8349C154.267 51.1563 154.107 51.4838 153.971 51.8237C153.322 52.9733 153.674 54.438 155.225 54.0486C155.757 53.8323 156.301 53.6531 156.844 53.4615C156.418 55.7667 156.505 58.3439 157.883 60.2722C158.958 61.4897 160.837 62.1695 162.363 61.4155C162.913 61.2301 163.408 60.8655 163.797 60.4143C165.07 62.769 166.288 65.1484 167.555 67.5031C168.327 68.7577 169.026 70.1729 170.002 71.2978C168.884 72.0394 167.833 72.8799 166.875 73.8378C164.576 76.2729 162.604 79.0355 161.288 82.1256C159.891 85.6545 158.977 89.3998 158.538 93.1759C158.291 92.632 157.975 92.1932 157.574 92.0202C156.869 91.3033 155.825 91.3342 154.904 92.5641C154.558 93.077 154.335 93.8496 154.23 94.7333C153.742 94.8322 153.272 94.8693 152.796 94.8693C147.432 91.3713 142.234 87.4468 137.791 83.8561C136.406 82.6324 134.96 81.4705 133.656 80.1603C131.536 77.8983 129.942 75.3706 127.742 72.5215C127.433 72.1383 127.136 71.6439 126.58 71.6686C125.721 71.6439 125.239 72.7872 125.869 73.3805C127.192 74.9997 129.262 78.059 131.11 80.3024C132.587 82.1441 134.472 83.5841 136.221 85.1477C140.096 88.2935 144.076 91.328 148.18 94.1709C147.976 94.1277 147.772 94.0906 147.556 94.0473C144.626 93.2872 140.906 92.527 138.909 91.5505C134.966 89.1773 131.586 85.2343 127.309 82.2245C125.307 80.9328 123.428 79.3012 121.296 78.2629C120.616 78.1208 119.992 78.8624 120.195 79.5113C120.369 80.1046 121.017 80.2962 121.469 80.6361C124.658 82.7745 127.507 84.7028 129.942 86.8782C132.476 88.9919 134.799 91.3898 137.63 93.1203C138.823 93.8928 140.213 94.1771 141.561 94.5603C143.606 95.1536 145.664 95.6975 147.747 96.1301C149.206 96.4267 150.683 96.7666 152.166 96.8532C152.772 97.2487 153.384 97.6319 153.995 98.0151C153.575 98.1263 153.167 98.2252 152.759 98.3055C151.838 98.0954 150.881 98.0769 149.941 97.9842C147.667 97.7678 145.967 97.7431 144.286 97.3352C140.238 96.1919 136.326 94.6283 132.395 93.1265C127.859 91.4454 123.261 89.9498 118.694 88.3738C118.156 88.2255 117.575 87.8547 117.037 88.1822C116.29 88.5901 116.438 89.8077 117.278 90.0116C122.766 91.8904 128.292 93.6703 133.706 95.7593C136.876 96.9768 140.065 98.1881 143.334 99.1213C140.936 99.0101 138.699 98.5836 136.042 98.1696C131.258 97.2611 127.117 97.156 122.884 96.0621C120.863 95.6357 118.521 94.5232 117.587 93.9114C117.074 93.2686 115.764 93.3304 115.721 94.4799C115.709 94.962 116.079 95.2957 116.45 95.5491C117.044 95.9632 117.692 96.2784 118.348 96.5812C122.321 98.4724 126.753 98.837 131.054 99.3994C134.305 99.795 140.535 101.179 144.849 101.167C147.376 100.938 149.991 100.821 152.518 100.37C152.852 100.493 153.241 100.401 153.526 100.172C153.94 100.079 154.354 99.9804 154.762 99.863C155.058 100.691 155.454 101.371 155.948 101.76C156.214 101.921 156.498 101.995 156.789 102.014C156.851 102.032 156.919 102.057 156.98 102.069C156.993 103.225 157.061 104.412 157.172 105.604C157.697 109.881 159.045 114.176 161.492 117.749C162.716 119.516 164.248 121.024 165.75 122.551C167.561 124.368 169.446 126.166 171.677 127.47C176.492 130.004 182.363 129.695 187.517 128.478C190.088 127.687 192.641 126.704 195.014 125.431C199.074 122.816 202.857 119.658 205.613 115.66C206.837 114.04 207.288 112.032 207.924 110.141C209.173 106.624 209.884 102.972 210.032 99.2387C210.075 95.2896 209.964 91.1179 208.357 87.4592C208.233 87.2799 208.073 87.1749 207.9 87.1192C208.116 87.0574 208.308 86.9153 208.437 86.6804C208.629 86.4209 208.814 86.1551 208.981 85.8832C209.432 85.5062 209.618 84.95 209.717 84.3567C209.853 83.9797 209.952 83.5903 210.013 83.1886C218.783 76.3594 223.159 65.5686 228.054 55.8594C228.999 57.1697 229.901 58.5788 230.841 60.062C232.59 62.7628 234.32 65.4759 235.89 68.288C236.323 68.9616 236.496 69.8268 236.972 70.4696C236.916 70.5252 236.873 70.587 236.836 70.655C236.558 71.1989 236.774 71.8478 236.78 72.4287C236.91 74.1777 237.361 75.8959 238.226 77.4224C238.455 77.8241 238.715 78.232 239.011 78.6028C239.215 77.7376 239.475 76.8971 239.778 76.0689C239.363 75.2593 239.005 74.2766 238.875 73.2445C238.85 73.1889 238.764 72.4164 238.714 71.6006C238.708 71.4337 238.702 71.2607 238.684 71.0876C239.629 71.7304 240.464 72.4349 241.1 73.1147C241.428 72.5029 241.78 71.8972 242.163 71.3101C241.341 70.5067 240.389 69.8207 239.438 69.1965C239.024 68.9925 238.622 68.6341 238.183 68.4363C237.231 66.3474 235.902 64.3944 234.728 62.4229C229.759 54.6728 226.824 48.7583 217.553 45.4951C214.902 44.6979 212.09 44.1726 209.309 44.3394C205.607 44.8215 201.905 45.8598 198.691 47.7942C198.401 47.5037 198.092 47.2256 197.739 47.0093C197.727 47.0031 197.715 46.9969 197.702 46.9908C198.345 45.1058 198.914 43.2023 199.334 41.2493C199.6 39.9453 199.933 38.6598 200.298 37.3743C200.496 36.7068 200.687 36.0331 200.879 35.3657C201.695 32.6093 202.529 29.8652 203.011 27.0409C203.438 25.5329 203.808 24.0187 203.988 22.4551C204.198 21.3674 204.284 20.2611 204.346 19.1548C207.096 17.8508 209.272 15.6197 211.008 13.1229C213.171 10.3974 214.679 7.11566 215.44 3.73506C215.199 0.0268957 208.005 5.0391 206.651 4.43962C204.266 4.48288 201.441 2.88219 198.481 2.17764C195.78 1.67086 193.086 3.16648 190.854 3.43841C190.916 3.30863 190.953 3.16647 190.947 2.99961C190.91 -0.516964 191.046 -4.03353 190.836 -7.54393C190.564 -10.8071 190.045 -14.0641 189.303 -17.2593C188.926 -19.2308 188.679 -21.2208 188.321 -23.1923C188.308 -23.3592 188.265 -23.5323 188.191 -23.6806C190.873 -23.5261 193.778 -23.9463 195.823 -25.7572C197.9 -28.6557 193.914 -29.8671 191.633 -29.8052C189.699 -29.558 187.171 -29.558 185.991 -27.7472C185.509 -26.8758 185.15 -25.6645 185.743 -24.7745C185.873 -24.5891 186.052 -24.4779 186.25 -24.4284C186.324 -24.2368 186.448 -24.0638 186.615 -23.9402C186.491 -23.8227 186.392 -23.6744 186.349 -23.5014C186.25 -23.0193 186.454 -22.5249 186.497 -22.0428C187.245 -16.8576 188.58 -11.901 188.852 -7.33998C189.124 -3.79868 188.759 -0.189404 189.031 3.32717C188.123 3.07378 186.609 2.51757 185.577 2.52375C183.166 2.36924 181.294 4.007 179.328 5.13799C176.782 6.83138 174.625 6.59035 172.79 5.10708C171.881 4.35309 171.263 3.29627 170.305 2.5979C168.513 1.44837 167.678 2.13438 166.35 3.48786C165.565 4.20477 164.965 4.78573 164.465 5.21834C164.452 3.53113 164.218 1.85009 163.915 0.193778C163.433 -2.85927 162.073 -5.81962 159.675 -7.83439C156.498 -10.8565 151.814 -11.0111 147.673 -10.8071C147.265 -10.7329 146.616 -10.7391 145.973 -10.6835C146.01 -10.7515 146.048 -10.8256 146.066 -10.906C146.357 -12.1606 146.511 -13.4337 146.387 -14.713C146.313 -15.6524 146.116 -16.6413 145.43 -17.3335C143.588 -18.8723 141.66 -17.2717 141.011 -15.3805C140.405 -13.3905 140.399 -10.3745 142.197 -9.00246C142.809 -8.65019 143.575 -8.60692 144.2 -8.89121C144.441 -8.57602 144.861 -8.40915 145.263 -8.52657C145.374 -8.56365 145.695 -8.61928 145.856 -8.644C147.098 -8.79233 148.353 -8.84795 149.607 -8.87267C153.977 -8.82323 156.542 -8.37206 159.242 -5.48588C160.707 -3.77394 161.368 -2.42665 161.9 0.29885C162.246 2.01696 162.53 3.68564 162.456 5.97851C162.456 6.0156 162.456 6.05267 162.45 6.09593C162.184 6.04649 161.906 5.92908 161.585 5.73749C159.867 4.84135 158.223 3.77215 156.399 3.08614C155.324 2.84511 154.138 3.22828 153.291 3.90811C151.511 5.45936 151.251 5.90435 149.342 6.37405C147.061 6.78194 142.655 5.10709 139.002 5.78692C137.482 6.2319 136.246 8.16014 137.031 9.95242C137.642 11.5098 139.039 12.6161 139.966 13.9943C141.258 15.3972 143.489 19.7358 145.973 21.3488C146.252 21.3983 147.345 22.5973 148.143 23.2462C148.347 23.4316 148.557 23.6355 148.81 23.7406C148.872 23.9755 148.952 24.2103 149.002 24.439C150.368 27.9246 151.536 31.1507 152.506 34.7786C154.199 39.5374 155.93 44.29 157.765 48.9932C157.666 48.919 157.574 48.851 157.481 48.7892C157.401 48.7274 157.308 48.6533 157.252 48.6224C157.036 48.4555 156.758 48.369 156.486 48.3813C156.239 48.3813 156.053 48.4678 155.88 48.5853C155.837 48.6965 155.781 48.8078 155.707 48.9252C155.608 49.0797 155.516 49.2342 155.417 49.3887C154.391 48.301 152.833 47.4605 151.696 46.6076C148.52 45.0254 146.091 44.3147 142.896 42.5533C140.263 41.274 137.655 39.9267 134.979 38.7401C133.471 38.085 131.827 37.8316 130.294 37.2507C127.735 36.2618 125.115 35.0629 122.309 35.2915C122.439 34.4139 122.192 33.5425 121.728 32.7144C121.938 32.4362 122.019 32.0592 122.043 31.6699C122.043 31.639 122.043 31.6143 122.043 31.5834C122.05 31.2991 122.043 31.0148 122.025 30.7737C121.982 29.7355 121.252 28.932 120.467 28.3325C119.775 27.7022 118.891 27.251 118.045 26.8555C117.278 26.6021 116.333 26.4043 115.554 26.6886C114.905 26.6824 114.287 26.874 113.836 27.4302C113.725 27.5847 113.632 27.7578 113.552 27.9308C113.317 27.9061 113.082 27.9617 112.89 28.1657C112.544 28.4994 112.248 28.8826 112 29.2967C111.555 29.8467 111.265 30.5265 111.24 31.2867C111.24 31.2929 111.24 31.3053 111.24 31.3114C111.098 32.0716 111.098 32.8565 111.253 33.6043C110.857 33.7094 110.455 33.8083 110.054 33.9071C109.874 33.9257 109.689 33.9319 109.51 33.9566C106.951 34.519 104.504 35.6994 102.65 36.4472C100.796 37.1023 99.0404 37.9738 97.2605 38.8019C94.8378 39.7908 92.5079 40.9712 90.4004 42.5286C89.2447 43.4124 88.0952 44.4383 87.3597 45.7115C87.2608 45.6126 87.1681 45.5137 87.0692 45.4148C87.0136 45.4642 86.958 45.5137 86.9024 45.5631C86.7231 45.4148 86.5378 45.2603 86.34 45.0811C85.5304 44.4939 84.9989 43.2764 83.8988 43.2393C82.7245 43.4 81.816 44.2653 80.8704 44.908C80.1226 45.4457 79.3316 45.9339 78.5652 46.4469C78.5467 42.8129 78.491 39.1666 78.8186 35.5449C78.9978 32.2879 79.1214 29.0309 79.3068 25.7739C79.3501 24.8036 79.3995 23.8271 79.4119 22.8568C79.4119 22.5849 79.3006 22.3192 79.1091 22.1276C79.0349 22.0534 78.9546 21.9978 78.868 21.9545C79.3686 16.6765 79.245 11.3615 78.936 6.0774C78.7939 1.33713 78.8866 -3.40932 78.8618 -8.14958C78.7691 -11.0543 79.3686 -12.4881 79.5293 -15.2692C79.8383 -17.4694 78.1326 -17.3149 76.4824 -17.3273C75.5925 -17.3644 74.7025 -17.3582 73.8126 -17.3335C73.9485 -18.8971 74.0968 -20.4668 74.1525 -22.0366C74.857 -22.2468 75.5492 -22.5125 76.26 -22.7226C78.7259 -23.4766 81.2969 -24.1874 83.3858 -25.7633C83.8679 -26.1094 84.3252 -26.5668 84.4859 -27.1539C84.591 -27.7657 84.4426 -28.4518 84.0965 -28.9709C82.9223 -31.3009 77.6382 -30.8002 74.5604 -30.1637C72.2428 -29.7249 70.8337 -28.05 70.9511 -25.6706C70.9944 -24.9043 71.2539 -24.1688 71.6433 -23.5075C71.7978 -23.285 71.9708 -23.044 72.181 -22.871C72.181 -22.8277 72.1686 -22.7783 72.1748 -22.735C72.1501 -21.7833 72.1192 -20.8253 72.0265 -19.8735C71.9461 -18.9959 71.8905 -18.1183 71.804 -17.2469C71.3899 -17.2222 70.9758 -17.1851 70.5617 -17.1542C70.1909 -17.3829 69.6841 -17.3458 69.3566 -17.0677C68.3306 -16.9874 67.2985 -16.9008 66.2664 -16.8267C65.1787 -16.6227 63.7758 -16.839 63.0033 -15.912C62.3234 -15.1704 61.9835 -14.2371 61.7301 -13.2854C61.0936 -11.4004 60.8155 -9.44125 60.4755 -7.48828C59.9626 -4.68244 59.1962 -1.92605 58.5906 0.861253C58.0529 3.54967 57.2865 6.02177 56.3471 7.88822C56.2359 8.19105 56.2235 8.25285 56.205 8.30229C55.9454 8.30229 55.6858 8.30231 55.4324 8.30849C55.3088 8.33321 54.9813 8.32702 54.6784 8.31466C54.6599 8.08599 54.6414 7.83878 54.6414 7.73989C54.629 2.34452 54.2149 -4.4476 53.4548 -8.81705C53.2941 -10.2323 53.2076 -11.6538 53.0778 -13.0752C53.0407 -13.8045 52.948 -14.6203 52.2867 -15.0653C51.545 -15.6833 50.5686 -15.8687 49.6353 -15.9861C47.8245 -16.2643 46.0014 -16.0788 44.1905 -15.9676C44.0237 -15.9614 43.863 -15.9552 43.6961 -15.9491C43.6961 -15.9676 43.6961 -15.98 43.6961 -15.9985C42.8803 -15.8502 42.0583 -15.7575 41.2549 -15.8255C39.9571 -15.7389 38.6654 -15.5968 37.3922 -15.3063C36.6197 -15.1209 35.8163 -14.8922 35.1983 -14.3916C34.7471 -13.9528 34.7347 -13.2668 34.6544 -12.6859C34.5679 -11.4684 34.5617 -10.2509 34.5246 -9.03335C34.4813 -5.26957 34.4196 -1.50579 34.5864 2.25799C34.9078 8.17251 35.4826 14.1427 36.4343 19.9892C36.5641 20.9409 36.6073 21.8989 36.7186 22.8506C36.7927 23.2709 36.7186 23.7283 36.8793 24.1238C36.8793 24.1238 36.8855 24.1361 36.8917 24.1423C36.8051 24.303 36.7309 24.4946 36.6815 24.7171C35.8719 27.9617 36.0944 31.33 36.354 34.6241C36.5456 38.9008 37.1698 42.3556 37.3614 46.1317C36.5023 45.594 35.1365 44.735 34.2774 44.4074C33.7521 44.1911 33.3009 43.8388 32.7756 43.6287C32.0957 43.4186 31.4345 43.9315 31.0328 44.4321C29.9389 45.7918 29.1416 47.343 28.2825 48.851C27.3431 47.4296 26.0453 46.2739 24.8772 45.0378C23.0046 43.0169 20.8415 41.3482 18.4126 40.0441C16.3917 38.6412 14.1853 37.5659 11.9481 36.5523C11.534 36.4102 11.1508 36.095 10.7429 35.9157C10.78 35.6932 10.8109 35.4646 10.8356 35.2421C10.9778 34.0369 10.403 32.8998 9.93331 31.8244C8.59837 29.6242 5.93468 28.6416 3.45022 28.6416C2.43047 28.5983 1.62084 28.8332 0.996633 29.2287C0.755603 29.5253 0.557831 29.8467 0.421865 30.1928C0.434226 30.5204 0.353885 30.8603 0.180838 31.194C0.0572325 32.2076 0.279724 33.2829 0.767966 34.1729L0.786536 34.1914ZM187.468 -25.856C187.468 -25.856 187.468 -25.8684 187.468 -25.8808C187.486 -26.1094 187.579 -26.4432 187.721 -26.6904C187.839 -27.2281 190.465 -27.9388 192.585 -27.7534C192.764 -27.7287 192.943 -27.6978 193.123 -27.6483C193.296 -27.6298 193.858 -27.4444 193.988 -27.4073C194.118 -27.3393 194.278 -27.2404 194.402 -27.1663C194.402 -27.1477 194.39 -27.1292 194.383 -27.1107C194.383 -27.0983 194.365 -27.0859 194.359 -27.0736C194.328 -27.0427 194.285 -27.0056 194.235 -26.9623C194.217 -26.95 194.198 -26.9376 194.161 -26.9067C194.031 -26.7955 193.407 -26.4988 193.302 -26.4432C191.658 -25.7572 190.558 -25.6768 189.223 -25.6212C188.691 -25.5718 188.067 -25.7572 187.499 -25.7695C187.492 -25.7942 187.486 -25.8251 187.48 -25.8499L187.468 -25.856ZM144.422 -12.9207C144.095 -12.8342 143.81 -12.6055 143.724 -12.2409C143.631 -11.7341 143.545 -11.2212 143.384 -10.7268C143.384 -10.7268 143.378 -10.7144 143.371 -10.7082C143.371 -10.7082 143.359 -10.702 143.353 -10.6958C143.322 -10.702 143.291 -10.7082 143.26 -10.7144C143.236 -10.7391 143.217 -10.7576 143.192 -10.7886C143.112 -10.906 143.044 -11.0296 142.988 -11.1532C142.599 -12.2718 142.648 -13.2112 142.685 -13.5882C142.889 -14.7748 142.865 -14.7501 143.47 -15.6895C143.47 -15.6895 143.483 -15.7019 143.489 -15.708C143.569 -15.7513 143.748 -15.8564 143.878 -15.9305C143.878 -15.9305 143.878 -15.9305 143.884 -15.9305C143.94 -15.912 143.99 -15.8935 144.045 -15.8749C144.064 -15.8626 144.082 -15.8502 144.095 -15.844C144.354 -15.4979 144.527 -14.0394 144.416 -12.9084L144.422 -12.9207ZM162.116 59.308C161.986 59.3946 161.85 59.4625 161.708 59.5244C161.572 59.58 161.375 59.6541 161.282 59.685C161.214 59.6974 161.164 59.7098 161.134 59.7159C160.429 59.7716 159.966 59.3142 159.694 59.2215C158.699 58.5355 158.495 55.6802 158.779 53.9436C159.601 54.8582 160.38 55.8224 161.134 56.7988C161.609 57.3921 162.104 57.9607 162.611 58.5293C162.413 58.999 162.543 58.8445 162.11 59.308L162.116 59.308ZM159.069 103.812C159.038 103.324 159.014 102.829 159.001 102.329C159.1 102.786 159.212 103.231 159.335 103.682C159.236 103.713 159.15 103.757 159.069 103.812ZM182.054 127.297C179.106 127.489 176.943 127.266 174.143 126.413C172.005 125.616 169.378 123.397 167.184 121.111C165.046 118.911 163.581 117.563 162.234 115.11C160.849 112.551 159.959 109.943 159.465 107.174C161.288 111.507 165.033 114.714 168.321 117.99C170.589 120.079 173.031 121.976 175.503 123.818C176.943 124.837 178.302 126.043 180.002 126.599C181.318 127.186 182.116 125.184 180.731 124.732C179.891 124.59 177.975 123.181 176.671 122.205C174.155 120.313 171.968 118.663 169.36 116.21C166.189 113.052 163.105 110.301 161.541 106.939C161.609 106.939 161.671 106.952 161.739 106.958C161.739 107.137 161.77 107.31 161.869 107.465C162.017 107.681 162.209 107.86 162.469 107.922C163.482 108.311 163.426 108.274 164.088 108.565C166.171 109.51 168.031 110.864 169.984 112.038C172.647 113.911 174.396 115.029 176.64 117.514C178.018 119.077 180.255 122.674 182.048 125.177C182.017 125.35 181.986 125.523 181.961 125.696C181.813 126.234 181.8 126.821 182.103 127.18C182.085 127.217 182.066 127.26 182.048 127.297L182.054 127.297ZM182.591 121.976C182.573 122.112 182.548 122.248 182.53 122.39C180.669 119.627 178.945 116.741 176.461 114.492C174.057 112.31 171.343 110.499 168.575 108.818C167.784 108.33 166.968 107.817 166.127 107.353C169.322 107.885 172.542 108.948 175.422 110.765C178.278 112.458 180.274 114.739 183.253 116.519C183.253 116.55 183.265 116.574 183.265 116.599C183.03 118.453 182.826 120.406 182.591 121.976ZM175.682 108.571C171.529 106.278 166.467 104.894 161.696 104.993C161.708 104.875 161.696 104.745 161.659 104.616C159.86 98.6949 160.033 93.3057 161.727 87.3046C163.019 81.9958 165.281 78.0837 169.279 74.3385C171.43 72.4411 174.316 71.0814 177.338 70.0679C182.017 68.6588 185.743 68.3498 190.379 69.9628C193.778 71.0073 196.064 72.5894 198.679 74.8576C201.176 77.1257 203.011 78.8253 204.222 81.6312C205.057 83.3678 206.021 87.6631 206.101 89.7026C206.206 91.328 206.188 92.9534 206.188 94.5788C206.188 94.6221 206.194 94.6653 206.2 94.7086C203.512 96.4267 200.805 98.1387 198.32 100.141C195.57 102.656 192.857 105.203 189.995 107.588C188.036 109.387 186.467 111.55 184.909 113.694C184.792 113.861 184.68 114.034 184.563 114.201C184.279 114.183 183.988 114.269 183.778 114.467C181.133 112.668 178.846 110.425 175.688 108.565L175.682 108.571ZM204.828 113.12C202.665 117.155 198.549 120.66 194.915 123.107C192.838 124.454 190.162 125.598 187.548 126.345C191.269 122.711 194.686 118.781 198.209 114.961C201.182 111.661 204.389 108.534 207.306 105.197C206.62 108.114 205.428 111.414 204.828 113.113L204.828 113.12ZM208.042 95.9014C208.147 98.4786 207.98 101.006 207.733 102.941C207.714 103.108 207.683 103.281 207.659 103.454C207.214 103.058 206.404 103.071 205.984 103.769C200.607 109.424 195.329 115.165 190.051 120.913C188.518 122.65 186.738 124.226 185.23 125.95C185.064 126.296 185.132 126.636 185.329 126.889C184.989 126.957 184.643 127.025 184.316 127.075C189.235 116.593 196.757 108.305 205.496 102.008C206.052 101.488 206.929 101.186 207.226 100.456C207.479 99.6281 206.491 98.8617 205.755 99.3253C200.15 103.491 194.674 107.934 190.41 113.515C188.259 116.259 186.281 119.176 184.575 122.229C184.711 121.29 184.829 120.351 184.934 119.405C185.07 118.225 185.138 117.662 185.212 117.094C185.509 116.89 185.675 116.513 185.663 116.154C187.245 113.793 188.469 112.1 190.335 110.067C191.942 108.386 193.833 107.001 195.552 105.438C197.121 104.028 198.561 102.471 200.218 101.161C201.349 100.258 205.032 97.8173 207.078 96.5071C207.368 96.2846 207.745 96.1301 208.042 95.9014ZM210.563 70.5376C210.131 72.2804 209.723 74.0418 209.241 75.7784C210.075 71.8849 210.977 68.0098 211.867 64.1286C211.521 66.2299 211.107 68.3498 210.563 70.5376ZM215.594 47.0093C217.491 47.5346 219.772 48.4431 221.54 49.5741C223.56 50.7051 225.198 52.2193 226.675 54.0054C226.311 54.4318 226.101 55.0375 225.792 55.4886C224.889 57.1079 224.055 58.7642 223.196 60.4081C221.286 64.0483 219.457 67.7503 217.108 71.1371C215.977 72.8243 214.414 74.8638 212.838 76.7055C215.749 70.2656 218.431 63.7207 220.68 57.0152C221.014 56.051 221.348 55.0869 221.682 54.1228C221.923 53.5542 222.151 52.7384 221.552 52.3181C221.002 51.8608 220.186 52.2007 219.945 52.8311C217.176 58.3254 215.217 64.1595 212.887 69.351C214.117 63.6219 214.865 57.7939 215.285 51.9473C215.39 50.7484 215.495 49.5494 215.613 48.3504C215.625 48.2639 215.644 48.1526 215.662 48.0785C215.749 47.7324 215.73 47.3307 215.594 47.0093ZM198.11 58.4366C198.914 57.1202 198.963 55.433 198.722 53.9436C198.611 53.4306 198.438 52.93 198.234 52.4479C198.493 52.4912 198.784 52.5406 199.408 52.621C199.729 52.6766 200.069 52.6642 200.354 52.4912C201.571 51.6816 200.761 50.2539 200.051 49.3331C201.855 48.2454 203.839 47.4728 206.318 46.9351C208.932 46.1997 210.662 46.1255 213.592 46.5829C213.715 46.6014 213.857 46.6261 213.987 46.6508C213.851 46.7744 213.752 46.929 213.703 47.1082C213.394 48.3195 213.103 49.5308 212.807 50.7422C211.75 55.2167 210.835 59.7283 209.816 64.2152C208.802 68.529 207.788 72.8366 206.892 77.1752C205.811 68.5908 205.199 59.24 205.187 50.2292C205.217 49.3702 204.068 48.8881 203.475 49.5185C203.302 49.7163 203.172 49.9573 203.184 50.2292C203.203 51.2366 203.221 52.2502 203.24 53.2575C203.24 61.4773 204.08 71.236 205.131 79.0602C205.051 78.918 204.976 78.7759 204.89 78.6337C202.418 75.1357 199.031 72.299 195.465 69.969C193.908 69.1532 192.27 68.461 190.589 67.9233C190.607 67.8739 190.638 67.8306 190.651 67.7812C190.657 67.7565 190.663 67.7317 190.675 67.7008C190.984 67.6205 191.256 67.398 191.349 67.0272C191.806 64.8579 192.356 62.7195 192.968 60.5935C195.057 61.2425 197.127 60.0682 198.11 58.4366ZM193.543 58.6838C194.093 56.9039 194.68 55.1363 195.317 53.3873C195.354 53.2946 195.391 53.2019 195.428 53.1092C195.638 52.8929 195.848 52.689 196.052 52.485C196.367 53.1525 196.559 53.4553 196.806 54.5739C196.868 55.3959 196.936 56.7865 196.2 57.7135C196.194 57.7197 196.194 57.7259 196.182 57.7321C195.842 58.1338 195.156 58.554 194.896 58.6776C194.303 58.8754 193.982 58.7394 193.66 58.7209C193.611 58.7085 193.58 58.6962 193.549 58.6838L193.543 58.6838ZM181.306 6.31224C184.322 4.29129 185.07 4.09971 188.395 5.23688C191.096 6.00324 193.722 4.67448 196.336 4.15534C198.561 3.41371 203.277 6.69543 207.121 6.43586C209.284 6.31225 211.132 5.00202 213.209 4.49523C212.566 6.57798 211.46 9.45182 209.692 11.6087C208.474 13.2403 207.455 14.6247 206.058 15.7742C206.787 14.8843 207.504 13.9819 208.172 13.0425C208.567 12.4678 208.956 11.8992 209.333 11.3121C209.55 11.0278 209.686 10.6693 209.581 10.3171C209.383 9.48272 208.159 9.32203 207.751 10.076C205.934 12.9622 204.173 14.9708 201.855 17.6221C201.138 17.6592 200.36 17.721 199.698 18.0053C199.235 18.03 198.759 18.098 198.333 18.0918C197.987 18.1351 197.591 18.2031 197.171 18.2896C198.839 15.8113 200.329 13.2156 201.658 10.5334C202.115 9.62487 202.572 8.71019 203.023 7.80169C203.221 7.46178 203.209 6.9859 202.943 6.68924C202.665 6.28135 202.072 6.18864 201.651 6.42967C201.009 6.94263 200.842 7.88204 200.409 8.56805C199.606 10.1811 198.809 11.7941 197.894 13.3454C197.245 14.4578 196.577 15.5703 195.873 16.6456C196.293 14.3095 196.621 11.9548 197.158 9.64341C197.239 9.14898 197.511 8.61131 197.22 8.13543C196.961 7.66573 196.305 7.49885 195.848 7.77697C195.224 8.16014 195.31 8.99446 195.113 9.62485C194.816 11.0401 194.563 12.4678 194.309 13.8954C194.062 15.6135 193.679 17.3317 193.364 19.0312C191.559 19.1548 189.761 18.6851 187.956 18.852C186.343 19.0498 183.321 19.9521 182.641 19.9583C181.232 20.0819 179.823 19.9335 178.407 19.8594C178.494 17.0968 178.321 14.3342 178.148 11.5778C178.092 10.7497 178.037 9.92151 177.956 9.09336C177.956 8.82761 177.851 8.57422 177.666 8.38264C177.561 8.27757 177.437 8.20341 177.307 8.15397C178.642 7.86967 179.99 7.21456 181.325 6.30606L181.306 6.31224ZM148.711 21.0336C147.593 20.0757 146.659 19.4577 145.603 18.3143C144.002 16.4911 142.562 13.8769 140.572 11.5346C139.367 9.9895 138.817 9.66195 138.804 8.5495C138.909 8.37645 139.082 8.1416 139.175 8.01182C139.249 7.9253 139.323 7.84495 139.41 7.77079C139.521 7.73989 139.83 7.64101 139.96 7.62865C140.003 7.62247 140.022 7.61627 140.053 7.61009C140.065 7.61009 140.077 7.61011 140.108 7.60393C140.454 7.57921 140.807 7.59157 141.153 7.62247C141.548 7.62247 144.459 7.96855 143.773 7.88821C145.942 8.08598 148.217 8.81526 150.368 8.17251C152.84 7.66573 154.348 5.15654 155.454 5.05766C155.732 4.77336 157.357 5.68185 159.181 6.7016C160.225 7.24546 161.245 7.98092 162.45 8.09834C164.36 8.40118 165.688 6.72631 167.017 5.64477C167.264 5.39138 168.364 4.36545 168.618 4.1306C168.655 4.10588 168.692 4.07498 168.723 4.05026C168.828 4.08116 168.927 4.11826 169.026 4.15534C169.088 4.18624 169.162 4.22949 169.23 4.26657C169.329 4.34691 169.495 4.48906 169.551 4.56322C170.095 5.16271 170.608 5.79928 171.201 6.35551C172.882 7.87585 174.6 8.42589 176.337 8.28992C176.232 8.36409 176.133 8.46296 176.065 8.58039C175.824 8.96357 175.985 9.42091 175.997 9.84735C176.09 11.0031 176.158 12.1588 176.226 13.3145C176.325 14.977 176.411 16.6395 176.417 18.302C176.448 18.8087 176.374 19.3402 176.362 19.8594C176.312 19.8594 176.269 19.8594 176.22 19.8656C176.003 19.8841 175.787 19.915 175.571 19.9397C175.014 17.1401 174.18 14.4208 173.148 11.7632C172.722 10.9845 172.697 9.42092 171.659 9.27259C171.177 9.1737 170.688 9.52598 170.558 9.9895C170.472 10.9413 171.152 11.825 171.38 12.7397C172.332 15.1995 173.074 17.721 173.599 20.3044C171.968 20.6814 170.447 21.1449 169.174 21.1078C167.555 21.1572 165.466 20.4032 163.303 20.1128C162.302 17.1215 160.565 14.4455 159.187 11.6211C158.699 10.657 158.21 9.69285 157.728 8.72873C157.561 8.25903 157.11 7.82641 156.579 7.94383C156.09 7.98091 155.713 8.44444 155.713 8.9265C155.757 9.48272 156.152 9.94624 156.356 10.4592C157.147 12.0475 157.957 13.6173 158.785 15.1871C159.823 17.0906 160.509 18.4565 161.158 20.0324C160.781 20.0572 160.41 20.1066 160.04 20.1931C159.885 20.2302 159.749 20.2735 159.601 20.3106C159.576 20.2117 159.545 20.119 159.483 20.0201C156.999 16.3737 154.335 13.5926 152.067 10.4345C151.461 9.90298 150.436 10.4221 150.46 11.2194C150.541 11.9734 151.233 12.5172 151.616 13.1353C152.339 14.0994 153.093 15.0388 153.853 15.972C155.485 17.8941 156.325 19.0312 157.685 20.8668C155.812 21.4663 154.243 21.9916 152.092 21.7444C150.85 21.5837 150.905 21.7073 149.663 21.3303C149.342 21.2623 149.026 21.114 148.705 21.0213L148.711 21.0336ZM154.477 34.3212C153.489 30.6192 152.321 27.4179 150.936 23.8642C150.911 23.79 150.893 23.7097 150.874 23.6294C152.735 23.9075 154.644 23.8518 156.461 23.3883C157.926 22.9557 159.341 22.3377 160.855 22.0843C160.911 22.0781 160.967 22.0658 161.022 22.0596C161.195 22.041 161.368 22.0225 161.541 22.0163C161.739 21.9792 162.679 22.0534 163.019 22.0843C165.515 22.4798 167.994 23.4439 170.552 23.0299C173.321 22.6343 175.243 21.7135 177.567 21.8556C179.359 21.8494 181.164 22.1893 182.956 21.9359C184.612 21.7505 187.394 20.8853 188.135 20.8544C190.224 20.737 192.319 21.3365 194.396 20.9286C195.737 20.737 197.029 20.3167 198.364 20.1004C198.487 20.0881 198.722 20.0695 198.821 20.0633C199.482 19.9954 200.187 20.119 200.817 19.9212C200.959 19.8717 201.07 19.779 201.169 19.674C201.213 19.6678 201.256 19.6616 201.299 19.6554C201.466 19.8285 201.695 19.9521 201.936 19.9768C201.886 20.3105 201.843 20.6196 201.837 20.7246C201.522 23.1102 201.373 24.8345 201.077 26.738C200.996 27.0409 200.91 27.3499 200.823 27.6527C200.403 29.5315 199.939 31.3979 199.439 33.2582C199.235 33.9133 199.031 34.5622 198.839 35.2173C198.642 35.9095 198.462 36.6079 198.283 37.3063C197.863 38.6907 197.424 40.0627 196.954 41.4285C195.867 43.9501 194.532 47.8127 193.339 51.1377C191.775 55.1178 190.626 59.2462 189.779 63.4426C189.482 64.7281 189.081 65.9889 188.728 67.262C188.716 67.3115 188.71 67.3609 188.704 67.4104C188.098 67.2682 187.486 67.1384 186.868 67.0457C184.866 66.7923 182.82 66.9407 180.818 67.1879C177.703 67.7565 174.576 68.7391 171.764 70.2656C169.743 67.8121 167.87 63.6404 166.035 60.2783C165.849 59.9199 165.651 59.5614 165.46 59.2092C165.491 58.931 165.41 58.6406 165.182 58.4243C165.046 58.2821 164.922 58.1338 164.792 57.9855C163.822 56.2673 162.802 54.5801 161.851 52.8558C161.813 52.7446 161.758 52.6333 161.677 52.5406C161.121 51.5209 160.59 50.495 160.114 49.4381C158.526 45.5569 156.226 39.1789 154.496 34.3398L154.477 34.3212ZM114.763 28.9011C114.911 28.6168 115.14 28.4067 115.4 28.2584C115.579 28.3634 115.795 28.4129 116.03 28.3387C116.426 28.1719 117.427 28.4561 117.544 28.5056C118.026 28.8146 118.564 29.0371 119.034 29.3708C119.12 29.445 119.497 29.7664 119.608 29.8529C119.707 29.9085 119.948 30.1743 120.078 30.3288C120.103 30.372 120.134 30.4091 120.152 30.4524C120.152 30.4524 120.152 30.4586 120.152 30.4647C120.202 30.5574 120.239 30.6501 120.276 30.7428C120.344 31.0024 120.344 31.2867 120.319 31.5586C120.307 31.6143 120.301 31.6699 120.276 31.7255C120.134 32.0778 119.831 32.4053 119.479 32.5784C119.485 32.5846 119.497 32.5969 119.503 32.6031C119.429 32.6278 119.343 32.634 119.268 32.6525C119.238 32.6587 119.207 32.6649 119.17 32.6711C118.558 32.7885 117.89 32.702 117.427 32.6402C117.142 32.5907 116.864 32.4919 116.592 32.3868C116.524 32.3497 116.426 32.2817 116.358 32.2323C115.678 31.6699 115.344 31.3176 115.115 30.8232C114.559 30.3906 114.429 29.5377 114.757 28.9011L114.763 28.9011ZM113.088 31.3176C113.094 31.2805 113.107 31.2434 113.119 31.194C113.119 31.194 113.119 31.194 113.119 31.1878C113.169 31.0889 113.267 30.8788 113.261 30.7799C113.576 32.0531 114.553 33.0852 115.61 33.8144C116.969 34.5375 118.638 34.6241 120.115 34.2471C120.245 34.1914 120.381 34.1296 120.511 34.0617C120.678 34.4757 120.739 34.9022 120.597 35.2606C120.61 35.3039 120.585 35.3533 120.554 35.4028C120.109 35.2792 119.577 35.4399 119.12 35.4708C118.484 35.6067 118.354 35.6005 117.359 35.5017C116.079 35.5017 115.696 35.3719 114.633 34.7786C113.805 34.3521 113.076 32.7823 113.082 31.7008C113.082 31.571 113.082 31.4474 113.094 31.3176L113.088 31.3176ZM78.7197 72.0765C78.8742 72.2001 79.0287 72.3175 79.1832 72.4349C79.1832 72.472 79.1894 72.5091 79.1956 72.5524C80.0423 73.4052 80.8087 74.2396 81.0559 74.5857C82.7925 77.1628 83.46 78.8253 84.214 81.798C85.2337 85.5433 85.0792 88.9486 84.9185 93.2439C84.659 97.3785 84.4983 99.9618 82.4588 103.206C80.9817 105.357 78.7197 107.273 76.0436 108.837C75.9695 108.781 75.9015 108.725 75.8273 108.676C75.0672 108.305 74.3379 109.034 74.3873 109.733C73.8188 110.017 73.2378 110.289 72.6383 110.542C71.6062 111.068 71.0253 111.235 69.9128 111.575C69.7521 111.352 69.5605 111.173 69.2824 111.08C69.1526 111.037 69.0229 111.037 68.8993 111.049C68.6088 111.018 68.2936 111.074 68.0155 111.228C64.3753 112.563 60.9576 113.231 57.6141 113.219C57.2371 112.681 56.3533 112.662 55.9331 113.151C54.8453 113.07 53.7638 112.922 52.6822 112.681C49.9506 112.131 47.6824 111.142 45.6368 109.745C45.4946 109.343 45.0805 109.047 44.6479 109.016C43.2264 107.91 41.8977 106.587 40.5813 105.067C40.6987 104.82 40.7729 104.554 40.6802 104.276C40.5318 103.658 39.8273 103.404 39.2896 103.602C38.103 102.273 37.0894 101.006 36.1624 99.5663C36.1686 99.4551 36.1686 99.3376 36.1624 99.2264C36.0821 98.8927 35.841 98.6702 35.5505 98.5589C35.0932 97.7617 34.6482 96.9088 34.2218 95.9509C34.1414 95.7593 34.0796 95.5553 34.0055 95.3576C34.0735 95.3019 34.1353 95.2525 34.1909 95.203C34.7409 94.5665 34.1785 93.6703 33.4739 93.5962C32.1575 88.1823 32.8621 81.0688 35.4084 76.2296C35.7298 75.1172 36.836 73.912 37.9299 72.9046C38.7519 72.2619 39.5986 71.718 40.8161 70.9084C41.8235 70.2162 42.7753 69.4128 43.8939 68.8875C44.1288 68.8071 44.3018 68.6588 44.413 68.4796C44.4378 68.4796 44.4625 68.4796 44.4872 68.4796C47.2127 67.2682 50.0124 66.6935 52.8491 66.4895C58.0096 66.1867 64.1837 65.9766 68.3987 66.9654C70.4938 67.5587 72.0945 67.9728 73.7013 68.6711C73.8682 68.7577 74.0289 68.8504 74.1772 68.9616C76.3403 70.1668 77.4775 71.1371 78.7197 72.0703L78.7197 72.0765ZM43.4984 66.6873C43.4984 66.6873 43.5046 66.6749 43.5107 66.6749C45.0867 64.382 46.6688 62.0706 47.8431 59.5491C47.874 59.5676 47.8987 59.5923 47.9296 59.6047C50.1421 60.9149 52.5586 61.842 54.7773 63.1275C55.3645 63.4426 55.9022 63.8444 56.4398 64.2461C51.5327 64.3017 47.3734 64.9321 43.4984 66.6873ZM60.593 64.2152C60.8278 63.9247 61.0565 63.6528 61.279 63.4612C62.787 61.706 64.4618 60.1053 66.2294 58.6035C66.8845 58.072 67.4716 57.4663 68.0649 56.8668C68.4048 57.6208 68.7509 58.3686 69.1465 59.0917C70.4443 61.3784 72.0512 63.4735 73.4047 65.7355C73.4479 65.7973 73.5035 65.8715 73.5653 65.958C73.3861 65.9209 73.2069 65.9086 73.0277 65.9333C72.8979 65.9642 72.7928 66.0198 72.6939 66.094C71.9956 65.8591 71.291 65.6428 70.5865 65.4327C67.348 64.382 63.9736 64.2152 60.593 64.2152ZM74.4615 1.72031C74.3441 -3.86666 74.4306 -9.45363 74.3193 -15.0468C74.3193 -15.1209 74.3132 -15.1889 74.3008 -15.2507C75.4936 -15.2816 76.5875 -15.2816 77.4528 -15.2383C77.4033 -14.1321 77.3044 -13.8169 77.1252 -12.4758C76.606 -9.52778 76.8285 -6.53034 76.7853 -3.55145C76.6308 2.36306 77.082 8.17251 77.1129 14.0499C77.0881 15.9658 77.0819 17.8879 76.9707 19.7976C76.983 20.1746 76.9212 20.5639 76.8718 20.9533C76.2167 21.5651 75.37 21.9607 74.3935 22.2203C74.5418 21.3427 74.548 20.4465 74.4986 19.5504C74.4059 17.103 74.3008 14.6618 74.2514 12.2082C74.1525 8.70402 74.5604 5.21217 74.4615 1.70795L74.4615 1.72031ZM73.0153 -26.4555C73.3058 -27.3331 73.1575 -27.1539 73.7384 -27.7039C73.7755 -27.7287 73.8249 -27.7596 73.8682 -27.7843C73.93 -27.8214 74.0536 -27.8708 74.1587 -27.9202C77.1808 -28.8596 80.2524 -29.2861 81.9273 -28.3467C82.0694 -28.2046 82.3042 -27.9821 82.434 -27.8646C82.4526 -27.8399 82.4649 -27.8152 82.4773 -27.7905C82.4897 -27.7534 82.4958 -27.7163 82.5082 -27.6669C82.5082 -27.6483 82.5082 -27.6421 82.5206 -27.6236C82.0694 -27.1415 81.0929 -26.6162 80.0423 -26.0909C79.5355 -25.8128 76.0993 -24.7312 74.5975 -24.2677C74.3441 -24.1565 74.0412 -24.0761 73.7322 -23.9958C73.689 -24.1256 73.621 -24.2492 73.5097 -24.3542C73.485 -24.379 73.4665 -24.4099 73.4418 -24.4346C73.3552 -24.5582 73.2811 -24.6942 73.2131 -24.8301C73.0462 -25.0464 72.8608 -26.0785 73.0215 -26.4555L73.0153 -26.4555ZM69.097 6.97971C69.2144 3.95138 69.5729 0.941599 69.8696 -2.07437C70.1415 -6.03592 70.2898 -10.0037 70.7224 -13.9529C70.8028 -14.6018 70.8275 -14.8366 70.8646 -15.1024C71.3528 -15.1333 71.841 -15.158 72.3293 -15.1827C72.3293 -15.1395 72.317 -15.0962 72.317 -15.0468C72.4035 -8.79852 72.3911 -2.54407 72.4591 3.70418C72.3849 7.55448 72.0944 11.4048 72.3355 15.2551C72.3355 17.9126 72.8175 20.6319 72.2551 22.5911C71.3095 22.6838 70.296 22.7209 69.233 22.7518C69.2145 22.5787 69.1588 22.4118 69.0661 22.2697C68.9054 19.7172 68.8498 17.1586 68.8436 14.5938C68.992 11.9857 69.0723 9.22315 69.0908 6.97971L69.097 6.97971ZM65.6361 -3.20535C65.6979 -7.02476 66.1243 -10.8936 66.044 -14.7007C66.73 -14.781 67.5025 -14.849 68.306 -14.917C68.1824 -14.5894 68.1823 -14.2001 68.1267 -13.8601C67.5952 -8.62545 67.9228 -3.35987 67.4407 1.87482C66.8783 6.17628 66.8227 10.5025 66.8598 14.8348C66.7238 17.4862 66.3468 19.8965 66.1738 21.9298C66.1614 22.3439 66.421 22.6652 66.7609 22.8259C65.7782 22.8692 64.7955 22.9495 63.8067 23.0052C63.8067 22.9434 63.8067 22.8816 63.8067 22.8136C63.9427 19.1054 64.5174 16.7013 64.8203 13.2898C65.049 7.78933 65.395 2.30125 65.6423 -3.19919L65.6361 -3.20535ZM58.6029 14.7236C59.3693 11.2565 59.771 7.20221 60.1171 4.48289C60.2469 3.48168 60.4385 2.49285 60.6424 1.51019C60.8402 0.657309 61.0256 -0.207944 61.211 -1.067C61.2357 -1.16589 61.2605 -1.27093 61.279 -1.36981C61.588 -2.82217 61.9032 -4.27455 62.274 -5.70837C62.6572 -8.0816 63.5101 -12.383 64.0539 -13.7056C63.7635 -4.71334 63.2258 4.27276 62.8117 13.2651C62.5212 16.4232 61.9156 19.3712 61.7734 23.0731C61.4335 23.0731 61.0936 23.0855 60.7475 23.0731C59.6721 23.0299 58.5967 22.9928 57.5214 22.9743C57.9911 19.9397 58.1456 17.1463 58.5967 14.7298L58.6029 14.7236ZM54.6784 10.966C54.6352 10.7806 54.6166 10.5828 54.6043 10.3789C55.5375 10.3727 56.5078 10.521 57.3854 10.2305C57.3854 10.2305 57.3916 10.2244 57.3978 10.2182C56.7056 13.8769 56.0937 17.5418 55.7662 21.2561C55.6858 21.8247 55.6735 22.0843 55.4942 22.9434C55.1852 22.9434 54.87 22.9434 54.561 22.9434C54.629 22.109 54.6537 21.2685 54.6908 20.428C54.8515 17.2761 55.0369 14.1056 54.6723 10.9598L54.6784 10.966ZM50.9703 -13.4708C51.131 -11.8083 51.2237 -10.1334 51.4215 -8.47095C51.953 -4.83077 52.2743 -2.27213 52.4165 1.65234C52.4783 3.4817 52.5339 5.30487 52.5463 7.13423C52.5648 7.58538 52.5586 8.16015 52.6266 8.69783C52.5339 8.84616 52.4721 9.01921 52.4783 9.2108C53.1025 13.3887 52.8367 17.5974 52.6328 21.7938C52.6575 22.177 52.5772 22.5725 52.5463 22.9619C52.0271 22.9681 51.508 22.9866 50.9888 22.999C49.6663 17.3873 50.2225 10.4963 49.9197 4.04409C49.8455 0.923057 49.3449 -2.16708 49.0791 -5.27576C48.8628 -7.95799 48.9246 -10.6526 48.9308 -13.341C48.9431 -13.6006 48.8381 -13.8107 48.6836 -13.9837C49.827 -13.9096 50.7107 -13.7427 50.9765 -13.4708L50.9703 -13.4708ZM45.4822 -13.9837C46.0632 -14.0146 46.6441 -14.0332 47.2065 -14.027C46.675 -13.3657 47.0149 -12.3954 46.916 -11.6105C46.6564 -5.65275 47.9729 0.206142 47.9667 6.15156C48.1892 11.7818 47.7566 17.5233 48.9555 23.067C48.3375 23.0917 47.7195 23.1164 47.1076 23.1535C46.916 23.1597 46.7121 23.1782 46.5143 23.1906C46.5143 23.1349 46.5267 23.0608 46.5576 22.9557C47.2498 19.6122 46.7739 16.1945 46.8604 12.8139C47.1756 6.97973 45.989 1.23208 45.6924 -4.57738C45.5502 -7.71077 45.3525 -10.8442 45.4761 -13.9837L45.4822 -13.9837ZM43.486 -13.854C43.35 -9.50923 43.6343 -5.15832 43.9742 -0.832136C44.2833 2.49903 44.8209 5.81165 44.8889 9.15518C44.9013 12.0166 44.8147 14.8843 44.9136 17.7457C45.0496 20.1004 44.8271 21.1696 44.5119 23.2585C44.5119 23.2956 44.5243 23.3327 44.5243 23.3698C44.2462 23.4007 43.9742 23.4254 43.7023 23.4563C43.2944 18.6048 42.6578 13.7842 42.0522 8.9574C41.8297 6.60272 41.8297 4.23569 41.5824 1.88719C41.292 -1.01136 40.7914 -3.89137 40.6616 -6.80227C40.5133 -9.06425 40.7419 -11.3448 40.3958 -13.5944C40.3958 -13.6191 40.3958 -13.6376 40.3958 -13.6624C41.3723 -13.7551 42.423 -13.8045 43.4984 -13.8478L43.486 -13.854ZM36.8051 4.81045C36.5085 -0.306811 36.5332 -5.43642 36.663 -10.5599C36.7495 -11.6847 36.663 -12.2595 36.7927 -12.9022C37.2624 -13.1062 37.8125 -13.2607 38.4058 -13.3843C38.4244 -13.2359 38.4553 -13.0814 38.48 -12.9393C38.6468 -11.969 38.5418 -8.05068 38.6963 -6.06064C38.8631 -3.59471 39.2649 -1.14734 39.5183 1.31859C39.9076 5.59534 40.0127 9.89063 40.7049 14.1427C41.1931 17.2761 41.3662 20.4713 41.7493 23.6108C40.9892 23.6417 40.3155 23.6108 39.7964 23.4872C39.4936 23.4254 39.1784 23.376 38.8755 23.3574C38.8446 22.931 38.7519 22.486 38.7457 22.1214C38.5603 19.0869 37.9052 16.5962 37.6951 14.1921C37.4726 11.0649 37.04 7.95003 36.8175 4.82282L36.8051 4.81045ZM32.5964 45.8721C33.4245 46.3233 34.3021 46.6879 35.1179 47.1576C36.1068 47.7139 36.9782 48.6038 38.1586 48.7274C39.852 48.746 39.4936 46.7065 39.4565 45.5755C38.962 40.5077 38.3378 35.514 38.1895 29.8529C38.1586 28.2646 38.4923 26.1015 38.653 25.3969C39.2216 25.3969 40.4515 25.7801 41.6875 25.6936C44.9322 25.3475 48.1768 25.1559 51.4338 25.0385C54.7959 24.8283 58.1579 25.1373 61.5262 25.1373C64.3073 25.1003 67.0699 24.7727 69.851 24.8098C72.3355 24.6738 74.9868 24.5688 77.1932 23.3142C77.2303 23.2894 77.2735 23.2585 77.3106 23.2338C77.2859 23.7777 77.3415 24.3401 77.2735 24.8716C77.187 26.8307 77.0881 28.7837 76.9645 30.7367C76.9212 33.8453 76.5381 36.9355 76.5072 40.0441C76.5072 42.1887 76.4886 44.3333 76.4701 46.4778C76.4701 46.6447 76.4701 46.8177 76.4701 46.9908C76.2476 47.2751 76.2414 47.6706 76.1611 48.0167C76.1116 48.3319 75.9757 48.6409 75.9757 48.9685C75.9633 49.8337 77.0819 50.3034 77.6876 49.6792C77.8854 49.4876 78.0708 49.3269 78.25 49.1724C78.4663 49.1044 78.6826 49.0055 78.868 48.8819C81.0126 47.7695 82.8543 46.8548 84.455 46.7621C85.7714 48.0785 87.1063 49.3825 88.3918 50.7298C88.5093 50.9276 88.639 51.1192 88.7565 51.317C88.7812 51.2737 88.7997 51.2304 88.8244 51.181C89.0345 51.4035 89.2262 51.6322 89.4301 51.8608C87.8171 53.3873 86.1237 54.8335 84.5415 56.3971C83.837 57.1079 83.0583 57.936 82.2857 58.758C79.9558 60.7666 77.6258 62.7752 75.3144 64.8085C73.5406 62.0335 71.5197 59.3946 70.1291 56.4033C69.7459 55.7359 69.6347 54.8274 68.9796 54.3638C67.6817 53.7211 66.8227 55.2909 65.9945 56.0201C64.4618 57.4354 62.8303 58.7518 61.3902 60.266C60.7413 60.9767 59.3075 62.5094 58.6276 63.2696C56.6005 61.7493 54.4127 60.4638 52.0889 59.444C51.0692 58.9372 50.0371 58.4428 49.0544 57.868C48.4055 57.4169 47.5588 56.6752 46.7925 57.3304C46.2053 57.8371 46.0446 58.6653 45.6676 59.3142C44.8642 60.8778 43.9248 62.3735 42.9421 63.832C42.1881 64.9692 41.3971 66.0754 40.5998 67.1817C40.0683 66.8356 39.5368 66.4833 39.03 66.1434C36.3849 64.4068 34.9387 63.3623 32.8065 61.1683C30.9648 59.3822 28.2455 57.1079 27.2072 55.5443C28.2269 53.2514 31.2058 47.5285 32.6025 45.8721L32.5964 45.8721ZM1.68264 31.2929C1.70736 31.2434 1.72593 31.2126 1.74447 31.1817C1.76919 31.1569 1.79389 31.1322 1.81861 31.1137C1.96076 31.021 2.26358 30.8294 2.381 30.7861C4.23508 30.267 7.98037 31.2435 8.55514 33.6599C8.97539 34.9454 8.94449 34.7724 8.74673 35.718C6.96681 35.5264 5.7122 35.446 3.81486 34.828C3.71597 34.7971 3.62326 34.76 3.52437 34.7229C3.46875 34.692 3.39459 34.655 3.33278 34.6179C3.07939 34.4696 2.84454 34.2903 2.61587 34.1111C2.65295 34.142 2.65913 34.1482 2.61587 34.1111C2.59733 34.0926 2.57878 34.0802 2.53551 34.0431C2.44281 33.9751 2.25744 33.765 2.1771 33.6661C1.31186 32.5413 1.49723 31.7193 1.68264 31.2991L1.68264 31.2929Z" fill="#222221"/>
<path d="M69.5224 97.1182C70.6357 97.712 71.7181 97.0935 72.0212 96.1038C72.0769 95.9801 72.1017 95.844 72.0955 95.6956C72.114 95.4853 72.0955 95.2626 72.046 95.0337C72.0151 94.9038 71.9656 94.7925 71.9099 94.6873C71.8666 94.3657 71.78 94.0564 71.613 93.7781C71.1367 93.0235 69.9862 92.8689 69.3615 93.5431C68.4894 94.3904 68.4461 96.4192 69.5224 97.1182Z" fill="#222221"/>
<path d="M51.2628 98.2493C51.4793 98.472 51.7329 98.6019 51.9927 98.6699C52.4071 99.1648 53.2792 99.307 53.7184 98.5772C54.4668 97.303 55.6049 94.7299 53.6813 93.9691C52.7782 93.7835 51.7576 94.1299 51.2813 94.9402C50.6195 95.8618 50.4154 97.3834 51.269 98.2493L51.2628 98.2493Z" fill="#222221"/>
<path d="M47.2673 86.2295C48.4292 86.8475 48.8927 85.4137 49.4428 84.6968C50.0422 83.8192 50.753 83.0405 51.9396 81.9527C54.2757 79.8823 57.0321 78.8317 60.6847 77.9974C61.0864 77.7687 65.9317 78.0777 66.2036 78.1704C69.6028 78.8008 71.7164 79.87 73.2306 82.0145C73.5952 82.4719 73.7992 83.1579 74.4172 83.3247C75.2763 83.5905 76.0797 82.5646 75.5977 81.8106C73.3789 77.7872 68.6819 76.0629 64.263 75.927C61.6859 75.6427 59.1272 76.0135 56.7231 76.9776C53.8245 77.9294 51.1794 79.5301 49.1337 81.792C48.4354 82.5646 47.805 83.3989 47.2302 84.2641C46.7605 84.8698 46.4639 85.7536 47.2735 86.2295L47.2673 86.2295Z" fill="#222221"/>
<path d="M67.9773 42.6392C69.2886 42.6392 69.2825 40.6413 67.9773 40.6351C66.666 40.6351 66.6722 42.633 67.9773 42.6392Z" fill="white"/>
<path d="M57.0315 50.1553C58.3428 50.1553 58.3367 48.1574 57.0315 48.1512C55.7202 48.1512 55.7264 50.1491 57.0315 50.1553Z" fill="white"/>
<path d="M53.6014 39.21C54.9127 39.21 54.9065 37.2121 53.6014 37.2059C52.2901 37.2059 52.2963 39.2038 53.6014 39.21Z" fill="white"/>
<path d="M44.1268 48.5171C45.4381 48.5171 45.4319 46.5192 44.1268 46.513C42.8155 46.513 42.8216 48.5109 44.1268 48.5171Z" fill="white"/>
<path d="M45.1097 32.9985C46.421 32.9985 46.4148 31.0007 45.1097 30.9945C43.7984 30.9945 43.8046 32.9923 45.1097 32.9985Z" fill="white"/>
<path d="M71.5627 92.5334C72.3414 94.0538 74.0905 95.1662 75.8148 94.9746C78.2003 94.5791 80.3943 92.6879 80.6415 90.2034C80.9567 86.6869 77.7554 85.7722 74.8754 85.6918C74.381 85.6918 74.0719 85.9823 73.9545 86.3346C73.3612 86.5015 72.805 86.8105 72.3723 87.274C71.1857 88.7078 70.6789 90.8215 71.5565 92.5334L71.5627 92.5334Z" fill="#C95B47"/>
<path d="M64.3855 30.0562C65.6968 30.0562 65.6907 28.0583 64.3855 28.0521C63.0742 28.0521 63.0804 30.05 64.3855 30.0562Z" fill="white"/>
<path d="M70.7713 37.374C72.0826 37.374 72.0764 35.3761 70.7713 35.37C69.46 35.37 69.4662 37.3678 70.7713 37.374Z" fill="white"/>
<path d="M58.6687 38.3877C59.98 38.3877 59.9739 36.3898 58.6687 36.3836C57.3575 36.3836 57.3636 38.3815 58.6687 38.3877Z" fill="white"/>
<path d="M69.9544 53.2207C71.2657 53.2207 71.2595 51.2228 69.9544 51.2166C68.6431 51.2166 68.6493 53.2145 69.9544 53.2207Z" fill="white"/>
<path d="M58.0145 55.5439C59.3257 55.5439 59.3196 53.5461 58.0145 53.5399C56.7032 53.5399 56.7093 55.5378 58.0145 55.5439Z" fill="white"/>
<path d="M64.3855 43.7837C65.6968 43.7837 65.6907 41.7858 64.3855 41.7796C63.0742 41.7796 63.0804 43.7775 64.3855 43.7837Z" fill="white"/>
<path d="M52.4588 45.4146C53.7701 45.4146 53.7639 43.4167 52.4588 43.4105C51.1475 43.4105 51.1537 45.4084 52.4588 45.4146Z" fill="white"/>
<path d="M40.8582 56.688C42.1695 56.688 42.1633 54.6901 40.8582 54.6839C39.5469 54.6839 39.5531 56.6818 40.8582 56.688Z" fill="white"/>
<path d="M35.3074 59.4624C36.6187 59.4624 36.6125 57.4645 35.3074 57.4583C33.9961 57.4583 34.0023 59.4562 35.3074 59.4624Z" fill="white"/>
<path d="M81.0623 58.4492C82.3736 58.4492 82.3674 56.4513 81.0623 56.4452C79.751 56.4452 79.7572 58.443 81.0623 58.4492Z" fill="white"/>
<path d="M71.574 50.8037C72.8853 50.8037 72.8791 48.8058 71.574 48.7997C70.2627 48.7997 70.2689 50.7975 71.574 50.8037Z" fill="white"/>
<path d="M59.8133 59.3018C61.1246 59.3018 61.1184 57.3039 59.8133 57.2977C58.502 57.2977 58.5082 59.2956 59.8133 59.3018Z" fill="white"/>
<path d="M64.0584 49.6602C65.3697 49.6602 65.3635 47.6623 64.0584 47.6561C62.7471 47.6561 62.7533 49.654 64.0584 49.6602Z" fill="white"/>
<path d="M59.159 32.9985C60.4703 32.9985 60.4641 31.0007 59.159 30.9945C57.8477 30.9945 57.8539 32.9923 59.159 32.9985Z" fill="white"/>
<path d="M48.5398 33.9814C49.8511 33.9814 49.845 31.9836 48.5398 31.9774C47.2285 31.9774 47.2347 33.9753 48.5398 33.9814Z" fill="white"/>
<path d="M39.5784 95.469C39.9493 95.7039 40.3757 95.8707 40.8578 95.9202C42.4584 96.155 44.3434 96.1983 45.7031 95.1909C45.8638 95.0179 45.9936 94.8263 46.111 94.6285C47.6746 93.4419 48.8365 91.5137 48.2061 89.5483C47.9342 88.6028 47.3718 87.7066 46.5683 87.1318C45.3817 86.5694 43.985 86.5633 42.7798 87.0639C40.9134 87.7004 38.9419 88.7387 38.1508 90.6546C38.0457 90.9265 37.9778 91.217 37.9345 91.5075C37.5575 93.0958 38.0272 94.7583 39.5784 95.469Z" fill="#C95B47"/>
<path d="M68.2308 62.6147C69.5421 62.6147 69.5359 60.6169 68.2308 60.6107C66.9195 60.6107 66.9257 62.6086 68.2308 62.6147Z" fill="#222221"/>
<path d="M48.4168 63.8447C49.7281 63.8447 49.7219 61.8469 48.4168 61.8407C47.1055 61.8407 47.1117 63.8385 48.4168 63.8447Z" fill="#222221"/>
</svg>
