<svg width="119" height="208" viewBox="0 0 119 208" fill="none" xmlns="http://www.w3.org/2000/svg">
<path d="M31.972 149.214C29.9309 146.015 27.1904 143.363 24.7702 140.457C22.9067 138.552 21.5367 136.26 19.8138 134.249C18.4769 132.686 16.8007 131.519 15.2046 130.251C14.0255 129.269 11.9891 127.342 10.369 125.555C6.96291 121.992 6.03823 118.433 2.48694 114.87C0.619995 112.594 -3.64313 109.551 -4.88245 108.318C-5.57993 107.679 -6.23287 106.994 -6.85217 106.272C-7.56194 104.541 -9.90771 106 -8.77453 107.548C-5.2141 111.678 -0.985212 113.902 2.01199 117.755C4.13492 120.276 4.92786 122.331 7.0453 125.212C9.76129 128.468 12.8391 131.454 16.2642 133.963C17.5253 134.823 19.7044 137.791 21.181 139.813C23.5525 142.604 26.0122 145.313 28.3847 148.095C29.0284 148.924 29.6122 149.802 30.2024 150.666C30.3945 150.9 30.6702 151.047 30.972 151.082C31.9403 151.208 32.6181 149.969 31.9665 149.219L31.972 149.214Z" fill="#CCC3E0"/>
<path d="M36.685 144.776C30.097 136.745 24.0575 128.228 16.9667 120.628C15.1948 119.012 13.5609 117.264 11.8998 115.539C9.67934 113.499 8.39518 112.466 6.23677 110.101C4.45035 108.024 2.43873 106.149 0.65775 104.067C-0.0769904 103.348 -0.517375 101.879 -1.58441 101.689C-2.3015 101.603 -2.94972 102.289 -2.81998 103.003C-2.48632 103.931 -1.67773 104.662 -1.13312 105.481C1.81864 108.68 4.72293 111.954 7.87365 114.962C9.99024 116.787 10.8908 117.751 12.8844 119.86C14.6827 121.563 16.482 123.257 18.0542 125.174C23.4996 131.701 28.689 138.438 33.9993 145.066C34.5306 145.614 34.8509 146.527 35.6815 146.629C36.6454 146.749 37.3276 145.515 36.676 144.765L36.685 144.776Z" fill="#CCC3E0"/>
<path d="M39.1862 139.498C36.2878 135.454 34.6543 132.03 31.6615 127.727C29.3091 124.437 26.2653 121.715 23.8214 118.492C21.1951 115.29 18.9664 111.763 16.0516 108.798C12.5543 105.245 9.71995 103.189 6.56652 99.6002C6.1129 99.0251 5.63112 98.1269 4.75946 98.4411C4.21656 98.5677 3.86751 99.1637 3.95441 99.7027C4.0656 100.249 4.51701 100.644 4.83369 101.085C9.43594 106.218 14.0676 109.177 18.0083 114.625C20.2642 117.675 22.5726 120.7 25.0844 123.54C27.4804 126.083 29.7992 128.699 31.6091 131.705C32.6666 133.36 34.629 137.052 36.441 139.427C37.0023 140.078 37.2396 141.222 38.1926 141.352C39.1609 141.477 39.8387 140.238 39.1871 139.488L39.1862 139.498Z" fill="#CCC3E0"/>
<path d="M43.7161 132.751C40.6327 130.025 38.8182 126.203 35.8629 123.344C31.2901 118.725 24.9224 113.227 22.3669 108.346C20.676 105.808 19.0186 103.132 16.6289 101.185C15.2568 99.9788 12.3058 98.5466 11.7947 97.9457C11.1898 97.2305 11.4 97.3313 11.229 96.9341C11.1226 96.5934 11.1815 96.1989 10.9601 95.9068C10.2927 94.7601 8.51351 95.6003 8.89864 96.8692C9.19909 100.111 12.7117 100.973 14.8822 102.709C18.2495 105.348 20.2587 109.629 23.0196 113.495C26.8695 118.088 31.5132 121.939 35.5348 126.364C37.4244 128.512 38.8348 131.053 40.818 133.115C41.4345 133.611 41.8959 134.463 42.7072 134.608C43.6755 134.733 44.3533 133.494 43.7017 132.744L43.7161 132.751Z" fill="#CCC3E0"/>
<path d="M47.7822 126.371C46.2484 124.623 45.0828 122.592 43.4946 120.889C39.9189 116.863 35.8419 113.303 32.2554 109.286C29.8749 106.484 28.2118 103.158 25.864 100.329C24.4438 98.6978 22.5645 97.5616 20.9241 96.1837C20.0387 95.4708 19.0954 94.3319 18.0613 92.7937C17.3739 91.9003 15.8457 92.58 16.0507 93.6961C16.6898 95.1303 17.8389 96.3645 18.9448 97.4795C20.8636 99.2301 23.1718 100.534 24.2687 101.993C26.4731 104.703 28.0855 107.834 30.3062 110.53C33.6189 114.28 37.3731 117.613 40.7684 121.285C42.9195 123.319 44.2633 126.079 46.3693 128.113C47.3942 128.729 48.5766 127.295 47.7802 126.391L47.7822 126.371Z" fill="#CCC3E0"/>
<path d="M50.8276 120.656C48.8068 117.049 46.2419 113.734 43.4058 110.732C41.1692 108.449 38.1149 106.036 36.5277 104.423C32.5844 100.371 28.1858 94.0878 24.8081 91.0473C23.6431 89.7714 21.9242 91.6733 23.2926 92.7641C26.4322 95.581 30.2922 101.086 33.8755 104.932C37.0099 108.309 40.1866 110.394 42.8276 113.447C45.2348 116.281 47.2999 118.932 48.7447 121.582C49.342 122.932 51.4328 122.027 50.8276 120.656Z" fill="#CCC3E0"/>
<path d="M53.2621 113.142C51.7331 110.89 49.6875 109.107 47.6398 107.343C45.2404 105.24 43.6887 103.826 41.2774 101.286C38.8596 98.7608 36.6898 96.0047 34.1221 93.6296C32.202 92.044 31.2205 91.6469 29.9847 89.7185C28.9911 88.0743 26.9103 89.7903 28.2385 91.1874C28.8406 92.0324 29.4635 92.8695 30.2799 93.5205C31.2139 94.2482 32.1869 94.9347 33.0644 95.7269C37.3989 100.278 41.4225 105.138 46.2795 109.161C48.5643 111.157 49.7374 112.099 51.499 114.58C52.437 115.723 54.209 114.297 53.2631 113.132L53.2621 113.142Z" fill="#CCC3E0"/>
<path d="M53.2282 105.006C50.0616 101.602 44.2365 97.654 41.5091 95.5283C39.6769 93.6612 37.804 90.6341 37.0406 89.1927C36.3699 87.7755 34.2797 88.8251 34.9975 90.222C36.3572 92.5679 37.8016 94.9172 39.6671 96.9027C41.5229 98.532 43.6235 99.8602 45.5465 101.416C48.1786 103.392 49.8011 104.748 51.8227 106.724C52.8521 107.346 54.0301 105.906 53.2336 105.002L53.2282 105.006Z" fill="#CCC3E0"/>
<path d="M-15.0752 111.726C-23.1267 116.19 -30.7307 121.444 -37.7487 127.401C-30.3063 141.071 -20.15 153.252 -8.04548 163.033C-3.9718 166.323 0.492743 169.555 2.64878 174.327C10.4576 168.823 17.7706 162.614 23.4052 155.515C23.9686 155.18 24.532 154.845 25.0955 154.511C21.5621 148.638 16.4762 143.892 11.5692 139.11C2.28402 130.067 -6.6122 120.632 -15.0797 111.72L-15.0752 111.726Z" fill="#E8B518"/>
<path d="M-24.2427 179.342C-24.5006 179.116 -24.7562 178.816 -25.0394 178.593C-24.5794 179.154 -9.64928 165.531 -8.23154 164.095C-8.13702 163.999 -8.03609 163.889 -8.04319 163.758C-8.04681 163.643 -8.12274 163.55 -8.19964 163.467C-8.50629 163.127 -8.86291 162.836 -9.25515 162.603C-9.39696 162.519 -9.55414 162.438 -9.71663 162.462C-9.87368 162.481 -9.99989 162.594 -10.1162 162.708C-14.0378 166.344 -17.891 169.996 -22.0285 173.436C-23.8801 175.01 -26.0541 176.301 -27.8195 177.913C-27.9026 178.045 -27.9425 178.196 -27.9517 178.34C-30.347 179.44 -32.5234 180.451 -31.6848 183.716C-30.3662 187.289 -27.51 191.759 -23.3879 192.176C-22.6194 192.147 -21.7623 192.081 -21.1381 191.588C-20.4622 190.924 -20.1473 189.964 -19.9086 189.067C-19.3777 185.362 -21.9095 181.964 -24.2526 179.341L-24.2427 179.342ZM-23.1114 189.882C-23.5902 190.12 -25.7768 188.953 -26.4722 188.039C-27.8574 186.661 -29.0314 184.208 -29.4065 183.396C-29.6019 182.436 -29.6041 182.711 -29.4945 181.956C-29.4881 181.942 -29.4807 181.917 -29.4743 181.903C-29.4268 181.828 -29.3749 181.758 -29.3175 181.683C-28.7479 181.134 -27.6914 180.823 -26.6021 180.23C-26.4294 180.407 -26.2231 180.548 -26.0505 180.725C-24.1455 182.514 -21.1949 187.144 -22.2913 189.127C-22.3392 189.257 -22.4934 189.602 -22.5695 189.765C-22.7483 189.802 -22.9236 189.855 -23.1005 189.873L-23.1114 189.882Z" fill="#222221"/>
<path d="M77.9357 128.707C81.569 125.153 84.7519 121.194 87.8139 117.143C90.8688 113.061 93.8399 108.866 95.9417 104.2C96.8826 101.816 97.6058 99.3552 98.1977 96.8566C98.859 95.1756 99.3315 93.4308 99.6726 91.6481C100.075 89.0958 100.321 86.4981 100.1 83.9194C99.7275 80.7001 98.7166 77.558 97.3389 74.6349C94.7892 70.0499 91.677 65.7897 88.8292 61.3854C88.0747 60.3102 87.3103 59.234 86.5142 58.1746C86.4371 57.9919 86.313 57.8295 86.1553 57.7039C83.6648 54.4457 80.9084 51.3965 77.5247 49.026C74.2825 46.9946 70.7239 45.4324 66.9903 44.5785C66.5804 44.5231 66.1651 44.4721 65.7533 44.4364C58.3685 42.4515 50.1788 43.4495 42.9052 45.6087C39.8021 46.4783 36.8869 47.8768 33.9925 49.2674C29.8521 51.1154 25.8374 53.2611 22.0997 55.8444C18.3575 58.3222 14.8289 60.1055 10.5655 63.5026C9.77747 64.0853 8.97599 64.6517 8.21374 65.277C7.87072 65.5584 7.69645 66.0566 7.85456 66.4825C7.98558 67.0308 8.57267 67.369 9.11612 67.2875C9.59912 67.2101 9.92066 66.7915 10.3123 66.5249C11.2864 65.7804 12.2864 65.0785 13.2561 64.3286C16.4713 61.9189 17.8894 61.1382 20.7258 59.4216C24.244 57.237 26.3275 55.6463 29.7932 53.8417C33.9967 51.7597 38.2106 49.6237 42.6428 48.0647C46.514 46.8656 50.8484 45.9424 55.2287 45.7193C53.3577 46.4253 51.5448 47.3022 49.7279 48.1186C48.9971 48.5268 48.2886 48.9622 47.5836 49.4131C46.9774 49.6735 46.3713 49.9339 45.7706 50.1898C39.3875 53.2126 33.1572 56.6657 27.4907 60.895C22.8763 64.4526 18.3413 68.1181 13.7179 71.6648C14.0473 72.3328 14.4445 72.9724 14.8986 73.5927C22.6986 67.7226 30.0596 61.1286 37.9413 56.8127C38.4033 56.543 38.8732 56.2942 39.3386 56.0399C38.3308 57.1764 37.5218 58.4776 36.8214 59.8445C36.1742 60.8765 35.6409 61.9697 35.2093 63.098C30.0801 67.4604 25.0526 71.958 20.0495 76.4629C19.6283 76.8267 19.2205 77.2067 18.7983 77.5804C19.4059 78.0657 20.0308 78.5277 20.673 78.9664C25.1189 74.9368 29.597 70.9354 34.1475 67.0113C33.9166 68.5397 33.872 70.1065 34.0395 71.6542C34.0741 74.2946 34.925 76.7754 35.8547 79.219C36.3007 80.4289 36.8047 81.6095 37.3393 82.7831C37.4664 83.0159 37.5555 83.2798 37.6653 83.5359C37.6788 83.6523 37.7231 83.7617 37.7619 83.8757C38.2841 84.6678 38.7792 85.4822 39.2272 86.3171C35.4253 86.7124 31.6585 87.4614 27.954 88.4418C23.8511 86.7158 19.6213 85.3125 15.4641 83.7312C12.5289 82.6959 9.42119 82.2941 6.40074 81.5656C0.813478 80.3286 -4.92576 79.9722 -10.6093 79.4062C-13.5117 79.1547 -16.4137 78.8483 -19.3258 78.796C-21.5907 78.7776 -23.0348 78.9603 -24.8023 78.8709C-26.7395 77.864 -28.9036 77.2801 -31.0852 77.6853C-33.5605 78.1765 -36.1821 79.3888 -38.0554 81.0804C-40.9329 83.6685 -40.2202 88.0572 -36.1275 88.7714C-32.6235 89.1123 -29.1263 87.9013 -26.2386 85.9696C-24.9294 84.923 -23.4167 83.6912 -23.4414 81.8624C-23.3862 81.6076 -23.4177 81.3694 -23.5116 81.1549C-23.4621 81.1598 -23.4115 81.1548 -23.362 81.1597C-18.8366 80.8358 -12.9994 81.467 -7.64348 81.9557C-2.74881 82.5039 2.17827 82.8251 6.97069 84.0037C9.65655 84.6241 11.3276 84.8291 13.5542 85.4892C17.2056 86.7203 20.7833 88.1393 24.4016 89.4522C24.1178 89.5392 23.8295 89.6209 23.5502 89.7134C19.1299 90.8983 12.5886 93.2949 7.6032 95.8451C2.14195 98.6036 -3.24617 101.584 -8.3186 105.017C-8.51082 105.038 -8.70892 105.118 -8.89948 105.275C-11.0328 106.66 -12.9562 108.302 -14.9574 109.871C-16.956 111.21 -19.3061 112.764 -21.9102 114.508C-25.5054 116.866 -28.7706 119.681 -32.282 122.151C-32.4968 122.3 -32.729 122.472 -32.9676 122.659C-34.4154 123.437 -35.6456 124.646 -36.9579 125.623C-37.4019 126.014 -37.9945 126.391 -38.3834 126.883C-38.3942 126.892 -38.416 126.91 -38.4269 126.919C-38.7804 127.154 -39.237 127.319 -39.4268 127.721C-39.6192 127.997 -39.5849 128.461 -39.4467 128.785C-39.247 129.195 -38.9196 129.527 -38.5273 129.761C-38.4395 129.835 -38.3508 129.899 -38.2511 129.953C-38.2094 130.038 -38.1731 130.126 -38.1006 130.203C-35.5844 133.049 -33.5488 136.252 -31.33 139.323C-31.1176 139.604 -30.9061 139.896 -30.6937 140.177C-30.2425 140.371 -29.8605 140.759 -29.6471 141.386C-29.5969 141.536 -29.5348 141.667 -29.4836 141.807C-29.3292 142.018 -29.1649 142.229 -29.0106 142.439C-29.0695 142.479 -29.1195 142.529 -29.1774 142.558C-28.8673 143.269 -28.4909 143.917 -28.0149 144.519C-27.8927 144.446 -27.7748 144.368 -27.6659 144.278C-24.8744 148.137 -22.0729 151.996 -18.8294 155.484C-15.9257 158.257 -13.2784 161.296 -10.2793 163.963C-10.2659 163.98 -10.246 163.982 -10.2272 163.994C-8.72181 165.218 -7.2565 166.494 -5.75111 167.718C-5.55221 167.883 -5.40035 168.068 -5.26385 168.256C-2.48832 170.807 0.0595237 173.535 2.43653 175.967C2.48175 176.066 2.53241 176.161 2.61281 176.259C2.64407 176.298 2.67631 176.326 2.71302 176.359C2.73952 176.547 2.81655 176.73 2.96296 176.919C3.61059 177.709 4.63918 177.275 4.92516 176.558C5.07871 176.523 5.22529 176.457 5.36238 176.336C10.2663 170.91 18.0824 166.448 22.0808 161.628C23.2348 160.481 24.4122 159.352 25.6262 158.256C26.3156 157.608 27.0282 156.878 27.3228 155.971C27.3672 155.825 27.3656 155.69 27.3441 155.553C28.3326 155.17 29.1186 154.152 29.8242 153.391C31.1233 151.788 32.478 150.23 33.8004 148.644C35.4552 146.531 37.1987 144.481 38.6991 142.258C39.3112 141.227 39.899 140.19 40.4923 139.147C41.4173 137.888 42.2985 136.563 43.093 135.156C44.8988 132.272 47.2096 129.748 48.9777 126.84C50.6799 123.84 51.7697 120.505 52.3307 117.103C52.5191 117.577 52.7119 118.056 52.9221 118.512C56.719 115.735 60.4498 112.866 64.1226 109.926C64.5664 110.145 65.0056 110.358 65.4612 110.558C66.3041 110.942 67.1671 111.272 68.0495 111.559C63.5151 114.915 58.7865 117.955 54.448 120.695C54.8346 121.188 55.0733 121.812 55.0132 122.472C55.0862 122.594 55.1582 122.726 55.2312 122.849C59.7979 119.977 65.1113 116.638 69.6214 113.276C70.0486 112.952 70.457 112.617 70.8797 112.289C72.0285 112.512 73.1951 112.658 74.3695 112.723C76.2625 112.91 78.1998 112.851 80.0499 112.409C79.2399 113.264 78.4046 114.123 77.5312 115.012C73.5613 119.289 69.0611 123.008 64.3851 126.479C63.0529 127.454 61.761 128.477 60.4691 129.5C61.0104 130.049 61.5635 130.579 62.1385 131.091C63.4358 130.063 64.7377 129.041 66.0752 128.062C71.4018 124.185 76.2852 119.778 80.7652 114.946C82.1394 113.545 83.4679 112.1 84.7409 110.61C87.5545 109.176 90.131 107.254 92.5335 105.219C92.8389 104.914 93.1363 104.588 93.4282 104.267C93.3778 104.372 93.3363 104.488 93.2859 104.593C91.1988 108.755 88.4526 112.547 85.6593 116.26C81.2649 122.151 77.3273 126.456 71.8446 131.409C70.4211 132.649 69.0289 133.928 67.6457 135.217C68.3206 135.629 69.0063 136.032 69.7104 136.402C72.4874 133.869 75.3288 131.392 77.9699 128.716L77.9357 128.707ZM-30.6701 85.6973C-32.7625 86.5666 -35.8009 86.8822 -36.9218 86.071C-37.087 85.8695 -37.2414 85.6591 -37.3804 85.4453C-37.4321 85.3601 -37.4728 85.266 -37.5136 85.1719C-37.5225 85.161 -37.5161 85.1467 -37.5161 85.1467C-37.523 84.7607 -37.508 84.1017 -37.4392 84.0634C-37.3792 83.659 -36.4188 82.5979 -36.2837 82.4962C-34.5315 81.0679 -30.9555 79.5645 -29.1307 79.8347C-28.0539 79.926 -27.2285 80.2326 -26.3157 80.668C-26.3113 80.6734 -26.3068 80.6789 -26.3023 80.6843C-26.1019 80.8842 -25.8585 81.0033 -25.6002 81.0739C-25.7509 81.4343 -25.7236 81.8673 -25.7925 82.2608C-25.7925 82.2608 -25.7924 82.2608 -25.7979 82.2653C-25.8127 82.3138 -25.8419 82.356 -25.8611 82.3991C-26.8717 83.7655 -28.2687 84.7385 -30.6736 85.682L-30.6701 85.6973ZM42.5947 56.9668C41.6384 57.733 40.692 58.5003 39.7446 59.2774C40.383 58.2346 41.0997 57.3096 42.1412 56.4917C44.0966 54.6781 46.3528 52.9093 48.7758 51.3771C49.7003 50.983 50.6249 50.5889 51.5619 50.2211C53.9233 49.3133 55.987 48.5312 58.2789 47.9719C56.1553 48.8031 54.0616 49.7373 52.0299 50.8027C48.7044 52.556 45.6868 54.8401 42.5992 56.9722L42.5947 56.9668ZM39.8644 82.8523C39.844 82.8052 39.8336 82.7591 39.8033 82.7111C38.4299 79.6933 37.513 77.5763 36.5666 74.0352C36.0641 71.2686 36.0933 67.3735 37.0405 64.5197C39.2732 62.6335 41.5194 60.7636 43.7923 58.9264C49.6342 54.6443 54.6143 51.4881 61.6368 49.134C63.1717 48.64 64.7057 48.1559 66.2485 47.6827C66.6011 47.5574 67.0227 47.494 67.3649 47.3226C68.0069 47.5611 68.6424 47.814 69.2696 48.101C70.0321 48.4865 70.3142 48.6195 70.7397 48.8716C68.7421 49.0347 66.7492 49.4034 64.7995 49.8915C63.5656 50.175 62.3591 50.5363 61.155 50.9228C60.7404 51.017 60.3508 51.2638 60.2096 51.6801C59.9429 52.3544 60.4498 53.15 61.1644 53.2105C61.652 53.2386 62.0996 52.9625 62.5657 52.8534C63.5573 52.541 64.5856 52.2622 66.2068 51.9069C69.1542 51.2471 71.6347 50.9065 74.0301 51.0728C74.8889 51.1426 75.7472 51.2674 76.6021 51.3768C76.6615 51.3826 76.7319 51.3796 76.7923 51.3755C77.4138 51.8222 78.0115 52.3065 78.5928 52.8042C76.5243 54.0912 75.1079 55.0072 73.3042 56.0951C72.387 56.4649 72.4309 57.8953 73.3708 58.2083C74.1287 58.4883 74.7354 57.8176 75.3573 57.4987C77.0243 56.4773 78.669 55.4287 80.3271 54.3965C81.5709 55.6351 82.7335 56.9858 83.8542 58.4074C82.1128 59.8268 80.3179 61.1808 78.5498 62.5674C77.8555 63.2645 76.6153 63.6625 76.4036 64.6924C76.3123 65.4139 77.0043 66.0577 77.7177 65.9279C79.0523 65.3341 80.0923 64.1258 81.3096 63.3002C82.5738 62.2541 83.9822 61.3173 85.2394 60.2405C86.4466 61.9008 87.6053 63.6464 88.7719 65.4129C88.4464 65.4158 88.1171 65.5584 87.9 65.8822C87.4538 66.4486 87.0175 67.016 86.5301 67.5434C86.2422 67.9253 85.7476 68.2217 85.6635 68.7188C85.434 69.4717 86.1882 70.2467 86.9431 70.1011C87.6367 69.9694 87.9667 69.2614 88.4418 68.8079C88.89 68.2217 89.5037 67.6818 89.8254 67.008C90.6595 68.2912 91.5134 69.5764 92.3781 70.8527C91.0822 72.9815 90.0788 75.2893 88.5889 77.3039C87.8317 78.335 86.9633 79.2751 86.206 80.3062C85.9467 80.6008 85.7599 80.9727 85.8352 81.3754C85.9343 82.0957 86.7658 82.5431 87.4264 82.238C87.9033 82.0199 88.1147 81.5003 88.4521 81.1233C90.7088 78.589 92.226 75.8415 93.791 72.9637C94.427 73.9722 94.9888 75.0234 95.4792 76.0876C94.6393 77.1956 93.7061 78.2343 92.9262 79.3933C92.0494 80.7228 91.2613 82.1162 90.2581 83.3582C86.839 87.5291 83.0329 90.8062 78.646 94.7966C73.7757 99.0194 68.8241 103.154 63.7921 107.191C60.3981 105.33 56.7975 102.773 54.2858 100.388C49.0764 95.5256 44.7147 90.5415 41.2036 85.051C41.1842 84.9941 41.1891 84.9445 41.1598 84.8866C40.8737 84.3379 40.4171 83.4372 39.8654 82.8423L39.8644 82.8523ZM61.8721 108.748C59.7491 110.435 57.6181 112.101 55.4594 113.744C54.4723 114.517 53.4675 115.269 52.4571 116.025C52.462 115.975 52.4723 115.921 52.4827 115.867C52.6656 115.18 53.2634 112.622 53.4466 110.968C53.4811 110.822 53.6333 110.141 53.6727 109.945C53.7928 109.336 53.9815 108.845 54.1524 107.62C54.2757 106.016 54.5562 104.948 54.7912 103.836C57.0168 105.672 59.3745 107.335 61.8765 108.753L61.8721 108.748ZM-18.3608 115.049C-17.0796 114.135 -17.0648 114.086 -15.6536 113.375C-15.3882 113.221 -15.0836 113.126 -14.7968 113.009C-12.1798 114.833 -10.4124 116.799 -8.22477 119.122C-13.4229 121.901 -18.2452 123.307 -21.0134 120.276C-21.6623 119.652 -22.2894 119.009 -22.8884 118.335C-21.3706 117.254 -19.8528 116.173 -18.3618 115.059L-18.3608 115.049ZM15.6228 164.549C11.7209 167.731 7.48475 170.651 4.08994 174.374C3.74462 174.019 3.32057 173.702 3.02383 173.363C3.12503 173.453 3.36663 173.692 3.10269 173.426C-0.766086 169.176 -5.01042 165.334 -9.44923 161.689C-11.8692 159.338 -15.4504 155.672 -18.4551 152.553C-23.6114 146.19 -28.44 139.548 -33.0839 132.81C-34.1055 131.398 -35.2458 130.075 -36.348 128.72C-36.4195 128.633 -36.5028 128.565 -36.5871 128.506C-36.5985 128.47 -36.6253 128.438 -36.6422 128.406C-34.8427 127.157 -33.2378 125.65 -31.474 124.358C-30.0142 123.661 -28.7814 122.477 -27.4283 121.595C-26.5432 120.941 -25.6482 120.289 -24.7497 119.652C-22.7475 121.926 -20.3491 124.395 -17.1172 124.249C-14.5777 124.324 -12.152 123.373 -9.8249 122.456C-8.87017 122.01 -7.94223 121.531 -7.00787 121.038C-6.86128 120.973 -6.73703 120.88 -6.63065 120.765C-6.62618 120.771 -6.61725 120.782 -6.61278 120.787C-3.99889 123.252 -2.03138 126.283 0.46622 128.861C2.96199 131.56 6.88708 135.29 8.87611 136.937C10.8883 138.857 12.7515 140.917 14.7255 142.869C15.242 143.365 15.9515 144.085 16.6768 144.848C15.3122 145.949 14.7906 147.634 14.4414 149.295C13.5454 152.645 13.9385 156.266 15.1724 159.48C15.5055 160.364 15.9218 161.216 16.4124 162.025C16.6626 162.43 16.9105 162.909 17.2696 163.225C16.8094 163.63 16.2822 164.053 15.6139 164.538L15.6228 164.549ZM24.7822 155.805C24.0733 156.651 21.7425 158.618 20.3115 160.138C19.7969 160.687 19.3704 161.156 18.973 161.582C18.9408 161.554 18.9239 161.522 18.8907 161.504C18.8505 161.455 18.7687 161.422 18.6869 161.388C18.6601 161.356 18.6432 161.324 18.6129 161.276C15.9808 157.323 15.5631 151.518 17.3487 147.521C17.7635 146.816 17.8118 146.986 18.2284 146.517C18.923 147.286 19.4645 147.935 19.611 148.225C21.1735 150.696 22.6488 153.593 25.163 155.193C25.0379 155.395 24.9252 155.624 24.7723 155.804L24.7822 155.805ZM48.7056 120.978C48.7241 121.045 48.737 121.117 48.7555 121.184C48.6306 121.587 48.4894 122.003 48.321 122.442C47.3488 125.853 43.8982 128.975 41.7857 132.685C40.7116 134.34 39.6663 136.008 38.6675 137.711C37.67 139.149 36.6114 140.546 35.4174 141.844C33.2727 144.004 30.2434 147.928 27.6489 150.995C27.1628 151.712 26.6955 152.442 26.1815 153.136C25.7639 152.805 25.1404 152.278 24.7841 151.833C22.7446 149.48 22.3351 147.748 20.2385 145.314C17.1558 142.023 13.9687 138.826 10.787 135.625C7.75913 132.944 5.72476 131.097 2.78847 127.995C0.857127 126.118 -0.702031 123.917 -2.46264 121.882C-5.26297 118.924 -8.00494 115.881 -10.9716 113.086C-11.665 112.507 -12.3812 111.956 -13.1137 111.419C-12.4761 110.941 -11.8676 110.251 -11.2823 109.898C-2.55652 103.469 6.75307 98.2731 17.3572 94.0558C21.0123 92.8154 24.356 91.7394 27.8753 90.8108C27.9338 90.8266 27.9878 90.8369 28.0463 90.8527C28.3826 90.7408 28.7313 90.6551 29.0825 90.5947C29.1161 90.558 29.1552 90.5168 29.1844 90.4747C31.883 89.8003 34.708 89.2135 37.8895 88.7169C38.8019 88.4968 39.8054 88.6208 40.7069 88.4096C41.7201 89.8556 42.7822 91.2615 43.8761 92.6504C46.4844 95.8301 49.2963 98.9249 52.3576 101.724C52.4005 101.998 52.4777 102.281 52.5147 102.515C52.4874 103.248 52.3555 103.975 52.2192 104.698C51.6517 108.469 51.0555 110.707 50.2234 114.423C49.8333 116.246 49.6205 117.641 49.3285 119.028C49.3121 119.042 49.2968 119.045 49.276 119.053C49.1356 119.715 48.9511 120.367 48.7146 120.989L48.7056 120.978ZM70.3191 109.807C69.4398 109.59 68.5446 109.331 67.6147 109.019C67.1085 108.824 66.5855 108.598 66.0446 108.349C69.3892 105.642 72.6881 102.89 75.9657 100.101C81.8105 95.0789 87.7823 90.0891 92.616 84.0563C93.5163 82.8441 94.2434 81.5098 95.1159 80.275C95.5452 79.6768 96.0112 79.1124 96.4783 78.538C96.8358 79.529 97.1338 80.5142 97.36 81.4672C97.2674 81.5431 97.1749 81.6191 97.1037 81.7321C94.8983 84.862 92.7718 88.0547 90.3556 91.0387C87.0757 94.713 82.2012 99.4858 77.7333 103.333C75.4579 105.6 72.9381 107.758 70.3136 109.811L70.3191 109.807ZM79.3589 110.234C77.2857 110.604 75.2874 110.622 73.2417 110.36C75.5304 108.465 77.7467 106.492 79.896 104.437C82.3668 102.319 84.7642 100.134 87.0266 97.7955C88.7961 95.9886 90.598 94.21 92.2629 92.2978C93.4027 90.8891 94.4725 89.4285 95.5236 87.956C94.4987 90.4819 93.4693 93.0023 92.2917 95.453C91.2699 97.3387 89.2406 100.661 87.532 103.219C86.1299 105.308 84.7428 107.092 83.316 108.773C82.0523 109.409 80.8088 109.891 79.3579 110.244L79.3589 110.234ZM88.9195 105.233C91.9168 101.025 94.4781 96.5195 96.4312 91.7385C96.6885 91.1084 96.9449 90.4882 97.2067 89.8635C96.9679 91.8265 96.6004 93.8768 96.1278 95.8767C95.7875 96.7388 95.3977 97.596 94.9439 98.4419C93.3247 101.209 91.1846 103.475 88.9239 105.238L88.9195 105.233Z" fill="#222221"/>
<path d="M64.456 62.1314C65.2641 61.7508 65.8823 60.4058 64.083 59.5226C63.6642 59.4563 63.309 59.4562 63.0048 59.4963C62.7104 59.4372 62.3889 59.5005 62.1202 59.7392C60.6924 60.7191 59.0689 61.7048 58.1646 63.2117C57.8034 63.9817 58.2243 64.9389 59.0574 65.0662C59.4178 65.2168 59.7537 65.1599 60.0706 64.9911C61.7062 64.6421 63.0737 63.4111 64.2922 62.3204C64.3496 62.246 64.405 62.1914 64.4505 62.1359L64.456 62.1314Z" fill="#222221"/>
<path d="M80.0749 78.3393C81.1589 75.5191 77.9031 74.7924 75.9495 76.0306C75.032 76.5555 74.2957 77.3235 73.5534 78.0508C73.0162 78.7284 72.1626 79.2646 71.8614 80.0855C71.7188 80.5668 71.9339 80.9733 72.2746 81.2221C72.2462 81.5096 72.2565 81.8108 72.3516 82.1154C73.0132 83.4217 74.6535 82.823 75.7064 82.3965C77.5591 81.6237 79.1953 80.1539 80.0705 78.3339L80.0749 78.3393Z" fill="#222221"/>
<path d="M69.1168 84.9443C69.639 84.1151 68.9527 83.3118 68.4182 82.6936C67.3672 81.4791 66.1955 80.3726 65.09 79.2027C62.2376 76.2141 59.7489 72.836 56.849 69.9228C56.8796 69.0051 55.6754 68.4809 54.9963 69.0744C54.363 69.8125 54.6232 69.8632 54.3056 70.2421C52.9321 72.5985 51.6483 75.2639 52.1533 78.0558C52.6957 81.8372 55.734 85.2745 59.4252 86.2544C61.9237 86.8462 64.6181 86.822 67.0828 86.0845C67.8222 85.8423 68.7447 85.7232 69.1113 84.9487L69.1168 84.9443ZM57.659 82.9576C56.2399 81.7717 54.6391 79.9425 54.4137 77.7135C54.1275 75.8989 54.5072 74.8405 55.6572 72.4672C55.8025 72.2113 55.7204 72.3333 55.6517 72.4716C55.7086 72.3521 55.7698 72.2381 55.8366 72.1196C58.2332 74.808 60.5418 77.5779 62.9593 80.2583C64.0931 81.4961 65.3422 82.6302 66.4433 83.8948C62.973 84.7832 59.9932 84.504 57.6644 82.9532L57.659 82.9576Z" fill="#222221"/>
<path d="M53.8316 186.465C54.3893 185.48 54.6762 183.942 54.3466 182.718C54.4228 182.656 54.5045 182.589 54.5718 182.515C54.9365 182.116 55.3502 181.676 55.4932 181.14C55.6283 180.683 55.4465 180.295 55.1409 180.045C55.1401 179.799 55.069 179.557 54.8893 179.349C52.8972 177.176 50.351 175.394 47.3969 174.957C47.4586 174.788 47.4826 174.595 47.4427 174.391C47.1769 172.268 47.5751 169.045 47.8989 166.12C48.3137 161.917 49.1131 157.773 49.9709 153.644C50.9141 146.877 51.9609 140.125 52.4987 133.308C52.7677 130.938 52.4035 128.595 52.125 126.246C52.0035 124.588 52.1366 122.884 51.747 121.255C51.5764 120.703 51.6196 120.011 51.084 119.658C50.3058 119.076 49.1181 119.804 49.2982 120.768C49.87 122.731 49.7487 124.77 49.8901 126.786C50.3301 129.932 50.4731 131.727 50.0393 135.007C49.5394 141.237 48.5161 147.396 47.6703 153.582C46.8261 157.572 46.0756 161.576 45.6547 165.638C45.4327 168.698 44.6792 171.921 45.3212 174.947C42.9834 175.262 40.6402 176.391 39.6887 178.629C39.2323 179.705 39.3889 180.906 39.8723 181.94C40.2336 182.791 40.8635 183.659 41.7746 183.959C42.1043 186.449 44.7181 188.003 47.4592 188.468C47.6284 188.63 47.8466 188.752 48.1107 188.763C49.1477 188.75 50.2205 188.781 51.2175 188.464C52.2457 188.085 53.2734 187.406 53.8381 186.451L53.8316 186.465ZM45.6725 179.195C44.2765 179.447 42.8256 180.155 42.1836 181.438C41.4612 180.29 41.423 179.411 42.7425 178.31C45.293 176.5 48.8212 176.749 52.0388 179.738C52.139 179.838 52.2402 179.928 52.268 179.951C52.3414 180.018 52.4103 180.08 52.4783 180.152C51.8227 179.697 51.0578 179.386 50.2935 179.221C48.7728 178.81 47.1972 178.855 45.6725 179.195ZM44.5504 184.734C44.4878 184.657 44.3707 184.526 44.2913 184.418C44.2824 184.407 44.2744 184.386 44.2441 184.338C44.2193 184.286 44.189 184.237 44.1642 184.185C44.1269 184.106 44.0951 184.023 44.0633 183.94C44.0588 183.934 44.0588 183.934 44.0598 183.925C43.9611 183.049 43.9639 183.375 44.1602 182.603C44.1794 182.56 44.1942 182.512 44.2135 182.469C44.2793 182.36 44.3495 182.257 44.4242 182.159C44.5385 182.065 44.6474 181.976 44.7752 181.899C44.8385 181.865 44.9128 181.822 44.9861 181.789C45.7497 181.454 46.0004 181.449 47.2904 181.256C47.818 181.133 48.8101 181.221 49.9604 181.48C49.9748 181.486 50.3456 181.583 50.4874 181.667C50.7928 181.817 50.8785 181.81 51.4801 182.255C51.5605 182.353 51.6945 182.516 51.765 182.613C51.7918 182.646 51.823 182.684 51.8444 182.721C51.8613 182.753 51.8782 182.785 51.8896 182.821C52.0778 183.55 51.8456 184.433 51.7563 185.49C51.7454 185.499 51.7345 185.508 51.7281 185.522C51.6291 185.612 51.4747 185.757 51.3742 185.812C51.1766 185.938 51.0534 186.021 50.9563 186.091C50.8642 186.112 50.7711 186.143 50.6745 186.159C49.2761 186.486 49.2627 186.47 47.7903 186.229C46.7153 186.018 45.6748 185.66 44.5548 184.739L44.5504 184.734Z" fill="#222221"/>
</svg>
