<svg width="298" height="111" viewBox="0 0 298 111" fill="none" xmlns="http://www.w3.org/2000/svg">
<path d="M17.3755 4.29028V72.3828H0.788696V4.29028H17.3755Z" fill="#FFECCA"/>
<path d="M38.8099 70.7339C35.1236 69.118 32.2137 66.9016 30.0802 64.0912C27.9467 61.2775 26.7489 58.1254 26.4901 54.6348H42.8812C43.0736 56.5128 43.9496 58.0292 45.4991 59.1938C47.0519 60.3584 48.9565 60.9391 51.2227 60.9391C53.2898 60.9391 54.8924 60.5343 56.0239 59.728C57.1553 58.9217 57.7227 57.8699 57.7227 56.5759C57.7227 55.023 56.9131 53.875 55.2972 53.1317C53.6813 52.3885 51.0601 51.5656 47.4401 50.6598C43.5614 49.754 40.3263 48.8017 37.7415 47.7997C35.1535 46.7976 32.9238 45.2149 31.0491 43.0483C29.1711 40.8816 28.2354 37.9551 28.2354 34.2688C28.2354 31.1664 29.0914 28.3361 30.8069 25.7813C32.519 23.2264 35.0407 21.2057 38.372 19.7192C41.7033 18.2327 45.6617 17.4895 50.2538 17.4895C57.0425 17.4895 62.3945 19.1717 66.3064 22.5329C70.2184 25.8974 72.4647 30.3568 73.0487 35.9178H57.7227C57.4639 34.0431 56.6377 32.5567 55.2508 31.4551C53.8605 30.3568 52.0323 29.806 49.7694 29.806C47.8283 29.806 46.3419 30.1776 45.3066 30.9209C44.2714 31.6641 43.7538 32.6827 43.7538 33.9768C43.7538 35.5296 44.5767 36.6942 46.2257 37.4673C47.8748 38.2438 50.4463 39.0202 53.9368 39.7966C57.945 40.8318 61.2099 41.8505 63.735 42.8525C66.2567 43.8545 68.4698 45.4704 70.3777 47.7035C72.2855 49.9332 73.271 52.926 73.3373 56.6754C73.3373 59.8441 72.4481 62.6744 70.6696 65.1629C68.8912 67.6514 66.3363 69.6091 63.0083 71.0325C59.677 72.4526 55.8148 73.166 51.4184 73.166C46.6969 73.166 42.4963 72.3597 38.8099 70.7405V70.7339Z" fill="#FFECCA"/>
<path d="M100.114 0.604004V72.3829H83.527V0.604004H100.114Z" fill="#FFECCA"/>
<path d="M111.996 30.5758C114.096 26.3719 116.956 23.1401 120.579 20.8773C124.199 18.6144 128.241 17.4829 132.703 17.4829C136.519 17.4829 139.864 18.2593 142.744 19.8122C145.621 21.365 147.837 23.4023 149.387 25.924V18.2626H165.973V72.3863H149.387V64.725C147.771 67.2467 145.521 69.2839 142.644 70.8368C139.768 72.3896 136.42 73.166 132.604 73.166C128.204 73.166 124.196 72.018 120.576 69.7219C116.953 67.4259 114.093 64.1609 111.992 59.9238C109.889 55.69 108.84 50.7893 108.84 45.2283C108.84 39.6672 109.892 34.7864 111.992 30.5825L111.996 30.5758ZM145.946 35.523C143.65 33.1307 140.853 31.9329 137.554 31.9329C134.256 31.9329 131.459 33.1141 129.163 35.4733C126.867 37.8357 125.719 41.084 125.719 45.2216C125.719 49.3592 126.867 52.6407 129.163 55.0662C131.459 57.4917 134.256 58.7028 137.554 58.7028C140.853 58.7028 143.65 57.5083 145.946 55.1127C148.242 52.7204 149.39 49.4554 149.39 45.3145C149.39 41.1736 148.242 37.912 145.946 35.5164V35.523Z" fill="#FFECCA"/>
<path d="M226.162 23.8333C229.945 27.941 231.836 33.5817 231.836 40.7586V72.3794H215.346V42.9883C215.346 39.3683 214.407 36.5546 212.532 34.5505C210.657 32.5464 208.132 31.5444 204.967 31.5444C201.801 31.5444 199.276 32.5464 197.402 34.5505C195.527 36.5546 194.588 39.3683 194.588 42.9883V72.3794H178.001V18.259H194.588V25.4359C196.27 23.0436 198.533 21.1523 201.377 19.7621C204.22 18.3718 207.422 17.675 210.979 17.675C217.317 17.675 222.377 19.7289 226.159 23.8333H226.162Z" fill="#FFECCA"/>
<path d="M243.234 30.5757C245.334 26.3718 248.194 23.14 251.817 20.8771C255.437 18.6143 259.479 17.4828 263.941 17.4828C267.498 17.4828 270.747 18.226 273.69 19.7125C276.633 21.2023 278.942 23.2031 280.624 25.7248V0.604004H297.211V72.3829H280.624V64.622C279.072 67.2101 276.855 69.2772 273.982 70.83C271.105 72.3829 267.757 73.1593 263.941 73.1593C259.479 73.1593 255.437 72.0113 251.817 69.7152C248.194 67.4191 245.334 64.1542 243.234 59.9171C241.13 55.6833 240.081 50.7825 240.081 45.2215C240.081 39.6605 241.133 34.7797 243.234 30.5757ZM277.184 35.5229C274.888 33.1306 272.09 31.9328 268.792 31.9328C265.494 31.9328 262.697 33.114 260.401 35.4731C258.105 37.8356 256.957 41.0839 256.957 45.2215C256.957 49.3591 258.105 52.6406 260.401 55.0661C262.697 57.4916 265.494 58.7027 268.792 58.7027C272.09 58.7027 274.888 57.5082 277.184 55.1125C279.48 52.7203 280.628 49.4553 280.628 45.3144C280.628 41.1735 279.48 37.9119 277.184 35.5163V35.5229Z" fill="#FFECCA"/>
<path d="M34.1714 85.3564L27.094 110.232H23.5205L17.8467 90.2107L11.9605 110.232L8.42347 110.268L1.59497 85.3564H4.99263L10.3181 106.449L16.2042 85.3564H19.7778L25.3819 106.376L30.7405 85.3564H34.1747H34.1714Z" fill="#FFECCA"/>
<path d="M51.0204 87.9941V96.309H59.9193V98.9867H51.0204V107.551H60.9678V110.228H47.8317V85.3164H60.9678V87.9941H51.0204Z" fill="#FFECCA"/>
<path d="M90.621 98.5224C91.3576 99.1163 91.9415 99.8562 92.3729 100.736C92.8042 101.615 93.0199 102.557 93.0199 103.556C93.0199 104.817 92.7047 105.951 92.0743 106.963C91.4438 107.975 90.5281 108.772 89.3236 109.356C88.1192 109.94 86.7024 110.232 85.0666 110.232H75.9586V85.3564H84.7149C86.3739 85.3564 87.7841 85.6352 88.952 86.1959C90.12 86.7567 90.9959 87.5099 91.5799 88.4621C92.1639 89.4144 92.4558 90.4861 92.4558 91.674C92.4558 93.1505 92.0643 94.3682 91.2813 95.3304C90.4982 96.2927 89.4663 96.9895 88.1822 97.4175C89.0681 97.5602 89.8811 97.9284 90.6177 98.5224H90.621ZM79.1506 96.0969H84.5092C86.0023 96.0969 87.1603 95.7386 87.9765 95.0252C88.7927 94.3118 89.2009 93.323 89.2009 92.0622C89.2009 90.8013 88.7927 89.8126 87.9765 89.0992C87.1603 88.3858 85.9791 88.0275 84.4395 88.0275H79.1506V96.0936V96.0969ZM88.5041 106.413C89.39 105.653 89.8346 104.591 89.8346 103.237C89.8346 101.884 89.3668 100.769 88.4344 99.9724C87.4987 99.176 86.2511 98.7779 84.685 98.7779H79.1506V107.557H84.7912C86.3805 107.557 87.6182 107.176 88.5041 106.416V106.413Z" fill="#FFECCA"/>
<path d="M141.622 86.8728C143.573 87.8848 145.066 89.3314 146.105 91.2095C147.144 93.0908 147.664 95.3006 147.664 97.8488C147.664 100.397 147.144 102.6 146.105 104.468C145.066 106.336 143.57 107.763 141.622 108.752C139.671 109.741 137.365 110.232 134.704 110.232H127.103V85.3564H134.704C137.365 85.3564 139.671 85.8608 141.622 86.8728ZM141.921 105.002C143.58 103.3 144.409 100.915 144.409 97.8455C144.409 94.7763 143.573 92.3376 141.904 90.6022C140.235 88.8669 137.836 87.9976 134.708 87.9976H130.295V107.554H134.708C137.86 107.554 140.265 106.705 141.924 105.002H141.921Z" fill="#FFECCA"/>
<path d="M165.214 87.9941V96.309H174.112V98.9867H165.214V107.551H175.161V110.228H162.025V85.3164H175.161V87.9941H165.214Z" fill="#FFECCA"/>
<path d="M193.569 109.604C192.295 109.02 191.296 108.214 190.573 107.179C189.85 106.144 189.475 104.949 189.452 103.592H192.849C192.965 104.757 193.44 105.739 194.269 106.535C195.099 107.332 196.307 107.73 197.896 107.73C199.485 107.73 200.61 107.345 201.486 106.568C202.362 105.795 202.8 104.803 202.8 103.589C202.8 102.637 202.545 101.863 202.03 101.27C201.516 100.676 200.876 100.224 200.103 99.9125C199.333 99.6039 198.291 99.2688 196.984 98.9137C195.371 98.4857 194.08 98.0577 193.111 97.6297C192.143 97.2016 191.313 96.5281 190.623 95.6123C189.933 94.6965 189.591 93.4655 189.591 91.9193C189.591 90.5623 189.929 89.3611 190.606 88.316C191.283 87.2708 192.235 86.4612 193.46 85.8905C194.688 85.3198 196.091 85.0344 197.68 85.0344C199.97 85.0344 201.841 85.6184 203.301 86.783C204.761 87.9477 205.584 89.4938 205.77 91.4216H202.266C202.15 90.4693 201.659 89.6332 200.796 88.9066C199.933 88.1799 198.789 87.8182 197.362 87.8182C196.031 87.8182 194.946 88.17 194.104 88.8701C193.264 89.5735 192.843 90.5523 192.843 91.8132C192.843 92.719 193.095 93.4556 193.596 94.0263C194.097 94.597 194.717 95.0316 195.454 95.3303C196.191 95.6289 197.222 95.9673 198.553 96.3489C200.166 96.8001 201.46 97.2481 202.442 97.6861C203.424 98.1274 204.263 98.8042 204.963 99.72C205.664 100.636 206.015 101.88 206.015 103.449C206.015 104.664 205.7 105.805 205.07 106.877C204.439 107.949 203.504 108.818 202.266 109.482C201.028 110.149 199.568 110.48 197.886 110.48C196.204 110.48 194.834 110.188 193.559 109.604H193.569Z" fill="#FFECCA"/>
<path d="M224.062 85.3564V110.232H220.874V85.3564H224.062Z" fill="#FFECCA"/>
<path d="M258.145 92.563C257.468 91.1131 256.486 89.9883 255.202 89.1919C253.918 88.3956 252.421 87.9975 250.719 87.9975C249.017 87.9975 247.477 88.3956 246.114 89.1919C244.747 89.9883 243.672 91.133 242.892 92.6195C242.109 94.1059 241.717 95.8247 241.717 97.7757C241.717 99.7267 242.109 101.439 242.892 102.915C243.675 104.392 244.75 105.527 246.114 106.323C247.481 107.119 249.014 107.517 250.719 107.517C253.101 107.517 255.062 106.791 256.605 105.341C258.148 103.891 259.044 101.927 259.303 99.4513H249.564V96.8101H262.7V99.3086C262.515 101.356 261.884 103.227 260.809 104.929C259.734 106.631 258.321 107.975 256.572 108.961C254.82 109.95 252.869 110.441 250.722 110.441C248.456 110.441 246.389 109.9 244.521 108.818C242.653 107.736 241.176 106.23 240.091 104.302C239.006 102.374 238.462 100.198 238.462 97.7724C238.462 95.3469 239.006 93.1636 240.091 91.2226C241.176 89.2848 242.653 87.7718 244.521 86.6901C246.389 85.6085 248.456 85.0676 250.722 85.0676C253.314 85.0676 255.61 85.7213 257.604 87.0319C259.601 88.3392 261.055 90.184 261.964 92.563H258.145Z" fill="#FFECCA"/>
<path d="M296.256 110.232H293.067L280.246 90.423V110.232H277.058V85.3198H280.246L293.067 105.092V85.3198H296.256V110.232Z" fill="#FFECCA"/>
</svg>
